# Blender 5.2.0 LTS
# www.blender.org
o Cone
v 0.000000 -0.500000 -0.500000
v 0.097545 -0.500000 -0.490393
v 0.191342 -0.500000 -0.461940
v 0.277785 -0.500000 -0.415735
v 0.353553 -0.500000 -0.353553
v 0.415735 -0.500000 -0.277785
v 0.461940 -0.500000 -0.191342
v 0.490393 -0.500000 -0.097545
v 0.500000 -0.500000 0.000000
v 0.490393 -0.500000 0.097545
v 0.461940 -0.500000 0.191342
v 0.415735 -0.500000 0.277785
v 0.353553 -0.500000 0.353553
v 0.277785 -0.500000 0.415735
v 0.191342 -0.500000 0.461940
v 0.097545 -0.500000 0.490393
v 0.000000 -0.500000 0.500000
v -0.097545 -0.500000 0.490393
v -0.191342 -0.500000 0.461940
v -0.277785 -0.500000 0.415735
v -0.353553 -0.500000 0.353553
v -0.415735 -0.500000 0.277785
v -0.461940 -0.500000 0.191342
v -0.490393 -0.500000 0.097545
v -0.500000 -0.500000 0.000000
v -0.490393 -0.500000 -0.097545
v -0.461940 -0.500000 -0.191342
v -0.415735 -0.500000 -0.277785
v -0.353553 -0.500000 -0.353553
v -0.277785 -0.500000 -0.415735
v -0.191342 -0.500000 -0.461940
v -0.097545 -0.500000 -0.490393
v 0.000000 0.500000 -0.000000
vn -0.3423 -0.4472 0.8263
vn -0.4969 -0.4472 0.7437
vn -0.0000 -1.0000 -0.0000
vn 0.8263 -0.4472 -0.3423
vn 0.8772 -0.4472 -0.1745
vn -0.1745 -0.4472 -0.8772
vn -0.0000 -0.4472 -0.8944
vn -0.8944 -0.4472 -0.0000
vn -0.8772 -0.4472 -0.1745
vn 0.6325 -0.4472 0.6325
vn 0.4969 -0.4472 0.7437
vn -0.1745 -0.4472 0.8772
vn 0.7437 -0.4472 -0.4969
vn -0.3423 -0.4472 -0.8263
vn -0.8772 -0.4472 0.1745
vn 0.7437 -0.4472 0.4969
vn 0.6325 -0.4472 -0.6325
vn -0.4969 -0.4472 -0.7437
vn -0.0000 -0.4472 0.8944
vn -0.8263 -0.4472 0.3423
vn 0.8263 -0.4472 0.3423
vn 0.4969 -0.4472 -0.7437
vn -0.6325 -0.4472 -0.6325
vn -0.7437 -0.4472 0.4969
vn 0.8772 -0.4472 0.1745
vn 0.3423 -0.4472 -0.8263
vn -0.7437 -0.4472 -0.4969
vn 0.1745 -0.4472 0.8772
vn -0.6325 -0.4472 0.6325
vn 0.8944 -0.4472 -0.0000
vn 0.1745 -0.4472 -0.8772
vn -0.8263 -0.4472 -0.3423
vn 0.3423 -0.4472 0.8263
vn -0.0000 1.0000 -0.0000
vt 0.496114 -0.306557
vt 0.573021 -0.346824
vt 0.993438 0.549716
vt 0.003249 0.557395
vt 0.006381 0.470639
vt 0.188462 1.126386
vt 0.141048 1.053666
vt 0.667624 1.484798
vt 0.586977 1.452668
vt 0.133335 0.059046
vt 0.179615 -0.014401
vt 0.423028 -0.259708
vt 0.007726 0.644091
vt 0.242064 1.194674
vt 0.906710 -0.436699
vt 0.993438 -0.440504
vt 0.093665 0.136264
vt 0.019781 0.730062
vt 0.301440 1.258004
vt 0.354327 -0.206638
vt 0.820648 -0.425312
vt 0.060910 0.216659
vt 0.039318 0.814647
vt 0.366135 1.315890
vt 0.735915 -0.406431
vt 0.035323 0.299615
vt 0.066188 0.897195
vt 0.435651 1.367889
vt 0.290538 -0.147755
vt 0.653160 -0.380201
vt 0.017100 0.384492
vt 0.100186 0.977073
vt 0.509454 1.413598
vt 0.232151 -0.083511
vt 0.000100 0.450764
vt 0.019311 0.354185
vt 0.056994 0.263209
vt 0.111702 0.181332
vt 0.181332 0.111702
vt 0.263209 0.056994
vt 0.354185 0.019311
vt 0.450764 0.000100
vt 0.549236 0.000100
vt 0.645815 0.019311
vt 0.736791 0.056994
vt 0.818668 0.111702
vt 0.888298 0.181332
vt 0.943006 0.263209
vt 0.980689 0.354185
vt 0.999900 0.450764
vt 0.999900 0.549236
vt 0.980689 0.645816
vt 0.943006 0.736792
vt 0.888298 0.818668
vt 0.818668 0.888298
vt 0.736791 0.943006
vt 0.645815 0.980689
vt 0.549236 0.999900
vt 0.450764 0.999900
vt 0.354184 0.980689
vt 0.263208 0.943006
vt 0.181332 0.888298
vt 0.111702 0.818668
vt 0.056994 0.736791
vt 0.019311 0.645815
vt 0.000100 0.549236
s 1
f 3/1/1 4/2/2 33/3/3
f 23/4/4 24/5/5 33/3/3
f 16/6/6 17/7/7 33/3/3
f 9/8/8 10/9/9 33/3/3
f 29/10/10 30/11/11 33/3/3
f 2/12/12 3/1/1 33/3/3
f 22/13/13 23/4/4 33/3/3
f 15/14/14 16/6/6 33/3/3
f 8/15/15 9/16/8 33/3/3
f 28/17/16 29/10/10 33/3/3
f 21/18/17 22/13/13 33/3/3
f 14/19/18 15/14/14 33/3/3
f 1/20/19 2/12/12 33/3/3
f 7/21/20 8/15/15 33/3/3
f 27/22/21 28/17/16 33/3/3
f 20/23/22 21/18/17 33/3/3
f 13/24/23 14/19/18 33/3/3
f 6/25/24 7/21/20 33/3/3
f 26/26/25 27/22/21 33/3/3
f 19/27/26 20/23/22 33/3/3
f 12/28/27 13/24/23 33/3/3
f 32/29/28 1/20/19 33/3/3
f 5/30/29 6/25/24 33/3/3
f 25/31/30 26/26/25 33/3/3
f 18/32/31 19/27/26 33/3/3
f 11/33/32 12/28/27 33/3/3
f 31/34/33 32/29/28 33/3/3
f 4/2/2 5/30/29 33/3/3
f 24/5/5 25/31/30 33/3/3
f 17/7/7 18/32/31 33/3/3
f 1/35/34 32/36/34 31/37/34 30/38/34 29/39/34 28/40/34 27/41/34 26/42/34 25/43/34 24/44/34 23/45/34 22/46/34 21/47/34 20/48/34 19/49/34 18/50/34 17/51/34 16/52/34 15/53/34 14/54/34 13/55/34 12/56/34 11/57/34 10/58/34 9/59/34 8/60/34 7/61/34 6/62/34 5/63/34 4/64/34 3/65/34 2/66/34
f 30/11/11 31/34/33 33/3/3
f 10/9/9 11/33/32 33/3/3
