# Blender 5.2.0 LTS
# www.blender.org
o Cylinder
v 0.000000 -0.500000 -0.500000
v 0.000000 0.500000 -0.500000
v 0.097545 -0.500000 -0.490393
v 0.097545 0.500000 -0.490393
v 0.191342 -0.500000 -0.461940
v 0.191342 0.500000 -0.461940
v 0.277785 -0.500000 -0.415735
v 0.277785 0.500000 -0.415735
v 0.353553 -0.500000 -0.353553
v 0.353553 0.500000 -0.353553
v 0.415735 -0.500000 -0.277785
v 0.415735 0.500000 -0.277785
v 0.461940 -0.500000 -0.191342
v 0.461940 0.500000 -0.191342
v 0.490393 -0.500000 -0.097545
v 0.490393 0.500000 -0.097545
v 0.500000 -0.500000 0.000000
v 0.500000 0.500000 -0.000000
v 0.490393 -0.500000 0.097545
v 0.490393 0.500000 0.097545
v 0.461940 -0.500000 0.191342
v 0.461940 0.500000 0.191342
v 0.415735 -0.500000 0.277785
v 0.415735 0.500000 0.277785
v 0.353553 -0.500000 0.353553
v 0.353553 0.500000 0.353553
v 0.277785 -0.500000 0.415735
v 0.277785 0.500000 0.415735
v 0.191342 -0.500000 0.461940
v 0.191342 0.500000 0.461940
v 0.097545 -0.500000 0.490393
v 0.097545 0.500000 0.490393
v 0.000000 -0.500000 0.500000
v 0.000000 0.500000 0.500000
v -0.097545 -0.500000 0.490393
v -0.097545 0.500000 0.490393
v -0.191342 -0.500000 0.461940
v -0.191342 0.500000 0.461940
v -0.277785 -0.500000 0.415735
v -0.277785 0.500000 0.415735
v -0.353553 -0.500000 0.353553
v -0.353553 0.500000 0.353553
v -0.415735 -0.500000 0.277785
v -0.415735 0.500000 0.277785
v -0.461940 -0.500000 0.191342
v -0.461940 0.500000 0.191342
v -0.490393 -0.500000 0.097545
v -0.490393 0.500000 0.097545
v -0.500000 -0.500000 0.000000
v -0.500000 0.500000 -0.000000
v -0.490393 -0.500000 -0.097545
v -0.490393 0.500000 -0.097545
v -0.461940 -0.500000 -0.191342
v -0.461940 0.500000 -0.191342
v -0.415735 -0.500000 -0.277785
v -0.415735 0.500000 -0.277785
v -0.353553 -0.500000 -0.353553
v -0.353553 0.500000 -0.353553
v -0.277785 -0.500000 -0.415735
v -0.277785 0.500000 -0.415735
v -0.191342 -0.500000 -0.461940
v -0.191342 0.500000 -0.461940
v -0.097545 -0.500000 -0.490393
v -0.097545 0.500000 -0.490393
vn -0.0000 -0.0000 -1.0000
vn 0.1951 -0.0000 -0.9808
vn 0.3827 -0.0000 -0.9239
vn 0.5556 -0.0000 -0.8315
vn 0.7071 -0.0000 -0.7071
vn 0.8315 -0.0000 -0.5556
vn 0.9239 -0.0000 -0.3827
vn 0.9808 -0.0000 -0.1951
vn 1.0000 -0.0000 -0.0000
vn 0.9808 -0.0000 0.1951
vn 0.9239 -0.0000 0.3827
vn 0.8315 -0.0000 0.5556
vn 0.7071 -0.0000 0.7071
vn 0.5556 -0.0000 0.8315
vn 0.3827 -0.0000 0.9239
vn 0.1951 -0.0000 0.9808
vn -0.0000 -0.0000 1.0000
vn -0.1951 -0.0000 0.9808
vn -0.3827 -0.0000 0.9239
vn -0.5556 -0.0000 0.8315
vn -0.7071 -0.0000 0.7071
vn -0.8315 -0.0000 0.5556
vn -0.9239 -0.0000 0.3827
vn -0.9808 -0.0000 0.1951
vn -1.0000 -0.0000 -0.0000
vn -0.9808 -0.0000 -0.1951
vn -0.9239 -0.0000 -0.3827
vn -0.8315 -0.0000 -0.5556
vn -0.7071 -0.0000 -0.7071
vn -0.5556 -0.0000 -0.8315
vn -0.3827 -0.0000 -0.9239
vn -0.0000 1.0000 -0.0000
vn -0.1951 -0.0000 -0.9808
vn -0.0000 -1.0000 -0.0000
vt 3.059184 0.003527
vt 3.059184 0.996473
vt 2.965436 0.996473
vt 2.965436 0.003527
vt 2.871687 0.996473
vt 2.871687 0.003527
vt 2.777939 0.996473
vt 2.777939 0.003527
vt 2.684189 0.996473
vt 2.684189 0.003527
vt 2.590441 0.996473
vt 2.590441 0.003527
vt 2.496692 0.996473
vt 2.496693 0.003527
vt 2.402943 0.996473
vt 2.402944 0.003527
vt 2.309195 0.996473
vt 2.309195 0.003527
vt 2.215446 0.996473
vt 2.215446 0.003527
vt 2.121697 0.996473
vt 2.121697 0.003527
vt 2.027949 0.996473
vt 2.027949 0.003527
vt 1.934200 0.996473
vt 1.934200 0.003527
vt 1.840451 0.996473
vt 1.840451 0.003527
vt 1.746703 0.996473
vt 1.746703 0.003527
vt 1.652953 0.996473
vt 1.652953 0.003527
vt 1.559205 0.996473
vt 1.559205 0.003527
vt 1.465456 0.996473
vt 1.465456 0.003527
vt 1.371707 0.996473
vt 1.371707 0.003527
vt 1.277959 0.996473
vt 1.277959 0.003527
vt 1.184210 0.996473
vt 1.184210 0.003527
vt 1.090461 0.996473
vt 1.090461 0.003527
vt 0.996713 0.996473
vt 0.996713 0.003527
vt 0.902964 0.996473
vt 0.902964 0.003527
vt 0.809215 0.996473
vt 0.809215 0.003527
vt 0.715466 0.996473
vt 0.715466 0.003527
vt 0.621717 0.996473
vt 0.621717 0.003527
vt 0.527969 0.996473
vt 0.527969 0.003527
vt 0.434220 0.996473
vt 0.434220 0.003527
vt 0.340471 0.996473
vt 0.340471 0.003527
vt 0.246723 0.996473
vt 0.246723 0.003527
vt 0.263205 0.943004
vt 0.181330 0.888296
vt 0.111700 0.818666
vt 0.056992 0.736789
vt 0.019310 0.645813
vt 0.000100 0.549232
vt 0.000100 0.450761
vt 0.019311 0.354181
vt 0.056995 0.263205
vt 0.111704 0.181330
vt 0.181334 0.111700
vt 0.263211 0.056992
vt 0.354187 0.019310
vt 0.450768 0.000100
vt 0.549239 0.000100
vt 0.645819 0.019311
vt 0.736795 0.056995
vt 0.818670 0.111704
vt 0.888300 0.181334
vt 0.943008 0.263211
vt 0.980690 0.354187
vt 0.999900 0.450768
vt 0.999900 0.549239
vt 0.980689 0.645819
vt 0.943004 0.736795
vt 0.888296 0.818670
vt 0.818666 0.888300
vt 0.736789 0.943008
vt 0.645813 0.980690
vt 0.549232 0.999900
vt 0.450761 0.999900
vt 0.354181 0.980689
vt 0.152974 0.996473
vt 0.152974 0.003527
vt 0.059225 0.996473
vt 0.059225 0.003527
vt 0.888296 0.181330
vt 0.943004 0.263205
vt 0.980689 0.354181
vt 0.999900 0.450761
vt 0.999900 0.549232
vt 0.980690 0.645813
vt 0.943008 0.736789
vt 0.888300 0.818666
vt 0.818670 0.888296
vt 0.736795 0.943004
vt 0.645819 0.980689
vt 0.549239 0.999900
vt 0.450767 0.999900
vt 0.354187 0.980690
vt 0.263211 0.943008
vt 0.181334 0.888300
vt 0.111704 0.818670
vt 0.056995 0.736795
vt 0.019311 0.645819
vt 0.000100 0.549239
vt 0.000100 0.450767
vt 0.019310 0.354187
vt 0.056992 0.263211
vt 0.111700 0.181334
vt 0.181329 0.111704
vt 0.263205 0.056995
vt 0.354181 0.019311
vt 0.450760 0.000100
vt 0.549232 0.000100
vt 0.645812 0.019310
vt 0.736788 0.056992
vt 0.818666 0.111700
s 1
f 1/1/1 2/2/1 4/3/2 3/4/2
f 3/4/2 4/3/2 6/5/3 5/6/3
f 5/6/3 6/5/3 8/7/4 7/8/4
f 7/8/4 8/7/4 10/9/5 9/10/5
f 9/10/5 10/9/5 12/11/6 11/12/6
f 11/12/6 12/11/6 14/13/7 13/14/7
f 13/14/7 14/13/7 16/15/8 15/16/8
f 15/16/8 16/15/8 18/17/9 17/18/9
f 17/18/9 18/17/9 20/19/10 19/20/10
f 19/20/10 20/19/10 22/21/11 21/22/11
f 21/22/11 22/21/11 24/23/12 23/24/12
f 23/24/12 24/23/12 26/25/13 25/26/13
f 25/26/13 26/25/13 28/27/14 27/28/14
f 27/28/14 28/27/14 30/29/15 29/30/15
f 29/30/15 30/29/15 32/31/16 31/32/16
f 31/32/16 32/31/16 34/33/17 33/34/17
f 33/34/17 34/33/17 36/35/18 35/36/18
f 35/36/18 36/35/18 38/37/19 37/38/19
f 37/38/19 38/37/19 40/39/20 39/40/20
f 39/40/20 40/39/20 42/41/21 41/42/21
f 41/42/21 42/41/21 44/43/22 43/44/22
f 43/44/22 44/43/22 46/45/23 45/46/23
f 45/46/23 46/45/23 48/47/24 47/48/24
f 47/48/24 48/47/24 50/49/25 49/50/25
f 49/50/25 50/49/25 52/51/26 51/52/26
f 51/52/26 52/51/26 54/53/27 53/54/27
f 53/54/27 54/53/27 56/55/28 55/56/28
f 55/56/28 56/55/28 58/57/29 57/58/29
f 57/58/29 58/57/29 60/59/30 59/60/30
f 59/60/30 60/59/30 62/61/31 61/62/31
f 4/63/32 2/64/32 64/65/32 62/66/32 60/67/32 58/68/32 56/69/32 54/70/32 52/71/32 50/72/32 48/73/32 46/74/32 44/75/32 42/76/32 40/77/32 38/78/32 36/79/32 34/80/32 32/81/32 30/82/32 28/83/32 26/84/32 24/85/32 22/86/32 20/87/32 18/88/32 16/89/32 14/90/32 12/91/32 10/92/32 8/93/32 6/94/32
f 61/62/31 62/61/31 64/95/33 63/96/33
f 63/96/33 64/95/33 2/97/1 1/98/1
f 1/99/34 3/100/34 5/101/34 7/102/34 9/103/34 11/104/34 13/105/34 15/106/34 17/107/34 19/108/34 21/109/34 23/110/34 25/111/34 27/112/34 29/113/34 31/114/34 33/115/34 35/116/34 37/117/34 39/118/34 41/119/34 43/120/34 45/121/34 47/122/34 49/123/34 51/124/34 53/125/34 55/126/34 57/127/34 59/128/34 61/129/34 63/130/34
