# Blender 5.2.0 LTS
# www.blender.org
o Sphere
v -0.288675 -0.288675 0.288675
v -0.288675 0.288675 0.288675
v -0.288675 -0.288675 -0.288675
v -0.288675 0.288675 -0.288675
v 0.288675 -0.288675 0.288675
v 0.288675 0.288675 0.288675
v 0.288675 -0.288675 -0.288675
v 0.288675 0.288675 -0.288675
v -0.331330 -0.331330 -0.174474
v -0.353553 -0.353553 0.000000
v -0.331330 -0.331330 0.174474
v -0.331330 -0.174474 0.331330
v -0.353553 0.000000 0.353553
v -0.331330 0.174474 0.331330
v -0.331330 0.331330 0.174474
v -0.353553 0.353553 -0.000000
v -0.331330 0.331330 -0.174474
v -0.331330 0.174474 -0.331330
v -0.353553 -0.000000 -0.353553
v -0.331330 -0.174474 -0.331330
v 0.174474 -0.331330 -0.331330
v 0.000000 -0.353553 -0.353553
v -0.174474 -0.331330 -0.331330
v -0.174474 0.331330 -0.331330
v 0.000000 0.353553 -0.353553
v 0.174474 0.331330 -0.331330
v 0.331330 0.174474 -0.331330
v 0.353553 -0.000000 -0.353553
v 0.331330 -0.174474 -0.331330
v 0.331330 -0.331330 0.174474
v 0.353553 -0.353553 0.000000
v 0.331330 -0.331330 -0.174474
v 0.331330 0.331330 -0.174474
v 0.353553 0.353553 -0.000000
v 0.331330 0.331330 0.174474
v 0.331330 0.174474 0.331330
v 0.353553 0.000000 0.353553
v 0.331330 -0.174474 0.331330
v -0.174474 -0.331330 0.331330
v 0.000000 -0.353553 0.353553
v 0.174474 -0.331330 0.331330
v 0.174474 0.331330 0.331330
v 0.000000 0.353553 0.353553
v -0.174474 0.331330 0.331330
v -0.425387 -0.185803 0.185803
v -0.460252 0.000000 0.195366
v -0.425387 0.185803 0.185803
v -0.460252 -0.195366 0.000000
v -0.500000 0.000000 0.000000
v -0.460252 0.195366 -0.000000
v -0.425387 -0.185803 -0.185803
v -0.460252 -0.000000 -0.195366
v -0.425387 0.185803 -0.185803
v -0.185803 -0.185803 -0.425387
v -0.195366 -0.000000 -0.460252
v -0.185803 0.185803 -0.425388
v 0.000000 -0.195366 -0.460252
v 0.000000 -0.000000 -0.500000
v 0.000000 0.195366 -0.460252
v 0.185803 -0.185803 -0.425387
v 0.195366 -0.000000 -0.460252
v 0.185803 0.185803 -0.425387
v 0.425387 -0.185803 -0.185803
v 0.460252 -0.000000 -0.195366
v 0.425388 0.185803 -0.185803
v 0.460252 -0.195366 0.000000
v 0.500000 0.000000 0.000000
v 0.460252 0.195366 -0.000000
v 0.425387 -0.185803 0.185803
v 0.460252 0.000000 0.195366
v 0.425387 0.185803 0.185803
v 0.185803 -0.185803 0.425388
v 0.195366 0.000000 0.460252
v 0.185803 0.185803 0.425388
v 0.000000 -0.195366 0.460252
v 0.000000 0.000000 0.500000
v 0.000000 0.195366 0.460252
v -0.185803 -0.185803 0.425387
v -0.195366 0.000000 0.460252
v -0.185803 0.185803 0.425387
v -0.185803 -0.425387 -0.185803
v 0.000000 -0.460252 -0.195366
v 0.185803 -0.425387 -0.185803
v -0.195366 -0.460252 0.000000
v 0.000000 -0.500000 0.000000
v 0.195366 -0.460252 0.000000
v -0.185803 -0.425387 0.185803
v 0.000000 -0.460252 0.195366
v 0.185803 -0.425387 0.185803
v 0.185803 0.425387 -0.185803
v 0.000000 0.460252 -0.195366
v -0.185803 0.425388 -0.185803
v 0.195366 0.460252 -0.000000
v 0.000000 0.500000 -0.000000
v -0.195366 0.460252 -0.000000
v 0.185803 0.425387 0.185803
v 0.000000 0.460252 0.195366
v -0.185803 0.425387 0.185803
v -0.308780 -0.308780 -0.243535
v -0.347648 -0.347649 -0.091000
v -0.347648 -0.347649 0.091000
v -0.308780 -0.308780 0.243535
v -0.308780 -0.243535 0.308780
v -0.347649 -0.091000 0.347649
v -0.347649 0.091000 0.347649
v -0.308780 0.243535 0.308780
v -0.308780 0.308780 0.243535
v -0.347649 0.347649 0.091000
v -0.347649 0.347648 -0.091000
v -0.308780 0.308780 -0.243535
v -0.308780 0.243535 -0.308780
v -0.347649 0.091000 -0.347649
v -0.347648 -0.091000 -0.347649
v -0.308780 -0.243535 -0.308780
v 0.243535 -0.308780 -0.308780
v 0.091000 -0.347649 -0.347648
v -0.091000 -0.347649 -0.347648
v -0.243535 -0.308780 -0.308780
v -0.243535 0.308780 -0.308780
v -0.091000 0.347648 -0.347649
v 0.091000 0.347649 -0.347649
v 0.243535 0.308780 -0.308780
v 0.308780 0.243535 -0.308780
v 0.347649 0.091000 -0.347649
v 0.347649 -0.091000 -0.347648
v 0.308780 -0.243535 -0.308780
v 0.308780 -0.308780 0.243535
v 0.347649 -0.347649 0.091000
v 0.347649 -0.347649 -0.091000
v 0.308780 -0.308780 -0.243535
v 0.308780 0.308780 -0.243535
v 0.347649 0.347649 -0.091000
v 0.347649 0.347649 0.091000
v 0.308780 0.308780 0.243535
v 0.308780 0.243535 0.308780
v 0.347649 0.091000 0.347649
v 0.347648 -0.091000 0.347649
v 0.308780 -0.243535 0.308780
v -0.243535 -0.308780 0.308780
v -0.091000 -0.347649 0.347648
v 0.091000 -0.347649 0.347648
v 0.243535 -0.308780 0.308780
v 0.243535 0.308780 0.308780
v 0.091000 0.347649 0.347649
v -0.091000 0.347649 0.347649
v -0.243535 0.308780 0.308780
v -0.451324 -0.095956 0.192612
v -0.451324 0.095956 0.192612
v -0.451324 -0.192612 0.095956
v -0.489800 0.000000 0.100480
v -0.451324 0.192612 0.095956
v -0.489800 -0.100480 0.000000
v -0.489800 0.100480 -0.000000
v -0.451324 -0.192612 -0.095956
v -0.489800 -0.000000 -0.100480
v -0.451324 0.192612 -0.095956
v -0.451324 -0.095956 -0.192612
v -0.451324 0.095956 -0.192612
v -0.384933 -0.178136 0.264753
v -0.414064 0.000000 0.280270
v -0.384933 0.178136 0.264753
v -0.384933 0.264753 0.178136
v -0.414064 0.280270 -0.000000
v -0.384933 0.264753 -0.178136
v -0.384933 0.178136 -0.264753
v -0.414064 -0.000000 -0.280270
v -0.384933 -0.178136 -0.264753
v -0.384933 -0.264753 -0.178136
v -0.414064 -0.280270 0.000000
v -0.384933 -0.264753 0.178136
v -0.192612 -0.095956 -0.451324
v -0.192612 0.095956 -0.451324
v -0.095956 -0.192612 -0.451324
v -0.100480 -0.000000 -0.489800
v -0.095956 0.192612 -0.451324
v 0.000000 -0.100480 -0.489800
v 0.000000 0.100480 -0.489800
v 0.095956 -0.192612 -0.451324
v 0.100480 -0.000000 -0.489800
v 0.095956 0.192612 -0.451324
v 0.192612 -0.095956 -0.451324
v 0.192612 0.095956 -0.451324
v -0.264753 -0.178136 -0.384933
v -0.280269 -0.000000 -0.414064
v -0.264753 0.178136 -0.384933
v -0.178136 0.264753 -0.384933
v 0.000000 0.280270 -0.414064
v 0.178136 0.264753 -0.384933
v 0.264753 0.178136 -0.384933
v 0.280270 -0.000000 -0.414064
v 0.264753 -0.178136 -0.384933
v 0.178136 -0.264753 -0.384933
v 0.000000 -0.280270 -0.414064
v -0.178136 -0.264753 -0.384933
v 0.451324 -0.095956 -0.192612
v 0.451324 0.095956 -0.192612
v 0.451324 -0.192612 -0.095956
v 0.489800 -0.000000 -0.100480
v 0.451324 0.192612 -0.095956
v 0.489800 -0.100480 0.000000
v 0.489800 0.100480 -0.000000
v 0.451324 -0.192612 0.095956
v 0.489800 0.000000 0.100480
v 0.451324 0.192612 0.095956
v 0.451324 -0.095956 0.192612
v 0.451324 0.095956 0.192612
v 0.384933 -0.178136 -0.264753
v 0.414064 -0.000000 -0.280269
v 0.384933 0.178136 -0.264753
v 0.384933 0.264753 -0.178136
v 0.414064 0.280269 -0.000000
v 0.384933 0.264753 0.178136
v 0.384933 0.178136 0.264753
v 0.414064 0.000000 0.280270
v 0.384933 -0.178136 0.264753
v 0.384933 -0.264753 0.178136
v 0.414064 -0.280269 0.000000
v 0.384933 -0.264753 -0.178136
v 0.192612 -0.095956 0.451324
v 0.192612 0.095956 0.451324
v 0.095956 -0.192612 0.451324
v 0.100480 0.000000 0.489800
v 0.095956 0.192612 0.451324
v 0.000000 -0.100480 0.489800
v 0.000000 0.100480 0.489800
v -0.095956 -0.192612 0.451324
v -0.100480 0.000000 0.489800
v -0.095956 0.192612 0.451324
v -0.192612 -0.095956 0.451324
v -0.192612 0.095956 0.451324
v 0.264753 -0.178136 0.384933
v 0.280269 0.000000 0.414064
v 0.264753 0.178136 0.384933
v 0.178136 0.264753 0.384933
v 0.000000 0.280270 0.414064
v -0.178136 0.264753 0.384933
v -0.264753 0.178136 0.384933
v -0.280270 0.000000 0.414064
v -0.264753 -0.178136 0.384933
v -0.178136 -0.264753 0.384933
v 0.000000 -0.280270 0.414064
v 0.178136 -0.264753 0.384933
v -0.095956 -0.451324 -0.192612
v 0.095956 -0.451324 -0.192612
v -0.192612 -0.451324 -0.095956
v 0.000000 -0.489800 -0.100480
v 0.192612 -0.451324 -0.095956
v -0.100480 -0.489800 0.000000
v 0.100480 -0.489800 0.000000
v -0.192612 -0.451324 0.095956
v 0.000000 -0.489800 0.100480
v 0.192612 -0.451324 0.095956
v -0.095956 -0.451324 0.192612
v 0.095956 -0.451324 0.192612
v -0.178136 -0.384933 -0.264753
v 0.000000 -0.414064 -0.280269
v 0.178136 -0.384933 -0.264753
v 0.264753 -0.384933 -0.178136
v 0.280269 -0.414064 0.000000
v 0.264753 -0.384933 0.178136
v 0.178136 -0.384933 0.264753
v 0.000000 -0.414064 0.280270
v -0.178136 -0.384933 0.264753
v -0.264753 -0.384933 0.178136
v -0.280270 -0.414064 0.000000
v -0.264753 -0.384933 -0.178136
v 0.095956 0.451324 -0.192612
v -0.095956 0.451324 -0.192612
v 0.192612 0.451324 -0.095956
v 0.000000 0.489800 -0.100480
v -0.192612 0.451324 -0.095956
v 0.100480 0.489800 -0.000000
v -0.100480 0.489800 -0.000000
v 0.192612 0.451324 0.095956
v 0.000000 0.489800 0.100480
v -0.192612 0.451324 0.095956
v 0.095956 0.451324 0.192612
v -0.095956 0.451324 0.192612
v 0.178136 0.384933 -0.264753
v 0.000000 0.414064 -0.280269
v -0.178136 0.384933 -0.264753
v -0.264753 0.384933 -0.178136
v -0.280270 0.414064 -0.000000
v -0.264753 0.384933 0.178136
v -0.178136 0.384933 0.264753
v 0.000000 0.414064 0.280270
v 0.178136 0.384933 0.264753
v 0.264753 0.384933 0.178136
v 0.280269 0.414064 -0.000000
v 0.264753 0.384933 -0.178136
v -0.479943 -0.099134 0.099134
v -0.479943 0.099134 0.099134
v -0.479943 -0.099134 -0.099134
v -0.479943 0.099134 -0.099134
v -0.352196 -0.250956 0.250956
v -0.406520 -0.092575 0.275991
v -0.406521 0.092575 0.275991
v -0.352196 0.250956 0.250956
v -0.406521 0.275991 0.092575
v -0.406521 0.275991 -0.092575
v -0.352196 0.250956 -0.250956
v -0.406521 0.092575 -0.275991
v -0.406520 -0.092575 -0.275991
v -0.352196 -0.250956 -0.250956
v -0.406521 -0.275991 -0.092575
v -0.406521 -0.275991 0.092575
v -0.099134 -0.099134 -0.479943
v -0.099134 0.099134 -0.479943
v 0.099134 -0.099134 -0.479943
v 0.099134 0.099134 -0.479943
v -0.250956 -0.250956 -0.352196
v -0.275991 -0.092575 -0.406520
v -0.275991 0.092575 -0.406520
v -0.250956 0.250956 -0.352196
v -0.092575 0.275991 -0.406521
v 0.092575 0.275991 -0.406521
v 0.250956 0.250956 -0.352196
v 0.275991 0.092575 -0.406521
v 0.275991 -0.092575 -0.406520
v 0.250956 -0.250956 -0.352196
v 0.092575 -0.275991 -0.406521
v -0.092575 -0.275991 -0.406521
v 0.479943 -0.099134 -0.099134
v 0.479943 0.099134 -0.099134
v 0.479943 -0.099134 0.099134
v 0.479943 0.099134 0.099134
v 0.352196 -0.250956 -0.250956
v 0.406520 -0.092575 -0.275991
v 0.406520 0.092575 -0.275991
v 0.352196 0.250956 -0.250956
v 0.406521 0.275991 -0.092575
v 0.406521 0.275991 0.092575
v 0.352196 0.250956 0.250956
v 0.406521 0.092575 0.275991
v 0.406520 -0.092575 0.275991
v 0.352196 -0.250956 0.250956
v 0.406521 -0.275991 0.092575
v 0.406520 -0.275991 -0.092575
v 0.099134 -0.099134 0.479943
v 0.099134 0.099134 0.479943
v -0.099134 -0.099134 0.479943
v -0.099134 0.099134 0.479943
v 0.250956 -0.250956 0.352196
v 0.275991 -0.092575 0.406520
v 0.275991 0.092575 0.406520
v 0.250956 0.250956 0.352196
v 0.092575 0.275991 0.406521
v -0.092575 0.275991 0.406521
v -0.250956 0.250956 0.352196
v -0.275991 0.092575 0.406521
v -0.275991 -0.092575 0.406521
v -0.250956 -0.250956 0.352196
v -0.092575 -0.275991 0.406521
v 0.092575 -0.275991 0.406521
v -0.099134 -0.479943 -0.099134
v 0.099134 -0.479943 -0.099134
v -0.099134 -0.479943 0.099134
v 0.099134 -0.479943 0.099134
v -0.250956 -0.352196 -0.250956
v -0.092575 -0.406521 -0.275991
v 0.092575 -0.406521 -0.275991
v 0.250956 -0.352196 -0.250956
v 0.275991 -0.406521 -0.092575
v 0.275991 -0.406521 0.092575
v 0.250956 -0.352196 0.250956
v 0.092575 -0.406521 0.275991
v -0.092575 -0.406521 0.275991
v -0.250956 -0.352196 0.250956
v -0.275991 -0.406521 0.092575
v -0.275991 -0.406521 -0.092575
v 0.099134 0.479943 -0.099134
v -0.099134 0.479943 -0.099134
v 0.099134 0.479943 0.099134
v -0.099134 0.479943 0.099134
v 0.250956 0.352196 -0.250956
v 0.092575 0.406520 -0.275991
v -0.092575 0.406521 -0.275991
v -0.250956 0.352196 -0.250956
v -0.275991 0.406521 -0.092575
v -0.275991 0.406521 0.092575
v -0.250956 0.352196 0.250956
v -0.092575 0.406521 0.275991
v 0.092575 0.406521 0.275991
v 0.250956 0.352196 0.250956
v 0.275991 0.406521 0.092575
v 0.275991 0.406520 -0.092575
vn -0.8540 -0.3678 0.3678
vn -0.9043 -0.1896 0.3825
vn -0.9606 -0.1964 0.1964
vn -0.9043 -0.3825 0.1896
vn -0.9216 -0.0000 0.3882
vn -0.9800 -0.0000 0.1992
vn -1.0000 -0.0000 -0.0000
vn -0.9800 -0.1992 -0.0000
vn -0.9216 -0.3882 -0.0000
vn -0.9043 0.1896 0.3825
vn -0.9606 0.1964 0.1964
vn -0.8540 0.3678 0.3678
vn -0.9043 0.3825 0.1896
vn -0.9216 0.3882 -0.0000
vn -0.9800 0.1992 -0.0000
vn -0.9606 -0.1964 -0.1964
vn -0.9043 -0.3825 -0.1896
vn -0.9800 -0.0000 -0.1992
vn -0.9216 -0.0000 -0.3882
vn -0.9043 -0.1896 -0.3825
vn -0.8540 -0.3678 -0.3678
vn -0.9606 0.1964 -0.1964
vn -0.9043 0.3825 -0.1896
vn -0.8540 0.3678 -0.3678
vn -0.9043 0.1896 -0.3825
vn -0.5774 -0.5774 0.5774
vn -0.6213 -0.4775 0.6213
vn -0.7129 -0.4959 0.4959
vn -0.6213 -0.6213 0.4775
vn -0.6644 -0.3422 0.6644
vn -0.7740 -0.3506 0.5273
vn -0.7740 -0.5273 0.3506
vn -0.6644 -0.6644 0.3422
vn -0.6957 -0.1786 0.6957
vn -0.8148 -0.1821 0.5504
vn -0.7071 -0.0000 0.7071
vn -0.8292 -0.0000 0.5590
vn -0.6957 0.1786 0.6957
vn -0.8148 0.1821 0.5504
vn -0.6644 0.3422 0.6644
vn -0.7740 0.3506 0.5273
vn -0.6213 0.4775 0.6213
vn -0.7129 0.4959 0.4959
vn -0.5774 0.5774 0.5774
vn -0.6213 0.6213 0.4775
vn -0.6644 0.6644 0.3422
vn -0.7740 0.5273 0.3506
vn -0.8148 0.5504 0.1821
vn -0.6957 0.6957 0.1786
vn -0.7071 0.7071 -0.0000
vn -0.8292 0.5590 -0.0000
vn -0.8148 0.5504 -0.1821
vn -0.6957 0.6957 -0.1786
vn -0.6644 0.6644 -0.3422
vn -0.7740 0.5273 -0.3506
vn -0.7129 0.4959 -0.4959
vn -0.7740 0.3506 -0.5273
vn -0.6213 0.6213 -0.4775
vn -0.5774 0.5774 -0.5774
vn -0.6213 0.4775 -0.6213
vn -0.6644 0.3422 -0.6644
vn -0.8148 0.1821 -0.5504
vn -0.8292 -0.0000 -0.5590
vn -0.6957 0.1786 -0.6957
vn -0.7071 -0.0000 -0.7071
vn -0.8148 -0.1821 -0.5504
vn -0.7740 -0.3506 -0.5273
vn -0.6957 -0.1786 -0.6957
vn -0.6644 -0.3422 -0.6644
vn -0.6644 -0.6644 -0.3422
vn -0.7740 -0.5273 -0.3506
vn -0.7129 -0.4959 -0.4959
vn -0.6213 -0.6213 -0.4775
vn -0.6213 -0.4775 -0.6213
vn -0.5774 -0.5774 -0.5774
vn -0.7071 -0.7071 -0.0000
vn -0.8292 -0.5590 -0.0000
vn -0.8148 -0.5504 -0.1821
vn -0.6957 -0.6957 -0.1786
vn -0.8148 -0.5504 0.1821
vn -0.6957 -0.6957 0.1786
vn -0.3678 -0.3678 -0.8540
vn -0.3825 -0.1896 -0.9043
vn -0.1964 -0.1964 -0.9606
vn -0.1896 -0.3825 -0.9043
vn -0.3882 -0.0000 -0.9216
vn -0.1992 -0.0000 -0.9800
vn -0.0000 -0.0000 -1.0000
vn -0.0000 -0.1992 -0.9800
vn -0.0000 -0.3882 -0.9216
vn -0.3825 0.1896 -0.9043
vn -0.1964 0.1964 -0.9606
vn -0.3678 0.3678 -0.8540
vn -0.1896 0.3825 -0.9043
vn -0.0000 0.3882 -0.9216
vn -0.0000 0.1992 -0.9800
vn 0.1964 -0.1964 -0.9606
vn 0.1896 -0.3825 -0.9043
vn 0.1992 -0.0000 -0.9800
vn 0.3882 -0.0000 -0.9216
vn 0.3825 -0.1896 -0.9043
vn 0.3678 -0.3678 -0.8540
vn 0.1964 0.1964 -0.9606
vn 0.1896 0.3825 -0.9043
vn 0.3678 0.3678 -0.8540
vn 0.3825 0.1896 -0.9043
vn -0.4959 -0.4959 -0.7129
vn -0.4775 -0.6213 -0.6213
vn -0.5273 -0.3506 -0.7740
vn -0.3506 -0.5273 -0.7740
vn -0.3422 -0.6644 -0.6644
vn -0.5504 -0.1821 -0.8148
vn -0.5590 -0.0000 -0.8292
vn -0.5504 0.1821 -0.8148
vn -0.5273 0.3506 -0.7740
vn -0.4959 0.4959 -0.7129
vn -0.4775 0.6213 -0.6213
vn -0.3422 0.6644 -0.6644
vn -0.3506 0.5273 -0.7740
vn -0.1821 0.5504 -0.8148
vn -0.1786 0.6957 -0.6957
vn -0.0000 0.7071 -0.7071
vn -0.0000 0.5590 -0.8292
vn 0.1821 0.5504 -0.8148
vn 0.1786 0.6957 -0.6957
vn 0.3422 0.6644 -0.6644
vn 0.3506 0.5273 -0.7740
vn 0.4959 0.4959 -0.7129
vn 0.5273 0.3506 -0.7740
vn 0.4775 0.6213 -0.6213
vn 0.5774 0.5774 -0.5774
vn 0.6213 0.4775 -0.6213
vn 0.6644 0.3422 -0.6644
vn 0.5504 0.1821 -0.8148
vn 0.5590 -0.0000 -0.8292
vn 0.6957 0.1786 -0.6957
vn 0.7071 -0.0000 -0.7071
vn 0.5504 -0.1821 -0.8148
vn 0.5273 -0.3506 -0.7740
vn 0.6957 -0.1786 -0.6957
vn 0.6644 -0.3422 -0.6644
vn 0.3422 -0.6644 -0.6644
vn 0.3506 -0.5273 -0.7740
vn 0.4959 -0.4959 -0.7129
vn 0.4775 -0.6213 -0.6213
vn 0.6213 -0.4775 -0.6213
vn 0.5774 -0.5774 -0.5774
vn -0.0000 -0.7071 -0.7071
vn -0.0000 -0.5590 -0.8292
vn 0.1821 -0.5504 -0.8148
vn 0.1786 -0.6957 -0.6957
vn -0.1821 -0.5504 -0.8148
vn -0.1786 -0.6957 -0.6957
vn 0.8540 -0.3678 -0.3678
vn 0.9043 -0.1896 -0.3825
vn 0.9606 -0.1964 -0.1964
vn 0.9043 -0.3825 -0.1896
vn 0.9216 -0.0000 -0.3882
vn 0.9800 -0.0000 -0.1992
vn 1.0000 -0.0000 -0.0000
vn 0.9800 -0.1992 -0.0000
vn 0.9216 -0.3882 -0.0000
vn 0.9043 0.1896 -0.3825
vn 0.9606 0.1964 -0.1964
vn 0.8540 0.3678 -0.3678
vn 0.9043 0.3825 -0.1896
vn 0.9216 0.3882 -0.0000
vn 0.9800 0.1992 -0.0000
vn 0.9606 -0.1964 0.1964
vn 0.9043 -0.3825 0.1896
vn 0.9800 -0.0000 0.1992
vn 0.9216 -0.0000 0.3882
vn 0.9043 -0.1896 0.3825
vn 0.8540 -0.3678 0.3678
vn 0.9606 0.1964 0.1964
vn 0.9043 0.3825 0.1896
vn 0.8540 0.3678 0.3678
vn 0.9043 0.1896 0.3825
vn 0.7129 -0.4959 -0.4959
vn 0.6213 -0.6213 -0.4775
vn 0.7740 -0.3506 -0.5273
vn 0.7740 -0.5273 -0.3506
vn 0.6644 -0.6644 -0.3422
vn 0.8148 -0.1821 -0.5504
vn 0.8292 -0.0000 -0.5590
vn 0.8148 0.1821 -0.5504
vn 0.7740 0.3506 -0.5273
vn 0.7129 0.4959 -0.4959
vn 0.6213 0.6213 -0.4775
vn 0.6644 0.6644 -0.3422
vn 0.7740 0.5273 -0.3506
vn 0.8148 0.5504 -0.1821
vn 0.6957 0.6957 -0.1786
vn 0.7071 0.7071 -0.0000
vn 0.8292 0.5590 -0.0000
vn 0.8148 0.5504 0.1821
vn 0.6957 0.6957 0.1786
vn 0.6644 0.6644 0.3422
vn 0.7740 0.5273 0.3506
vn 0.7129 0.4959 0.4959
vn 0.7740 0.3506 0.5273
vn 0.6213 0.6213 0.4775
vn 0.5774 0.5774 0.5774
vn 0.6213 0.4775 0.6213
vn 0.6644 0.3422 0.6644
vn 0.8148 0.1821 0.5504
vn 0.8292 -0.0000 0.5590
vn 0.6957 0.1786 0.6957
vn 0.7071 -0.0000 0.7071
vn 0.8148 -0.1821 0.5504
vn 0.7740 -0.3506 0.5273
vn 0.6957 -0.1786 0.6957
vn 0.6644 -0.3422 0.6644
vn 0.6644 -0.6644 0.3422
vn 0.7740 -0.5273 0.3506
vn 0.7129 -0.4959 0.4959
vn 0.6213 -0.6213 0.4775
vn 0.6213 -0.4775 0.6213
vn 0.5774 -0.5774 0.5774
vn 0.7071 -0.7071 -0.0000
vn 0.8292 -0.5590 -0.0000
vn 0.8148 -0.5504 0.1821
vn 0.6957 -0.6957 0.1786
vn 0.8148 -0.5504 -0.1821
vn 0.6957 -0.6957 -0.1786
vn 0.3678 -0.3678 0.8540
vn 0.3825 -0.1896 0.9043
vn 0.1964 -0.1964 0.9606
vn 0.1896 -0.3825 0.9043
vn 0.3882 -0.0000 0.9216
vn 0.1992 -0.0000 0.9800
vn -0.0000 -0.0000 1.0000
vn -0.0000 -0.1992 0.9800
vn -0.0000 -0.3882 0.9216
vn 0.3825 0.1896 0.9043
vn 0.1964 0.1964 0.9606
vn 0.3678 0.3678 0.8540
vn 0.1896 0.3825 0.9043
vn -0.0000 0.3882 0.9216
vn -0.0000 0.1992 0.9800
vn -0.1964 -0.1964 0.9606
vn -0.1896 -0.3825 0.9043
vn -0.1992 -0.0000 0.9800
vn -0.3882 -0.0000 0.9216
vn -0.3825 -0.1896 0.9043
vn -0.3678 -0.3678 0.8540
vn -0.1964 0.1964 0.9606
vn -0.1896 0.3825 0.9043
vn -0.3678 0.3678 0.8540
vn -0.3825 0.1896 0.9043
vn 0.4959 -0.4959 0.7129
vn 0.4775 -0.6213 0.6213
vn 0.5273 -0.3506 0.7740
vn 0.3506 -0.5273 0.7740
vn 0.3422 -0.6644 0.6644
vn 0.5504 -0.1821 0.8148
vn 0.5590 -0.0000 0.8292
vn 0.5504 0.1821 0.8148
vn 0.5273 0.3506 0.7740
vn 0.4959 0.4959 0.7129
vn 0.4775 0.6213 0.6213
vn 0.3422 0.6644 0.6644
vn 0.3506 0.5273 0.7740
vn 0.1821 0.5504 0.8148
vn 0.1786 0.6957 0.6957
vn -0.0000 0.7071 0.7071
vn -0.0000 0.5590 0.8292
vn -0.1821 0.5504 0.8148
vn -0.1786 0.6957 0.6957
vn -0.3422 0.6644 0.6644
vn -0.3506 0.5273 0.7740
vn -0.4959 0.4959 0.7129
vn -0.5273 0.3506 0.7740
vn -0.4775 0.6213 0.6213
vn -0.5504 0.1821 0.8148
vn -0.5590 -0.0000 0.8292
vn -0.5504 -0.1821 0.8148
vn -0.5273 -0.3506 0.7740
vn -0.3422 -0.6644 0.6644
vn -0.3506 -0.5273 0.7740
vn -0.4959 -0.4959 0.7129
vn -0.4775 -0.6213 0.6213
vn -0.0000 -0.7071 0.7071
vn -0.0000 -0.5590 0.8292
vn -0.1821 -0.5504 0.8148
vn -0.1786 -0.6957 0.6957
vn 0.1821 -0.5504 0.8148
vn 0.1786 -0.6957 0.6957
vn -0.3678 -0.8540 -0.3678
vn -0.1896 -0.9043 -0.3825
vn -0.1964 -0.9606 -0.1964
vn -0.3825 -0.9043 -0.1896
vn -0.0000 -0.9216 -0.3882
vn -0.0000 -0.9800 -0.1992
vn -0.0000 -1.0000 -0.0000
vn -0.1992 -0.9800 -0.0000
vn -0.3882 -0.9216 -0.0000
vn 0.1896 -0.9043 -0.3825
vn 0.1964 -0.9606 -0.1964
vn 0.3678 -0.8540 -0.3678
vn 0.3825 -0.9043 -0.1896
vn 0.3882 -0.9216 -0.0000
vn 0.1992 -0.9800 -0.0000
vn -0.1964 -0.9606 0.1964
vn -0.3825 -0.9043 0.1896
vn -0.0000 -0.9800 0.1992
vn -0.0000 -0.9216 0.3882
vn -0.1896 -0.9043 0.3825
vn -0.3678 -0.8540 0.3678
vn 0.1964 -0.9606 0.1964
vn 0.3825 -0.9043 0.1896
vn 0.3678 -0.8540 0.3678
vn 0.1896 -0.9043 0.3825
vn -0.4959 -0.7129 -0.4959
vn -0.3506 -0.7740 -0.5273
vn -0.5273 -0.7740 -0.3506
vn -0.1821 -0.8148 -0.5504
vn -0.0000 -0.8292 -0.5590
vn 0.1821 -0.8148 -0.5504
vn 0.3506 -0.7740 -0.5273
vn 0.4959 -0.7129 -0.4959
vn 0.5273 -0.7740 -0.3506
vn 0.5504 -0.8148 -0.1821
vn 0.5590 -0.8292 -0.0000
vn 0.5504 -0.8148 0.1821
vn 0.5273 -0.7740 0.3506
vn 0.4959 -0.7129 0.4959
vn 0.3506 -0.7740 0.5273
vn 0.1821 -0.8148 0.5504
vn -0.0000 -0.8292 0.5590
vn -0.1821 -0.8148 0.5504
vn -0.3506 -0.7740 0.5273
vn -0.5273 -0.7740 0.3506
vn -0.4959 -0.7129 0.4959
vn -0.5590 -0.8292 -0.0000
vn -0.5504 -0.8148 0.1821
vn -0.5504 -0.8148 -0.1821
vn 0.3678 0.8540 -0.3678
vn 0.1896 0.9043 -0.3825
vn 0.1964 0.9606 -0.1964
vn 0.3825 0.9043 -0.1896
vn -0.0000 0.9216 -0.3882
vn -0.0000 0.9800 -0.1992
vn -0.0000 1.0000 -0.0000
vn 0.1992 0.9800 -0.0000
vn 0.3882 0.9216 -0.0000
vn -0.1896 0.9043 -0.3825
vn -0.1964 0.9606 -0.1964
vn -0.3678 0.8540 -0.3678
vn -0.3825 0.9043 -0.1896
vn -0.3882 0.9216 -0.0000
vn -0.1992 0.9800 -0.0000
vn 0.1964 0.9606 0.1964
vn 0.3825 0.9043 0.1896
vn -0.0000 0.9800 0.1992
vn -0.0000 0.9216 0.3882
vn 0.1896 0.9043 0.3825
vn 0.3678 0.8540 0.3678
vn -0.1964 0.9606 0.1964
vn -0.3825 0.9043 0.1896
vn -0.3678 0.8540 0.3678
vn -0.1896 0.9043 0.3825
vn 0.4959 0.7129 -0.4959
vn 0.3506 0.7740 -0.5273
vn 0.5273 0.7740 -0.3506
vn 0.1821 0.8148 -0.5504
vn -0.0000 0.8292 -0.5590
vn -0.1821 0.8148 -0.5504
vn -0.3506 0.7740 -0.5273
vn -0.4959 0.7129 -0.4959
vn -0.5273 0.7740 -0.3506
vn -0.5504 0.8148 -0.1821
vn -0.5590 0.8292 -0.0000
vn -0.5504 0.8148 0.1821
vn -0.5273 0.7740 0.3506
vn -0.4959 0.7129 0.4959
vn -0.3506 0.7740 0.5273
vn -0.1821 0.8148 0.5504
vn -0.0000 0.8292 0.5590
vn 0.1821 0.8148 0.5504
vn 0.3506 0.7740 0.5273
vn 0.5273 0.7740 0.3506
vn 0.4959 0.7129 0.4959
vn 0.5590 0.8292 -0.0000
vn 0.5504 0.8148 0.1821
vn 0.5504 0.8148 -0.1821
vt 0.766735 0.233265
vt 0.766735 0.364418
vt 0.635582 0.364418
vt 0.635582 0.233265
vt 0.766735 0.500000
vt 0.635582 0.500000
vt 0.500000 0.500000
vt 0.500000 0.364418
vt 0.500000 0.233265
vt 0.766735 0.635583
vt 0.635582 0.635583
vt 0.766735 0.766736
vt 0.635582 0.766736
vt 0.500000 0.766736
vt 0.500000 0.635583
vt 0.364417 0.364418
vt 0.364417 0.233265
vt 0.364417 0.500000
vt 0.233265 0.500000
vt 0.233265 0.364418
vt 0.233265 0.233265
vt 0.364417 0.635583
vt 0.364417 0.766736
vt 0.233265 0.766736
vt 0.233265 0.635583
vt 0.999900 0.000100
vt 0.999900 0.110812
vt 0.889188 0.110812
vt 0.889188 0.000100
vt 0.999900 0.233265
vt 0.889188 0.233265
vt 0.766735 0.110812
vt 0.766735 0.000100
vt 0.999900 0.364418
vt 0.889188 0.364418
vt 0.999900 0.500000
vt 0.889188 0.500000
vt 0.999900 0.635582
vt 0.889188 0.635583
vt 0.999900 0.766735
vt 0.889188 0.766736
vt 0.999900 0.889188
vt 0.889188 0.889188
vt 0.999900 0.999900
vt 0.889188 0.999900
vt 0.766735 0.999900
vt 0.766735 0.889188
vt 0.635582 0.889188
vt 0.635582 0.999900
vt 0.500000 0.999900
vt 0.500000 0.889188
vt 0.364417 0.889188
vt 0.364418 0.999900
vt 0.233265 0.999900
vt 0.233265 0.889188
vt 0.110812 0.889188
vt 0.110812 0.766736
vt 0.110812 0.999900
vt 0.000100 0.999900
vt 0.000100 0.889188
vt 0.000100 0.766735
vt 0.110812 0.635583
vt 0.110812 0.500000
vt 0.000100 0.635582
vt 0.000100 0.500000
vt 0.110812 0.364418
vt 0.110812 0.233265
vt 0.000100 0.364418
vt 0.000100 0.233265
vt 0.233265 0.000100
vt 0.233265 0.110812
vt 0.110812 0.110812
vt 0.110812 0.000100
vt 0.000100 0.110812
vt 0.000100 0.000100
vt 0.500000 0.000100
vt 0.500000 0.110812
vt 0.364417 0.110812
vt 0.364418 0.000100
vt 0.635582 0.110812
vt 0.635582 0.000100
vt 0.766735 0.635582
vt 0.635582 0.635582
vt 0.766735 0.766735
vt 0.635582 0.766735
vt 0.500000 0.766735
vt 0.500000 0.635582
vt 0.364418 0.364418
vt 0.364418 0.233265
vt 0.364418 0.500000
vt 0.364418 0.635582
vt 0.364418 0.766735
vt 0.233265 0.766735
vt 0.233265 0.635582
vt 0.889188 0.635582
vt 0.889188 0.766735
vt 0.364418 0.889188
vt 0.110812 0.766735
vt 0.110812 0.635582
vt 0.364418 0.110812
vt 0.766735 0.635583
vt 0.635582 0.635583
vt 0.500000 0.635583
vt 0.364418 0.635583
vt 0.233265 0.635583
vt 0.889188 0.110813
vt 0.766735 0.110813
vt 0.889188 0.635583
vt 0.999900 0.766736
vt 0.000100 0.766736
vt 0.110812 0.635583
vt 0.233265 0.110813
vt 0.110812 0.110813
vt 0.500000 0.110813
vt 0.364418 0.110813
vt 0.635582 0.110813
vt 0.635583 0.364418
vt 0.635583 0.233265
vt 0.635583 0.500000
vt 0.635583 0.635582
vt 0.635583 0.766735
vt 0.364419 0.364418
vt 0.364419 0.233265
vt 0.364419 0.500000
vt 0.364419 0.635582
vt 0.364419 0.766735
vt 0.635583 0.889188
vt 0.364419 0.889188
vt 0.110813 0.889188
vt 0.110813 0.766735
vt 0.110813 0.999900
vt 0.110813 0.635582
vt 0.110813 0.500000
vt 0.110813 0.364418
vt 0.110813 0.233265
vt 0.110813 0.110812
vt 0.110813 0.000100
vt 0.364419 0.110812
vt 0.635583 0.110812
vt 0.766736 0.766735
vt 0.766736 0.635582
vt 0.766736 0.500000
vt 0.635582 0.364418
vt 0.766736 0.364418
vt 0.500000 0.364418
vt 0.766736 0.233265
vt 0.364418 0.364418
vt 0.233265 0.364418
vt 0.889189 0.889188
vt 0.766736 0.999900
vt 0.766736 0.889188
vt 0.889189 0.766735
vt 0.635582 0.889188
vt 0.110812 0.364418
vt 0.110812 0.000100
vt 0.233265 0.000100
vt 0.500000 0.000100
vt 0.766736 0.110812
vt 0.635582 0.000100
vt 0.766736 0.000100
vt 0.889189 0.233265
vt 0.889189 0.110812
vt 0.889188 0.000100
vt 0.999900 0.000100
vt 0.889189 0.500000
vt 0.889189 0.364418
vt 0.999900 0.364418
vt 0.889189 0.635582
vt 0.364418 0.766735
vt 0.364418 0.635582
vt 0.233265 0.766735
vt 0.233265 0.635582
vt 0.233265 0.500000
vt 0.364418 0.500000
vt 0.766735 0.364418
vt 0.500000 0.233265
vt 0.635582 0.233265
vt 0.766735 0.233265
vt 0.364418 0.364418
vt 0.233265 0.364418
vt 0.233265 0.233265
vt 0.364418 0.233265
vt 0.999899 0.999900
vt 0.999899 0.889188
vt 0.999899 0.766735
vt 0.364418 0.999900
vt 0.364418 0.889188
vt 0.233265 0.999900
vt 0.233265 0.889188
vt 0.110812 0.999900
vt 0.110812 0.889188
vt 0.000100 0.999900
vt 0.000100 0.889188
vt 0.000100 0.766735
vt 0.110812 0.766735
vt 0.110812 0.635582
vt 0.000100 0.635582
vt 0.000100 0.500000
vt 0.110812 0.500000
vt 0.110812 0.364418
vt 0.000100 0.364418
vt 0.000100 0.233265
vt 0.110812 0.233265
vt 0.110812 0.110813
vt 0.233265 0.110813
vt 0.000100 0.110812
vt 0.000100 0.000100
vt 0.110812 0.000100
vt 0.233265 0.000100
vt 0.364418 0.110813
vt 0.500000 0.110813
vt 0.364418 0.000100
vt 0.500000 0.000100
vt 0.635582 0.110813
vt 0.766735 0.110813
vt 0.635582 0.000100
vt 0.766735 0.000100
vt 0.999899 0.233265
vt 0.889188 0.233265
vt 0.889188 0.110813
vt 0.999899 0.110812
vt 0.889188 0.000100
vt 0.999899 0.000100
vt 0.999899 0.500000
vt 0.889188 0.364418
vt 0.999899 0.364418
vt 0.999899 0.635582
s 1
f 45/1/1 147/2/2 291/3/3 149/4/4
f 147/2/2 46/5/5 150/6/6 291/3/3
f 291/3/3 150/6/6 49/7/7 152/8/8
f 149/4/4 291/3/3 152/8/8 48/9/9
f 46/5/5 148/10/10 292/11/11 150/6/6
f 148/10/10 47/12/12 151/13/13 292/11/11
f 292/11/11 151/13/13 50/14/14 153/15/15
f 150/6/6 292/11/11 153/15/15 49/7/7
f 48/9/9 152/8/8 293/16/16 154/17/17
f 152/8/8 49/7/7 155/18/18 293/16/16
f 293/16/16 155/18/18 52/19/19 157/20/20
f 154/17/17 293/16/16 157/20/20 51/21/21
f 49/7/7 153/15/15 294/22/22 155/18/18
f 153/15/15 50/14/14 156/23/23 294/22/22
f 294/22/22 156/23/23 53/24/24 158/25/25
f 155/18/18 294/22/22 158/25/25 52/19/19
f 1/26/26 103/27/27 295/28/28 102/29/29
f 103/27/27 12/30/30 159/31/31 295/28/28
f 295/28/28 159/31/31 45/1/1 170/32/32
f 102/29/29 295/28/28 170/32/32 11/33/33
f 12/30/30 104/34/34 296/35/35 159/31/31
f 104/34/34 13/36/36 160/37/37 296/35/35
f 296/35/35 160/37/37 46/5/5 147/2/2
f 159/31/31 296/35/35 147/2/2 45/1/1
f 13/36/36 105/38/38 297/39/39 160/37/37
f 105/38/38 14/40/40 161/41/41 297/39/39
f 297/39/39 161/41/41 47/12/12 148/10/10
f 160/37/37 297/39/39 148/10/10 46/5/5
f 14/40/40 106/42/42 298/43/43 161/41/41
f 106/42/42 2/44/44 107/45/45 298/43/43
f 298/43/43 107/45/45 15/46/46 162/47/47
f 161/41/41 298/43/43 162/47/47 47/12/12
f 47/12/12 162/47/47 299/48/48 151/13/13
f 162/47/47 15/46/46 108/49/49 299/48/48
f 299/48/48 108/49/49 16/50/50 163/51/51
f 151/13/13 299/48/48 163/51/51 50/14/14
f 50/14/14 163/51/51 300/52/52 156/23/23
f 163/51/51 16/50/50 109/53/53 300/52/52
f 300/52/52 109/53/53 17/54/54 164/55/55
f 156/23/23 300/52/52 164/55/55 53/24/24
f 53/24/24 164/55/55 301/56/56 165/57/57
f 164/55/55 17/54/54 110/58/58 301/56/56
f 301/56/56 110/58/58 4/59/59 111/60/60
f 165/57/57 301/56/56 111/60/60 18/61/61
f 52/19/19 158/25/25 302/62/62 166/63/63
f 158/25/25 53/24/24 165/57/57 302/62/62
f 302/62/62 165/57/57 18/61/61 112/64/64
f 166/63/63 302/62/62 112/64/64 19/65/65
f 51/21/21 157/20/20 303/66/66 167/67/67
f 157/20/20 52/19/19 166/63/63 303/66/66
f 303/66/66 166/63/63 19/65/65 113/68/68
f 167/67/67 303/66/66 113/68/68 20/69/69
f 9/70/70 168/71/71 304/72/72 99/73/73
f 168/71/71 51/21/21 167/67/67 304/72/72
f 304/72/72 167/67/67 20/69/69 114/74/74
f 99/73/73 304/72/72 114/74/74 3/75/75
f 10/76/76 169/77/77 305/78/78 100/79/79
f 169/77/77 48/9/9 154/17/17 305/78/78
f 305/78/78 154/17/17 51/21/21 168/71/71
f 100/79/79 305/78/78 168/71/71 9/70/70
f 11/33/33 170/32/32 306/80/80 101/81/81
f 170/32/32 45/1/1 149/4/4 306/80/80
f 306/80/80 149/4/4 48/9/9 169/77/77
f 101/81/81 306/80/80 169/77/77 10/76/76
f 54/1/82 171/2/83 307/3/84 173/4/85
f 171/2/83 55/5/86 174/6/87 307/3/84
f 307/3/84 174/6/87 58/7/88 176/8/89
f 173/4/85 307/3/84 176/8/89 57/9/90
f 55/5/86 172/82/91 308/83/92 174/6/87
f 172/82/91 56/84/93 175/85/94 308/83/92
f 308/83/92 175/85/94 59/86/95 177/87/96
f 174/6/87 308/83/92 177/87/96 58/7/88
f 57/9/90 176/8/89 309/88/97 178/89/98
f 176/8/89 58/7/88 179/90/99 309/88/97
f 309/88/97 179/90/99 61/19/100 181/20/101
f 178/89/98 309/88/97 181/20/101 60/21/102
f 58/7/88 177/87/96 310/91/103 179/90/99
f 177/87/96 59/86/95 180/92/104 310/91/103
f 310/91/103 180/92/104 62/93/105 182/94/106
f 179/90/99 310/91/103 182/94/106 61/19/100
f 3/26/75 114/27/74 311/28/107 118/29/108
f 114/27/74 20/30/69 183/31/109 311/28/107
f 311/28/107 183/31/109 54/1/82 194/32/110
f 118/29/108 311/28/107 194/32/110 23/33/111
f 20/30/69 113/34/68 312/35/112 183/31/109
f 113/34/68 19/36/65 184/37/113 312/35/112
f 312/35/112 184/37/113 55/5/86 171/2/83
f 183/31/109 312/35/112 171/2/83 54/1/82
f 19/36/65 112/38/64 313/95/114 184/37/113
f 112/38/64 18/40/61 185/96/115 313/95/114
f 313/95/114 185/96/115 56/84/93 172/82/91
f 184/37/113 313/95/114 172/82/91 55/5/86
f 18/40/61 111/42/60 314/43/116 185/96/115
f 111/42/60 4/44/59 119/45/117 314/43/116
f 314/43/116 119/45/117 24/46/118 186/47/119
f 185/96/115 314/43/116 186/47/119 56/84/93
f 56/84/93 186/47/119 315/48/120 175/85/94
f 186/47/119 24/46/118 120/49/121 315/48/120
f 315/48/120 120/49/121 25/50/122 187/51/123
f 175/85/94 315/48/120 187/51/123 59/86/95
f 59/86/95 187/51/123 316/97/124 180/92/104
f 187/51/123 25/50/122 121/53/125 316/97/124
f 316/97/124 121/53/125 26/54/126 188/55/127
f 180/92/104 316/97/124 188/55/127 62/93/105
f 62/93/105 188/55/127 317/56/128 189/98/129
f 188/55/127 26/54/126 122/58/130 317/56/128
f 317/56/128 122/58/130 8/59/131 123/60/132
f 189/98/129 317/56/128 123/60/132 27/61/133
f 61/19/100 182/94/106 318/99/134 190/63/135
f 182/94/106 62/93/105 189/98/129 318/99/134
f 318/99/134 189/98/129 27/61/133 124/64/136
f 190/63/135 318/99/134 124/64/136 28/65/137
f 60/21/102 181/20/101 319/66/138 191/67/139
f 181/20/101 61/19/100 190/63/135 319/66/138
f 319/66/138 190/63/135 28/65/137 125/68/140
f 191/67/139 319/66/138 125/68/140 29/69/141
f 21/70/142 192/71/143 320/72/144 115/73/145
f 192/71/143 60/21/102 191/67/139 320/72/144
f 320/72/144 191/67/139 29/69/141 126/74/146
f 115/73/145 320/72/144 126/74/146 7/75/147
f 22/76/148 193/77/149 321/100/150 116/79/151
f 193/77/149 57/9/90 178/89/98 321/100/150
f 321/100/150 178/89/98 60/21/102 192/71/143
f 116/79/151 321/100/150 192/71/143 21/70/142
f 23/33/111 194/32/110 322/80/152 117/81/153
f 194/32/110 54/1/82 173/4/85 322/80/152
f 322/80/152 173/4/85 57/9/90 193/77/149
f 117/81/153 322/80/152 193/77/149 22/76/148
f 63/1/154 195/2/155 323/3/156 197/4/157
f 195/2/155 64/5/158 198/6/159 323/3/156
f 323/3/156 198/6/159 67/7/160 200/8/161
f 197/4/157 323/3/156 200/8/161 66/9/162
f 64/5/158 196/101/163 324/102/164 198/6/159
f 196/101/163 65/84/165 199/85/166 324/102/164
f 324/102/164 199/85/166 68/86/167 201/103/168
f 198/6/159 324/102/164 201/103/168 67/7/160
f 66/9/162 200/8/161 325/88/169 202/89/170
f 200/8/161 67/7/160 203/90/171 325/88/169
f 325/88/169 203/90/171 70/19/172 205/20/173
f 202/89/170 325/88/169 205/20/173 69/21/174
f 67/7/160 201/103/168 326/104/175 203/90/171
f 201/103/168 68/86/167 204/92/176 326/104/175
f 326/104/175 204/92/176 71/93/177 206/105/178
f 203/90/171 326/104/175 206/105/178 70/19/172
f 7/26/147 126/27/146 327/106/179 130/29/180
f 126/27/146 29/30/141 207/31/181 327/106/179
f 327/106/179 207/31/181 63/1/154 218/107/182
f 130/29/180 327/106/179 218/107/182 32/33/183
f 29/30/141 125/34/140 328/35/184 207/31/181
f 125/34/140 28/36/137 208/37/185 328/35/184
f 328/35/184 208/37/185 64/5/158 195/2/155
f 207/31/181 328/35/184 195/2/155 63/1/154
f 28/36/137 124/38/136 329/108/186 208/37/185
f 124/38/136 27/109/133 209/96/187 329/108/186
f 329/108/186 209/96/187 65/84/165 196/101/163
f 208/37/185 329/108/186 196/101/163 64/5/158
f 27/109/133 123/42/132 330/43/188 209/96/187
f 123/42/132 8/44/131 131/45/189 330/43/188
f 330/43/188 131/45/189 33/46/190 210/47/191
f 209/96/187 330/43/188 210/47/191 65/84/165
f 65/84/165 210/47/191 331/48/192 199/85/166
f 210/47/191 33/46/190 132/49/193 331/48/192
f 331/48/192 132/49/193 34/50/194 211/51/195
f 199/85/166 331/48/192 211/51/195 68/86/167
f 68/86/167 211/51/195 332/97/196 204/92/176
f 211/51/195 34/50/194 133/53/197 332/97/196
f 332/97/196 133/53/197 35/54/198 212/55/199
f 204/92/176 332/97/196 212/55/199 71/93/177
f 71/93/177 212/55/199 333/56/200 213/98/201
f 212/55/199 35/54/198 134/58/202 333/56/200
f 333/56/200 134/58/202 6/59/203 135/60/204
f 213/98/201 333/56/200 135/60/204 36/110/205
f 70/19/172 206/105/178 334/111/206 214/63/207
f 206/105/178 71/93/177 213/98/201 334/111/206
f 334/111/206 213/98/201 36/110/205 136/64/208
f 214/63/207 334/111/206 136/64/208 37/65/209
f 69/21/174 205/20/173 335/66/210 215/67/211
f 205/20/173 70/19/172 214/63/207 335/66/210
f 335/66/210 214/63/207 37/65/209 137/68/212
f 215/67/211 335/66/210 137/68/212 38/69/213
f 30/70/214 216/112/215 336/113/216 127/73/217
f 216/112/215 69/21/174 215/67/211 336/113/216
f 336/113/216 215/67/211 38/69/213 138/74/218
f 127/73/217 336/113/216 138/74/218 5/75/219
f 31/76/220 217/114/221 337/115/222 128/79/223
f 217/114/221 66/9/162 202/89/170 337/115/222
f 337/115/222 202/89/170 69/21/174 216/112/215
f 128/79/223 337/115/222 216/112/215 30/70/214
f 32/33/183 218/107/182 338/116/224 129/81/225
f 218/107/182 63/1/154 197/4/157 338/116/224
f 338/116/224 197/4/157 66/9/162 217/114/221
f 129/81/225 338/116/224 217/114/221 31/76/220
f 72/1/226 219/2/227 339/117/228 221/118/229
f 219/2/227 73/5/230 222/119/231 339/117/228
f 339/117/228 222/119/231 76/7/232 224/8/233
f 221/118/229 339/117/228 224/8/233 75/9/234
f 73/5/230 220/82/235 340/120/236 222/119/231
f 220/82/235 74/84/237 223/121/238 340/120/236
f 340/120/236 223/121/238 77/86/239 225/87/240
f 222/119/231 340/120/236 225/87/240 76/7/232
f 75/9/234 224/8/233 341/122/241 226/123/242
f 224/8/233 76/7/232 227/124/243 341/122/241
f 341/122/241 227/124/243 79/19/244 229/20/245
f 226/123/242 341/122/241 229/20/245 78/21/246
f 76/7/232 225/87/240 342/125/247 227/124/243
f 225/87/240 77/86/239 228/126/248 342/125/247
f 342/125/247 228/126/248 80/93/249 230/94/250
f 227/124/243 342/125/247 230/94/250 79/19/244
f 5/26/219 138/27/218 343/28/251 142/29/252
f 138/27/218 38/30/213 231/31/253 343/28/251
f 343/28/251 231/31/253 72/1/226 242/32/254
f 142/29/252 343/28/251 242/32/254 41/33/255
f 38/30/213 137/34/212 344/35/256 231/31/253
f 137/34/212 37/36/209 232/37/257 344/35/256
f 344/35/256 232/37/257 73/5/230 219/2/227
f 231/31/253 344/35/256 219/2/227 72/1/226
f 37/36/209 136/38/208 345/95/258 232/37/257
f 136/38/208 36/40/205 233/96/259 345/95/258
f 345/95/258 233/96/259 74/84/237 220/82/235
f 232/37/257 345/95/258 220/82/235 73/5/230
f 36/40/205 135/42/204 346/43/260 233/96/259
f 135/42/204 6/44/203 143/45/261 346/43/260
f 346/43/260 143/45/261 42/46/262 234/47/263
f 233/96/259 346/43/260 234/47/263 74/84/237
f 74/84/237 234/47/263 347/127/264 223/121/238
f 234/47/263 42/46/262 144/49/265 347/127/264
f 347/127/264 144/49/265 43/50/266 235/51/267
f 223/121/238 347/127/264 235/51/267 77/86/239
f 77/86/239 235/51/267 348/128/268 228/126/248
f 235/51/267 43/50/266 145/53/269 348/128/268
f 348/128/268 145/53/269 44/54/270 236/55/271
f 228/126/248 348/128/268 236/55/271 80/93/249
f 80/93/249 236/55/271 349/129/272 237/130/273
f 236/55/271 44/54/270 146/131/274 349/129/272
f 349/129/272 146/131/274 2/59/44 106/60/42
f 237/130/273 349/129/272 106/60/42 14/61/40
f 79/19/244 230/94/250 350/132/275 238/133/276
f 230/94/250 80/93/249 237/130/273 350/132/275
f 350/132/275 237/130/273 14/61/40 105/64/38
f 238/133/276 350/132/275 105/64/38 13/65/36
f 78/21/246 229/20/245 351/134/277 239/135/278
f 229/20/245 79/19/244 238/133/276 351/134/277
f 351/134/277 238/133/276 13/65/36 104/68/34
f 239/135/278 351/134/277 104/68/34 12/69/30
f 39/70/279 240/71/280 352/136/281 139/137/282
f 240/71/280 78/21/246 239/135/278 352/136/281
f 352/136/281 239/135/278 12/69/30 103/74/27
f 139/137/282 352/136/281 103/74/27 1/75/26
f 40/76/283 241/77/284 353/138/285 140/79/286
f 241/77/284 75/9/234 226/123/242 353/138/285
f 353/138/285 226/123/242 78/21/246 240/71/280
f 140/79/286 353/138/285 240/71/280 39/70/279
f 41/33/255 242/32/254 354/139/287 141/81/288
f 242/32/254 72/1/226 221/118/229 354/139/287
f 354/139/287 221/118/229 75/9/234 241/77/284
f 141/81/288 354/139/287 241/77/284 40/76/283
f 81/140/289 243/85/290 355/83/291 245/141/292
f 243/85/290 82/86/293 246/87/294 355/83/291
f 355/83/291 246/87/294 85/7/295 248/6/296
f 245/141/292 355/83/291 248/6/296 84/142/297
f 82/86/293 244/92/298 356/91/299 246/87/294
f 244/92/298 83/93/300 247/94/301 356/91/299
f 356/91/299 247/94/301 86/19/302 249/90/303
f 246/87/294 356/91/299 249/90/303 85/7/295
f 84/142/297 248/6/296 357/143/304 250/144/305
f 248/6/296 85/7/295 251/145/306 357/143/304
f 357/143/304 251/145/306 88/9/307 253/4/308
f 250/144/305 357/143/304 253/4/308 87/146/309
f 85/7/295 249/90/303 358/147/310 251/145/306
f 249/90/303 86/19/302 252/148/311 358/147/310
f 358/147/310 252/148/311 89/21/312 254/89/313
f 251/145/306 358/147/310 254/89/313 88/9/307
f 3/44/75 118/45/108 359/149/314 99/42/73
f 118/45/108 23/150/111 255/151/315 359/149/314
f 359/149/314 255/151/315 81/140/289 266/152/316
f 99/42/73 359/149/314 266/152/316 9/40/70
f 23/150/111 117/49/153 360/153/317 255/151/315
f 117/49/153 22/50/148 256/51/318 360/153/317
f 360/153/317 256/51/318 82/86/293 243/85/290
f 255/151/315 360/153/317 243/85/290 81/140/289
f 22/50/148 116/53/151 361/97/319 256/51/318
f 116/53/151 21/54/142 257/55/320 361/97/319
f 361/97/319 257/55/320 83/93/300 244/92/298
f 256/51/318 361/97/319 244/92/298 82/86/293
f 21/54/142 115/58/145 362/56/321 257/55/320
f 115/58/145 7/59/147 130/60/180 362/56/321
f 362/56/321 130/60/180 32/61/183 258/98/322
f 257/55/320 362/56/321 258/98/322 83/93/300
f 83/93/300 258/98/322 363/99/323 247/94/301
f 258/98/322 32/61/183 129/64/225 363/99/323
f 363/99/323 129/64/225 31/65/220 259/63/324
f 247/94/301 363/99/323 259/63/324 86/19/302
f 86/19/302 259/63/324 364/154/325 252/148/311
f 259/63/324 31/65/220 128/68/223 364/154/325
f 364/154/325 128/68/223 30/69/214 260/67/326
f 252/148/311 364/154/325 260/67/326 89/21/312
f 89/21/312 260/67/326 365/72/327 261/71/328
f 260/67/326 30/69/214 127/74/217 365/72/327
f 365/72/327 127/74/217 5/75/219 142/155/252
f 261/71/328 365/72/327 142/155/252 41/156/255
f 88/9/307 254/89/313 366/100/329 262/77/330
f 254/89/313 89/21/312 261/71/328 366/100/329
f 366/100/329 261/71/328 41/156/255 141/79/288
f 262/77/330 366/100/329 141/79/288 40/157/283
f 87/146/309 253/4/308 367/80/331 263/158/332
f 253/4/308 88/9/307 262/77/330 367/80/331
f 367/80/331 262/77/330 40/157/283 140/159/286
f 263/158/332 367/80/331 140/159/286 39/160/279
f 11/30/33 264/161/333 368/162/334 102/27/29
f 264/161/333 87/146/309 263/158/332 368/162/334
f 368/162/334 263/158/332 39/160/279 139/163/282
f 102/27/29 368/162/334 139/163/282 1/164/26
f 10/36/76 265/165/335 369/166/336 101/167/81
f 265/165/335 84/142/297 250/144/305 369/166/336
f 369/166/336 250/144/305 87/146/309 264/161/333
f 101/167/81 369/166/336 264/161/333 11/30/33
f 9/40/70 266/152/316 370/168/337 100/38/79
f 266/152/316 81/140/289 245/141/292 370/168/337
f 370/168/337 245/141/292 84/142/297 265/165/335
f 100/38/79 370/168/337 265/165/335 10/36/76
f 90/84/338 267/85/339 371/83/340 269/82/341
f 267/85/339 91/86/342 270/87/343 371/83/340
f 371/83/340 270/87/343 94/7/344 272/6/345
f 269/82/341 371/83/340 272/6/345 93/5/346
f 91/86/342 268/169/347 372/170/348 270/87/343
f 268/169/347 92/171/349 271/172/350 372/170/348
f 372/170/348 271/172/350 95/173/351 273/174/352
f 270/87/343 372/170/348 273/174/352 94/7/344
f 93/5/346 272/6/345 373/143/353 274/175/354
f 272/6/345 94/7/344 275/145/355 373/143/353
f 373/143/353 275/145/355 97/176/356 277/177/357
f 274/175/354 373/143/353 277/177/357 96/178/358
f 94/7/344 273/174/352 374/179/359 275/145/355
f 273/174/352 95/173/351 276/180/360 374/179/359
f 374/179/359 276/180/360 98/181/361 278/182/362
f 275/145/355 374/179/359 278/182/362 97/176/356
f 8/183/131 122/45/130 375/43/363 131/184/189
f 122/45/130 26/46/126 279/47/364 375/43/363
f 375/43/363 279/47/364 90/84/338 290/96/365
f 131/184/189 375/43/363 290/96/365 33/185/190
f 26/46/126 121/49/125 376/48/366 279/47/364
f 121/49/125 25/50/122 280/51/367 376/48/366
f 376/48/366 280/51/367 91/86/342 267/85/339
f 279/47/364 376/48/366 267/85/339 90/84/338
f 25/50/122 120/186/121 377/187/368 280/51/367
f 120/186/121 24/188/118 281/189/369 377/187/368
f 377/187/368 281/189/369 92/171/349 268/169/347
f 280/51/367 377/187/368 268/169/347 91/86/342
f 24/188/118 119/190/117 378/191/370 281/189/369
f 119/190/117 4/192/59 110/193/58 378/191/370
f 378/191/370 110/193/58 17/194/54 282/195/371
f 281/189/369 378/191/370 282/195/371 92/171/349
f 92/171/349 282/195/371 379/196/372 271/172/350
f 282/195/371 17/194/54 109/197/53 379/196/372
f 379/196/372 109/197/53 16/198/50 283/199/373
f 271/172/350 379/196/372 283/199/373 95/173/351
f 95/173/351 283/199/373 380/200/374 276/180/360
f 283/199/373 16/198/50 108/201/49 380/200/374
f 380/200/374 108/201/49 15/202/46 284/203/375
f 276/180/360 380/200/374 284/203/375 98/181/361
f 98/181/361 284/203/375 381/204/376 285/205/377
f 284/203/375 15/202/46 107/206/45 381/204/376
f 381/204/376 107/206/45 2/207/44 146/208/274
f 285/205/377 381/204/376 146/208/274 44/209/270
f 97/176/356 278/182/362 382/210/378 286/211/379
f 278/182/362 98/181/361 285/205/377 382/210/378
f 382/210/378 285/205/377 44/209/270 145/212/269
f 286/211/379 382/210/378 145/212/269 43/213/266
f 96/178/358 277/177/357 383/214/380 287/215/381
f 277/177/357 97/176/356 286/211/379 383/214/380
f 383/214/380 286/211/379 43/213/266 144/216/265
f 287/215/381 383/214/380 144/216/265 42/217/262
f 35/218/198 288/219/382 384/220/383 134/221/202
f 288/219/382 96/178/358 287/215/381 384/220/383
f 384/220/383 287/215/381 42/217/262 143/222/261
f 134/221/202 384/220/383 143/222/261 6/223/203
f 34/224/194 289/37/384 385/225/385 133/226/197
f 289/37/384 93/5/346 274/175/354 385/225/385
f 385/225/385 274/175/354 96/178/358 288/219/382
f 133/226/197 385/225/385 288/219/382 35/218/198
f 33/185/190 290/96/365 386/95/386 132/227/193
f 290/96/365 90/84/338 269/82/341 386/95/386
f 386/95/386 269/82/341 93/5/346 289/37/384
f 132/227/193 386/95/386 289/37/384 34/224/194
