# Blender 5.2.0 LTS
# www.blender.org
o Torus.001
v 1.000000 0.000000 0.000000
v 0.974627 0.127529 -0.000000
v 0.902369 0.235644 -0.000000
v 0.794228 0.307883 -0.000000
v 0.666667 0.333250 -0.000000
v 0.539105 0.307883 -0.000000
v 0.430964 0.235644 -0.000000
v 0.358707 0.127529 -0.000000
v 0.333333 0.000000 0.000000
v 0.358707 -0.127529 0.000000
v 0.430964 -0.235644 0.000000
v 0.539105 -0.307883 0.000000
v 0.666667 -0.333250 0.000000
v 0.794228 -0.307883 0.000000
v 0.902369 -0.235644 0.000000
v 0.974627 -0.127529 0.000000
v 0.965925 -0.000000 -0.258819
v 0.941417 0.127529 -0.252252
v 0.871621 0.235644 -0.233551
v 0.767165 0.307883 -0.205561
v 0.643951 0.333250 -0.172545
v 0.520736 0.307883 -0.139531
v 0.416280 0.235644 -0.111541
v 0.346484 0.127529 -0.092840
v 0.321975 -0.000000 -0.086273
v 0.346484 -0.127529 -0.092840
v 0.416280 -0.235644 -0.111541
v 0.520736 -0.307883 -0.139531
v 0.643951 -0.333250 -0.172545
v 0.767165 -0.307883 -0.205561
v 0.871621 -0.235644 -0.233551
v 0.941417 -0.127529 -0.252252
v 0.866025 -0.000000 -0.500000
v 0.844051 0.127529 -0.487313
v 0.781475 0.235644 -0.451184
v 0.687821 0.307883 -0.397113
v 0.577351 0.333250 -0.333333
v 0.466879 0.307883 -0.269553
v 0.373227 0.235644 -0.215483
v 0.310649 0.127529 -0.179353
v 0.288675 -0.000000 -0.166667
v 0.310649 -0.127529 -0.179353
v 0.373227 -0.235644 -0.215483
v 0.466879 -0.307883 -0.269553
v 0.577351 -0.333250 -0.333333
v 0.687821 -0.307883 -0.397113
v 0.781475 -0.235644 -0.451184
v 0.844051 -0.127529 -0.487313
v 0.707107 -0.000000 -0.707107
v 0.689165 0.127529 -0.689165
v 0.638071 0.235644 -0.638071
v 0.561604 0.307883 -0.561604
v 0.471404 0.333250 -0.471404
v 0.381205 0.307883 -0.381205
v 0.304737 0.235644 -0.304737
v 0.253644 0.127529 -0.253644
v 0.235703 -0.000000 -0.235703
v 0.253644 -0.127529 -0.253644
v 0.304737 -0.235644 -0.304737
v 0.381205 -0.307883 -0.381205
v 0.471404 -0.333250 -0.471404
v 0.561604 -0.307883 -0.561604
v 0.638071 -0.235644 -0.638071
v 0.689165 -0.127529 -0.689165
v 0.500000 -0.000000 -0.866025
v 0.487313 0.127529 -0.844052
v 0.451184 0.235644 -0.781475
v 0.397113 0.307883 -0.687821
v 0.333333 0.333250 -0.577351
v 0.269553 0.307883 -0.466879
v 0.215483 0.235644 -0.373227
v 0.179353 0.127529 -0.310649
v 0.166667 -0.000000 -0.288675
v 0.179353 -0.127529 -0.310649
v 0.215483 -0.235644 -0.373227
v 0.269553 -0.307883 -0.466879
v 0.333333 -0.333250 -0.577351
v 0.397113 -0.307883 -0.687821
v 0.451184 -0.235644 -0.781475
v 0.487313 -0.127530 -0.844052
v 0.258819 -0.000000 -0.965925
v 0.252252 0.127529 -0.941417
v 0.233551 0.235644 -0.871621
v 0.205561 0.307883 -0.767165
v 0.172547 0.333250 -0.643951
v 0.139531 0.307883 -0.520736
v 0.111541 0.235644 -0.416280
v 0.092840 0.127529 -0.346484
v 0.086273 -0.000000 -0.321975
v 0.092840 -0.127529 -0.346484
v 0.111541 -0.235644 -0.416280
v 0.139531 -0.307883 -0.520736
v 0.172547 -0.333250 -0.643951
v 0.205561 -0.307883 -0.767165
v 0.233551 -0.235644 -0.871621
v 0.252252 -0.127530 -0.941417
v 0.000000 -0.000000 -1.000000
v 0.000000 0.127529 -0.974627
v 0.000000 0.235644 -0.902369
v 0.000000 0.307883 -0.794228
v 0.000000 0.333250 -0.666667
v 0.000000 0.307883 -0.539105
v 0.000000 0.235644 -0.430964
v 0.000000 0.127529 -0.358707
v 0.000000 -0.000000 -0.333333
v 0.000000 -0.127529 -0.358707
v 0.000000 -0.235644 -0.430964
v 0.000000 -0.307883 -0.539105
v 0.000000 -0.333250 -0.666667
v 0.000000 -0.307883 -0.794228
v 0.000000 -0.235644 -0.902369
v 0.000000 -0.127530 -0.974627
v -0.258819 -0.000000 -0.965925
v -0.252252 0.127529 -0.941417
v -0.233551 0.235644 -0.871621
v -0.205561 0.307883 -0.767165
v -0.172545 0.333250 -0.643951
v -0.139531 0.307883 -0.520736
v -0.111541 0.235644 -0.416280
v -0.092840 0.127529 -0.346484
v -0.086273 -0.000000 -0.321975
v -0.092840 -0.127529 -0.346484
v -0.111541 -0.235644 -0.416280
v -0.139531 -0.307883 -0.520736
v -0.172545 -0.333250 -0.643951
v -0.205561 -0.307883 -0.767165
v -0.233551 -0.235644 -0.871621
v -0.252252 -0.127530 -0.941417
v -0.500000 -0.000000 -0.866025
v -0.487313 0.127529 -0.844052
v -0.451184 0.235644 -0.781475
v -0.397113 0.307883 -0.687821
v -0.333333 0.333250 -0.577351
v -0.269553 0.307883 -0.466879
v -0.215483 0.235644 -0.373227
v -0.179353 0.127529 -0.310649
v -0.166667 -0.000000 -0.288675
v -0.179353 -0.127529 -0.310649
v -0.215483 -0.235644 -0.373227
v -0.269553 -0.307883 -0.466879
v -0.333333 -0.333250 -0.577351
v -0.397113 -0.307883 -0.687821
v -0.451184 -0.235644 -0.781475
v -0.487313 -0.127530 -0.844052
v -0.707107 -0.000000 -0.707107
v -0.689165 0.127529 -0.689165
v -0.638072 0.235644 -0.638071
v -0.561604 0.307883 -0.561604
v -0.471404 0.333250 -0.471404
v -0.381205 0.307883 -0.381205
v -0.304737 0.235644 -0.304737
v -0.253644 0.127529 -0.253644
v -0.235703 -0.000000 -0.235703
v -0.253644 -0.127529 -0.253644
v -0.304737 -0.235644 -0.304737
v -0.381205 -0.307883 -0.381205
v -0.471404 -0.333250 -0.471404
v -0.561604 -0.307883 -0.561604
v -0.638072 -0.235644 -0.638071
v -0.689165 -0.127529 -0.689165
v -0.866025 -0.000000 -0.500000
v -0.844051 0.127529 -0.487313
v -0.781475 0.235644 -0.451185
v -0.687821 0.307883 -0.397115
v -0.577351 0.333250 -0.333333
v -0.466879 0.307883 -0.269553
v -0.373227 0.235644 -0.215483
v -0.310649 0.127529 -0.179353
v -0.288675 -0.000000 -0.166667
v -0.310649 -0.127529 -0.179353
v -0.373227 -0.235644 -0.215483
v -0.466879 -0.307883 -0.269553
v -0.577351 -0.333250 -0.333333
v -0.687821 -0.307883 -0.397115
v -0.781475 -0.235644 -0.451185
v -0.844051 -0.127529 -0.487313
v -0.965925 -0.000000 -0.258819
v -0.941417 0.127529 -0.252252
v -0.871621 0.235644 -0.233551
v -0.767165 0.307883 -0.205561
v -0.643951 0.333250 -0.172545
v -0.520736 0.307883 -0.139531
v -0.416280 0.235644 -0.111541
v -0.346484 0.127529 -0.092840
v -0.321975 -0.000000 -0.086273
v -0.346484 -0.127529 -0.092840
v -0.416280 -0.235644 -0.111541
v -0.520736 -0.307883 -0.139531
v -0.643951 -0.333250 -0.172545
v -0.767165 -0.307883 -0.205561
v -0.871621 -0.235644 -0.233551
v -0.941417 -0.127529 -0.252252
v -1.000000 0.000000 0.000000
v -0.974627 0.127529 -0.000000
v -0.902369 0.235644 -0.000000
v -0.794228 0.307883 -0.000000
v -0.666667 0.333250 -0.000000
v -0.539105 0.307883 -0.000000
v -0.430964 0.235644 -0.000000
v -0.358707 0.127529 -0.000000
v -0.333333 0.000000 0.000000
v -0.358707 -0.127529 0.000000
v -0.430964 -0.235644 0.000000
v -0.539105 -0.307883 0.000000
v -0.666667 -0.333250 0.000000
v -0.794228 -0.307883 0.000000
v -0.902369 -0.235644 0.000000
v -0.974627 -0.127529 0.000000
v -0.965925 0.000000 0.258819
v -0.941417 0.127529 0.252252
v -0.871621 0.235644 0.233551
v -0.767165 0.307883 0.205561
v -0.643951 0.333250 0.172545
v -0.520736 0.307883 0.139531
v -0.416280 0.235644 0.111541
v -0.346484 0.127529 0.092840
v -0.321975 0.000000 0.086273
v -0.346484 -0.127529 0.092840
v -0.416280 -0.235644 0.111541
v -0.520736 -0.307883 0.139531
v -0.643951 -0.333250 0.172545
v -0.767165 -0.307883 0.205561
v -0.871621 -0.235644 0.233551
v -0.941417 -0.127529 0.252252
v -0.866025 0.000000 0.500000
v -0.844052 0.127529 0.487313
v -0.781475 0.235644 0.451184
v -0.687821 0.307883 0.397113
v -0.577351 0.333250 0.333333
v -0.466879 0.307883 0.269553
v -0.373227 0.235644 0.215483
v -0.310649 0.127529 0.179353
v -0.288675 0.000000 0.166667
v -0.310649 -0.127529 0.179353
v -0.373227 -0.235644 0.215483
v -0.466879 -0.307883 0.269553
v -0.577351 -0.333250 0.333333
v -0.687821 -0.307883 0.397113
v -0.781475 -0.235644 0.451184
v -0.844052 -0.127529 0.487313
v -0.707107 0.000000 0.707107
v -0.689165 0.127529 0.689165
v -0.638072 0.235644 0.638071
v -0.561604 0.307883 0.561604
v -0.471404 0.333250 0.471404
v -0.381205 0.307883 0.381205
v -0.304737 0.235644 0.304737
v -0.253644 0.127529 0.253644
v -0.235703 0.000000 0.235703
v -0.253644 -0.127529 0.253644
v -0.304737 -0.235644 0.304737
v -0.381205 -0.307883 0.381205
v -0.471404 -0.333250 0.471404
v -0.561604 -0.307883 0.561604
v -0.638072 -0.235644 0.638071
v -0.689165 -0.127529 0.689165
v -0.500000 0.000000 0.866025
v -0.487313 0.127530 0.844052
v -0.451184 0.235644 0.781475
v -0.397113 0.307883 0.687821
v -0.333333 0.333250 0.577351
v -0.269553 0.307883 0.466879
v -0.215483 0.235644 0.373227
v -0.179353 0.127529 0.310649
v -0.166667 0.000000 0.288675
v -0.179353 -0.127529 0.310649
v -0.215483 -0.235644 0.373227
v -0.269553 -0.307883 0.466879
v -0.333333 -0.333250 0.577351
v -0.397113 -0.307883 0.687821
v -0.451184 -0.235644 0.781475
v -0.487313 -0.127529 0.844052
v -0.258820 0.000000 0.965925
v -0.252252 0.127530 0.941417
v -0.233551 0.235644 0.871621
v -0.205561 0.307883 0.767165
v -0.172547 0.333250 0.643951
v -0.139531 0.307883 0.520736
v -0.111541 0.235644 0.416280
v -0.092840 0.127529 0.346484
v -0.086273 0.000000 0.321975
v -0.092840 -0.127529 0.346484
v -0.111541 -0.235644 0.416280
v -0.139531 -0.307883 0.520736
v -0.172547 -0.333250 0.643951
v -0.205561 -0.307883 0.767165
v -0.233551 -0.235644 0.871621
v -0.252252 -0.127529 0.941417
v 0.000000 0.000000 1.000000
v 0.000000 0.127530 0.974627
v 0.000000 0.235644 0.902369
v 0.000000 0.307883 0.794228
v 0.000000 0.333250 0.666667
v 0.000000 0.307883 0.539105
v 0.000000 0.235644 0.430964
v 0.000000 0.127529 0.358707
v 0.000000 0.000000 0.333333
v 0.000000 -0.127529 0.358707
v 0.000000 -0.235644 0.430964
v 0.000000 -0.307883 0.539105
v 0.000000 -0.333250 0.666667
v 0.000000 -0.307883 0.794228
v 0.000000 -0.235644 0.902369
v 0.000000 -0.127529 0.974627
v 0.258819 0.000000 0.965925
v 0.252252 0.127530 0.941417
v 0.233549 0.235644 0.871621
v 0.205561 0.307883 0.767165
v 0.172545 0.333250 0.643951
v 0.139531 0.307883 0.520736
v 0.111541 0.235644 0.416280
v 0.092840 0.127529 0.346484
v 0.086273 0.000000 0.321975
v 0.092840 -0.127529 0.346484
v 0.111541 -0.235644 0.416280
v 0.139531 -0.307883 0.520736
v 0.172545 -0.333250 0.643951
v 0.205561 -0.307883 0.767165
v 0.233549 -0.235644 0.871621
v 0.252252 -0.127529 0.941417
v 0.500000 0.000000 0.866025
v 0.487313 0.127530 0.844052
v 0.451184 0.235644 0.781475
v 0.397113 0.307883 0.687821
v 0.333333 0.333250 0.577351
v 0.269553 0.307883 0.466879
v 0.215483 0.235644 0.373227
v 0.179353 0.127529 0.310649
v 0.166667 0.000000 0.288675
v 0.179353 -0.127529 0.310649
v 0.215483 -0.235644 0.373227
v 0.269553 -0.307883 0.466879
v 0.333333 -0.333250 0.577351
v 0.397113 -0.307883 0.687821
v 0.451184 -0.235644 0.781475
v 0.487313 -0.127529 0.844052
v 0.707107 0.000000 0.707107
v 0.689164 0.127529 0.689165
v 0.638071 0.235644 0.638072
v 0.561604 0.307883 0.561604
v 0.471404 0.333250 0.471405
v 0.381205 0.307883 0.381205
v 0.304737 0.235644 0.304739
v 0.253644 0.127529 0.253644
v 0.235703 0.000000 0.235703
v 0.253644 -0.127529 0.253644
v 0.304737 -0.235644 0.304739
v 0.381205 -0.307883 0.381205
v 0.471404 -0.333250 0.471405
v 0.561604 -0.307883 0.561604
v 0.638071 -0.235644 0.638072
v 0.689164 -0.127529 0.689165
v 0.866025 0.000000 0.500000
v 0.844051 0.127529 0.487313
v 0.781475 0.235644 0.451184
v 0.687821 0.307883 0.397113
v 0.577351 0.333250 0.333333
v 0.466879 0.307883 0.269553
v 0.373227 0.235644 0.215483
v 0.310649 0.127529 0.179353
v 0.288675 0.000000 0.166667
v 0.310649 -0.127529 0.179353
v 0.373227 -0.235644 0.215483
v 0.466879 -0.307883 0.269553
v 0.577351 -0.333250 0.333333
v 0.687821 -0.307883 0.397113
v 0.781475 -0.235644 0.451184
v 0.844051 -0.127529 0.487313
v 0.965925 0.000000 0.258819
v 0.941417 0.127529 0.252252
v 0.871621 0.235644 0.233551
v 0.767165 0.307883 0.205561
v 0.643951 0.333250 0.172545
v 0.520736 0.307883 0.139531
v 0.416280 0.235644 0.111541
v 0.346484 0.127529 0.092840
v 0.321975 0.000000 0.086273
v 0.346484 -0.127529 0.092840
v 0.416280 -0.235644 0.111541
v 0.520736 -0.307883 0.139531
v 0.643951 -0.333250 0.172545
v 0.767165 -0.307883 0.205561
v 0.871621 -0.235644 0.233551
v 0.941417 -0.127529 0.252252
vn 1.0000 -0.0000 -0.0000
vn 0.9659 -0.0000 -0.2588
vn 0.8946 0.3771 -0.2397
vn 0.9262 0.3771 -0.0000
vn 0.6906 0.6992 -0.1850
vn 0.7150 0.6992 -0.0000
vn 0.3828 0.9181 -0.1026
vn 0.3963 0.9181 -0.0000
vn 0.0157 0.9999 -0.0042
vn 0.0162 0.9999 -0.0000
vn -0.3560 0.9296 0.0954
vn -0.3686 0.9296 -0.0000
vn -0.6749 0.7154 0.1808
vn -0.6987 0.7154 -0.0000
vn -0.8900 0.3886 0.2385
vn -0.9214 0.3886 -0.0000
vn -0.9659 -0.0000 0.2588
vn -1.0000 -0.0000 -0.0000
vn -0.8900 -0.3886 0.2385
vn -0.9214 -0.3886 -0.0000
vn -0.6749 -0.7154 0.1808
vn -0.6987 -0.7154 -0.0000
vn -0.3560 -0.9296 0.0954
vn -0.3686 -0.9296 -0.0000
vn 0.0157 -0.9999 -0.0042
vn 0.0162 -0.9999 -0.0000
vn 0.3828 -0.9181 -0.1026
vn 0.3963 -0.9181 -0.0000
vn 0.6906 -0.6992 -0.1850
vn 0.7150 -0.6992 -0.0000
vn 0.8946 -0.3771 -0.2397
vn 0.9262 -0.3771 -0.0000
vn 0.8660 -0.0000 -0.5000
vn 0.8021 0.3771 -0.4631
vn 0.6192 0.6992 -0.3575
vn 0.3432 0.9181 -0.1981
vn 0.0141 0.9999 -0.0081
vn -0.3192 0.9296 0.1843
vn -0.6051 0.7154 0.3494
vn -0.7980 0.3886 0.4607
vn -0.8660 -0.0000 0.5000
vn -0.7980 -0.3886 0.4607
vn -0.6051 -0.7154 0.3494
vn -0.3192 -0.9296 0.1843
vn 0.0141 -0.9999 -0.0081
vn 0.3432 -0.9181 -0.1981
vn 0.6192 -0.6992 -0.3575
vn 0.8021 -0.3771 -0.4631
vn 0.7071 -0.0000 -0.7071
vn 0.6549 0.3771 -0.6549
vn 0.5056 0.6992 -0.5056
vn 0.2802 0.9181 -0.2802
vn 0.0115 0.9999 -0.0115
vn -0.2606 0.9296 0.2606
vn -0.4941 0.7154 0.4941
vn -0.6515 0.3886 0.6515
vn -0.7071 -0.0000 0.7071
vn -0.6515 -0.3886 0.6515
vn -0.4941 -0.7154 0.4941
vn -0.2606 -0.9296 0.2606
vn 0.0115 -0.9999 -0.0115
vn 0.2802 -0.9181 -0.2802
vn 0.5056 -0.6992 -0.5056
vn 0.6549 -0.3771 -0.6549
vn 0.5000 -0.0000 -0.8660
vn 0.4631 0.3771 -0.8021
vn 0.3575 0.6992 -0.6192
vn 0.1981 0.9181 -0.3432
vn 0.0081 0.9999 -0.0141
vn -0.1843 0.9296 0.3192
vn -0.3494 0.7154 0.6051
vn -0.4607 0.3886 0.7980
vn -0.5000 -0.0000 0.8660
vn -0.4607 -0.3886 0.7980
vn -0.3494 -0.7154 0.6051
vn -0.1843 -0.9296 0.3192
vn 0.0081 -0.9999 -0.0141
vn 0.1981 -0.9181 -0.3432
vn 0.3575 -0.6992 -0.6192
vn 0.4631 -0.3771 -0.8021
vn 0.2588 -0.0000 -0.9659
vn 0.2397 0.3771 -0.8946
vn 0.1850 0.6992 -0.6906
vn 0.1026 0.9181 -0.3828
vn 0.0042 0.9999 -0.0157
vn -0.0954 0.9296 0.3560
vn -0.1808 0.7154 0.6749
vn -0.2385 0.3886 0.8900
vn -0.2588 -0.0000 0.9659
vn -0.2385 -0.3886 0.8900
vn -0.1808 -0.7154 0.6749
vn -0.0954 -0.9296 0.3560
vn 0.0042 -0.9999 -0.0157
vn 0.1026 -0.9181 -0.3828
vn 0.1850 -0.6992 -0.6906
vn 0.2397 -0.3771 -0.8946
vn -0.0000 -0.0000 -1.0000
vn -0.0000 0.3771 -0.9262
vn -0.0000 0.6992 -0.7150
vn -0.0000 0.9181 -0.3963
vn -0.0000 0.9999 -0.0162
vn -0.0000 0.9296 0.3686
vn -0.0000 0.7154 0.6987
vn -0.0000 0.3886 0.9214
vn -0.0000 -0.0000 1.0000
vn -0.0000 -0.3886 0.9214
vn -0.0000 -0.7154 0.6987
vn -0.0000 -0.9296 0.3686
vn -0.0000 -0.9999 -0.0162
vn -0.0000 -0.9181 -0.3963
vn -0.0000 -0.6992 -0.7150
vn -0.0000 -0.3771 -0.9262
vn -0.2588 -0.0000 -0.9659
vn -0.2397 0.3771 -0.8946
vn -0.1850 0.6992 -0.6906
vn -0.1026 0.9181 -0.3828
vn -0.0042 0.9999 -0.0157
vn 0.0954 0.9296 0.3560
vn 0.1808 0.7154 0.6749
vn 0.2385 0.3886 0.8900
vn 0.2588 -0.0000 0.9659
vn 0.2385 -0.3886 0.8900
vn 0.1808 -0.7154 0.6749
vn 0.0954 -0.9296 0.3560
vn -0.0042 -0.9999 -0.0157
vn -0.1026 -0.9181 -0.3828
vn -0.1850 -0.6992 -0.6906
vn -0.2397 -0.3771 -0.8946
vn -0.5000 -0.0000 -0.8660
vn -0.4631 0.3771 -0.8021
vn -0.3575 0.6992 -0.6192
vn -0.1981 0.9181 -0.3432
vn -0.0081 0.9999 -0.0141
vn 0.1843 0.9296 0.3192
vn 0.3494 0.7154 0.6051
vn 0.4607 0.3886 0.7980
vn 0.5000 -0.0000 0.8660
vn 0.4607 -0.3886 0.7980
vn 0.3494 -0.7154 0.6051
vn 0.1843 -0.9296 0.3192
vn -0.0081 -0.9999 -0.0141
vn -0.1981 -0.9181 -0.3432
vn -0.3575 -0.6992 -0.6192
vn -0.4631 -0.3771 -0.8021
vn -0.7071 -0.0000 -0.7071
vn -0.6549 0.3771 -0.6549
vn -0.5056 0.6992 -0.5056
vn -0.2802 0.9181 -0.2802
vn -0.0115 0.9999 -0.0115
vn 0.2606 0.9296 0.2606
vn 0.4941 0.7154 0.4941
vn 0.6515 0.3886 0.6515
vn 0.7071 -0.0000 0.7071
vn 0.6515 -0.3886 0.6515
vn 0.4941 -0.7154 0.4941
vn 0.2606 -0.9296 0.2606
vn -0.0115 -0.9999 -0.0115
vn -0.2802 -0.9181 -0.2802
vn -0.5056 -0.6992 -0.5056
vn -0.6549 -0.3771 -0.6549
vn -0.8660 -0.0000 -0.5000
vn -0.8021 0.3771 -0.4631
vn -0.6192 0.6992 -0.3575
vn -0.3432 0.9181 -0.1981
vn -0.0141 0.9999 -0.0081
vn 0.3192 0.9296 0.1843
vn 0.6051 0.7154 0.3494
vn 0.7980 0.3886 0.4607
vn 0.8660 -0.0000 0.5000
vn 0.7980 -0.3886 0.4607
vn 0.6051 -0.7154 0.3494
vn 0.3192 -0.9296 0.1843
vn -0.0141 -0.9999 -0.0081
vn -0.3432 -0.9181 -0.1981
vn -0.6192 -0.6992 -0.3575
vn -0.8021 -0.3771 -0.4631
vn -0.9659 -0.0000 -0.2588
vn -0.8946 0.3771 -0.2397
vn -0.6906 0.6992 -0.1850
vn -0.3828 0.9181 -0.1026
vn -0.0157 0.9999 -0.0042
vn 0.3560 0.9296 0.0954
vn 0.6749 0.7154 0.1808
vn 0.8900 0.3886 0.2385
vn 0.9659 -0.0000 0.2588
vn 0.8900 -0.3886 0.2385
vn 0.6749 -0.7154 0.1808
vn 0.3560 -0.9296 0.0954
vn -0.0157 -0.9999 -0.0042
vn -0.3828 -0.9181 -0.1026
vn -0.6906 -0.6992 -0.1850
vn -0.8946 -0.3771 -0.2397
vn -0.9262 0.3771 -0.0000
vn -0.7150 0.6992 -0.0000
vn -0.3963 0.9181 -0.0000
vn -0.0162 0.9999 -0.0000
vn 0.3686 0.9296 -0.0000
vn 0.6987 0.7154 -0.0000
vn 0.9214 0.3886 -0.0000
vn 0.9214 -0.3886 -0.0000
vn 0.6987 -0.7154 -0.0000
vn 0.3686 -0.9296 -0.0000
vn -0.0162 -0.9999 -0.0000
vn -0.3963 -0.9181 -0.0000
vn -0.7150 -0.6992 -0.0000
vn -0.9262 -0.3771 -0.0000
vn -0.8946 0.3771 0.2397
vn -0.6906 0.6992 0.1850
vn -0.3828 0.9181 0.1026
vn -0.0157 0.9999 0.0042
vn 0.3560 0.9296 -0.0954
vn 0.6749 0.7154 -0.1808
vn 0.8900 0.3886 -0.2385
vn 0.8900 -0.3886 -0.2385
vn 0.6749 -0.7154 -0.1808
vn 0.3560 -0.9296 -0.0954
vn -0.0157 -0.9999 0.0042
vn -0.3828 -0.9181 0.1026
vn -0.6906 -0.6992 0.1850
vn -0.8946 -0.3771 0.2397
vn -0.8021 0.3771 0.4631
vn -0.6192 0.6992 0.3575
vn -0.3432 0.9181 0.1981
vn -0.0141 0.9999 0.0081
vn 0.3192 0.9296 -0.1843
vn 0.6051 0.7154 -0.3494
vn 0.7980 0.3886 -0.4607
vn 0.7980 -0.3886 -0.4607
vn 0.6051 -0.7154 -0.3494
vn 0.3192 -0.9296 -0.1843
vn -0.0141 -0.9999 0.0081
vn -0.3432 -0.9181 0.1981
vn -0.6192 -0.6992 0.3575
vn -0.8021 -0.3771 0.4631
vn -0.6549 0.3771 0.6549
vn -0.5056 0.6992 0.5056
vn -0.2802 0.9181 0.2802
vn -0.0115 0.9999 0.0115
vn 0.2606 0.9296 -0.2606
vn 0.4941 0.7154 -0.4941
vn 0.6515 0.3886 -0.6515
vn 0.6515 -0.3886 -0.6515
vn 0.4941 -0.7154 -0.4941
vn 0.2606 -0.9296 -0.2606
vn -0.0115 -0.9999 0.0115
vn -0.2802 -0.9181 0.2802
vn -0.5056 -0.6992 0.5056
vn -0.6549 -0.3771 0.6549
vn -0.4631 0.3771 0.8021
vn -0.3575 0.6992 0.6192
vn -0.1981 0.9181 0.3432
vn -0.0081 0.9999 0.0141
vn 0.1843 0.9296 -0.3192
vn 0.3494 0.7154 -0.6051
vn 0.4607 0.3886 -0.7980
vn 0.4607 -0.3886 -0.7980
vn 0.3494 -0.7154 -0.6051
vn 0.1843 -0.9296 -0.3192
vn -0.0081 -0.9999 0.0141
vn -0.1981 -0.9181 0.3432
vn -0.3575 -0.6992 0.6192
vn -0.4631 -0.3771 0.8021
vn -0.2397 0.3771 0.8946
vn -0.1850 0.6992 0.6906
vn -0.1026 0.9181 0.3828
vn -0.0042 0.9999 0.0157
vn 0.0954 0.9296 -0.3560
vn 0.1808 0.7154 -0.6749
vn 0.2385 0.3886 -0.8900
vn 0.2385 -0.3886 -0.8900
vn 0.1808 -0.7154 -0.6749
vn 0.0954 -0.9296 -0.3560
vn -0.0042 -0.9999 0.0157
vn -0.1026 -0.9181 0.3828
vn -0.1850 -0.6992 0.6906
vn -0.2397 -0.3771 0.8946
vn -0.0000 0.3771 0.9262
vn -0.0000 0.6992 0.7150
vn -0.0000 0.9181 0.3963
vn -0.0000 0.9999 0.0162
vn -0.0000 0.9296 -0.3686
vn -0.0000 0.7154 -0.6987
vn -0.0000 0.3886 -0.9214
vn -0.0000 -0.3886 -0.9214
vn -0.0000 -0.7154 -0.6987
vn -0.0000 -0.9296 -0.3686
vn -0.0000 -0.9999 0.0162
vn -0.0000 -0.9181 0.3963
vn -0.0000 -0.6992 0.7150
vn -0.0000 -0.3771 0.9262
vn 0.2397 0.3771 0.8946
vn 0.1850 0.6992 0.6906
vn 0.1026 0.9181 0.3828
vn 0.0042 0.9999 0.0157
vn -0.0954 0.9296 -0.3560
vn -0.1808 0.7154 -0.6749
vn -0.2385 0.3886 -0.8900
vn -0.2385 -0.3886 -0.8900
vn -0.1808 -0.7154 -0.6749
vn -0.0954 -0.9296 -0.3560
vn 0.0042 -0.9999 0.0157
vn 0.1026 -0.9181 0.3828
vn 0.1850 -0.6992 0.6906
vn 0.2397 -0.3771 0.8946
vn 0.4631 0.3771 0.8021
vn 0.3575 0.6992 0.6192
vn 0.1981 0.9181 0.3432
vn 0.0081 0.9999 0.0141
vn -0.1843 0.9296 -0.3192
vn -0.3494 0.7154 -0.6051
vn -0.4607 0.3886 -0.7980
vn -0.4607 -0.3886 -0.7980
vn -0.3494 -0.7154 -0.6051
vn -0.1843 -0.9296 -0.3192
vn 0.0081 -0.9999 0.0141
vn 0.1981 -0.9181 0.3432
vn 0.3575 -0.6992 0.6192
vn 0.4631 -0.3771 0.8021
vn 0.6549 0.3771 0.6549
vn 0.5056 0.6992 0.5056
vn 0.2802 0.9181 0.2802
vn 0.0115 0.9999 0.0115
vn -0.2606 0.9296 -0.2606
vn -0.4941 0.7154 -0.4941
vn -0.6515 0.3886 -0.6515
vn -0.6515 -0.3886 -0.6515
vn -0.4941 -0.7154 -0.4941
vn -0.2606 -0.9296 -0.2606
vn 0.0115 -0.9999 0.0115
vn 0.2802 -0.9181 0.2802
vn 0.5056 -0.6992 0.5056
vn 0.6549 -0.3771 0.6549
vn 0.8021 0.3771 0.4631
vn 0.6192 0.6992 0.3575
vn 0.3432 0.9181 0.1981
vn 0.0141 0.9999 0.0081
vn -0.3192 0.9296 -0.1843
vn -0.6051 0.7154 -0.3494
vn -0.7980 0.3886 -0.4607
vn -0.7980 -0.3886 -0.4607
vn -0.6051 -0.7154 -0.3494
vn -0.3192 -0.9296 -0.1843
vn 0.0141 -0.9999 0.0081
vn 0.3432 -0.9181 0.1981
vn 0.6192 -0.6992 0.3575
vn 0.8021 -0.3771 0.4631
vn 0.8946 0.3771 0.2397
vn 0.6906 0.6992 0.1850
vn 0.3828 0.9181 0.1026
vn 0.0157 0.9999 0.0042
vn -0.3560 0.9296 -0.0954
vn -0.6749 0.7154 -0.1808
vn -0.8900 0.3886 -0.2385
vn -0.8900 -0.3886 -0.2385
vn -0.6749 -0.7154 -0.1808
vn -0.3560 -0.9296 -0.0954
vn 0.0157 -0.9999 0.0042
vn 0.3828 -0.9181 0.1026
vn 0.6906 -0.6992 0.1850
vn 0.8946 -0.3771 0.2397
vt 0.501986 0.487700
vt 0.501752 0.609928
vt 0.439973 0.609682
vt 0.439752 0.487628
vt 0.377843 0.609760
vt 0.375789 0.487676
vt 0.315824 0.609629
vt 0.315385 0.487662
vt 0.253790 0.608061
vt 0.255300 0.487613
vt 0.191385 0.607914
vt 0.190382 0.487559
vt 0.128724 0.606411
vt 0.129960 0.487538
vt 0.066757 0.605216
vt 0.066225 0.487568
vt 0.003278 0.604844
vt 0.002665 0.487532
vt 1.001093 0.487740
vt 1.000398 0.605059
vt 0.936913 0.605361
vt 0.937532 0.487722
vt 0.874933 0.606544
vt 0.873807 0.487670
vt 0.812271 0.608098
vt 0.813409 0.487697
vt 0.749922 0.608153
vt 0.748532 0.487715
vt 0.688079 0.609763
vt 0.688499 0.487770
vt 0.626175 0.610052
vt 0.628136 0.487849
vt 0.564048 0.609847
vt 0.564201 0.487827
vt 0.501810 0.732447
vt 0.439631 0.732340
vt 0.379042 0.732098
vt 0.317334 0.730729
vt 0.253593 0.729020
vt 0.192576 0.727583
vt 0.129423 0.724876
vt 0.066376 0.722409
vt 0.003552 0.721683
vt 1.000043 0.721863
vt 0.937202 0.722505
vt 0.874085 0.724883
vt 0.810753 0.727468
vt 0.749341 0.729088
vt 0.687365 0.731440
vt 0.625068 0.732332
vt 0.564144 0.732494
vt 0.501298 0.855629
vt 0.439716 0.855371
vt 0.378613 0.854285
vt 0.315109 0.852360
vt 0.253173 0.850557
vt 0.192701 0.847022
vt 0.130933 0.842555
vt 0.068269 0.838237
vt 0.005162 0.836719
vt 0.998400 0.836865
vt 0.935309 0.838315
vt 0.872719 0.842577
vt 0.811158 0.846976
vt 0.751134 0.850476
vt 0.687506 0.852998
vt 0.624680 0.854498
vt 0.562689 0.855294
vt 0.501857 0.979422
vt 0.440204 0.978865
vt 0.378486 0.977171
vt 0.316586 0.975082
vt 0.256879 0.971436
vt 0.195135 0.965775
vt 0.131714 0.959117
vt 0.068506 0.952295
vt 0.005564 0.949477
vt 0.997930 0.949572
vt 0.934991 0.952353
vt 0.871783 0.959192
vt 0.808335 0.965877
vt 0.746457 0.971393
vt 0.686437 0.975039
vt 0.624248 0.977302
vt 0.563636 0.978776
vt 0.501725 1.104246
vt 0.440960 1.103742
vt 0.379835 1.101231
vt 0.319039 1.097735
vt 0.258172 1.091478
vt 0.194687 1.083645
vt 0.132507 1.073568
vt 0.070375 1.063220
vt 0.006807 1.059009
vt 0.996635 1.058994
vt 0.933060 1.063178
vt 0.870905 1.073524
vt 0.808682 1.083582
vt 0.745148 1.091370
vt 0.684249 1.097718
vt 0.623454 1.101350
vt 0.562433 1.103771
vt 0.501833 1.231072
vt 0.441014 1.229959
vt 0.379102 1.226852
vt 0.319896 1.220890
vt 0.258322 1.211482
vt 0.195977 1.200474
vt 0.134941 1.184679
vt 0.070845 1.170434
vt 0.007215 1.163602
vt 0.996204 1.163447
vt 0.932573 1.170280
vt 0.868462 1.184528
vt 0.807403 1.200313
vt 0.745039 1.211340
vt 0.683448 1.220812
vt 0.624222 1.226859
vt 0.562284 1.229990
vt 0.501541 1.360236
vt 0.441389 1.358583
vt 0.380797 1.354176
vt 0.319979 1.345473
vt 0.258757 1.331622
vt 0.196766 1.314749
vt 0.133765 1.293115
vt 0.071016 1.272053
vt 0.007455 1.261549
vt 0.995979 1.261259
vt 0.932420 1.271794
vt 0.869669 1.292864
vt 0.806671 1.314512
vt 0.744685 1.331412
vt 0.683470 1.345315
vt 0.622662 1.354085
vt 0.562085 1.358536
vt 0.501738 1.493211
vt 0.441029 1.490806
vt 0.380257 1.483913
vt 0.318944 1.471107
vt 0.257480 1.451761
vt 0.195806 1.426229
vt 0.132024 1.396413
vt 0.068336 1.367520
vt 0.005296 1.351502
vt 0.998172 1.351094
vt 0.935140 1.367167
vt 0.871468 1.396088
vt 0.807705 1.425928
vt 0.746043 1.451489
vt 0.684583 1.470874
vt 0.623261 1.483719
vt 0.562470 1.490651
vt 0.501823 1.630547
vt 0.439488 1.627760
vt 0.377471 1.616961
vt 0.315173 1.597919
vt 0.250940 1.571784
vt 0.189695 1.534925
vt 0.127092 1.493397
vt 0.063980 1.454456
vt 0.000898 1.431534
vt 1.002620 1.431036
vt 0.939553 1.454038
vt 0.876470 1.493018
vt 0.813901 1.534569
vt 0.752686 1.571439
vt 0.688474 1.597603
vt 0.626185 1.616670
vt 0.564151 1.627542
vt 0.501933 1.775412
vt 0.435957 1.771016
vt 0.371193 1.753243
vt 0.304796 1.727111
vt 0.240346 1.688565
vt 0.177362 1.638931
vt 0.115179 1.583188
vt 0.053768 1.532396
vt -0.007777 1.501216
vt 1.011342 1.500649
vt 0.949825 1.531926
vt 0.888457 1.582767
vt 0.826322 1.638538
vt 0.763391 1.688194
vt 0.698993 1.726725
vt 0.632630 1.752822
vt 0.567889 1.770539
vt 0.502287 1.929120
vt 0.427791 1.920738
vt 0.354735 1.895471
vt 0.284218 1.855353
vt 0.217213 1.799975
vt 0.153786 1.733418
vt 0.095347 1.661866
vt 0.037666 1.600035
vt -0.021446 1.561553
vt 1.025062 1.560934
vt 0.965987 1.599523
vt 0.908353 1.661412
vt 0.849967 1.733014
vt 0.786602 1.799637
vt 0.719656 1.855039
vt 0.649246 1.894956
vt 0.576282 1.919451
vt 0.501144 2.092912
vt 0.410889 2.077725
vt 0.322571 2.041445
vt 0.243853 1.977653
vt 0.175173 1.898130
vt 0.113827 1.810851
vt 0.062770 1.724999
vt 0.014843 1.656488
vt -0.039708 1.614458
vt 1.043381 1.613794
vt 0.988866 1.655928
vt 0.940979 1.724496
vt 0.889976 1.810419
vt 0.828651 1.897827
vt 0.759921 1.977618
vt 0.680981 2.042062
vt 0.592522 2.080109
vt 0.503133 -1.117520
vt 0.501829 -0.953729
vt 0.427861 -0.944174
vt 0.411775 -1.104863
vt 0.354906 -0.919793
vt 0.323308 -1.066957
vt 0.284513 -0.879905
vt 0.244364 -1.002643
vt 0.217243 -0.824850
vt 0.175372 -0.923086
vt 0.153766 -0.758142
vt 0.113827 -0.835614
vt 0.095463 -0.686416
vt 0.062832 -0.749524
vt 0.037852 -0.624514
vt 0.014966 -0.680926
vt -0.021222 -0.585943
vt -0.039541 -0.638801
vt 1.043381 -0.638674
vt 1.025093 -0.585795
vt 0.965999 -0.624313
vt 0.988850 -0.680735
vt 0.908350 -0.686126
vt 0.940968 -0.749222
vt 0.849982 -0.757668
vt 0.890002 -0.835044
vt 0.786648 -0.824261
vt 0.828776 -0.922345
vt 0.719730 -0.879698
vt 0.760206 -1.001922
vt 0.649280 -0.919886
vt 0.681583 -1.065801
vt 0.576282 -0.945242
vt 0.593338 -1.102198
vt 0.502029 -0.800000
vt 0.436127 -0.795244
vt 0.371458 -0.777645
vt 0.305286 -0.751564
vt 0.239825 -0.713516
vt 0.177453 -0.663406
vt 0.115412 -0.607693
vt 0.054027 -0.556902
vt -0.007513 -0.525668
vt 1.011395 -0.525507
vt 0.949855 -0.556723
vt 0.888450 -0.607503
vt 0.826313 -0.663226
vt 0.763405 -0.712901
vt 0.699032 -0.751513
vt 0.632686 -0.777699
vt 0.567962 -0.795529
vt 0.501851 -0.655191
vt 0.439433 -0.652259
vt 0.377262 -0.641483
vt 0.314565 -0.622915
vt 0.251682 -0.595906
vt 0.190224 -0.559350
vt 0.127449 -0.517974
vt 0.064266 -0.479026
vt 0.001170 -0.456066
vt 1.002703 -0.455901
vt 0.939618 -0.478865
vt 0.876474 -0.517817
vt 0.813816 -0.559267
vt 0.752639 -0.596168
vt 0.688541 -0.622375
vt 0.626272 -0.641451
vt 0.564240 -0.652304
vt 0.501841 -0.517930
vt 0.440960 -0.515481
vt 0.380008 -0.508514
vt 0.318489 -0.495679
vt 0.258613 -0.475834
vt 0.196404 -0.450785
vt 0.132320 -0.421119
vt 0.068577 -0.392155
vt 0.005539 -0.376098
vt 0.998307 -0.375949
vt 0.935269 -0.392019
vt 0.871527 -0.420993
vt 0.807451 -0.450710
vt 0.745265 -0.475908
vt 0.685311 -0.495664
vt 0.623650 -0.508416
vt 0.562708 -0.515473
vt 0.501874 -0.385023
vt 0.441523 -0.383294
vt 0.381149 -0.378734
vt 0.320622 -0.369386
vt 0.259908 -0.356495
vt 0.196350 -0.339742
vt 0.133781 -0.317742
vt 0.071192 -0.296648
vt 0.007672 -0.286152
vt 0.996158 -0.286045
vt 0.932637 -0.296552
vt 0.870041 -0.317669
vt 0.807456 -0.339703
vt 0.743893 -0.356520
vt 0.683150 -0.369389
vt 0.622597 -0.378725
vt 0.562212 -0.383326
vt 0.502043 -0.255506
vt 0.441399 -0.254508
vt 0.380742 -0.251449
vt 0.319733 -0.245150
vt 0.258347 -0.237350
vt 0.196056 -0.224920
vt 0.135145 -0.209198
vt 0.071113 -0.194990
vt 0.007487 -0.188215
vt 0.996340 -0.188148
vt 0.932714 -0.194927
vt 0.868676 -0.209160
vt 0.807754 -0.224925
vt 0.745440 -0.237371
vt 0.684022 -0.245176
vt 0.622966 -0.251422
vt 0.562259 -0.254459
vt 0.501621 -0.128726
vt 0.441019 -0.128099
vt 0.379933 -0.126204
vt 0.318641 -0.121914
vt 0.257207 -0.117171
vt 0.195384 -0.108021
vt 0.133049 -0.098025
vt 0.070728 -0.087866
vt 0.007091 -0.083775
vt 0.996747 -0.083728
vt 0.933111 -0.087816
vt 0.870795 -0.098002
vt 0.808466 -0.108029
vt 0.746650 -0.117205
vt 0.685213 -0.121964
vt 0.623882 -0.126171
vt 0.562727 -0.127925
vt 0.501620 -0.003748
vt 0.440329 -0.003198
vt 0.378921 -0.002230
vt 0.317420 0.000829
vt 0.255956 0.003516
vt 0.194431 0.009859
vt 0.132435 0.016139
vt 0.068733 0.022904
vt 0.005684 0.025562
vt 0.998163 0.025614
vt 0.935118 0.022959
vt 0.871427 0.016181
vt 0.809458 0.009906
vt 0.747991 0.003526
vt 0.686637 0.000928
vt 0.625346 -0.002263
vt 0.562786 -0.003497
vt 0.502263 0.120026
vt 0.440707 0.120172
vt 0.377834 0.120768
vt 0.316129 0.123249
vt 0.253938 0.124670
vt 0.193828 0.128633
vt 0.130928 0.132257
vt 0.067744 0.136801
vt 0.004948 0.138422
vt 0.998898 0.138497
vt 0.936103 0.136873
vt 0.872914 0.132320
vt 0.809999 0.128679
vt 0.749848 0.124725
vt 0.687555 0.123208
vt 0.625653 0.120778
vt 0.563920 0.119948
vt 0.502080 0.242857
vt 0.439534 0.242984
vt 0.379043 0.243384
vt 0.317491 0.244716
vt 0.253760 0.246187
vt 0.192652 0.247609
vt 0.128970 0.249773
vt 0.066792 0.252818
vt 0.003779 0.253608
vt 1.000059 0.253723
vt 0.937048 0.252914
vt 0.874874 0.249843
vt 0.811198 0.247652
vt 0.750096 0.246208
vt 0.686396 0.244742
vt 0.624915 0.243387
vt 0.564565 0.243009
vt 0.502218 0.365408
vt 0.439935 0.365643
vt 0.377839 0.365638
vt 0.315834 0.365721
vt 0.253804 0.367166
vt 0.191375 0.367175
vt 0.128698 0.368630
vt 0.066859 0.369922
vt 0.003389 0.370245
vt 1.000422 0.370409
vt 0.936954 0.370051
vt 0.875125 0.368735
vt 0.812466 0.367257
vt 0.750061 0.367236
vt 0.688054 0.365800
vt 0.626075 0.365748
vt 0.563990 0.365728
s 1
f 1/1/1 17/2/2 18/3/3 2/4/4
f 2/4/4 18/3/3 19/5/5 3/6/6
f 3/6/6 19/5/5 20/7/7 4/8/8
f 4/8/8 20/7/7 21/9/9 5/10/10
f 5/10/10 21/9/9 22/11/11 6/12/12
f 6/12/12 22/11/11 23/13/13 7/14/14
f 7/14/14 23/13/13 24/15/15 8/16/16
f 8/16/16 24/15/15 25/17/17 9/18/18
f 9/19/18 25/20/17 26/21/19 10/22/20
f 10/22/20 26/21/19 27/23/21 11/24/22
f 11/24/22 27/23/21 28/25/23 12/26/24
f 12/26/24 28/25/23 29/27/25 13/28/26
f 13/28/26 29/27/25 30/29/27 14/30/28
f 14/30/28 30/29/27 31/31/29 15/32/30
f 15/32/30 31/31/29 32/33/31 16/34/32
f 16/34/32 32/33/31 17/2/2 1/1/1
f 17/2/2 33/35/33 34/36/34 18/3/3
f 18/3/3 34/36/34 35/37/35 19/5/5
f 19/5/5 35/37/35 36/38/36 20/7/7
f 20/7/7 36/38/36 37/39/37 21/9/9
f 21/9/9 37/39/37 38/40/38 22/11/11
f 22/11/11 38/40/38 39/41/39 23/13/13
f 23/13/13 39/41/39 40/42/40 24/15/15
f 24/15/15 40/42/40 41/43/41 25/17/17
f 25/20/17 41/44/41 42/45/42 26/21/19
f 26/21/19 42/45/42 43/46/43 27/23/21
f 27/23/21 43/46/43 44/47/44 28/25/23
f 28/25/23 44/47/44 45/48/45 29/27/25
f 29/27/25 45/48/45 46/49/46 30/29/27
f 30/29/27 46/49/46 47/50/47 31/31/29
f 31/31/29 47/50/47 48/51/48 32/33/31
f 32/33/31 48/51/48 33/35/33 17/2/2
f 33/35/33 49/52/49 50/53/50 34/36/34
f 34/36/34 50/53/50 51/54/51 35/37/35
f 35/37/35 51/54/51 52/55/52 36/38/36
f 36/38/36 52/55/52 53/56/53 37/39/37
f 37/39/37 53/56/53 54/57/54 38/40/38
f 38/40/38 54/57/54 55/58/55 39/41/39
f 39/41/39 55/58/55 56/59/56 40/42/40
f 40/42/40 56/59/56 57/60/57 41/43/41
f 41/44/41 57/61/57 58/62/58 42/45/42
f 42/45/42 58/62/58 59/63/59 43/46/43
f 43/46/43 59/63/59 60/64/60 44/47/44
f 44/47/44 60/64/60 61/65/61 45/48/45
f 45/48/45 61/65/61 62/66/62 46/49/46
f 46/49/46 62/66/62 63/67/63 47/50/47
f 47/50/47 63/67/63 64/68/64 48/51/48
f 48/51/48 64/68/64 49/52/49 33/35/33
f 49/52/49 65/69/65 66/70/66 50/53/50
f 50/53/50 66/70/66 67/71/67 51/54/51
f 51/54/51 67/71/67 68/72/68 52/55/52
f 52/55/52 68/72/68 69/73/69 53/56/53
f 53/56/53 69/73/69 70/74/70 54/57/54
f 54/57/54 70/74/70 71/75/71 55/58/55
f 55/58/55 71/75/71 72/76/72 56/59/56
f 56/59/56 72/76/72 73/77/73 57/60/57
f 57/61/57 73/78/73 74/79/74 58/62/58
f 58/62/58 74/79/74 75/80/75 59/63/59
f 59/63/59 75/80/75 76/81/76 60/64/60
f 60/64/60 76/81/76 77/82/77 61/65/61
f 61/65/61 77/82/77 78/83/78 62/66/62
f 62/66/62 78/83/78 79/84/79 63/67/63
f 63/67/63 79/84/79 80/85/80 64/68/64
f 64/68/64 80/85/80 65/69/65 49/52/49
f 65/69/65 81/86/81 82/87/82 66/70/66
f 66/70/66 82/87/82 83/88/83 67/71/67
f 67/71/67 83/88/83 84/89/84 68/72/68
f 68/72/68 84/89/84 85/90/85 69/73/69
f 69/73/69 85/90/85 86/91/86 70/74/70
f 70/74/70 86/91/86 87/92/87 71/75/71
f 71/75/71 87/92/87 88/93/88 72/76/72
f 72/76/72 88/93/88 89/94/89 73/77/73
f 73/78/73 89/95/89 90/96/90 74/79/74
f 74/79/74 90/96/90 91/97/91 75/80/75
f 75/80/75 91/97/91 92/98/92 76/81/76
f 76/81/76 92/98/92 93/99/93 77/82/77
f 77/82/77 93/99/93 94/100/94 78/83/78
f 78/83/78 94/100/94 95/101/95 79/84/79
f 79/84/79 95/101/95 96/102/96 80/85/80
f 80/85/80 96/102/96 81/86/81 65/69/65
f 81/86/81 97/103/97 98/104/98 82/87/82
f 82/87/82 98/104/98 99/105/99 83/88/83
f 83/88/83 99/105/99 100/106/100 84/89/84
f 84/89/84 100/106/100 101/107/101 85/90/85
f 85/90/85 101/107/101 102/108/102 86/91/86
f 86/91/86 102/108/102 103/109/103 87/92/87
f 87/92/87 103/109/103 104/110/104 88/93/88
f 88/93/88 104/110/104 105/111/105 89/94/89
f 89/95/89 105/112/105 106/113/106 90/96/90
f 90/96/90 106/113/106 107/114/107 91/97/91
f 91/97/91 107/114/107 108/115/108 92/98/92
f 92/98/92 108/115/108 109/116/109 93/99/93
f 93/99/93 109/116/109 110/117/110 94/100/94
f 94/100/94 110/117/110 111/118/111 95/101/95
f 95/101/95 111/118/111 112/119/112 96/102/96
f 96/102/96 112/119/112 97/103/97 81/86/81
f 97/103/97 113/120/113 114/121/114 98/104/98
f 98/104/98 114/121/114 115/122/115 99/105/99
f 99/105/99 115/122/115 116/123/116 100/106/100
f 100/106/100 116/123/116 117/124/117 101/107/101
f 101/107/101 117/124/117 118/125/118 102/108/102
f 102/108/102 118/125/118 119/126/119 103/109/103
f 103/109/103 119/126/119 120/127/120 104/110/104
f 104/110/104 120/127/120 121/128/121 105/111/105
f 105/112/105 121/129/121 122/130/122 106/113/106
f 106/113/106 122/130/122 123/131/123 107/114/107
f 107/114/107 123/131/123 124/132/124 108/115/108
f 108/115/108 124/132/124 125/133/125 109/116/109
f 109/116/109 125/133/125 126/134/126 110/117/110
f 110/117/110 126/134/126 127/135/127 111/118/111
f 111/118/111 127/135/127 128/136/128 112/119/112
f 112/119/112 128/136/128 113/120/113 97/103/97
f 113/120/113 129/137/129 130/138/130 114/121/114
f 114/121/114 130/138/130 131/139/131 115/122/115
f 115/122/115 131/139/131 132/140/132 116/123/116
f 116/123/116 132/140/132 133/141/133 117/124/117
f 117/124/117 133/141/133 134/142/134 118/125/118
f 118/125/118 134/142/134 135/143/135 119/126/119
f 119/126/119 135/143/135 136/144/136 120/127/120
f 120/127/120 136/144/136 137/145/137 121/128/121
f 121/129/121 137/146/137 138/147/138 122/130/122
f 122/130/122 138/147/138 139/148/139 123/131/123
f 123/131/123 139/148/139 140/149/140 124/132/124
f 124/132/124 140/149/140 141/150/141 125/133/125
f 125/133/125 141/150/141 142/151/142 126/134/126
f 126/134/126 142/151/142 143/152/143 127/135/127
f 127/135/127 143/152/143 144/153/144 128/136/128
f 128/136/128 144/153/144 129/137/129 113/120/113
f 129/137/129 145/154/145 146/155/146 130/138/130
f 130/138/130 146/155/146 147/156/147 131/139/131
f 131/139/131 147/156/147 148/157/148 132/140/132
f 132/140/132 148/157/148 149/158/149 133/141/133
f 133/141/133 149/158/149 150/159/150 134/142/134
f 134/142/134 150/159/150 151/160/151 135/143/135
f 135/143/135 151/160/151 152/161/152 136/144/136
f 136/144/136 152/161/152 153/162/153 137/145/137
f 137/146/137 153/163/153 154/164/154 138/147/138
f 138/147/138 154/164/154 155/165/155 139/148/139
f 139/148/139 155/165/155 156/166/156 140/149/140
f 140/149/140 156/166/156 157/167/157 141/150/141
f 141/150/141 157/167/157 158/168/158 142/151/142
f 142/151/142 158/168/158 159/169/159 143/152/143
f 143/152/143 159/169/159 160/170/160 144/153/144
f 144/153/144 160/170/160 145/154/145 129/137/129
f 145/154/145 161/171/161 162/172/162 146/155/146
f 146/155/146 162/172/162 163/173/163 147/156/147
f 147/156/147 163/173/163 164/174/164 148/157/148
f 148/157/148 164/174/164 165/175/165 149/158/149
f 149/158/149 165/175/165 166/176/166 150/159/150
f 150/159/150 166/176/166 167/177/167 151/160/151
f 151/160/151 167/177/167 168/178/168 152/161/152
f 152/161/152 168/178/168 169/179/169 153/162/153
f 153/163/153 169/180/169 170/181/170 154/164/154
f 154/164/154 170/181/170 171/182/171 155/165/155
f 155/165/155 171/182/171 172/183/172 156/166/156
f 156/166/156 172/183/172 173/184/173 157/167/157
f 157/167/157 173/184/173 174/185/174 158/168/158
f 158/168/158 174/185/174 175/186/175 159/169/159
f 159/169/159 175/186/175 176/187/176 160/170/160
f 160/170/160 176/187/176 161/171/161 145/154/145
f 161/171/161 177/188/177 178/189/178 162/172/162
f 162/172/162 178/189/178 179/190/179 163/173/163
f 163/173/163 179/190/179 180/191/180 164/174/164
f 164/174/164 180/191/180 181/192/181 165/175/165
f 165/175/165 181/192/181 182/193/182 166/176/166
f 166/176/166 182/193/182 183/194/183 167/177/167
f 167/177/167 183/194/183 184/195/184 168/178/168
f 168/178/168 184/195/184 185/196/185 169/179/169
f 169/180/169 185/197/185 186/198/186 170/181/170
f 170/181/170 186/198/186 187/199/187 171/182/171
f 171/182/171 187/199/187 188/200/188 172/183/172
f 172/183/172 188/200/188 189/201/189 173/184/173
f 173/184/173 189/201/189 190/202/190 174/185/174
f 174/185/174 190/202/190 191/203/191 175/186/175
f 175/186/175 191/203/191 192/204/192 176/187/176
f 176/187/176 192/204/192 177/188/177 161/171/161
f 177/188/177 193/205/18 194/206/193 178/189/178
f 178/189/178 194/206/193 195/207/194 179/190/179
f 179/190/179 195/207/194 196/208/195 180/191/180
f 180/191/180 196/208/195 197/209/196 181/192/181
f 181/192/181 197/209/196 198/210/197 182/193/182
f 182/193/182 198/210/197 199/211/198 183/194/183
f 183/194/183 199/211/198 200/212/199 184/195/184
f 184/195/184 200/212/199 201/213/1 185/196/185
f 185/197/185 201/214/1 202/215/200 186/198/186
f 186/198/186 202/215/200 203/216/201 187/199/187
f 187/199/187 203/216/201 204/217/202 188/200/188
f 188/200/188 204/217/202 205/218/203 189/201/189
f 189/201/189 205/218/203 206/219/204 190/202/190
f 190/202/190 206/219/204 207/220/205 191/203/191
f 191/203/191 207/220/205 208/221/206 192/204/192
f 192/204/192 208/221/206 193/205/18 177/188/177
f 193/222/18 209/223/17 210/224/207 194/225/193
f 194/225/193 210/224/207 211/226/208 195/227/194
f 195/227/194 211/226/208 212/228/209 196/229/195
f 196/229/195 212/228/209 213/230/210 197/231/196
f 197/231/196 213/230/210 214/232/211 198/233/197
f 198/233/197 214/232/211 215/234/212 199/235/198
f 199/235/198 215/234/212 216/236/213 200/237/199
f 200/237/199 216/236/213 217/238/2 201/239/1
f 201/240/1 217/241/2 218/242/214 202/243/200
f 202/243/200 218/242/214 219/244/215 203/245/201
f 203/245/201 219/244/215 220/246/216 204/247/202
f 204/247/202 220/246/216 221/248/217 205/249/203
f 205/249/203 221/248/217 222/250/218 206/251/204
f 206/251/204 222/250/218 223/252/219 207/253/205
f 207/253/205 223/252/219 224/254/220 208/255/206
f 208/255/206 224/254/220 209/223/17 193/222/18
f 209/223/17 225/256/41 226/257/221 210/224/207
f 210/224/207 226/257/221 227/258/222 211/226/208
f 211/226/208 227/258/222 228/259/223 212/228/209
f 212/228/209 228/259/223 229/260/224 213/230/210
f 213/230/210 229/260/224 230/261/225 214/232/211
f 214/232/211 230/261/225 231/262/226 215/234/212
f 215/234/212 231/262/226 232/263/227 216/236/213
f 216/236/213 232/263/227 233/264/33 217/238/2
f 217/241/2 233/265/33 234/266/228 218/242/214
f 218/242/214 234/266/228 235/267/229 219/244/215
f 219/244/215 235/267/229 236/268/230 220/246/216
f 220/246/216 236/268/230 237/269/231 221/248/217
f 221/248/217 237/269/231 238/270/232 222/250/218
f 222/250/218 238/270/232 239/271/233 223/252/219
f 223/252/219 239/271/233 240/272/234 224/254/220
f 224/254/220 240/272/234 225/256/41 209/223/17
f 225/256/41 241/273/57 242/274/235 226/257/221
f 226/257/221 242/274/235 243/275/236 227/258/222
f 227/258/222 243/275/236 244/276/237 228/259/223
f 228/259/223 244/276/237 245/277/238 229/260/224
f 229/260/224 245/277/238 246/278/239 230/261/225
f 230/261/225 246/278/239 247/279/240 231/262/226
f 231/262/226 247/279/240 248/280/241 232/263/227
f 232/263/227 248/280/241 249/281/49 233/264/33
f 233/265/33 249/282/49 250/283/242 234/266/228
f 234/266/228 250/283/242 251/284/243 235/267/229
f 235/267/229 251/284/243 252/285/244 236/268/230
f 236/268/230 252/285/244 253/286/245 237/269/231
f 237/269/231 253/286/245 254/287/246 238/270/232
f 238/270/232 254/287/246 255/288/247 239/271/233
f 239/271/233 255/288/247 256/289/248 240/272/234
f 240/272/234 256/289/248 241/273/57 225/256/41
f 241/273/57 257/290/73 258/291/249 242/274/235
f 242/274/235 258/291/249 259/292/250 243/275/236
f 243/275/236 259/292/250 260/293/251 244/276/237
f 244/276/237 260/293/251 261/294/252 245/277/238
f 245/277/238 261/294/252 262/295/253 246/278/239
f 246/278/239 262/295/253 263/296/254 247/279/240
f 247/279/240 263/296/254 264/297/255 248/280/241
f 248/280/241 264/297/255 265/298/65 249/281/49
f 249/282/49 265/299/65 266/300/256 250/283/242
f 250/283/242 266/300/256 267/301/257 251/284/243
f 251/284/243 267/301/257 268/302/258 252/285/244
f 252/285/244 268/302/258 269/303/259 253/286/245
f 253/286/245 269/303/259 270/304/260 254/287/246
f 254/287/246 270/304/260 271/305/261 255/288/247
f 255/288/247 271/305/261 272/306/262 256/289/248
f 256/289/248 272/306/262 257/290/73 241/273/57
f 257/290/73 273/307/89 274/308/263 258/291/249
f 258/291/249 274/308/263 275/309/264 259/292/250
f 259/292/250 275/309/264 276/310/265 260/293/251
f 260/293/251 276/310/265 277/311/266 261/294/252
f 261/294/252 277/311/266 278/312/267 262/295/253
f 262/295/253 278/312/267 279/313/268 263/296/254
f 263/296/254 279/313/268 280/314/269 264/297/255
f 264/297/255 280/314/269 281/315/81 265/298/65
f 265/299/65 281/316/81 282/317/270 266/300/256
f 266/300/256 282/317/270 283/318/271 267/301/257
f 267/301/257 283/318/271 284/319/272 268/302/258
f 268/302/258 284/319/272 285/320/273 269/303/259
f 269/303/259 285/320/273 286/321/274 270/304/260
f 270/304/260 286/321/274 287/322/275 271/305/261
f 271/305/261 287/322/275 288/323/276 272/306/262
f 272/306/262 288/323/276 273/307/89 257/290/73
f 273/307/89 289/324/105 290/325/277 274/308/263
f 274/308/263 290/325/277 291/326/278 275/309/264
f 275/309/264 291/326/278 292/327/279 276/310/265
f 276/310/265 292/327/279 293/328/280 277/311/266
f 277/311/266 293/328/280 294/329/281 278/312/267
f 278/312/267 294/329/281 295/330/282 279/313/268
f 279/313/268 295/330/282 296/331/283 280/314/269
f 280/314/269 296/331/283 297/332/97 281/315/81
f 281/316/81 297/333/97 298/334/284 282/317/270
f 282/317/270 298/334/284 299/335/285 283/318/271
f 283/318/271 299/335/285 300/336/286 284/319/272
f 284/319/272 300/336/286 301/337/287 285/320/273
f 285/320/273 301/337/287 302/338/288 286/321/274
f 286/321/274 302/338/288 303/339/289 287/322/275
f 287/322/275 303/339/289 304/340/290 288/323/276
f 288/323/276 304/340/290 289/324/105 273/307/89
f 289/324/105 305/341/121 306/342/291 290/325/277
f 290/325/277 306/342/291 307/343/292 291/326/278
f 291/326/278 307/343/292 308/344/293 292/327/279
f 292/327/279 308/344/293 309/345/294 293/328/280
f 293/328/280 309/345/294 310/346/295 294/329/281
f 294/329/281 310/346/295 311/347/296 295/330/282
f 295/330/282 311/347/296 312/348/297 296/331/283
f 296/331/283 312/348/297 313/349/113 297/332/97
f 297/333/97 313/350/113 314/351/298 298/334/284
f 298/334/284 314/351/298 315/352/299 299/335/285
f 299/335/285 315/352/299 316/353/300 300/336/286
f 300/336/286 316/353/300 317/354/301 301/337/287
f 301/337/287 317/354/301 318/355/302 302/338/288
f 302/338/288 318/355/302 319/356/303 303/339/289
f 303/339/289 319/356/303 320/357/304 304/340/290
f 304/340/290 320/357/304 305/341/121 289/324/105
f 305/341/121 321/358/137 322/359/305 306/342/291
f 306/342/291 322/359/305 323/360/306 307/343/292
f 307/343/292 323/360/306 324/361/307 308/344/293
f 308/344/293 324/361/307 325/362/308 309/345/294
f 309/345/294 325/362/308 326/363/309 310/346/295
f 310/346/295 326/363/309 327/364/310 311/347/296
f 311/347/296 327/364/310 328/365/311 312/348/297
f 312/348/297 328/365/311 329/366/129 313/349/113
f 313/350/113 329/367/129 330/368/312 314/351/298
f 314/351/298 330/368/312 331/369/313 315/352/299
f 315/352/299 331/369/313 332/370/314 316/353/300
f 316/353/300 332/370/314 333/371/315 317/354/301
f 317/354/301 333/371/315 334/372/316 318/355/302
f 318/355/302 334/372/316 335/373/317 319/356/303
f 319/356/303 335/373/317 336/374/318 320/357/304
f 320/357/304 336/374/318 321/358/137 305/341/121
f 321/358/137 337/375/153 338/376/319 322/359/305
f 322/359/305 338/376/319 339/377/320 323/360/306
f 323/360/306 339/377/320 340/378/321 324/361/307
f 324/361/307 340/378/321 341/379/322 325/362/308
f 325/362/308 341/379/322 342/380/323 326/363/309
f 326/363/309 342/380/323 343/381/324 327/364/310
f 327/364/310 343/381/324 344/382/325 328/365/311
f 328/365/311 344/382/325 345/383/145 329/366/129
f 329/367/129 345/384/145 346/385/326 330/368/312
f 330/368/312 346/385/326 347/386/327 331/369/313
f 331/369/313 347/386/327 348/387/328 332/370/314
f 332/370/314 348/387/328 349/388/329 333/371/315
f 333/371/315 349/388/329 350/389/330 334/372/316
f 334/372/316 350/389/330 351/390/331 335/373/317
f 335/373/317 351/390/331 352/391/332 336/374/318
f 336/374/318 352/391/332 337/375/153 321/358/137
f 337/375/153 353/392/169 354/393/333 338/376/319
f 338/376/319 354/393/333 355/394/334 339/377/320
f 339/377/320 355/394/334 356/395/335 340/378/321
f 340/378/321 356/395/335 357/396/336 341/379/322
f 341/379/322 357/396/336 358/397/337 342/380/323
f 342/380/323 358/397/337 359/398/338 343/381/324
f 343/381/324 359/398/338 360/399/339 344/382/325
f 344/382/325 360/399/339 361/400/161 345/383/145
f 345/384/145 361/401/161 362/402/340 346/385/326
f 346/385/326 362/402/340 363/403/341 347/386/327
f 347/386/327 363/403/341 364/404/342 348/387/328
f 348/387/328 364/404/342 365/405/343 349/388/329
f 349/388/329 365/405/343 366/406/344 350/389/330
f 350/389/330 366/406/344 367/407/345 351/390/331
f 351/390/331 367/407/345 368/408/346 352/391/332
f 352/391/332 368/408/346 353/392/169 337/375/153
f 353/392/169 369/409/185 370/410/347 354/393/333
f 354/393/333 370/410/347 371/411/348 355/394/334
f 355/394/334 371/411/348 372/412/349 356/395/335
f 356/395/335 372/412/349 373/413/350 357/396/336
f 357/396/336 373/413/350 374/414/351 358/397/337
f 358/397/337 374/414/351 375/415/352 359/398/338
f 359/398/338 375/415/352 376/416/353 360/399/339
f 360/399/339 376/416/353 377/417/177 361/400/161
f 361/401/161 377/418/177 378/419/354 362/402/340
f 362/402/340 378/419/354 379/420/355 363/403/341
f 363/403/341 379/420/355 380/421/356 364/404/342
f 364/404/342 380/421/356 381/422/357 365/405/343
f 365/405/343 381/422/357 382/423/358 366/406/344
f 366/406/344 382/423/358 383/424/359 367/407/345
f 367/407/345 383/424/359 384/425/360 368/408/346
f 368/408/346 384/425/360 369/409/185 353/392/169
f 369/409/185 1/1/1 2/4/4 370/410/347
f 370/410/347 2/4/4 3/6/6 371/411/348
f 371/411/348 3/6/6 4/8/8 372/412/349
f 372/412/349 4/8/8 5/10/10 373/413/350
f 373/413/350 5/10/10 6/12/12 374/414/351
f 374/414/351 6/12/12 7/14/14 375/415/352
f 375/415/352 7/14/14 8/16/16 376/416/353
f 376/416/353 8/16/16 9/18/18 377/417/177
f 377/418/177 9/19/18 10/22/20 378/419/354
f 378/419/354 10/22/20 11/24/22 379/420/355
f 379/420/355 11/24/22 12/26/24 380/421/356
f 380/421/356 12/26/24 13/28/26 381/422/357
f 381/422/357 13/28/26 14/30/28 382/423/358
f 382/423/358 14/30/28 15/32/30 383/424/359
f 383/424/359 15/32/30 16/34/32 384/425/360
f 384/425/360 16/34/32 1/1/1 369/409/185
