# Blender 5.2.1 LTS
# www.blender.org
o 2CornerRoad
v 3.422634 0.000000 -12.000002
v -3.377366 0.000000 -11.999998
v 3.422636 0.000000 -8.000002
v -3.377364 0.000000 -7.999998
v 3.422639 0.000000 -3.374650
v -3.377362 0.000000 -3.374646
v -8.000003 0.000000 -3.374644
v -12.000002 0.000000 -3.374641
v 3.422641 0.000000 0.025350
v 3.422643 0.000000 3.425350
v 0.022643 0.000000 3.425352
v -3.377358 0.000000 3.425354
v -7.999999 0.000000 3.425357
v -11.999998 0.000000 3.425359
v 5.999993 0.000000 -12.000004
v 3.422635 0.000000 -10.000002
v 5.999995 0.000000 -8.000003
v -3.377365 0.000000 -9.999998
v -6.000008 0.000000 -11.999996
v -6.000005 0.000000 -7.999996
v 3.422637 0.000000 -6.000002
v 5.999998 0.000000 -3.374651
v -3.377363 0.000000 -5.999998
v -8.000005 0.000000 -5.999995
v -6.000003 0.000000 -3.374645
v -12.000004 0.000000 -5.999993
v -10.000002 0.000000 -3.374642
v 3.422640 0.000000 -1.674650
v 6.000000 0.000000 0.025349
v 3.422642 0.000000 1.725350
v 6.000002 0.000000 3.425349
v 1.722643 0.000000 3.425351
v -1.677357 0.000000 3.425353
v -5.999999 0.000000 3.425356
v -9.999998 0.000000 3.425358
v 3.422644 0.000000 5.999998
v 0.022644 0.000000 6.000000
v -3.377356 0.000000 6.000002
v -7.999998 0.000000 6.000005
v -11.999996 0.000000 6.000008
v -9.999996 0.000000 6.000007
v -5.999998 0.000000 6.000004
v -1.677356 0.000000 6.000001
v 1.722644 0.000000 5.999999
v 6.000003 0.000000 5.999998
v 6.000001 0.000000 1.725349
v 5.999999 0.000000 -1.674651
v -10.000004 0.000000 -5.999994
v -6.000004 0.000000 -5.999996
v 5.999996 0.000000 -6.000003
v -6.000007 0.000000 -9.999996
v 5.999994 0.000000 -10.000004
v 3.422635 -0.200000 -10.000002
v 3.422636 -0.200000 -8.000002
v 1.722634 -0.200000 -12.000001
v 0.022634 -0.200000 -12.000000
v 0.022635 -0.200000 -10.000000
v 0.022636 -0.200000 -8.000000
v 1.722636 -0.200000 -8.000001
v -1.677366 -0.200000 -11.999999
v -3.377366 -0.200000 -11.999998
v -3.377365 -0.200000 -9.999998
v -3.377364 -0.200000 -7.999998
v -1.677364 -0.200000 -7.999999
v 3.422637 -0.200000 -6.000002
v 3.422639 -0.200000 -3.374650
v 0.022638 -0.200000 -6.000000
v 0.022639 -0.200000 -3.374648
v 1.722639 -0.200000 -3.374649
v -3.377363 -0.200000 -5.999998
v -3.377362 -0.200000 -3.374646
v -1.677361 -0.200000 -3.374647
v -6.000003 -0.200000 -3.374645
v -10.000002 -0.200000 -3.374642
v -8.000003 -0.200000 -3.374644
v 3.422640 -0.200000 -1.674650
v 3.422641 -0.200000 0.025350
v 0.022640 -0.200000 -1.674648
v 0.022641 -0.200000 0.025352
v 1.722641 -0.200000 0.025351
v -3.377361 -0.200000 -1.674646
v -3.377360 -0.200000 0.025354
v -1.677359 -0.200000 0.025353
v -8.000002 -0.200000 -1.674643
v -8.000001 -0.200000 0.025357
v -6.000001 -0.200000 0.025355
v -12.000001 -0.200000 -1.674641
v -12.000000 -0.200000 0.025359
v -10.000000 -0.200000 0.025358
v 3.422642 -0.200000 1.725350
v 3.422643 -0.200000 3.425350
v 0.022642 -0.200000 1.725352
v 0.022643 -0.200000 3.425352
v 1.722643 -0.200000 3.425351
v -3.377359 -0.200000 1.725354
v -3.377358 -0.200000 3.425354
v -1.677357 -0.200000 3.425353
v -8.000000 -0.200000 1.725357
v -7.999999 -0.200000 3.425357
v -5.999999 -0.200000 3.425356
v -11.999999 -0.200000 1.725359
v -11.999998 -0.200000 3.425359
v -9.999998 -0.200000 3.425358
v 3.422634 -0.200000 -12.000002
v -12.000002 -0.200000 -3.374641
v -9.999999 -0.200000 1.725358
v -6.000000 -0.200000 1.725356
v -1.677358 -0.200000 1.725353
v 1.722642 -0.200000 1.725351
v -10.000001 -0.200000 -1.674642
v -6.000002 -0.200000 -1.674645
v -1.677360 -0.200000 -1.674647
v 1.722640 -0.200000 -1.674649
v -1.677363 -0.200000 -5.999999
v 1.722638 -0.200000 -6.000001
v -1.677365 -0.200000 -9.999999
v 1.722635 -0.200000 -10.000001
v 3.680370 0.000000 -12.000002
v 3.680372 0.000000 -8.000002
v 3.680375 0.000000 -3.374650
v 3.680377 0.000000 0.025350
v 3.680378 0.000000 3.425350
v 3.680380 0.000000 5.999998
v 3.680377 0.000000 1.725350
v 3.680376 0.000000 -1.674650
v 3.680373 0.000000 -6.000002
v 3.680371 0.000000 -10.000002
v -3.639628 0.000000 -7.999998
v -3.639626 0.000000 -3.374646
v -3.639622 0.000000 3.425354
v -3.639630 0.000000 -11.999998
v -3.639620 0.000000 6.000002
v -3.639627 0.000000 -5.999998
v -3.639629 0.000000 -9.999998
v -3.639626 -0.200000 -3.374646
v -3.639624 -0.200000 0.025354
v -3.639622 -0.200000 3.425354
v -3.639623 -0.200000 1.725354
v -3.639625 -0.200000 -1.674646
v 3.422643 0.000000 3.682815
v 0.022643 0.000000 3.682817
v -3.377357 0.000000 3.682819
v -7.999999 0.000000 3.682822
v -11.999998 0.000000 3.682824
v -9.999998 0.000000 3.682823
v -5.999999 0.000000 3.682821
v -1.677357 0.000000 3.682818
v 1.722643 0.000000 3.682816
v 6.000002 0.000000 3.682814
v 3.680379 0.000000 3.682815
v -3.639621 0.000000 3.682819
v 3.422639 0.000000 -3.637185
v -3.377362 0.000000 -3.637181
v -8.000003 0.000000 -3.637179
v -12.000002 0.000000 -3.637177
v -10.000002 0.000000 -3.637177
v -6.000003 0.000000 -3.637180
v 5.999998 0.000000 -3.637187
v 3.422639 -0.200000 -3.637185
v 0.022639 -0.200000 -3.637183
v -3.377362 -0.200000 -3.637181
v -1.677361 -0.200000 -3.637182
v 1.722639 -0.200000 -3.637184
v 3.680374 0.000000 -3.637185
v -3.639626 0.000000 -3.637181
v 3.680370 0.040000 -12.000002
v 3.422634 0.040000 -12.000002
v 3.422635 0.040000 -10.000002
v 3.422636 0.040000 -8.000002
v -3.377365 0.040000 -9.999998
v -3.377364 0.040000 -7.999998
v -3.639628 0.040000 -7.999998
v 3.422639 0.040000 -3.637185
v 3.422639 0.040000 -3.374650
v -3.377362 0.040000 -3.637181
v -3.377362 0.040000 -3.374646
v -8.000003 0.040000 -3.637179
v -8.000003 0.040000 -3.374644
v -3.639626 0.040000 -3.374646
v -12.000002 0.040000 -3.637177
v -12.000002 0.040000 -3.374641
v -10.000002 0.040000 -3.374642
v 3.422640 0.040000 -1.674650
v 3.422641 0.040000 0.025350
v 3.422642 0.040000 1.725350
v 3.422643 0.040000 3.425350
v 1.722643 0.040000 3.425351
v -1.677357 0.040000 3.425353
v 0.022643 0.040000 3.425352
v -3.639622 0.040000 3.425354
v -3.377358 0.040000 3.425354
v -9.999998 0.040000 3.425358
v -7.999999 0.040000 3.425357
v -3.377366 0.040000 -11.999998
v 3.422637 0.040000 -6.000002
v -3.377363 0.040000 -5.999998
v -6.000003 0.040000 -3.374645
v -5.999999 0.040000 3.425356
v -11.999998 0.040000 3.425359
v -10.000002 0.040000 -3.637177
v -6.000003 0.040000 -3.637180
v -3.639627 0.040000 -5.999998
v -3.639629 0.040000 -9.999998
v 3.680372 0.040000 -8.000002
v 3.680375 0.040000 -3.374650
v 3.680377 0.040000 0.025350
v 3.680378 0.040000 3.425350
v 3.680377 0.040000 1.725350
v 3.680376 0.040000 -1.674650
v 3.680373 0.040000 -6.000002
v 3.680371 0.040000 -10.000002
v 3.680374 0.040000 -3.637185
v -3.639630 0.040000 -11.999998
v -3.639626 0.040000 -3.637181
v 3.422643 0.040000 3.682815
v 0.022643 0.040000 3.682817
v -3.377357 0.040000 3.682819
v -7.999999 0.040000 3.682822
v -11.999998 0.040000 3.682824
v -9.999998 0.040000 3.682823
v -5.999999 0.040000 3.682821
v -1.677357 0.040000 3.682818
v 1.722643 0.040000 3.682816
v 3.680379 0.040000 3.682815
v -3.639621 0.040000 3.682819
vn -1.0000 -0.0000 -0.0000
vn -0.0000 -0.0000 1.0000
vn 1.0000 -0.0000 -0.0000
vn -0.0000 1.0000 -0.0000
vn -0.0000 -0.0000 -1.0000
vt 0.582454 0.045509
vt 0.612755 0.045509
vt 0.612755 0.050126
vt 0.582454 0.050126
vt 1.005172 0.045509
vt 1.201381 0.045509
vt 1.201381 0.050126
vt 1.005172 0.050126
vt 0.717177 0.045232
vt 0.989604 0.045232
vt 0.989604 0.049849
vt 0.717177 0.049849
vt 0.486186 0.061668
vt 0.255353 0.061668
vt 0.255353 0.057051
vt 0.486186 0.057051
vt 0.078911 0.084490
vt -0.151923 0.084490
vt -0.151923 0.079873
vt 0.078911 0.079873
vt -0.988419 7.642650
vt -0.547331 7.642650
vt -0.547331 8.153690
vt -0.988419 8.153690
vt -0.106243 7.642650
vt -0.106243 8.153690
vt -1.950075 7.642650
vt -1.429507 7.642650
vt -1.429507 8.153690
vt -1.950075 8.153690
vt -2.757766 7.642650
vt -2.382841 7.642650
vt -2.382841 8.153690
vt -2.757766 8.153690
vt -2.007913 7.642650
vt -2.007913 8.153690
vt -3.507616 7.642650
vt -3.132690 7.642650
vt -3.132690 8.153690
vt -3.507616 8.153690
vt -3.564459 7.642650
vt -3.564459 8.153690
vt 1.005172 0.022426
vt 1.201381 0.022426
vt 0.486186 0.084751
vt 0.255353 0.084751
vt 1.201209 0.061391
vt 1.397418 0.061391
vt 1.397418 0.084474
vt 1.201209 0.084474
vt 0.309745 0.045509
vt 0.309745 0.022426
vt 0.582454 0.022426
vt -0.151923 0.045509
vt -0.382757 0.045510
vt -0.382757 0.022426
vt -0.151923 0.022426
vt 0.808964 0.045509
vt 0.808964 0.022426
vt 0.078911 0.045509
vt 0.078911 0.050126
vt -0.151923 0.050126
vt 1.397590 0.045509
vt 1.397590 0.022426
vt 0.255509 0.045232
vt 0.024675 0.045232
vt 0.024675 0.022149
vt 0.255509 0.022149
vt -0.382616 0.061391
vt -0.151782 0.061391
vt -0.151782 0.084474
vt -0.382616 0.084474
vt 0.486343 0.045232
vt 0.486343 0.022149
vt 0.717177 0.022149
vt 0.078911 0.022426
vt 0.079052 0.061391
vt 0.309886 0.061391
vt 0.309886 0.084474
vt 0.079052 0.084474
vt 0.612583 0.061391
vt 0.808791 0.061391
vt 0.808791 0.084474
vt 0.612583 0.084474
vt 0.808964 0.050126
vt 0.612755 0.084490
vt 0.582454 0.084490
vt 0.582454 0.079873
vt 0.612755 0.079873
vt -1.950075 5.066072
vt -1.429507 5.066072
vt -1.429507 5.507162
vt -1.950075 5.507162
vt 0.717020 0.061668
vt 0.717020 0.084751
vt 0.989604 0.022149
vt 0.582313 0.061391
vt 0.582313 0.084474
vt 0.024519 0.061668
vt 0.024519 0.084751
vt 0.255509 0.049849
vt 0.024675 0.049849
vt -1.950075 4.624983
vt -1.429507 4.624983
vt -1.950075 4.183896
vt -1.429507 4.183896
vt 1.005000 0.061391
vt 1.005000 0.084474
vt 0.989729 0.061668
vt 1.020030 0.061668
vt 1.020030 0.084751
vt 0.989729 0.084751
vt 0.612755 0.022426
vt 1.005172 0.084490
vt 0.808964 0.084490
vt 0.808964 0.079873
vt 1.005172 0.079873
vt -3.223037 4.660696
vt -2.843819 4.660696
vt -2.843819 5.106836
vt -3.223037 5.106836
vt -2.464602 4.660696
vt -2.085379 4.660696
vt -2.085379 5.106836
vt -2.464602 5.106836
vt -3.223037 6.080049
vt -2.843819 6.080049
vt -2.843819 6.138613
vt -3.223037 6.138613
vt -2.464602 6.080049
vt -2.085379 6.080049
vt -2.085379 6.138613
vt -2.464602 6.138613
vt -3.223037 6.517832
vt -2.843819 6.517832
vt -2.843819 6.897049
vt -3.223037 6.897049
vt -2.464602 6.517832
vt -2.085379 6.517832
vt -2.085379 6.897049
vt -2.464602 6.897049
vt -1.500349 6.517832
vt -1.054210 6.517832
vt -1.054210 6.897049
vt -1.500349 6.897049
vt -0.608070 6.517832
vt -0.161931 6.517832
vt -0.161931 6.897049
vt -0.608070 6.897049
vt -3.223037 7.276271
vt -2.843819 7.276271
vt -2.843819 7.655491
vt -3.223037 7.655491
vt -2.464602 7.276271
vt -2.085379 7.276271
vt -2.085379 7.655491
vt -2.464602 7.655491
vt -1.500349 7.276271
vt -1.054210 7.276271
vt -1.054210 7.655491
vt -1.500349 7.655491
vt -0.608070 7.276271
vt -0.161931 7.276271
vt -0.161931 7.655491
vt -0.608070 7.655491
vt -2.026880 7.276271
vt -2.026880 7.655491
vt -2.026880 6.897049
vt -3.602254 7.276271
vt -3.602254 7.655491
vt -3.602254 6.897049
vt -1.054210 6.138613
vt -0.608070 6.138613
vt -0.161931 6.138613
vt -2.026880 6.517832
vt -2.026880 6.138613
vt -1.500349 6.138613
vt -3.602254 6.517832
vt -3.602254 6.138613
vt -2.464602 5.552975
vt -2.843819 5.552975
vt -2.085379 5.552975
vt -3.602254 6.080049
vt -3.602254 5.106836
vt -3.223037 5.552975
vt -3.602254 5.552975
vt -2.843819 4.214557
vt -2.464602 4.214557
vt -2.085379 4.214557
vt -3.602254 4.660696
vt -3.602254 4.214557
vt -3.223037 4.214557
vt -4.076036 4.183896
vt -3.564459 4.183896
vt -3.564459 4.624983
vt -4.076036 4.624983
vt -4.076036 5.066072
vt -3.564459 5.066072
vt -3.564459 5.507162
vt -4.076036 5.507162
vt -4.076036 6.086167
vt -3.564459 6.086167
vt -3.564459 6.461092
vt -4.076036 6.461092
vt -4.076036 6.836017
vt -3.564459 6.836017
vt -3.564459 7.210944
vt -4.076036 7.210944
vt -4.076036 7.642650
vt -4.076036 8.153690
vt -3.564459 7.585867
vt -4.076036 7.585867
vt -4.076036 6.028267
vt -3.564459 6.028267
vt 0.486343 0.049849
vt 1.397590 0.084490
vt 1.201381 0.084490
vt 1.201381 0.079873
vt 1.397590 0.079873
vt 1.019874 0.045232
vt 1.019874 0.022149
vt 0.717020 0.057051
vt 0.989729 0.057051
vt 0.486186 0.022165
vt 0.717020 0.022165
vt 0.717020 0.026781
vt 0.486186 0.026781
vt 0.309745 0.050126
vt -0.151782 0.022442
vt 0.079052 0.022442
vt 0.079052 0.027058
vt -0.151782 0.027058
vt 0.717177 0.084767
vt 0.486343 0.084767
vt 0.486343 0.080150
vt 0.717177 0.080150
vt 0.309745 0.084490
vt 0.309745 0.079873
vt 0.024519 0.057051
vt -0.382616 0.022442
vt -0.382616 0.027058
vt 0.255509 0.084767
vt 0.024675 0.084767
vt 0.024675 0.080150
vt 0.255509 0.080150
vt -1.429507 6.028267
vt -1.950075 6.028267
vt -0.988419 5.507162
vt -0.547331 5.507162
vt -0.547331 6.028267
vt -0.988419 6.028267
vt -0.106243 5.507162
vt -0.106243 6.028267
vt -0.382757 0.084490
vt -0.382757 0.079873
vt 1.397590 0.050126
vt 0.989604 0.080150
vt -0.382757 0.050126
vt 0.024519 0.026781
vt 0.255353 0.026781
vt 0.989729 0.026781
vt 1.020030 0.057051
vt 0.612583 0.056774
vt 0.582313 0.056774
vt 0.582313 0.027058
vt 0.612583 0.027058
vt 1.427306 0.079873
vt 1.201209 0.056774
vt 1.005000 0.056774
vt 1.005000 0.027058
vt 1.201209 0.027058
vt 1.397418 0.056774
vt 1.397418 0.027058
vt 0.808791 0.056774
vt 0.808791 0.027058
vt 0.309886 0.056774
vt 0.079052 0.056774
vt 0.309886 0.027058
vt -0.151782 0.056774
vt -0.382615 0.056774
vt 1.019874 0.049849
vt 0.989729 0.022165
vt 1.427306 0.084490
vt 0.582313 0.022442
vt 0.612583 0.022442
vt 1.397418 0.022442
vt 1.427165 0.022442
vt 1.427165 0.027058
vt 1.005000 0.022442
vt 1.201209 0.022442
vt 0.808791 0.022442
vt 0.989604 0.084767
vt 0.309886 0.022442
vt 0.024519 0.022165
vt 0.255353 0.022165
s 0
f 152/1/1 5/2/1 174/3/1 173/4/1
f 9/5/1 30/6/1 185/7/1 184/8/1
f 25/9/2 129/10/2 179/11/2 197/12/2
f 4/13/3 18/14/3 170/15/3 171/16/3
f 119/17/3 127/18/3 211/19/3 204/20/3
f 143/21/4 145/22/4 41/23/4 39/24/4
f 145/22/4 144/25/4 40/26/4 41/23/4
f 151/27/4 146/28/4 42/29/4 132/30/4
f 146/28/4 143/21/4 39/24/4 42/29/4
f 141/31/4 147/32/4 43/33/4 37/34/4
f 147/32/4 142/35/4 38/36/4 43/33/4
f 140/37/4 148/38/4 44/39/4 36/40/4
f 148/38/4 141/31/4 37/34/4 44/39/4
f 150/41/4 140/37/4 36/40/4 123/42/4
f 30/6/1 9/5/1 77/43/1 90/44/1
f 18/14/3 4/13/3 63/45/3 62/46/3
f 32/47/5 10/48/5 91/49/5 94/50/5
f 152/1/1 21/51/1 65/52/1 159/53/1
f 16/54/1 1/55/1 104/56/1 53/57/1
f 9/5/1 28/58/1 76/59/1 77/43/1
f 16/54/1 3/60/1 169/61/1 168/62/1
f 10/63/1 30/6/1 90/44/1 91/64/1
f 27/65/2 8/66/2 105/67/2 74/68/2
f 14/69/5 35/70/5 103/71/5 102/72/5
f 25/9/2 7/73/2 75/74/2 73/75/2
f 3/60/1 16/54/1 53/57/1 54/76/1
f 13/77/5 34/78/5 100/79/5 99/80/5
f 7/73/2 27/65/2 74/68/2 75/74/2
f 35/70/5 13/77/5 99/80/5 103/71/5
f 12/81/5 33/82/5 97/83/5 96/84/5
f 5/2/1 28/58/1 183/85/1 174/3/1
f 120/86/3 164/87/3 212/88/3 205/89/3
f 128/90/4 20/91/4 49/92/4 133/93/4
f 4/13/3 23/94/3 70/95/3 63/45/3
f 129/10/2 25/9/2 73/75/2 135/96/2
f 130/97/5 12/81/5 96/84/5 137/98/5
f 2/99/3 18/14/3 62/46/3 61/100/3
f 8/66/2 27/65/2 182/101/2 181/102/2
f 134/103/4 51/104/4 20/91/4 128/90/4
f 131/105/4 19/106/4 51/104/4 134/103/4
f 11/107/5 32/47/5 94/50/5 93/108/5
f 33/82/5 11/107/5 93/108/5 97/83/5
f 153/109/3 6/110/3 71/111/3 161/112/3
f 21/51/1 3/60/1 54/76/1 65/52/1
f 28/58/1 5/2/1 66/113/1 76/59/1
f 121/114/3 125/115/3 209/116/3 206/117/3
f 117/118/4 57/119/4 58/120/4 59/121/4
f 116/122/4 62/123/4 63/124/4 64/125/4
f 163/126/4 160/127/4 68/128/4 69/129/4
f 162/130/4 161/131/4 71/132/4 72/133/4
f 113/134/4 78/135/4 79/136/4 80/137/4
f 112/138/4 81/139/4 82/140/4 83/141/4
f 111/142/4 84/143/4 85/144/4 86/145/4
f 110/146/4 87/147/4 88/148/4 89/149/4
f 109/150/4 92/151/4 93/152/4 94/153/4
f 108/154/4 95/155/4 96/156/4 97/157/4
f 107/158/4 98/159/4 99/160/4 100/161/4
f 106/162/4 101/163/4 102/164/4 103/165/4
f 98/159/4 106/162/4 103/165/4 99/160/4
f 85/144/4 89/149/4 106/162/4 98/159/4
f 89/149/4 88/148/4 101/163/4 106/162/4
f 138/166/4 107/158/4 100/161/4 137/167/4
f 136/168/4 86/145/4 107/158/4 138/166/4
f 86/145/4 85/144/4 98/159/4 107/158/4
f 92/151/4 108/154/4 97/157/4 93/152/4
f 79/136/4 83/141/4 108/154/4 92/151/4
f 83/141/4 82/140/4 95/155/4 108/154/4
f 90/169/4 109/150/4 94/153/4 91/170/4
f 77/171/4 80/137/4 109/150/4 90/169/4
f 80/137/4 79/136/4 92/151/4 109/150/4
f 84/143/4 110/146/4 89/149/4 85/144/4
f 75/172/4 74/173/4 110/146/4 84/143/4
f 74/173/4 105/174/4 87/147/4 110/146/4
f 139/175/4 111/142/4 86/145/4 136/168/4
f 135/176/4 73/177/4 111/142/4 139/175/4
f 73/177/4 75/172/4 84/143/4 111/142/4
f 78/135/4 112/138/4 83/141/4 79/136/4
f 68/128/4 72/133/4 112/138/4 78/135/4
f 72/133/4 71/132/4 81/139/4 112/138/4
f 76/178/4 113/134/4 80/137/4 77/171/4
f 66/179/4 69/129/4 113/134/4 76/178/4
f 69/129/4 68/128/4 78/135/4 113/134/4
f 160/127/4 162/130/4 72/133/4 68/128/4
f 58/120/4 64/125/4 114/180/4 67/181/4
f 64/125/4 63/124/4 70/182/4 114/180/4
f 159/183/4 163/126/4 69/129/4 66/179/4
f 54/184/4 59/121/4 115/185/4 65/186/4
f 59/121/4 58/120/4 67/181/4 115/185/4
f 57/119/4 116/122/4 64/125/4 58/120/4
f 56/187/4 60/188/4 116/122/4 57/119/4
f 60/188/4 61/189/4 62/123/4 116/122/4
f 53/190/4 117/118/4 59/121/4 54/184/4
f 104/191/4 55/192/4 117/118/4 53/190/4
f 55/192/4 56/187/4 57/119/4 117/118/4
f 15/193/4 118/194/4 127/195/4 52/196/4
f 17/197/4 119/198/4 126/199/4 50/200/4
f 22/201/4 120/202/4 125/203/4 47/204/4
f 29/205/4 121/206/4 124/207/4 46/208/4
f 149/209/4 150/41/4 123/42/4 45/210/4
f 46/208/4 124/207/4 122/211/4 31/212/4
f 47/204/4 125/203/4 121/206/4 29/205/4
f 158/213/4 164/214/4 120/202/4 22/201/4
f 52/196/4 127/195/4 119/198/4 17/197/4
f 71/132/4 135/176/4 139/175/4 81/139/4
f 81/139/4 139/175/4 136/168/4 82/140/4
f 82/140/4 136/168/4 138/166/4 95/155/4
f 95/155/4 138/166/4 137/167/4 96/156/4
f 7/73/2 25/9/2 197/12/2 178/215/2
f 122/216/3 124/217/3 208/218/3 207/219/3
f 34/78/5 130/97/5 137/98/5 100/79/5
f 6/220/2 129/10/2 135/96/2 71/221/2
f 23/94/3 4/13/3 171/16/3 196/222/3
f 153/109/3 23/94/3 196/222/3 175/223/3
f 142/35/4 151/27/4 132/30/4 38/36/4
f 124/217/3 121/114/3 206/117/3 208/218/3
f 31/212/4 122/211/4 150/41/4 149/209/4
f 128/224/1 133/225/1 202/226/1 172/227/1
f 3/60/1 21/51/1 195/228/1 169/61/1
f 21/51/1 152/1/1 173/4/1 195/228/1
f 125/115/3 120/86/3 205/89/3 209/116/3
f 145/229/2 143/230/2 218/231/2 220/232/2
f 157/233/5 154/234/5 177/235/5 201/236/5
f 126/237/3 119/17/3 204/20/3 210/238/3
f 18/14/3 2/99/3 194/239/3 170/15/3
f 144/240/2 145/229/2 220/232/2 219/241/2
f 156/242/5 155/243/5 180/244/5 200/245/5
f 50/200/4 126/199/4 164/214/4 158/213/4
f 65/186/4 115/185/4 163/126/4 159/183/4
f 67/181/4 114/180/4 162/130/4 160/127/4
f 114/180/4 70/182/4 161/131/4 162/130/4
f 115/185/4 67/181/4 160/127/4 163/126/4
f 23/94/3 153/109/3 161/112/3 70/95/3
f 133/93/4 49/92/4 157/246/4 165/247/4
f 24/248/4 48/249/4 156/250/4 154/251/4
f 5/2/1 152/1/1 159/53/1 66/113/1
f 48/249/4 26/252/4 155/253/4 156/250/4
f 49/92/4 24/248/4 154/251/4 157/246/4
f 127/18/3 118/254/3 166/255/3 211/19/3
f 211/19/4 168/62/4 169/61/4 204/20/4
f 212/88/4 173/4/4 174/3/4 205/89/4
f 201/236/4 177/235/4 178/215/4 197/12/4
f 200/245/4 180/244/4 181/102/4 182/101/4
f 209/116/4 183/85/4 184/8/4 206/117/4
f 208/218/4 185/7/4 186/256/4 207/219/4
f 206/117/4 184/8/4 185/7/4 208/218/4
f 205/89/4 174/3/4 183/85/4 209/116/4
f 177/235/4 200/245/4 182/101/4 178/215/4
f 214/257/4 201/236/4 197/12/4 179/11/4
f 204/20/4 169/61/4 195/228/4 210/238/4
f 166/255/4 167/258/4 168/62/4 211/19/4
f 194/239/4 213/259/4 203/260/4 170/15/4
f 170/15/4 203/260/4 172/227/4 171/16/4
f 171/16/4 172/227/4 202/226/4 196/222/4
f 175/223/4 214/261/4 176/262/4
f 191/263/4 190/264/4 225/265/4 217/266/4
f 207/219/4 186/256/4 224/267/4
f 187/268/4 189/269/4 216/270/4 223/271/4
f 186/272/4 187/268/4 223/271/4 215/273/4
f 188/274/4 191/263/4 217/266/4 222/275/4
f 189/269/4 188/274/4 222/275/4 216/270/4
f 198/276/4 193/277/4 218/231/4 221/278/4
f 190/264/4 198/276/4 221/278/4 225/265/4
f 192/279/4 199/280/4 219/241/4 220/232/4
f 193/277/4 192/279/4 220/232/4 218/231/4
f 196/222/4 202/226/4 214/261/4 175/223/4
f 210/238/4 195/228/4 173/4/4 212/88/4
f 130/97/5 34/78/5 198/276/5 190/264/5
f 6/110/3 153/109/3 175/223/3 176/262/3
f 32/47/5 11/107/5 189/269/5 187/268/5
f 33/82/5 12/81/5 191/263/5 188/274/5
f 129/10/2 6/220/2 176/281/2 179/11/2
f 164/87/3 126/237/3 210/238/3 212/88/3
f 34/78/5 13/77/5 193/277/5 198/276/5
f 133/225/1 165/282/1 214/261/1 202/226/1
f 150/283/3 122/216/3 207/219/3 224/267/3
f 27/65/2 7/73/2 178/215/2 182/101/2
f 35/70/5 14/69/5 199/280/5 192/279/5
f 28/58/1 9/5/1 184/8/1 183/85/1
f 151/284/2 142/285/2 217/266/2 225/265/2
f 30/6/1 10/63/1 186/256/1 185/7/1
f 10/48/5 32/47/5 187/268/5 186/272/5
f 140/286/2 150/287/2 224/288/2 215/273/2
f 11/107/5 33/82/5 188/274/5 189/269/5
f 141/289/2 148/290/2 223/271/2 216/270/2
f 12/81/5 130/97/5 190/264/5 191/263/5
f 148/290/2 140/286/2 215/273/2 223/271/2
f 142/285/2 147/291/2 222/275/2 217/266/2
f 165/292/5 157/233/5 201/236/5 214/257/5
f 13/77/5 35/70/5 192/279/5 193/277/5
f 147/291/2 141/289/2 216/270/2 222/275/2
f 154/234/5 156/242/5 200/245/5 177/235/5
f 1/55/1 16/54/1 168/62/1 167/258/1
f 143/230/2 146/293/2 221/278/2 218/231/2
f 131/294/1 134/295/1 203/260/1 213/259/1
f 146/293/2 151/284/2 225/265/2 221/278/2
f 134/295/1 128/224/1 172/227/1 203/260/1
f 176/281/4 214/257/4 179/11/4
f 224/288/4 186/272/4 215/273/4
