# Blender 5.2.1 LTS
# www.blender.org
mtllib 2Road.mtl
o Grid.048
v -12.000000 0.000000 -3.400003
v -12.000000 0.000000 3.399998
v -8.000000 0.000000 -3.400002
v -8.000000 0.000000 3.399998
v -4.000000 0.000000 -3.400002
v -4.000000 0.000000 3.399998
v 0.000000 0.000000 -3.400002
v -0.000000 0.000000 3.399998
v 4.000000 0.000000 -3.400002
v 4.000000 0.000000 3.399998
v 8.000001 0.000000 -3.400002
v 8.000001 0.000000 3.399998
v 12.000000 0.000000 -3.400002
v 12.000000 0.000000 3.399999
v -12.000000 0.000000 -6.000000
v -10.000000 0.000000 -3.400003
v -7.999999 0.000000 -6.000000
v -10.000000 0.000000 3.399998
v -12.000000 0.000000 6.000000
v -8.000000 0.000000 6.000000
v -6.000000 0.000000 -3.400002
v -4.000000 0.000000 -6.000000
v -6.000000 0.000000 3.399998
v -4.000000 0.000000 6.000001
v -2.000000 0.000000 -3.400002
v 0.000000 0.000000 -6.000000
v -2.000000 0.000000 3.399998
v -0.000000 0.000000 6.000001
v 2.000000 0.000000 -3.400002
v 4.000001 0.000000 -6.000000
v 2.000000 0.000000 3.399998
v 4.000000 0.000000 6.000001
v 6.000001 0.000000 -3.400002
v 8.000001 0.000000 -5.999999
v 6.000001 0.000000 3.399998
v 8.000001 0.000000 6.000001
v 10.000000 0.000000 -3.400002
v 12.000000 0.000000 -5.999999
v 10.000000 0.000000 3.399999
v 12.000000 0.000000 6.000001
v 10.000000 0.000000 6.000001
v 10.000000 0.000000 -5.999999
v 6.000000 0.000000 6.000001
v 6.000001 0.000000 -5.999999
v 2.000000 0.000000 6.000001
v 2.000000 0.000000 -6.000000
v -2.000000 0.000000 6.000001
v -2.000000 0.000000 -6.000000
v -6.000000 0.000000 6.000000
v -5.999999 0.000000 -6.000000
v -10.000000 0.000000 6.000000
v -10.000000 0.000000 -6.000000
v -10.000000 -0.200000 -3.400003
v -8.000000 -0.200000 -3.400002
v -12.000000 -0.200000 -1.700003
v -12.000000 -0.200000 -0.000003
v -10.000000 -0.200000 -0.000003
v -8.000000 -0.200000 -0.000003
v -8.000000 -0.200000 -1.700003
v -12.000000 -0.200000 1.699998
v -12.000000 -0.200000 3.399998
v -10.000000 -0.200000 3.399998
v -8.000000 -0.200000 3.399998
v -8.000000 -0.200000 1.699998
v -6.000000 -0.200000 -3.400002
v -4.000000 -0.200000 -3.400002
v -6.000000 -0.200000 -0.000003
v -4.000000 -0.200000 -0.000002
v -4.000000 -0.200000 -1.700002
v -6.000000 -0.200000 3.399998
v -4.000000 -0.200000 3.399998
v -4.000000 -0.200000 1.699998
v -2.000000 -0.200000 -3.400002
v 0.000000 -0.200000 -3.400002
v -2.000000 -0.200000 -0.000002
v 0.000000 -0.200000 -0.000002
v 0.000000 -0.200000 -1.700002
v -2.000000 -0.200000 3.399998
v -0.000000 -0.200000 3.399998
v -0.000000 -0.200000 1.699998
v 2.000000 -0.200000 -3.400002
v 4.000000 -0.200000 -3.400002
v 2.000000 -0.200000 -0.000002
v 4.000000 -0.200000 -0.000002
v 4.000000 -0.200000 -1.700002
v 2.000000 -0.200000 3.399998
v 4.000000 -0.200000 3.399998
v 4.000000 -0.200000 1.699998
v 6.000001 -0.200000 -3.400002
v 8.000001 -0.200000 -3.400002
v 6.000001 -0.200000 -0.000002
v 8.000001 -0.200000 -0.000002
v 8.000001 -0.200000 -1.700002
v 6.000001 -0.200000 3.399998
v 8.000001 -0.200000 3.399998
v 8.000001 -0.200000 1.699998
v 10.000000 -0.200000 -3.400002
v 12.000000 -0.200000 -3.400002
v 10.000000 -0.200000 -0.000002
v 12.000000 -0.200000 -0.000002
v 12.000000 -0.200000 -1.700002
v 10.000000 -0.200000 3.399999
v 12.000000 -0.200000 3.399999
v 12.000000 -0.200000 1.699998
v -12.000000 -0.200000 -3.400003
v 10.000000 -0.200000 1.699998
v 10.000000 -0.200000 -1.700002
v 6.000001 -0.200000 1.699998
v 6.000001 -0.200000 -1.700002
v 2.000000 -0.200000 1.699998
v 2.000000 -0.200000 -1.700002
v -2.000000 -0.200000 1.699998
v -2.000000 -0.200000 -1.700002
v -6.000000 -0.200000 1.699998
v -6.000000 -0.200000 -1.700002
v -10.000000 -0.200000 1.699998
v -10.000000 -0.200000 -1.700003
v -8.000000 0.000000 3.659998
v -4.000000 0.000000 3.659998
v -0.000000 0.000000 3.659998
v 4.000000 0.000000 3.659999
v 8.000001 0.000000 3.659999
v 12.000000 0.000000 3.659999
v -12.000000 0.000000 3.659998
v 10.000000 0.000000 3.659999
v 6.000001 0.000000 3.659999
v 2.000000 0.000000 3.659998
v -2.000000 0.000000 3.659998
v -6.000000 0.000000 3.659998
v -10.000000 0.000000 3.659998
v -12.000000 0.000000 -3.660002
v -8.000000 0.000000 -3.660002
v -4.000000 0.000000 -3.660002
v 0.000000 0.000000 -3.660002
v 4.000000 0.000000 -3.660002
v 8.000001 0.000000 -3.660002
v 12.000000 0.000000 -3.660001
v 10.000000 0.000000 -3.660001
v 6.000001 0.000000 -3.660002
v 2.000000 0.000000 -3.660002
v -2.000000 0.000000 -3.660002
v -6.000000 0.000000 -3.660002
v -10.000000 0.000000 -3.660002
v -12.000000 0.040000 -3.660002
v -12.000000 0.040000 -3.400003
v -10.000000 0.040000 -3.400003
v -8.000000 0.040000 -3.400002
v -10.000000 0.040000 3.399998
v -8.000000 0.040000 3.399998
v -6.000000 0.040000 -3.400002
v -4.000000 0.040000 -3.400002
v -6.000000 0.040000 3.399998
v -4.000000 0.040000 3.399998
v -2.000000 0.040000 -3.400002
v 0.000000 0.040000 -3.400002
v -2.000000 0.040000 3.399998
v -0.000000 0.040000 3.399998
v 2.000000 0.040000 -3.400002
v 4.000000 0.040000 -3.400002
v 2.000000 0.040000 3.399998
v 4.000000 0.040000 3.399998
v 6.000001 0.040000 -3.400002
v 8.000001 0.040000 -3.400002
v 6.000001 0.040000 3.399998
v 8.000001 0.040000 3.399998
v 10.000000 0.040000 -3.400002
v 12.000000 0.040000 -3.400002
v 10.000000 0.040000 3.399999
v 12.000000 0.040000 3.399999
v 12.000000 0.040000 3.659999
v -12.000000 0.040000 3.399998
v -12.000000 0.040000 3.659998
v -10.000000 0.040000 3.659998
v -8.000000 0.040000 3.659998
v -6.000000 0.040000 3.659998
v -4.000000 0.040000 3.659998
v -2.000000 0.040000 3.659998
v -0.000000 0.040000 3.659998
v 2.000000 0.040000 3.659998
v 4.000000 0.040000 3.659999
v 6.000001 0.040000 3.659999
v 8.000001 0.040000 3.659999
v 10.000000 0.040000 3.659999
v 12.000000 0.040000 -3.660001
v -10.000000 0.040000 -3.660002
v -8.000000 0.040000 -3.660002
v -6.000000 0.040000 -3.660002
v -4.000000 0.040000 -3.660002
v -2.000000 0.040000 -3.660002
v 0.000000 0.040000 -3.660002
v 2.000000 0.040000 -3.660002
v 4.000000 0.040000 -3.660002
v 6.000001 0.040000 -3.660002
v 8.000001 0.040000 -3.660002
v 10.000000 0.040000 -3.660001
vn -0.0000 -0.0000 -1.0000
vn -0.0000 1.0000 -0.0000
vn -0.0000 -0.0000 1.0000
vt 0.291389 0.061539
vt 0.060505 0.061539
vt 0.060505 0.056921
vt 0.291389 0.056921
vt 3.347484 -1.550255
vt 3.863554 -1.550255
vt 3.863554 -1.109167
vt 3.347484 -1.109167
vt 3.347484 -1.991342
vt 3.863554 -1.991342
vt 0.060505 0.045377
vt -0.170379 0.045377
vt -0.170379 0.022289
vt 0.060505 0.022289
vt -0.632149 0.045377
vt -0.863034 0.045377
vt -0.863034 0.022289
vt -0.632149 0.022289
vt 3.347484 -2.432431
vt 3.863554 -2.432431
vt 3.347484 -2.873520
vt 3.863554 -2.873520
vt 0.522275 0.045377
vt 0.291390 0.045377
vt 0.291390 0.022288
vt 0.522275 0.022288
vt 0.984044 0.045377
vt 0.753160 0.045377
vt 0.753160 0.022288
vt 0.984044 0.022288
vt 1.445814 0.045377
vt 1.214929 0.045377
vt 1.214929 0.022288
vt 1.445814 0.022288
vt 1.907583 0.045377
vt 1.676698 0.045377
vt 1.676698 0.022288
vt 1.907583 0.022288
vt -0.401264 0.045377
vt -0.401264 0.022289
vt 3.347484 -3.314609
vt 3.863554 -3.314609
vt 3.347484 -3.755697
vt 3.863554 -3.755697
vt -0.401265 0.061539
vt -0.170380 0.061539
vt -0.170380 0.084627
vt -0.401265 0.084627
vt 0.291389 0.084627
vt 0.060505 0.084627
vt 0.522274 0.061539
vt 0.753159 0.061539
vt 0.753159 0.084627
vt 0.522274 0.084627
vt 0.984044 0.061539
vt 1.214929 0.061539
vt 1.214929 0.084627
vt 0.984044 0.084627
vt -0.863034 0.061539
vt -0.632150 0.061539
vt -0.632150 0.084627
vt -0.863034 0.084627
vt 3.347484 -4.196786
vt 3.863554 -4.196786
vt 3.347484 -4.637875
vt 3.863554 -4.637875
vt 1.445814 0.061539
vt 1.676698 0.061539
vt 1.676698 0.084627
vt 1.445814 0.084627
vt 3.347484 -5.078963
vt 3.863554 -5.078963
vt 3.347484 -5.520051
vt 3.863554 -5.520051
vt 3.347484 -5.961139
vt 3.863554 -5.961139
vt 3.347484 -6.402228
vt 3.863554 -6.402228
vt 1.907583 0.061539
vt 1.907583 0.084627
vt 2.135691 -6.046661
vt 2.514907 -6.046661
vt 2.514907 -5.600520
vt 2.135691 -5.600520
vt 2.894131 -6.046661
vt 3.273349 -6.046661
vt 3.273349 -5.600520
vt 2.894131 -5.600520
vt 2.135691 -5.154380
vt 2.514907 -5.154380
vt 2.514907 -4.708241
vt 2.135691 -4.708241
vt 2.894131 -5.154380
vt 3.273349 -5.154380
vt 3.273349 -4.708241
vt 2.894131 -4.708241
vt 2.135691 -4.262100
vt 2.514907 -4.262100
vt 2.514907 -3.815960
vt 2.135691 -3.815960
vt 2.894131 -4.262100
vt 3.273349 -4.262100
vt 3.273349 -3.815960
vt 2.894131 -3.815960
vt 2.135691 -3.369821
vt 2.514907 -3.369821
vt 2.514907 -2.923681
vt 2.135691 -2.923681
vt 2.894131 -3.369821
vt 3.273349 -3.369821
vt 3.273349 -2.923681
vt 2.894131 -2.923681
vt 2.135691 -2.477541
vt 2.514907 -2.477541
vt 2.514907 -2.031401
vt 2.135691 -2.031401
vt 2.894131 -2.477541
vt 3.273349 -2.477541
vt 3.273349 -2.031401
vt 2.894131 -2.031401
vt 2.135691 -1.585261
vt 2.514907 -1.585261
vt 2.514907 -1.139122
vt 2.135691 -1.139122
vt 2.894131 -1.585261
vt 3.273349 -1.585261
vt 3.273349 -1.139122
vt 2.894131 -1.139122
vt 1.756469 -1.585261
vt 1.756469 -1.139122
vt 1.756469 -2.031401
vt 1.756469 -2.477541
vt 1.756469 -2.923681
vt 1.756469 -3.369821
vt 1.756469 -3.815960
vt 1.756469 -4.262100
vt 1.756469 -4.708241
vt 1.756469 -5.154380
vt 1.756469 -5.600520
vt 2.514907 -6.492800
vt 2.894131 -6.492800
vt 3.273349 -6.492800
vt 1.756469 -6.046661
vt 1.756469 -6.492800
vt 2.135691 -6.492800
vt 1.217025 -6.402228
vt 1.733096 -6.402228
vt 1.733096 -5.961139
vt 1.217025 -5.961139
vt 1.217025 -5.520051
vt 1.733096 -5.520051
vt 1.733096 -5.078963
vt 1.217025 -5.078963
vt 1.217025 -4.637875
vt 1.733096 -4.637875
vt 1.733096 -4.196786
vt 1.217025 -4.196786
vt 1.217025 -3.755697
vt 1.733096 -3.755697
vt 1.733096 -3.314609
vt 1.217025 -3.314609
vt 1.217025 -2.873520
vt 1.733096 -2.873520
vt 1.733096 -2.432431
vt 1.217025 -2.432431
vt 1.217025 -1.991342
vt 1.733096 -1.991342
vt 1.733096 -1.550255
vt 1.217025 -1.550255
vt 1.733096 -1.109167
vt 1.217025 -1.109167
vt 1.214929 0.084627
vt 0.984044 0.084627
vt 0.984044 0.080009
vt 1.214929 0.080009
vt -0.863035 0.056921
vt -0.863035 0.026906
vt -0.632150 0.026906
vt -0.401265 0.026906
vt -0.170380 0.026906
vt 0.060505 0.026906
vt 0.291389 0.026906
vt 0.522274 0.026906
vt 0.753159 0.026906
vt 0.984044 0.026906
vt 1.214929 0.026906
vt 1.445814 0.026906
vt 1.676698 0.026906
vt 1.907583 0.026906
vt 1.907583 0.056921
vt 1.676698 0.056921
vt 1.445814 0.056921
vt 1.214929 0.056921
vt 0.984044 0.056921
vt 0.753159 0.056921
vt 0.522274 0.056921
vt -0.170380 0.056921
vt -0.401265 0.056921
vt -0.632150 0.056921
vt -0.632149 0.049995
vt -0.401264 0.049995
vt -0.170379 0.049995
vt 0.060505 0.049995
vt 0.291390 0.049995
vt 0.522275 0.049995
vt 0.753160 0.049995
vt 0.984044 0.049994
vt 1.214929 0.049994
vt 1.445814 0.049994
vt 1.676698 0.049994
vt 1.907583 0.049994
vt 1.907583 0.080009
vt 1.676698 0.080009
vt 1.445814 0.080009
vt 0.753160 0.080009
vt 0.522275 0.080010
vt 0.291390 0.080010
vt 0.060505 0.080010
vt -0.170379 0.080010
vt -0.401264 0.080010
vt -0.632149 0.080010
vt -0.863034 0.080010
vt -0.863034 0.049995
vt 1.676698 0.084627
vt 1.445814 0.084627
vt 1.907583 0.084627
vt 0.753160 0.084627
vt 0.522275 0.084627
vt 0.291390 0.084627
vt 0.060505 0.084627
vt -0.170379 0.084627
vt -0.401264 0.084628
vt -0.632149 0.084628
vt -0.863035 0.022289
vt -0.632150 0.022289
vt -0.401265 0.022289
vt -0.170380 0.022289
vt 0.060505 0.022289
vt 0.291389 0.022288
vt 0.522274 0.022288
vt 0.753159 0.022288
vt 0.984044 0.022288
vt 1.214929 0.022288
vt 1.445814 0.022288
vt 1.676698 0.022288
vt 1.907584 0.022288
vt -0.863034 0.084628
s 0
usemtl asphalt_02
f 117/81/2 57/82/2 58/83/2 59/84/2
f 116/85/2 62/86/2 63/87/2 64/88/2
f 115/89/2 67/90/2 68/91/2 69/92/2
f 114/93/2 70/94/2 71/95/2 72/96/2
f 113/97/2 75/98/2 76/99/2 77/100/2
f 112/101/2 78/102/2 79/103/2 80/104/2
f 111/105/2 83/106/2 84/107/2 85/108/2
f 110/109/2 86/110/2 87/111/2 88/112/2
f 109/113/2 91/114/2 92/115/2 93/116/2
f 108/117/2 94/118/2 95/119/2 96/120/2
f 107/121/2 99/122/2 100/123/2 101/124/2
f 106/125/2 102/126/2 103/127/2 104/128/2
f 99/122/2 106/125/2 104/128/2 100/123/2
f 92/115/2 96/120/2 106/125/2 99/122/2
f 96/120/2 95/119/2 102/126/2 106/125/2
f 97/129/2 107/121/2 101/124/2 98/130/2
f 90/131/2 93/116/2 107/121/2 97/129/2
f 93/116/2 92/115/2 99/122/2 107/121/2
f 91/114/2 108/117/2 96/120/2 92/115/2
f 84/107/2 88/112/2 108/117/2 91/114/2
f 88/112/2 87/111/2 94/118/2 108/117/2
f 89/132/2 109/113/2 93/116/2 90/131/2
f 82/133/2 85/108/2 109/113/2 89/132/2
f 85/108/2 84/107/2 91/114/2 109/113/2
f 83/106/2 110/109/2 88/112/2 84/107/2
f 76/99/2 80/104/2 110/109/2 83/106/2
f 80/104/2 79/103/2 86/110/2 110/109/2
f 81/134/2 111/105/2 85/108/2 82/133/2
f 74/135/2 77/100/2 111/105/2 81/134/2
f 77/100/2 76/99/2 83/106/2 111/105/2
f 75/98/2 112/101/2 80/104/2 76/99/2
f 68/91/2 72/96/2 112/101/2 75/98/2
f 72/96/2 71/95/2 78/102/2 112/101/2
f 73/136/2 113/97/2 77/100/2 74/135/2
f 66/137/2 69/92/2 113/97/2 73/136/2
f 69/92/2 68/91/2 75/98/2 113/97/2
f 67/90/2 114/93/2 72/96/2 68/91/2
f 58/83/2 64/88/2 114/93/2 67/90/2
f 64/88/2 63/87/2 70/94/2 114/93/2
f 65/138/2 115/89/2 69/92/2 66/137/2
f 54/139/2 59/84/2 115/89/2 65/138/2
f 59/84/2 58/83/2 67/90/2 115/89/2
f 57/82/2 116/85/2 64/88/2 58/83/2
f 56/140/2 60/141/2 116/85/2 57/82/2
f 60/141/2 61/142/2 62/86/2 116/85/2
f 53/143/2 117/81/2 59/84/2 54/139/2
f 105/144/2 55/145/2 117/81/2 53/143/2
f 55/145/2 56/140/2 57/82/2 117/81/2
usemtl pavement_05
f 125/5/2 41/6/2 40/7/2 123/8/2
f 122/9/2 36/10/2 41/6/2 125/5/2
f 126/19/2 43/20/2 36/10/2 122/9/2
f 121/21/2 32/22/2 43/20/2 126/19/2
f 127/41/2 45/42/2 32/22/2 121/21/2
f 120/43/2 28/44/2 45/42/2 127/41/2
f 128/63/2 47/64/2 28/44/2 120/43/2
f 119/65/2 24/66/2 47/64/2 128/63/2
f 129/71/2 49/72/2 24/66/2 119/65/2
f 118/73/2 20/74/2 49/72/2 129/71/2
f 130/75/2 51/76/2 20/74/2 118/73/2
f 124/77/2 19/78/2 51/76/2 130/75/2
f 15/146/2 131/147/2 143/148/2 52/149/2
f 17/150/2 132/151/2 142/152/2 50/153/2
f 22/154/2 133/155/2 141/156/2 48/157/2
f 26/158/2 134/159/2 140/160/2 46/161/2
f 30/162/2 135/163/2 139/164/2 44/165/2
f 34/166/2 136/167/2 138/168/2 42/169/2
f 42/169/2 138/168/2 137/170/2 38/171/2
f 44/165/2 139/164/2 136/167/2 34/166/2
f 46/161/2 140/160/2 135/163/2 30/162/2
f 48/157/2 141/156/2 134/159/2 26/158/2
f 50/153/2 142/152/2 133/155/2 22/154/2
f 52/149/2 143/148/2 132/151/2 17/150/2
usemtl brick_crosswalk
f 27/1/1 6/2/1 153/3/1 156/4/1
f 5/11/3 21/12/3 65/13/3 66/14/3
f 16/15/3 1/16/3 105/17/3 53/18/3
f 7/23/3 25/24/3 73/25/3 74/26/3
f 9/27/3 29/28/3 81/29/3 82/30/3
f 11/31/3 33/32/3 89/33/3 90/34/3
f 13/35/3 37/36/3 97/37/3 98/38/3
f 3/39/3 16/15/3 53/18/3 54/40/3
f 4/45/1 23/46/1 70/47/1 63/48/1
f 6/2/1 27/1/1 78/49/1 71/50/1
f 8/51/1 31/52/1 86/53/1 79/54/1
f 10/55/1 35/56/1 94/57/1 87/58/1
f 2/59/1 18/60/1 62/61/1 61/62/1
f 12/67/1 39/68/1 102/69/1 95/70/1
f 23/46/1 6/2/1 71/50/1 70/47/1
f 27/1/1 8/51/1 79/54/1 78/49/1
f 21/12/3 3/39/3 54/40/3 65/13/3
f 25/24/3 5/11/3 66/14/3 73/25/3
f 31/52/1 10/55/1 87/58/1 86/53/1
f 35/56/1 12/67/1 95/70/1 94/57/1
f 29/28/3 7/23/3 74/26/3 81/29/3
f 18/60/1 4/45/1 63/48/1 62/61/1
f 39/68/1 14/79/1 103/80/1 102/69/1
f 33/32/3 9/27/3 82/30/3 89/33/3
f 37/36/3 11/31/3 90/34/3 97/37/3
f 139/172/1 135/173/1 192/174/1 193/175/1
f 171/176/2 172/177/2 173/178/2 174/179/2 175/180/2 176/181/2 177/182/2 178/183/2 179/184/2 180/185/2 181/186/2 182/187/2 183/188/2 170/189/2 169/190/2 168/191/2 165/192/2 164/193/2 161/194/2 160/195/2 157/196/2 156/4/2 153/3/2 152/197/2 149/198/2 148/199/2
f 146/200/2 147/201/2 150/202/2 151/203/2 154/204/2 155/205/2 158/206/2 159/207/2 162/208/2 163/209/2 166/210/2 167/211/2 184/212/2 195/213/2 194/214/2 193/175/2 192/174/2 191/215/2 190/216/2 189/217/2 188/218/2 187/219/2 186/220/2 185/221/2 144/222/2 145/223/2
f 138/224/1 136/225/1 194/214/1 195/213/1
f 7/23/3 29/28/3 158/206/3 155/205/3
f 137/226/1 138/224/1 195/213/1 184/212/1
f 136/225/1 139/172/1 193/175/1 194/214/1
f 31/52/1 8/51/1 157/196/1 160/195/1
f 135/173/1 140/227/1 191/215/1 192/174/1
f 9/27/3 33/32/3 162/208/3 159/207/3
f 16/15/3 3/39/3 147/201/3 146/200/3
f 134/228/1 141/229/1 189/217/1 190/216/1
f 4/45/1 18/60/1 148/199/1 149/198/1
f 133/230/1 142/231/1 187/219/1 188/218/1
f 35/56/1 10/55/1 161/194/1 164/193/1
f 21/12/3 5/11/3 151/203/3 150/202/3
f 132/232/1 143/233/1 185/221/1 186/220/1
f 11/31/3 37/36/3 166/210/3 163/209/3
f 6/2/1 23/46/1 152/197/1 153/3/1
f 124/234/3 130/235/3 173/178/3 172/177/3
f 25/24/3 7/23/3 155/205/3 154/204/3
f 130/235/3 118/236/3 174/179/3 173/178/3
f 39/68/1 12/67/1 165/192/1 168/191/1
f 8/51/1 27/1/1 156/4/1 157/196/1
f 118/236/3 129/237/3 175/180/3 174/179/3
f 29/28/3 9/27/3 159/207/3 158/206/3
f 129/237/3 119/238/3 176/181/3 175/180/3
f 10/55/1 31/52/1 160/195/1 161/194/1
f 119/238/3 128/239/3 177/182/3 176/181/3
f 33/32/3 11/31/3 163/209/3 162/208/3
f 128/239/3 120/240/3 178/183/3 177/182/3
f 12/67/1 35/56/1 164/193/1 165/192/1
f 120/240/3 127/241/3 179/184/3 178/183/3
f 37/36/3 13/35/3 167/211/3 166/210/3
f 127/241/3 121/242/3 180/185/3 179/184/3
f 14/79/1 39/68/1 168/191/1 169/190/1
f 121/242/3 126/243/3 181/186/3 180/185/3
f 126/243/3 122/244/3 182/187/3 181/186/3
f 1/16/3 16/15/3 146/200/3 145/223/3
f 122/244/3 125/245/3 183/188/3 182/187/3
f 125/245/3 123/246/3 170/189/3 183/188/3
f 18/60/1 2/59/1 171/176/1 148/199/1
f 3/39/3 21/12/3 150/202/3 147/201/3
f 143/233/1 131/247/1 144/222/1 185/221/1
f 142/231/1 132/232/1 186/220/1 187/219/1
f 23/46/1 4/45/1 149/198/1 152/197/1
f 141/229/1 133/230/1 188/218/1 189/217/1
f 5/11/3 25/24/3 154/204/3 151/203/3
f 140/227/1 134/228/1 190/216/1 191/215/1
