# Blender 5.2.1 LTS
# www.blender.org
mtllib 3Road.mtl
o Grid.044
v -3.422641 0.000000 12.000000
v 3.377360 0.000000 12.000000
v -3.422641 0.000000 8.000000
v 3.377360 0.000000 8.000000
v -3.422641 0.000000 3.400000
v 3.377359 0.000000 3.400000
v 8.000001 0.000000 3.400000
v 12.000000 0.000000 3.400000
v -3.422641 0.000000 0.000000
v -3.422641 0.000000 -3.400001
v 3.377359 0.000000 -3.400001
v 8.000001 0.000000 -3.400001
v 12.000000 0.000000 -3.400001
v -3.422641 0.000000 -8.000001
v 3.377360 0.000000 -8.000001
v -3.422641 0.000000 -12.000000
v 3.377360 0.000000 -12.000000
v -6.000000 0.000000 12.000000
v -3.422641 0.000000 10.000000
v -6.000000 0.000000 8.000000
v 3.377360 0.000000 10.000000
v 6.000001 0.000000 12.000000
v 6.000001 0.000000 8.000000
v -3.422641 0.000000 6.000000
v -6.000000 0.000000 3.400000
v 3.377360 0.000000 6.000000
v 8.000001 0.000000 6.000000
v 6.000001 0.000000 3.400000
v 12.000000 0.000000 6.000000
v 10.000000 0.000000 3.400000
v -3.422641 0.000000 1.700000
v -6.000000 0.000000 0.000000
v -3.422641 0.000000 -1.700000
v -6.000000 0.000000 -3.400001
v 6.000001 0.000000 -3.400001
v 10.000000 0.000000 -3.400001
v -3.422641 0.000000 -6.000001
v -6.000000 0.000000 -8.000001
v 3.377360 0.000000 -6.000001
v 8.000001 0.000000 -6.000001
v 6.000001 0.000000 -8.000001
v 12.000000 0.000000 -6.000001
v -3.422641 0.000000 -10.000000
v -6.000000 0.000000 -12.000000
v 3.377360 0.000000 -10.000000
v 6.000001 0.000000 -12.000000
v 6.000001 0.000000 -10.000000
v -6.000000 0.000000 -10.000000
v 10.000000 0.000000 -6.000001
v 6.000001 0.000000 -6.000001
v -6.000000 0.000000 -6.000001
v -6.000000 0.000000 -1.700000
v -6.000000 0.000000 1.700000
v 10.000000 0.000000 6.000000
v 6.000001 0.000000 6.000000
v -6.000000 0.000000 6.000000
v 6.000001 0.000000 10.000000
v -6.000000 0.000000 10.000000
v -3.422641 -0.200000 10.000000
v -3.422641 -0.200000 8.000000
v -1.722641 -0.200000 12.000000
v -0.022641 -0.200000 12.000000
v -0.022641 -0.200000 10.000000
v -0.022641 -0.200000 8.000000
v -1.722641 -0.200000 8.000000
v 1.677359 -0.200000 12.000000
v 3.377360 -0.200000 12.000000
v 3.377360 -0.200000 10.000000
v 3.377360 -0.200000 8.000000
v 1.677359 -0.200000 8.000000
v -3.422641 -0.200000 6.000000
v -3.422641 -0.200000 3.400000
v -0.022641 -0.200000 6.000000
v -0.022641 -0.200000 3.400000
v -1.722641 -0.200000 3.400000
v 3.377360 -0.200000 6.000000
v 3.377359 -0.200000 3.400000
v 1.677359 -0.200000 3.400000
v 6.000001 -0.200000 3.400000
v 10.000000 -0.200000 3.400000
v 8.000001 -0.200000 3.400000
v -3.422641 -0.200000 1.700000
v -3.422641 -0.200000 0.000000
v -0.022641 -0.200000 1.700000
v -0.022641 -0.200000 0.000000
v -1.722641 -0.200000 0.000000
v 3.377359 -0.200000 1.700000
v 3.377359 -0.200000 0.000000
v 1.677359 -0.200000 0.000000
v 8.000001 -0.200000 1.700000
v 8.000001 -0.200000 0.000000
v 6.000001 -0.200000 0.000000
v 12.000000 -0.200000 1.700000
v 12.000000 -0.200000 0.000000
v 10.000000 -0.200000 0.000000
v -3.422641 -0.200000 -1.700000
v -3.422641 -0.200000 -3.400001
v -0.022641 -0.200000 -1.700000
v -0.022641 -0.200000 -3.400001
v -1.722641 -0.200000 -3.400001
v 3.377359 -0.200000 -1.700000
v 3.377359 -0.200000 -3.400001
v 1.677359 -0.200000 -3.400001
v 8.000001 -0.200000 -1.700000
v 8.000001 -0.200000 -3.400001
v 6.000001 -0.200000 -3.400001
v 12.000000 -0.200000 -1.700000
v 12.000000 -0.200000 -3.400001
v 10.000000 -0.200000 -3.400001
v -3.422641 -0.200000 -6.000001
v -3.422641 -0.200000 -8.000001
v -0.022641 -0.200000 -6.000001
v -0.022641 -0.200000 -8.000001
v -1.722641 -0.200000 -8.000001
v 3.377360 -0.200000 -6.000001
v 3.377360 -0.200000 -8.000001
v 1.677359 -0.200000 -8.000001
v -3.422641 -0.200000 -10.000000
v -3.422641 -0.200000 -12.000000
v -0.022641 -0.200000 -10.000000
v -0.022641 -0.200000 -12.000000
v -1.722641 -0.200000 -12.000000
v 3.377360 -0.200000 -10.000000
v 3.377360 -0.200000 -12.000000
v 1.677359 -0.200000 -12.000000
v -3.422641 -0.200000 12.000000
v 12.000000 -0.200000 3.400000
v 1.677359 -0.200000 -10.000000
v -1.722641 -0.200000 -10.000000
v 1.677359 -0.200000 -6.000001
v -1.722641 -0.200000 -6.000001
v 10.000000 -0.200000 -1.700000
v 6.000001 -0.200000 -1.700000
v 1.677359 -0.200000 -1.700000
v -1.722641 -0.200000 -1.700000
v 10.000000 -0.200000 1.700000
v 6.000001 -0.200000 1.700000
v 1.677359 -0.200000 1.700000
v -1.722641 -0.200000 1.700000
v 1.677359 -0.200000 6.000000
v -1.722641 -0.200000 6.000000
v 1.677359 -0.200000 10.000000
v -1.722641 -0.200000 10.000000
v -3.422641 0.000000 3.660000
v 3.377359 0.000000 3.660000
v 8.000001 0.000000 3.660000
v 12.000000 0.000000 3.660000
v 10.000000 0.000000 3.660000
v 6.000001 0.000000 3.660000
v -6.000000 0.000000 3.660000
v -3.422641 -0.200000 3.660000
v -0.022641 -0.200000 3.660000
v 3.377359 -0.200000 3.660000
v 1.677359 -0.200000 3.660000
v -1.722641 -0.200000 3.660000
v -3.422641 0.000000 -3.660001
v 3.377359 0.000000 -3.660001
v 8.000001 0.000000 -3.660001
v 12.000000 0.000000 -3.660001
v 10.000000 0.000000 -3.660001
v 6.000001 0.000000 -3.660001
v -6.000000 0.000000 -3.660001
v -3.422641 -0.200000 -3.660001
v -0.022641 -0.200000 -3.660001
v 3.377359 -0.200000 -3.660001
v 1.677359 -0.200000 -3.660001
v -1.722641 -0.200000 -3.660001
v 3.639624 0.000000 8.000000
v 3.639623 0.000000 3.400000
v 3.639623 0.000000 -3.400001
v 3.639624 0.000000 -8.000001
v 3.639624 0.000000 -12.000000
v 3.639624 0.000000 12.000000
v 3.639624 0.000000 -10.000000
v 3.639624 0.000000 -6.000001
v 3.639624 0.000000 6.000000
v 3.639624 0.000000 10.000000
v 3.639623 -0.200000 3.400000
v 3.639623 -0.200000 0.000000
v 3.639623 -0.200000 -3.400001
v 3.639623 -0.200000 -1.700000
v 3.639623 -0.200000 1.700000
v 3.639623 0.000000 3.660000
v 3.639623 0.000000 -3.660001
v -3.680377 0.000000 12.000000
v -3.680377 0.000000 8.000000
v -3.680377 0.000000 3.400000
v -3.680377 0.000000 0.000000
v -3.680377 0.000000 -3.400001
v -3.680377 0.000000 -8.000001
v -3.680377 0.000000 -12.000000
v -3.680377 0.000000 -10.000000
v -3.680377 0.000000 -6.000001
v -3.680377 0.000000 -1.700000
v -3.680377 0.000000 1.700000
v -3.680377 0.000000 6.000000
v -3.680377 0.000000 10.000000
v -3.680377 0.000000 3.660000
v -3.680377 0.000000 -3.660001
v -3.680377 0.040000 12.000000
v -3.422641 0.040000 12.000000
v -3.422641 0.040000 10.000000
v -3.422641 0.040000 8.000000
v 3.377360 0.040000 10.000000
v 3.377360 0.040000 8.000000
v 3.639624 0.040000 8.000000
v -3.422641 0.040000 3.660000
v -3.422641 0.040000 3.400000
v 3.377359 0.040000 3.660000
v 3.377359 0.040000 3.400000
v 8.000001 0.040000 3.660000
v 8.000001 0.040000 3.400000
v 3.639623 0.040000 3.400000
v 12.000000 0.040000 3.660000
v 12.000000 0.040000 3.400000
v 10.000000 0.040000 3.400000
v -3.422641 0.040000 1.700000
v -3.422641 0.040000 0.000000
v -3.422641 0.040000 -1.700000
v -3.422641 0.040000 -3.400001
v 3.639623 0.040000 -3.400001
v 3.377359 0.040000 -3.400001
v 10.000000 0.040000 -3.400001
v 8.000001 0.040000 -3.400001
v -3.422641 0.040000 -6.000001
v -3.422641 0.040000 -8.000001
v 3.377360 0.040000 -6.000001
v 3.377360 0.040000 -8.000001
v 3.639624 0.040000 -8.000001
v -3.422641 0.040000 -10.000000
v -3.422641 0.040000 -12.000000
v 3.377360 0.040000 -10.000000
v 3.377360 0.040000 -12.000000
v 3.639624 0.040000 -12.000000
v 3.377360 0.040000 12.000000
v -3.422641 0.040000 6.000000
v 3.377360 0.040000 6.000000
v 6.000001 0.040000 3.400000
v 6.000001 0.040000 -3.400001
v 12.000000 0.040000 -3.400001
v -3.422641 0.040000 -3.660001
v 3.377359 0.040000 -3.660001
v 3.639624 0.040000 -10.000000
v 3.639624 0.040000 -6.000001
v 10.000000 0.040000 3.660000
v 6.000001 0.040000 3.660000
v 3.639624 0.040000 6.000000
v 3.639624 0.040000 10.000000
v 3.639623 0.040000 3.660000
v 8.000001 0.040000 -3.660001
v 12.000000 0.040000 -3.660001
v 10.000000 0.040000 -3.660001
v 6.000001 0.040000 -3.660001
v 3.639623 0.040000 -3.660001
v 3.639624 0.040000 12.000000
v -3.680377 0.040000 8.000000
v -3.680377 0.040000 3.400000
v -3.680377 0.040000 0.000000
v -3.680377 0.040000 -3.400001
v -3.680377 0.040000 -8.000001
v -3.680377 0.040000 -12.000000
v -3.680377 0.040000 -10.000000
v -3.680377 0.040000 -6.000001
v -3.680377 0.040000 -1.700000
v -3.680377 0.040000 1.700000
v -3.680377 0.040000 6.000000
v -3.680377 0.040000 10.000000
v -3.680377 0.040000 3.660000
v -3.680377 0.040000 -3.660001
vn 1.0000 -0.0000 -0.0000
vn -1.0000 -0.0000 -0.0000
vn -0.0000 -0.0000 -1.0000
vn -0.0000 -0.0000 1.0000
vn -0.0000 1.0000 -0.0000
vt 0.787816 0.084761
vt 0.556910 0.084761
vt 0.556910 0.080143
vt 0.787816 0.080143
vt 1.214991 0.022416
vt 1.445896 0.022417
vt 1.445896 0.027035
vt 1.214991 0.027035
vt 0.256733 0.045246
vt 0.487639 0.045246
vt 0.487639 0.049864
vt 0.256733 0.049864
vt 0.024521 0.022286
vt 0.255426 0.022286
vt 0.255426 0.026904
vt 0.024521 0.026904
vt 1.018721 0.084761
vt 1.018721 0.080143
vt 1.676802 0.022417
vt 1.907707 0.022417
vt 1.907707 0.027035
vt 1.676802 0.027035
vt 0.718544 0.045246
vt 0.718544 0.049864
vt 0.486332 0.084630
vt 0.255426 0.084630
vt 0.255426 0.080012
vt 0.486332 0.080012
vt -1.950075 3.742806
vt -1.429507 3.742806
vt -1.429507 4.183896
vt -1.950075 4.183896
vt -1.950075 3.301719
vt -1.429507 3.301719
vt 0.944832 0.022416
vt 0.944832 0.027034
vt -0.988419 2.344556
vt -0.547331 2.344556
vt -0.547331 2.860630
vt -0.988419 2.860630
vt -0.106243 2.344556
vt -0.106243 2.860630
vt -1.950075 2.860630
vt -1.429507 2.860630
vt -1.950075 2.344556
vt -1.429507 2.344556
vt 0.055846 0.045246
vt 0.025828 0.045246
vt 0.025828 0.022155
vt 0.055846 0.022155
vt 1.214991 0.061409
vt 1.445896 0.061409
vt 1.445896 0.084500
vt 1.214991 0.084500
vt 0.718544 0.061409
vt 0.914814 0.061409
vt 0.914814 0.084499
vt 0.718544 0.084499
vt -0.170442 0.061409
vt -0.401347 0.061409
vt -0.401347 0.056791
vt -0.170442 0.056791
vt 0.487639 0.022155
vt 0.718544 0.022155
vt 0.326005 0.061409
vt 0.522275 0.061409
vt 0.522275 0.084499
vt 0.326005 0.084499
vt 0.025828 0.045246
vt 0.025828 0.022155
vt 0.256733 0.022155
vt 0.787816 0.045246
vt 0.556910 0.045246
vt 0.556910 0.022155
vt 0.787816 0.022155
vt 0.099718 0.061409
vt 0.129735 0.061409
vt 0.129735 0.084499
vt 0.099718 0.084499
vt -0.632253 0.061409
vt -0.401347 0.084499
vt -0.632253 0.084499
vt 0.944832 0.061409
vt 0.944832 0.084499
vt 1.676802 0.061409
vt 1.907707 0.061409
vt 1.907707 0.084500
vt 1.676802 0.084500
vt -0.632253 0.056791
vt 0.255426 0.045376
vt 0.024521 0.045376
vt 0.255426 0.022286
vt -0.170442 0.084499
vt -0.863158 0.061409
vt -0.863158 0.084499
vt 0.024521 0.061540
vt 0.255426 0.061540
vt 0.024521 0.084630
vt 0.717237 0.045376
vt 0.486332 0.045376
vt 0.486332 0.022286
vt 0.717237 0.022286
vt 0.486332 0.061540
vt 0.717237 0.061540
vt 0.717237 0.084630
vt 0.486332 0.084630
vt 0.717237 0.026904
vt 0.486332 0.026904
vt 0.099718 0.022416
vt 0.129735 0.022416
vt 0.129735 0.027034
vt 0.099718 0.027034
vt 0.255426 0.056922
vt 0.486332 0.056922
vt -1.950075 -0.226989
vt -1.429507 -0.226989
vt -1.429507 0.214099
vt -1.950075 0.214099
vt 0.326005 0.045246
vt 0.326005 0.022155
vt 0.989749 0.045376
vt 0.989749 0.022286
vt 1.020028 0.061540
vt 0.989749 0.061540
vt 0.989749 0.056922
vt 1.020028 0.056922
vt -1.950075 -0.668078
vt -1.429507 -0.668078
vt -1.950075 -1.109167
vt -1.429507 -1.109167
vt 0.988703 0.045246
vt 0.988703 0.022155
vt 1.020028 0.084630
vt 0.989749 0.084630
vt 1.018721 0.045246
vt 1.018721 0.022155
vt 0.129735 0.056791
vt 0.326005 0.056791
vt -3.223037 -0.692982
vt -2.843819 -0.692982
vt -2.843819 -0.246841
vt -3.223037 -0.246841
vt -2.464602 -0.692982
vt -2.085379 -0.692982
vt -2.085379 -0.246841
vt -2.464602 -0.246841
vt -3.223037 0.721280
vt -2.843819 0.721280
vt -2.843819 0.779280
vt -3.223037 0.779280
vt -2.464602 0.721280
vt -2.085379 0.721280
vt -2.085379 0.779280
vt -2.464602 0.779280
vt -3.223037 1.158499
vt -2.843819 1.158499
vt -2.843819 1.537718
vt -3.223037 1.537718
vt -2.464602 1.158499
vt -2.085379 1.158499
vt -2.085379 1.537718
vt -2.464602 1.537718
vt -1.500349 1.158499
vt -1.054210 1.158499
vt -1.054210 1.537718
vt -1.500349 1.537718
vt -0.608070 1.158499
vt -0.161931 1.158499
vt -0.161931 1.537718
vt -0.608070 1.537718
vt -3.223037 1.916935
vt -2.843819 1.916935
vt -2.843819 2.296154
vt -3.223037 2.296154
vt -2.464602 1.916935
vt -2.085379 1.916935
vt -2.085379 2.296154
vt -2.464602 2.296154
vt -1.500349 1.916935
vt -1.054210 1.916935
vt -1.054210 2.296154
vt -1.500349 2.296154
vt -0.608070 1.916935
vt -0.161931 1.916935
vt -0.161931 2.296154
vt -0.608070 2.296154
vt -3.223037 2.876136
vt -2.843819 2.876136
vt -2.843819 3.322277
vt -3.223037 3.322277
vt -2.464602 2.876136
vt -2.085379 2.876136
vt -2.085379 3.322277
vt -2.464602 3.322277
vt -3.223037 3.768418
vt -2.843819 3.768418
vt -2.843819 4.214557
vt -3.223037 4.214557
vt -2.464602 3.768418
vt -2.085379 3.768418
vt -2.085379 4.214557
vt -2.464602 4.214557
vt -3.602254 3.768418
vt -3.602254 4.214557
vt -3.602254 3.322277
vt -2.843819 2.354154
vt -2.464602 2.354154
vt -2.085379 2.354154
vt -3.602254 2.876136
vt -3.602254 2.354154
vt -3.223037 2.354154
vt -2.026880 1.916935
vt -2.026880 2.296154
vt -2.026880 1.537718
vt -3.602254 1.916935
vt -3.602254 2.296154
vt -3.602254 1.537718
vt -1.054210 0.779280
vt -0.608070 0.779280
vt -0.161931 0.779280
vt -2.026880 1.158499
vt -2.026880 0.779280
vt -1.500349 0.779280
vt -3.602254 1.158499
vt -3.602254 0.779280
vt -2.464602 0.199298
vt -2.843819 0.199298
vt -2.085379 0.199298
vt -3.602254 0.721280
vt -3.602254 -0.246841
vt -3.223037 0.199298
vt -3.602254 0.199298
vt -2.843819 -1.139122
vt -2.464602 -1.139122
vt -2.085379 -1.139122
vt -3.602254 -0.692982
vt -3.602254 -1.139122
vt -3.223037 -1.139122
vt -1.429507 0.730174
vt -1.950075 0.730174
vt -0.988419 0.214099
vt -0.547331 0.214099
vt -0.547331 0.730174
vt -0.988419 0.730174
vt -0.106243 0.214099
vt -0.106243 0.730174
vt 0.988703 0.049864
vt 1.018721 0.045246
vt 1.018721 0.022155
vt 0.522275 0.056791
vt 0.718544 0.056791
vt 0.326005 0.084761
vt 0.055846 0.084761
vt 0.055846 0.080143
vt 0.326005 0.080143
vt 0.486332 0.049994
vt 0.255426 0.049994
vt 0.099718 0.056791
vt 0.024521 0.056922
vt 0.989749 0.022286
vt 0.989749 0.026904
vt 1.020028 0.045376
vt 1.020028 0.049994
vt 0.989749 0.049994
vt 0.717237 0.056922
vt 1.020028 0.022286
vt 0.989749 0.084630
vt 0.717237 0.080012
vt 0.989749 0.080012
vt 0.055846 0.049864
vt 0.025828 0.049864
vt 0.914814 0.056791
vt 0.944832 0.056791
vt -4.076036 2.287215
vt -3.564459 2.287215
vt -3.564459 2.344556
vt -4.076036 2.344556
vt -4.076036 0.214099
vt -3.564459 0.214099
vt -3.564459 0.730174
vt -4.076036 0.730174
vt -4.076036 -1.109167
vt -3.564459 -1.109167
vt -3.564459 -0.668078
vt -4.076036 -0.668078
vt -4.076036 -0.226989
vt -3.564459 -0.226989
vt -4.076036 0.787514
vt -3.564459 0.787514
vt -3.564459 1.162438
vt -4.076036 1.162438
vt -4.076036 1.537364
vt -3.564459 1.537364
vt -3.564459 1.912288
vt -4.076036 1.912288
vt -3.564459 2.860630
vt -4.076036 2.860630
vt -4.076036 3.301719
vt -3.564459 3.301719
vt -3.564459 3.742806
vt -4.076036 3.742806
vt -3.564459 4.183896
vt -4.076036 4.183896
vt 1.676802 0.056791
vt 1.445896 0.056791
vt 0.914814 0.027034
vt 0.717237 0.049994
vt 0.024521 0.080012
vt 0.024521 0.049994
vt 0.718544 0.027034
vt 0.522275 0.027034
vt 0.326005 0.027034
vt -0.170442 0.027034
vt -0.401347 0.027034
vt -0.632253 0.027034
vt -0.863158 0.056791
vt -0.863158 0.027035
vt 1.214991 0.056791
vt 1.907707 0.056791
vt 1.018721 0.049864
vt 0.988703 0.080143
vt 0.326005 0.049864
vt 1.018721 0.049864
vt 0.787816 0.049864
vt 0.556910 0.049864
vt 0.718544 0.080143
vt 0.487639 0.080143
vt 0.256733 0.080143
vt 0.025828 0.080143
vt 0.025828 0.049864
vt 0.718544 0.022416
vt 0.914814 0.022416
vt 0.326005 0.022416
vt 0.522275 0.022416
vt -0.170442 0.022416
vt -0.632253 0.022416
vt -0.401347 0.022416
vt 0.988703 0.084761
vt 0.718544 0.084761
vt -0.863158 0.022416
vt 0.487639 0.084761
vt 0.256733 0.084761
vt 0.025828 0.084761
s 0
usemtl asphalt_02
f 143/139/5 63/140/5 64/141/5 65/142/5
f 142/143/5 68/144/5 69/145/5 70/146/5
f 155/147/5 152/148/5 74/149/5 75/150/5
f 154/151/5 153/152/5 77/153/5 78/154/5
f 139/155/5 84/156/5 85/157/5 86/158/5
f 138/159/5 87/160/5 88/161/5 89/162/5
f 137/163/5 90/164/5 91/165/5 92/166/5
f 136/167/5 93/168/5 94/169/5 95/170/5
f 135/171/5 98/172/5 99/173/5 100/174/5
f 134/175/5 101/176/5 102/177/5 103/178/5
f 133/179/5 104/180/5 105/181/5 106/182/5
f 132/183/5 107/184/5 108/185/5 109/186/5
f 131/187/5 112/188/5 113/189/5 114/190/5
f 130/191/5 115/192/5 116/193/5 117/194/5
f 129/195/5 120/196/5 121/197/5 122/198/5
f 128/199/5 123/200/5 124/201/5 125/202/5
f 120/196/5 128/199/5 125/202/5 121/197/5
f 113/189/5 117/194/5 128/199/5 120/196/5
f 117/194/5 116/193/5 123/200/5 128/199/5
f 118/203/5 129/195/5 122/198/5 119/204/5
f 111/205/5 114/190/5 129/195/5 118/203/5
f 114/190/5 113/189/5 120/196/5 129/195/5
f 112/188/5 130/191/5 117/194/5 113/189/5
f 164/206/5 166/207/5 130/191/5 112/188/5
f 166/207/5 165/208/5 115/192/5 130/191/5
f 110/209/5 131/187/5 114/190/5 111/205/5
f 163/210/5 167/211/5 131/187/5 110/209/5
f 167/211/5 164/206/5 112/188/5 131/187/5
f 104/180/5 132/183/5 109/186/5 105/181/5
f 91/165/5 95/170/5 132/183/5 104/180/5
f 95/170/5 94/169/5 107/184/5 132/183/5
f 181/212/5 133/179/5 106/182/5 180/213/5
f 179/214/5 92/166/5 133/179/5 181/212/5
f 92/166/5 91/165/5 104/180/5 133/179/5
f 98/172/5 134/175/5 103/178/5 99/173/5
f 85/157/5 89/162/5 134/175/5 98/172/5
f 89/162/5 88/161/5 101/176/5 134/175/5
f 96/215/5 135/171/5 100/174/5 97/216/5
f 83/217/5 86/158/5 135/171/5 96/215/5
f 86/158/5 85/157/5 98/172/5 135/171/5
f 90/164/5 136/167/5 95/170/5 91/165/5
f 81/218/5 80/219/5 136/167/5 90/164/5
f 80/219/5 127/220/5 93/168/5 136/167/5
f 182/221/5 137/163/5 92/166/5 179/214/5
f 178/222/5 79/223/5 137/163/5 182/221/5
f 79/223/5 81/218/5 90/164/5 137/163/5
f 84/156/5 138/159/5 89/162/5 85/157/5
f 74/149/5 78/154/5 138/159/5 84/156/5
f 78/154/5 77/153/5 87/160/5 138/159/5
f 82/224/5 139/155/5 86/158/5 83/217/5
f 72/225/5 75/150/5 139/155/5 82/224/5
f 75/150/5 74/149/5 84/156/5 139/155/5
f 152/148/5 154/151/5 78/154/5 74/149/5
f 64/141/5 70/146/5 140/226/5 73/227/5
f 70/146/5 69/145/5 76/228/5 140/226/5
f 151/229/5 155/147/5 75/150/5 72/225/5
f 60/230/5 65/142/5 141/231/5 71/232/5
f 65/142/5 64/141/5 73/227/5 141/231/5
f 63/140/5 142/143/5 70/146/5 64/141/5
f 62/233/5 66/234/5 142/143/5 63/140/5
f 66/234/5 67/235/5 68/144/5 142/143/5
f 59/236/5 143/139/5 65/142/5 60/230/5
f 126/237/5 61/238/5 143/139/5 59/236/5
f 61/238/5 62/233/5 63/140/5 143/139/5
f 71/232/5 141/231/5 155/147/5 151/229/5
f 73/227/5 140/226/5 154/151/5 152/148/5
f 140/226/5 76/228/5 153/152/5 154/151/5
f 141/231/5 73/227/5 152/148/5 155/147/5
f 100/174/5 99/173/5 164/206/5 167/211/5
f 97/216/5 100/174/5 167/211/5 163/210/5
f 103/178/5 102/177/5 165/208/5 166/207/5
f 99/173/5 103/178/5 166/207/5 164/206/5
f 77/153/5 178/222/5 182/221/5 87/160/5
f 87/160/5 182/221/5 179/214/5 88/161/5
f 88/161/5 179/214/5 181/212/5 101/176/5
f 101/176/5 181/212/5 180/213/5 102/177/5
usemtl pavement_05
f 174/29/5 47/30/5 46/31/5 172/32/5
f 171/33/5 41/34/5 47/30/5 174/29/5
f 158/37/5 160/38/5 49/39/5 40/40/5
f 160/38/5 159/41/5 42/42/5 49/39/5
f 175/43/5 50/44/5 41/34/5 171/33/5
f 184/45/5 161/46/5 50/44/5 175/43/5
f 161/46/5 158/37/5 40/40/5 50/44/5
f 168/115/5 23/116/5 55/117/5 176/118/5
f 177/127/5 57/128/5 23/116/5 168/115/5
f 173/129/5 22/130/5 57/128/5 177/127/5
f 176/118/5 55/117/5 149/239/5 183/240/5
f 27/241/5 54/242/5 148/243/5 146/244/5
f 54/242/5 29/245/5 147/246/5 148/243/5
f 55/117/5 27/241/5 146/244/5 149/239/5
f 34/274/5 189/275/5 199/276/5 162/277/5
f 56/278/5 196/279/5 198/280/5 150/281/5
f 18/282/5 185/283/5 197/284/5 58/285/5
f 20/286/5 186/287/5 196/279/5 56/278/5
f 25/288/5 187/289/5 195/290/5 53/291/5
f 32/292/5 188/293/5 194/294/5 52/295/5
f 162/277/5 199/276/5 193/296/5 51/297/5
f 38/298/5 190/299/5 192/300/5 48/301/5
f 48/301/5 192/300/5 191/302/5 44/303/5
f 51/297/5 193/296/5 190/299/5 38/298/5
f 52/295/5 194/294/5 189/275/5 34/274/5
f 53/291/5 195/290/5 188/293/5 32/292/5
f 150/281/5 198/280/5 187/289/5 25/288/5
f 58/285/5 197/284/5 186/287/5 20/286/5
usemtl brick_crosswalk
f 177/1/1 168/2/1 206/3/1 248/4/1
f 196/5/2 186/6/2 256/7/2 266/8/2
f 45/9/2 15/10/2 228/11/2 232/12/2
f 159/13/3 160/14/3 252/15/3 251/16/3
f 173/17/1 177/1/1 248/4/1 255/18/1
f 197/19/2 185/20/2 200/21/2 267/22/2
f 15/10/2 39/23/2 227/24/2 228/11/2
f 146/25/4 148/26/4 245/27/4 211/28/4
f 198/35/2 196/5/2 266/8/2 268/36/2
f 145/47/2 6/48/2 77/49/2 153/50/2
f 24/51/1 3/52/1 60/53/1 71/54/1
f 31/55/1 5/56/1 72/57/1 82/58/1
f 37/59/1 14/60/1 226/61/1 225/62/1
f 39/23/2 15/10/2 116/63/2 115/64/2
f 33/65/1 9/66/1 83/67/1 96/68/1
f 45/9/2 17/69/2 124/70/2 123/71/2
f 21/72/2 4/73/2 69/74/2 68/75/2
f 156/76/1 10/77/1 97/78/1 163/79/1
f 43/80/1 14/60/1 111/81/1 118/82/1
f 144/83/1 24/51/1 71/54/1 151/84/1
f 19/85/1 1/86/1 126/87/1 59/88/1
f 9/66/1 31/55/1 82/58/1 83/67/1
f 14/60/1 43/80/1 230/89/1 226/61/1
f 30/90/3 8/91/3 127/13/3 80/92/3
f 10/77/1 33/65/1 96/68/1 97/78/1
f 14/60/1 37/59/1 110/93/1 111/81/1
f 16/94/1 43/80/1 118/82/1 119/95/1
f 13/96/4 36/97/4 109/26/4 108/98/4
f 28/99/3 7/100/3 81/101/3 79/102/3
f 3/52/1 19/85/1 59/88/1 60/53/1
f 12/103/4 35/104/4 106/105/4 105/106/4
f 7/100/3 30/90/3 80/92/3 81/101/3
f 158/101/3 161/102/3 253/107/3 250/108/3
f 199/109/2 189/110/2 259/111/2 269/112/2
f 12/103/4 36/97/4 223/113/4 224/114/4
f 36/97/4 12/103/4 105/106/4 109/26/4
f 4/73/2 26/119/2 76/120/2 69/74/2
f 169/121/3 28/99/3 79/102/3 178/122/3
f 11/123/4 170/124/4 221/125/4 222/126/4
f 157/131/2 39/23/2 115/64/2 165/132/2
f 170/124/4 11/123/4 102/133/4 180/134/4
f 2/135/2 21/72/2 68/75/2 67/136/2
f 15/10/2 45/9/2 123/71/2 116/63/2
f 33/65/1 10/77/1 220/137/1 219/138/1
f 5/56/1 144/83/1 151/84/1 72/57/1
f 26/119/2 145/47/2 153/50/2 76/120/2
f 39/23/2 157/131/2 242/247/2 227/24/2
f 11/248/2 157/131/2 165/132/2 102/249/2
f 37/59/1 156/76/1 163/79/1 110/93/1
f 31/55/1 9/66/1 218/250/1 217/251/1
f 176/252/1 183/253/1 249/254/1 247/255/1
f 30/90/3 7/100/3 212/256/3 216/257/3
f 156/76/1 37/59/1 225/62/1 241/258/1
f 36/97/4 13/96/4 240/259/4 223/113/4
f 161/102/3 184/260/3 254/261/3 253/107/3
f 35/104/4 170/124/4 180/134/4 106/105/4
f 169/121/3 6/262/3 210/263/3 213/264/3
f 35/104/4 12/103/4 224/114/4 239/265/4
f 6/262/3 169/121/3 178/122/3 77/266/3
f 183/267/4 149/105/4 246/268/4 249/269/4
f 6/48/2 145/47/2 209/270/2 210/271/2
f 9/66/1 33/65/1 219/138/1 218/250/1
f 144/83/1 5/56/1 208/272/1 207/273/1
f 5/56/1 31/55/1 217/251/1 208/272/1
f 267/22/5 202/304/5 203/305/5 256/7/5
f 268/36/5 207/273/5 208/272/5 257/306/5
f 246/268/5 211/28/5 212/256/5 238/307/5
f 245/27/5 214/308/5 215/309/5 216/257/5
f 265/310/5 217/251/5 218/250/5 258/311/5
f 264/312/5 219/138/5 220/137/5 259/111/5
f 263/313/5 225/62/5 226/61/5 260/314/5
f 262/315/5 230/89/5 231/316/5 261/317/5
f 260/314/5 226/61/5 230/89/5 262/315/5
f 269/112/5 241/258/5 225/62/5 263/313/5
f 258/311/5 218/250/5 219/138/5 264/312/5
f 257/306/5 208/272/5 217/251/5 265/310/5
f 211/28/5 245/27/5 216/257/5 212/256/5
f 249/269/5 246/268/5 238/307/5 213/264/5
f 256/7/5 203/305/5 236/318/5 266/8/5
f 200/21/5 201/319/5 202/304/5 267/22/5
f 266/8/5 236/318/5 207/273/5 268/36/5
f 259/111/5 220/137/5 241/258/5 269/112/5
f 239/265/5 224/114/5 250/108/5 253/107/5
f 221/125/5 239/265/5 253/107/5 254/261/5
f 223/113/5 240/259/5 251/16/5 252/15/5
f 224/114/5 223/113/5 252/15/5 250/108/5
f 222/320/5 254/321/5 242/247/5
f 237/322/5 247/255/5 249/254/5 209/270/5
f 235/323/5 255/18/5 248/4/5 204/324/5
f 204/324/5 248/4/5 206/3/5 205/325/5
f 205/325/5 206/3/5 247/255/5 237/322/5
f 209/270/5 249/254/5 210/271/5
f 242/247/5 254/321/5 244/326/5 227/24/5
f 227/24/5 244/326/5 229/327/5 228/11/5
f 228/11/5 229/327/5 243/328/5 232/12/5
f 232/12/5 243/328/5 234/329/5 233/330/5
f 160/14/3 158/101/3 250/108/3 252/15/3
f 43/80/1 16/94/1 231/316/1 230/89/1
f 195/331/2 187/332/2 257/306/2 265/310/2
f 17/69/2 45/9/2 232/12/2 233/330/2
f 148/26/4 147/98/4 214/308/4 245/27/4
f 194/333/2 188/334/2 258/311/2 264/312/2
f 168/2/1 176/252/1 247/255/1 206/3/1
f 28/99/3 169/121/3 213/264/3 238/307/3
f 149/105/4 146/25/4 211/28/4 246/268/4
f 193/335/2 199/109/2 269/112/2 263/313/2
f 170/124/4 35/104/4 239/265/4 221/125/4
f 1/86/1 19/85/1 202/304/1 201/319/1
f 192/336/2 190/337/2 260/314/2 262/315/2
f 184/338/1 175/339/1 244/326/1 254/321/1
f 10/77/1 156/76/1 241/258/1 220/137/1
f 191/340/2 192/336/2 262/315/2 261/317/2
f 175/339/1 171/341/1 229/327/1 244/326/1
f 21/72/2 2/135/2 235/323/2 204/324/2
f 157/131/2 11/248/2 222/320/2 242/247/2
f 190/337/2 193/335/2 263/313/2 260/314/2
f 171/341/1 174/342/1 243/328/1 229/327/1
f 189/110/2 194/333/2 264/312/2 259/111/2
f 174/342/1 172/343/1 234/329/1 243/328/1
f 3/52/1 24/51/1 236/318/1 203/305/1
f 24/51/1 144/83/1 207/273/1 236/318/1
f 188/334/2 195/331/2 265/310/2 258/311/2
f 145/47/2 26/119/2 237/322/2 209/270/2
f 187/332/2 198/35/2 268/36/2 257/306/2
f 26/119/2 4/73/2 205/325/2 237/322/2
f 186/6/2 197/19/2 267/22/2 256/7/2
f 7/100/3 28/99/3 238/307/3 212/256/3
f 19/85/1 3/52/1 203/305/1 202/304/1
f 8/91/3 30/90/3 216/257/3 215/309/3
f 4/73/2 21/72/2 204/324/2 205/325/2
f 210/263/5 249/269/5 213/264/5
f 254/261/5 222/126/5 221/125/5
