# Blender 5.2.1 LTS
# www.blender.org
mtllib 4Road.mtl
o Grid.005
v -3.400002 0.000000 12.000000
v 3.399998 0.000000 12.000000
v -3.400002 0.000000 8.000000
v 3.399998 0.000000 8.000000
v -12.000000 0.000000 3.400000
v -8.000000 0.000000 3.400000
v -3.400002 0.000000 3.400000
v 3.399998 0.000000 3.400000
v 8.000000 0.000000 3.400000
v 12.000000 0.000000 3.400000
v -12.000000 0.000000 -3.400001
v -8.000000 0.000000 -3.400001
v -3.400002 0.000000 -3.400000
v 3.399998 0.000000 -3.400000
v 8.000000 0.000000 -3.400001
v 12.000000 0.000000 -3.400001
v -3.400002 0.000000 -8.000002
v 3.399998 0.000000 -8.000002
v -3.400002 0.000000 -12.000002
v 3.399998 0.000000 -12.000002
v -6.000000 0.000000 12.000000
v -3.400002 0.000000 10.000000
v -6.000000 0.000000 8.000000
v 3.399998 0.000000 10.000000
v 6.000001 0.000000 12.000000
v 6.000001 0.000000 8.000000
v -12.000000 0.000000 6.000000
v -8.000000 0.000000 6.000000
v -10.000000 0.000000 3.400000
v -3.400002 0.000000 6.000000
v -6.000000 0.000000 3.400000
v 3.399998 0.000000 6.000000
v 8.000001 0.000000 6.000000
v 6.000001 0.000000 3.400000
v 12.000000 0.000000 6.000000
v 10.000000 0.000000 3.400000
v -10.000000 0.000000 -3.400001
v -6.000000 0.000000 -3.400001
v 6.000001 0.000000 -3.400001
v 10.000000 0.000000 -3.400001
v -12.000000 0.000000 -6.000001
v -8.000000 0.000000 -6.000001
v -3.400002 0.000000 -6.000002
v -6.000000 0.000000 -8.000001
v 3.399998 0.000000 -6.000002
v 8.000001 0.000000 -6.000001
v 6.000001 0.000000 -8.000001
v 12.000000 0.000000 -6.000001
v -3.400002 0.000000 -10.000000
v -6.000000 0.000000 -12.000000
v 3.399998 0.000000 -10.000000
v 6.000001 0.000000 -12.000000
v 6.000001 0.000000 -10.000000
v -6.000000 0.000000 -10.000000
v 10.000000 0.000000 -6.000001
v 6.000001 0.000000 -6.000001
v -6.000000 0.000000 -6.000001
v -10.000000 0.000000 -6.000001
v 10.000000 0.000000 6.000000
v 6.000001 0.000000 6.000000
v -6.000000 0.000000 6.000000
v -10.000000 0.000000 6.000000
v 6.000001 0.000000 10.000000
v -6.000000 0.000000 10.000000
v -3.400002 -0.200000 10.000000
v -3.400002 -0.200000 8.000000
v -1.700002 -0.200000 12.000000
v -0.000002 -0.200000 12.000000
v -0.000002 -0.200000 10.000000
v -0.000002 -0.200000 8.000000
v -1.700002 -0.200000 8.000000
v 1.699998 -0.200000 12.000000
v 3.399998 -0.200000 12.000000
v 3.399998 -0.200000 10.000000
v 3.399998 -0.200000 8.000000
v 1.699998 -0.200000 8.000000
v -10.000000 -0.200000 3.400000
v -12.000000 -0.200000 3.400000
v -3.400002 -0.200000 6.000000
v -3.400002 -0.200000 3.400000
v -6.000000 -0.200000 3.400000
v -8.000000 -0.200000 3.400000
v -0.000002 -0.200000 6.000000
v -0.000002 -0.200000 3.400000
v -1.700002 -0.200000 3.400000
v 3.399998 -0.200000 6.000000
v 3.399998 -0.200000 3.400000
v 1.699998 -0.200000 3.400000
v 6.000001 -0.200000 3.400000
v 10.000000 -0.200000 3.400000
v 8.000000 -0.200000 3.400000
v -12.000000 -0.200000 1.700000
v -8.000000 -0.200000 1.700000
v -8.000000 -0.200000 0.000000
v -10.000000 -0.200000 0.000000
v -12.000000 -0.200000 0.000000
v -3.400002 -0.200000 1.700000
v -3.400002 -0.200000 0.000000
v -6.000000 -0.200000 0.000000
v -0.000002 -0.200000 1.700000
v -0.000002 -0.200000 0.000000
v -1.700002 -0.200000 0.000000
v 3.399998 -0.200000 1.700000
v 3.399998 -0.200000 0.000000
v 1.699998 -0.200000 0.000000
v 8.000000 -0.200000 1.700000
v 8.000000 -0.200000 0.000000
v 6.000001 -0.200000 0.000000
v 12.000000 -0.200000 1.700000
v 12.000000 -0.200000 0.000000
v 10.000000 -0.200000 0.000000
v -12.000000 -0.200000 -1.700000
v -8.000000 -0.200000 -1.700000
v -8.000000 -0.200000 -3.400001
v -10.000000 -0.200000 -3.400001
v -12.000000 -0.200000 -3.400001
v -3.400002 -0.200000 -1.700000
v -3.400002 -0.200000 -3.400000
v -6.000000 -0.200000 -3.400001
v -0.000002 -0.200000 -1.700000
v -0.000002 -0.200000 -3.400000
v -1.700002 -0.200000 -3.400000
v 3.399998 -0.200000 -1.700000
v 3.399998 -0.200000 -3.400000
v 1.699998 -0.200000 -3.400000
v 8.000000 -0.200000 -1.700000
v 8.000000 -0.200000 -3.400001
v 6.000001 -0.200000 -3.400001
v 12.000000 -0.200000 -1.700000
v 12.000000 -0.200000 -3.400001
v 10.000000 -0.200000 -3.400001
v -3.400002 -0.200000 -6.000002
v -3.400002 -0.200000 -8.000002
v -0.000002 -0.200000 -6.000002
v -0.000002 -0.200000 -8.000002
v -1.700002 -0.200000 -8.000002
v 3.399998 -0.200000 -6.000002
v 3.399998 -0.200000 -8.000002
v 1.699998 -0.200000 -8.000002
v -3.400002 -0.200000 -10.000000
v -3.400002 -0.200000 -12.000002
v -0.000002 -0.200000 -10.000000
v -0.000002 -0.200000 -12.000002
v -1.700002 -0.200000 -12.000002
v 3.399998 -0.200000 -10.000000
v 3.399998 -0.200000 -12.000002
v 1.699998 -0.200000 -12.000002
v -3.400002 -0.200000 12.000000
v 12.000000 -0.200000 3.400000
v 1.699998 -0.200000 -10.000000
v -1.700002 -0.200000 -10.000000
v 1.699998 -0.200000 -6.000002
v -1.700002 -0.200000 -6.000002
v 10.000000 -0.200000 -1.700000
v 6.000001 -0.200000 -1.700000
v 1.699998 -0.200000 -1.700000
v -1.700002 -0.200000 -1.700000
v -6.000000 -0.200000 -1.700000
v -10.000000 -0.200000 -1.700000
v 10.000000 -0.200000 1.700000
v 6.000001 -0.200000 1.700000
v 1.699998 -0.200000 1.700000
v -1.700002 -0.200000 1.700000
v -6.000000 -0.200000 1.700000
v -10.000000 -0.200000 1.700000
v 1.699998 -0.200000 6.000000
v -1.700002 -0.200000 6.000000
v 1.699998 -0.200000 10.000000
v -1.700002 -0.200000 10.000000
v 3.659998 0.000000 8.000000
v 3.659998 0.000000 3.400000
v 3.659998 0.000000 -3.400000
v 3.659998 0.000000 -8.000002
v 3.659998 0.000000 -12.000002
v 3.659998 0.000000 12.000000
v 3.659998 0.000000 -10.000000
v 3.659998 0.000000 -6.000002
v 3.659998 0.000000 6.000000
v 3.659998 0.000000 10.000000
v 3.659998 -0.200000 3.400000
v 3.659998 -0.200000 0.000000
v 3.659998 -0.200000 -3.400000
v 3.659998 -0.200000 -1.700000
v 3.659998 -0.200000 1.700000
v -3.660002 0.000000 12.000000
v -3.660002 0.000000 8.000000
v -3.660002 0.000000 3.400000
v -3.660002 0.000000 -3.400000
v -3.660002 0.000000 -8.000002
v -3.660002 0.000000 -12.000002
v -3.660002 0.000000 -10.000000
v -3.660002 0.000000 -6.000002
v -3.660002 0.000000 6.000000
v -3.660002 0.000000 10.000000
v -3.660002 -0.200000 3.400000
v -3.660002 -0.200000 0.000000
v -3.660002 -0.200000 -3.400000
v -3.660002 -0.200000 -1.700000
v -3.660002 -0.200000 1.700000
v -8.000000 0.000000 3.660000
v -3.400002 0.000000 3.660000
v 3.399998 0.000000 3.660000
v 8.000000 0.000000 3.660000
v 12.000000 0.000000 3.660000
v -12.000000 0.000000 3.660000
v 10.000000 0.000000 3.660000
v 6.000001 0.000000 3.660000
v -6.000000 0.000000 3.660000
v -10.000000 0.000000 3.660000
v -3.400002 -0.200000 3.660000
v -0.000002 -0.200000 3.660000
v 3.399998 -0.200000 3.660000
v 1.699998 -0.200000 3.660000
v -1.700002 -0.200000 3.660000
v 3.659998 0.000000 3.660000
v -3.660002 0.000000 3.660000
v -12.000000 0.000000 -3.660001
v -8.000000 0.000000 -3.660001
v -3.400002 0.000000 -3.660000
v 3.399998 0.000000 -3.660000
v 8.000000 0.000000 -3.660001
v 12.000000 0.000000 -3.660001
v 10.000000 0.000000 -3.660001
v 6.000001 0.000000 -3.660001
v -6.000000 0.000000 -3.660001
v -10.000000 0.000000 -3.660001
v -3.400002 -0.200000 -3.660000
v -0.000002 -0.200000 -3.660000
v 3.399998 -0.200000 -3.660000
v 1.699998 -0.200000 -3.660000
v -1.700002 -0.200000 -3.660000
v 3.659998 0.000000 -3.660000
v -3.660002 0.000000 -3.660000
v -3.660002 0.040000 12.000000
v -3.400002 0.040000 12.000000
v -3.400002 0.040000 10.000000
v -3.400002 0.040000 8.000000
v 3.399998 0.040000 10.000000
v 3.399998 0.040000 8.000000
v -10.000000 0.040000 3.400000
v -12.000000 0.040000 3.400000
v -3.400002 0.040000 3.660000
v -3.400002 0.040000 3.400000
v -6.000000 0.040000 3.400000
v -8.000000 0.040000 3.400000
v 3.399998 0.040000 3.660000
v 3.399998 0.040000 3.400000
v 3.659998 0.040000 3.400000
v 12.000000 0.040000 3.660000
v 12.000000 0.040000 3.400000
v 10.000000 0.040000 3.400000
v 8.000000 0.040000 3.400000
v -10.000000 0.040000 -3.400001
v -12.000000 0.040000 -3.400001
v -6.000000 0.040000 -3.400001
v -8.000000 0.040000 -3.400001
v 3.659998 0.040000 -3.400000
v 3.399998 0.040000 -3.400000
v 10.000000 0.040000 -3.400001
v 8.000000 0.040000 -3.400001
v -12.000000 0.040000 -3.660001
v -3.400002 0.040000 -6.000002
v -3.400002 0.040000 -8.000002
v 3.399998 0.040000 -6.000002
v 3.399998 0.040000 -8.000002
v -3.400002 0.040000 -10.000000
v -3.400002 0.040000 -12.000002
v 3.399998 0.040000 -10.000000
v 3.399998 0.040000 -12.000002
v 3.659998 0.040000 -12.000002
v 3.399998 0.040000 12.000000
v -3.400002 0.040000 6.000000
v -3.660002 0.040000 3.400000
v 3.399998 0.040000 6.000000
v 6.000001 0.040000 3.400000
v -3.660002 0.040000 -3.400000
v 6.000001 0.040000 -3.400001
v 12.000000 0.040000 -3.400001
v -3.400002 0.040000 -3.660000
v 3.399998 0.040000 -3.660000
v 3.659998 0.040000 12.000000
v 3.659998 0.040000 10.000000
v 3.659998 0.040000 8.000000
v 3.659998 0.040000 6.000000
v 3.659998 0.040000 -3.660000
v 3.659998 0.040000 -6.000002
v 3.659998 0.040000 -8.000002
v 3.659998 0.040000 -10.000000
v -3.400002 0.040000 -3.400000
v -3.660002 0.040000 -12.000002
v -3.660002 0.040000 10.000000
v -3.660002 0.040000 8.000000
v -3.660002 0.040000 6.000000
v -3.660002 0.040000 -3.660000
v -3.660002 0.040000 -6.000002
v -3.660002 0.040000 -8.000002
v -3.660002 0.040000 -10.000000
v -12.000000 0.040000 3.660000
v 3.659998 0.040000 3.660000
v -3.660002 0.040000 3.660000
v -6.000000 0.040000 3.660000
v -10.000000 0.040000 3.660000
v -8.000000 0.040000 3.660000
v 6.000001 0.040000 3.660000
v 10.000000 0.040000 3.660000
v 8.000000 0.040000 3.660000
v 12.000000 0.040000 -3.660001
v -6.000000 0.040000 -3.660001
v -8.000000 0.040000 -3.660001
v -10.000000 0.040000 -3.660001
v 8.000000 0.040000 -3.660001
v 6.000001 0.040000 -3.660001
v 10.000000 0.040000 -3.660001
vn -0.0000 1.0000 -0.0000
vn -0.0000 -0.0000 -1.0000
vn -1.0000 -0.0000 -0.0000
vn -0.0000 -0.0000 1.0000
vn 1.0000 -0.0000 -0.0000
vt 3.347484 3.742806
vt 3.863554 3.742806
vt 3.863554 4.183896
vt 3.347484 4.183896
vt 3.347484 3.301719
vt 3.863554 3.301719
vt 4.304643 2.344556
vt 4.745730 2.344556
vt 4.745730 2.860630
vt 4.304643 2.860630
vt 5.186818 2.344556
vt 5.186818 2.860630
vt 3.347484 2.860630
vt 3.863554 2.860630
vt 3.347484 2.344556
vt 3.863554 2.344556
vt 0.775933 2.344556
vt 1.217025 2.344556
vt 1.217025 2.860630
vt 0.775933 2.860630
vt -0.106243 2.344556
vt 0.334846 2.344556
vt 0.334846 2.860630
vt -0.106243 2.860630
vt 0.056282 0.045384
vt 0.026292 0.045384
vt 0.026292 0.022315
vt 0.056282 0.022315
vt 0.988267 0.061532
vt 1.018257 0.061532
vt 1.018257 0.084601
vt 0.988267 0.084601
vt 0.056282 0.061532
vt 0.326188 0.061532
vt 0.326188 0.084601
vt 0.056282 0.084601
vt 0.326188 0.061532
vt 0.556878 0.061532
vt 0.556878 0.084601
vt 0.326188 0.084601
vt 0.718360 0.045384
vt 0.487671 0.045384
vt 0.487671 0.022315
vt 0.718360 0.022315
vt 0.787567 0.045384
vt 0.556878 0.045384
vt 0.556878 0.022315
vt 0.787567 0.022315
vt 0.256982 0.061532
vt 0.487671 0.061532
vt 0.487671 0.084601
vt 0.256982 0.084601
vt 0.256982 0.045384
vt 0.026292 0.045384
vt 0.026292 0.022315
vt 0.256982 0.022315
vt 0.056282 0.045384
vt 0.026292 0.045384
vt 0.026292 0.022315
vt 0.056282 0.022315
vt 0.787567 0.045384
vt 0.556878 0.045384
vt 0.556878 0.022315
vt 0.787567 0.022315
vt 0.556878 0.061532
vt 0.787567 0.061532
vt 0.787567 0.084601
vt 0.556878 0.084601
vt 0.326188 0.045384
vt 0.326188 0.022315
vt 0.787567 0.061532
vt 1.018257 0.061532
vt 1.018257 0.084601
vt 0.787567 0.084601
vt 0.056282 0.061532
vt 0.056282 0.084601
vt 0.787567 0.061532
vt 1.018257 0.061532
vt 1.018257 0.084601
vt 0.787567 0.084601
vt 1.018256 0.045384
vt 1.018256 0.022315
vt 0.326189 0.045384
vt 0.326189 0.022315
vt 1.018257 0.045384
vt 1.018257 0.022315
vt 0.787567 0.045384
vt 0.787567 0.022315
vt 1.018257 0.061532
vt 1.018256 0.084601
vt 0.326189 0.061532
vt 0.556878 0.061532
vt 0.556878 0.084601
vt 0.326189 0.084601
vt 0.556878 0.022315
vt 3.347484 -0.226989
vt 3.863554 -0.226989
vt 3.863554 0.214099
vt 3.347484 0.214099
vt 0.718361 0.061532
vt 0.718361 0.084601
vt 0.256982 0.049998
vt 0.026292 0.049998
vt 3.347484 -0.668078
vt 3.863554 -0.668078
vt 3.347484 -1.109167
vt 3.863554 -1.109167
vt 0.988267 0.045384
vt 0.988267 0.022315
vt 0.056282 0.045384
vt 0.056282 0.022315
vt 0.026292 0.061532
vt 0.026292 0.084601
vt 2.135691 -0.692982
vt 2.514907 -0.692982
vt 2.514907 -0.246841
vt 2.135691 -0.246841
vt 2.894131 -0.692982
vt 3.273349 -0.692982
vt 3.273349 -0.246841
vt 2.894131 -0.246841
vt 2.135691 0.721280
vt 2.514907 0.721280
vt 2.514907 0.779280
vt 2.135691 0.779280
vt 2.894131 0.721280
vt 3.273349 0.721280
vt 3.273349 0.779280
vt 2.894131 0.779280
vt 0.284211 1.158499
vt 0.730350 1.158499
vt 0.730350 1.537718
vt 0.284211 1.537718
vt 1.698474 1.158499
vt 1.756469 1.158499
vt 1.756469 1.537718
vt 1.698474 1.537718
vt 2.135691 1.158499
vt 2.514907 1.158499
vt 2.514907 1.537718
vt 2.135691 1.537718
vt 2.894131 1.158499
vt 3.273349 1.158499
vt 3.273349 1.537718
vt 2.894131 1.537718
vt 3.853327 1.158499
vt 4.299467 1.158499
vt 4.299467 1.537718
vt 3.853327 1.537718
vt 4.745606 1.158499
vt 5.191747 1.158499
vt 5.191747 1.537718
vt 4.745606 1.537718
vt 0.284211 1.916935
vt 0.730350 1.916935
vt 0.730350 2.296154
vt 0.284211 2.296154
vt 1.698474 1.916935
vt 1.756469 1.916935
vt 1.756469 2.296154
vt 1.698474 2.296154
vt 2.135691 1.916935
vt 2.514907 1.916935
vt 2.514907 2.296154
vt 2.135691 2.296154
vt 2.894131 1.916935
vt 3.273349 1.916935
vt 3.273349 2.296154
vt 2.894131 2.296154
vt 3.853327 1.916935
vt 4.299467 1.916935
vt 4.299467 2.296154
vt 3.853327 2.296154
vt 4.745606 1.916935
vt 5.191747 1.916935
vt 5.191747 2.296154
vt 4.745606 2.296154
vt 2.135691 2.876136
vt 2.514907 2.876136
vt 2.514907 3.322277
vt 2.135691 3.322277
vt 2.894131 2.876136
vt 3.273349 2.876136
vt 3.273349 3.322277
vt 2.894131 3.322277
vt 2.135691 3.768418
vt 2.514907 3.768418
vt 2.514907 4.214557
vt 2.135691 4.214557
vt 2.894131 3.768418
vt 3.273349 3.768418
vt 3.273349 4.214557
vt 2.894131 4.214557
vt 1.756469 3.768418
vt 1.756469 4.214557
vt 1.756469 3.322277
vt 2.514907 2.354154
vt 2.894131 2.354154
vt 3.273349 2.354154
vt 1.756469 2.876136
vt 1.756469 2.354154
vt 2.135691 2.354154
vt 3.331347 1.916935
vt 3.331347 2.296154
vt 3.331347 1.537718
vt 1.176489 1.916935
vt 1.176489 2.296154
vt 1.176489 1.537718
vt -0.161931 1.916935
vt -0.161931 2.296154
vt -0.161931 1.537718
vt 4.299467 0.779280
vt 4.745606 0.779280
vt 5.191747 0.779280
vt 3.331347 1.158499
vt 3.331347 0.779280
vt 3.853327 0.779280
vt 1.756469 0.779280
vt 1.176489 1.158499
vt 0.730350 0.779280
vt 1.176489 0.779280
vt 1.698474 0.779280
vt -0.161931 1.158499
vt -0.161931 0.779280
vt 0.284211 0.779280
vt 2.894131 0.199298
vt 2.514907 0.199298
vt 3.273349 0.199298
vt 1.756469 0.721280
vt 1.756469 -0.246841
vt 2.135691 0.199298
vt 1.756469 0.199298
vt 2.514907 -1.139122
vt 2.894131 -1.139122
vt 3.273349 -1.139122
vt 1.756469 -0.692982
vt 1.756469 -1.139122
vt 2.135691 -1.139122
vt 0.026292 0.061532
vt 0.026292 0.084601
vt 1.018257 0.049998
vt 0.787567 0.049998
vt 1.217025 -1.109167
vt 1.733096 -1.109167
vt 1.733096 -0.668078
vt 1.217025 -0.668078
vt 1.217025 -0.226989
vt 1.733096 -0.226989
vt 1.733096 0.214099
vt 1.217025 0.214099
vt 0.026292 0.061532
vt 0.026292 0.084601
vt 1.733096 2.344556
vt 1.733096 2.860630
vt 1.217025 3.301719
vt 1.733096 3.301719
vt 1.733096 3.742806
vt 1.217025 3.742806
vt 1.733096 4.183896
vt 1.217025 4.183896
vt 1.733096 0.730174
vt 1.217025 0.730174
vt -0.106243 0.214099
vt 0.334846 0.214099
vt 0.334846 0.730174
vt -0.106243 0.730174
vt 0.775933 0.214099
vt 0.775933 0.730174
vt 3.863554 0.730174
vt 3.347484 0.730174
vt 4.304643 0.214099
vt 4.745730 0.214099
vt 4.745730 0.730174
vt 4.304643 0.730174
vt 5.186818 0.214099
vt 5.186818 0.730174
vt 1.018257 0.045384
vt 1.018257 0.022315
vt 0.487671 0.049998
vt 0.718360 0.049998
vt 0.326189 0.026929
vt 0.556878 0.026929
vt 0.787567 0.026929
vt 1.018257 0.026929
vt 1.018257 0.056918
vt 0.787567 0.056918
vt 0.556878 0.056918
vt 0.326189 0.056918
vt 0.056282 0.056918
vt 0.026292 0.056918
vt 0.056282 0.026929
vt 0.326189 0.049998
vt 0.556878 0.049998
vt 1.018257 0.079987
vt 0.787567 0.079987
vt 0.556878 0.079987
vt 0.326188 0.079987
vt 0.056282 0.079987
vt 0.026292 0.049998
vt 0.056282 0.049998
vt 0.056282 0.079987
vt 0.056282 0.049998
vt 0.326189 0.049998
vt 0.556878 0.049998
vt 0.787567 0.049998
vt 0.787567 0.079987
vt 0.556878 0.079987
vt 0.326189 0.079987
vt 0.787567 0.056918
vt 0.556878 0.056918
vt 0.326188 0.056918
vt 0.326188 0.026929
vt 0.556878 0.026929
vt 1.018257 0.026929
vt 1.018257 0.056918
vt 0.056282 0.022315
vt 0.326188 0.022315
vt 0.326188 0.026929
vt 0.056282 0.026929
vt 0.718361 0.022315
vt 0.988267 0.026929
vt 0.718361 0.026929
vt 0.326188 0.022315
vt 0.026292 0.056918
vt 0.256982 0.056918
vt 0.326188 0.084601
vt 0.056282 0.084601
vt 0.056282 0.079987
vt 0.326188 0.079987
vt 0.556878 0.022315
vt 0.787567 0.049998
vt 0.556878 0.049998
vt 0.556878 0.022315
vt 0.787567 0.022315
vt 0.787567 0.026929
vt 0.556878 0.026929
vt 0.326188 0.049997
vt 0.056282 0.049997
vt 1.018257 0.022315
vt 1.018257 0.026929
vt 0.787567 0.084601
vt 1.018256 0.079987
vt 0.787567 0.084601
vt 0.487671 0.056918
vt 0.718361 0.056918
vt 0.556878 0.079987
vt 0.026292 0.022315
vt 0.256982 0.026929
vt 0.026292 0.026929
vt 1.018256 0.049998
vt 0.326189 0.022315
vt 0.487671 0.022315
vt 0.487671 0.026929
vt 0.556878 0.056918
vt 0.787567 0.056918
vt 0.718360 0.084601
vt 0.718360 0.079987
vt 0.988267 0.079987
vt 0.056282 0.056918
vt 0.326188 0.056918
vt 0.988267 0.056918
vt 1.018257 0.056918
vt 0.487671 0.084601
vt 0.487671 0.079987
vt 0.256982 0.079987
vt 0.026292 0.079987
vt 1.018256 0.056918
vt 0.026292 0.049997
vt 0.026292 0.056918
vt 0.988267 0.049998
vt 1.018257 0.049998
s 0
usemtl asphalt_02
f 169/114/1 69/115/1 70/116/1 71/117/1
f 168/118/1 74/119/1 75/120/1 76/121/1
f 214/122/1 211/123/1 84/124/1 85/125/1
f 213/126/1 212/127/1 87/128/1 88/129/1
f 165/130/1 93/131/1 94/132/1 95/133/1
f 199/134/1 97/135/1 98/136/1 196/137/1
f 163/138/1 100/139/1 101/140/1 102/141/1
f 162/142/1 103/143/1 104/144/1 105/145/1
f 161/146/1 106/147/1 107/148/1 108/149/1
f 160/150/1 109/151/1 110/152/1 111/153/1
f 159/154/1 113/155/1 114/156/1 115/157/1
f 198/158/1 117/159/1 118/160/1 197/161/1
f 157/162/1 120/163/1 121/164/1 122/165/1
f 156/166/1 123/167/1 124/168/1 125/169/1
f 155/170/1 126/171/1 127/172/1 128/173/1
f 154/174/1 129/175/1 130/176/1 131/177/1
f 153/178/1 134/179/1 135/180/1 136/181/1
f 152/182/1 137/183/1 138/184/1 139/185/1
f 151/186/1 142/187/1 143/188/1 144/189/1
f 150/190/1 145/191/1 146/192/1 147/193/1
f 142/187/1 150/190/1 147/193/1 143/188/1
f 135/180/1 139/185/1 150/190/1 142/187/1
f 139/185/1 138/184/1 145/191/1 150/190/1
f 140/194/1 151/186/1 144/189/1 141/195/1
f 133/196/1 136/181/1 151/186/1 140/194/1
f 136/181/1 135/180/1 142/187/1 151/186/1
f 134/179/1 152/182/1 139/185/1 135/180/1
f 228/197/1 230/198/1 152/182/1 134/179/1
f 230/198/1 229/199/1 137/183/1 152/182/1
f 132/200/1 153/178/1 136/181/1 133/196/1
f 227/201/1 231/202/1 153/178/1 132/200/1
f 231/202/1 228/197/1 134/179/1 153/178/1
f 126/171/1 154/174/1 131/177/1 127/172/1
f 107/148/1 111/153/1 154/174/1 126/171/1
f 111/153/1 110/152/1 129/175/1 154/174/1
f 183/203/1 155/170/1 128/173/1 182/204/1
f 181/205/1 108/149/1 155/170/1 183/203/1
f 108/149/1 107/148/1 126/171/1 155/170/1
f 120/163/1 156/166/1 125/169/1 121/164/1
f 101/140/1 105/145/1 156/166/1 120/163/1
f 105/145/1 104/144/1 123/167/1 156/166/1
f 117/159/1 157/162/1 122/165/1 118/160/1
f 98/136/1 102/141/1 157/162/1 117/159/1
f 102/141/1 101/140/1 120/163/1 157/162/1
f 113/155/1 158/206/1 119/207/1 114/156/1
f 94/132/1 99/208/1 158/206/1 113/155/1
f 196/137/1 98/136/1 117/159/1 198/158/1
f 112/209/1 159/154/1 115/157/1 116/210/1
f 96/211/1 95/133/1 159/154/1 112/209/1
f 95/133/1 94/132/1 113/155/1 159/154/1
f 106/147/1 160/150/1 111/153/1 107/148/1
f 91/212/1 90/213/1 160/150/1 106/147/1
f 90/213/1 149/214/1 109/151/1 160/150/1
f 184/215/1 161/146/1 108/149/1 181/205/1
f 180/216/1 89/217/1 161/146/1 184/215/1
f 89/217/1 91/212/1 106/147/1 161/146/1
f 100/139/1 162/142/1 105/145/1 101/140/1
f 84/124/1 88/129/1 162/142/1 100/139/1
f 88/129/1 87/128/1 103/143/1 162/142/1
f 97/135/1 163/138/1 102/141/1 98/136/1
f 80/218/1 85/125/1 163/138/1 97/135/1
f 85/125/1 84/124/1 100/139/1 163/138/1
f 93/131/1 164/219/1 99/208/1 94/132/1
f 82/220/1 81/221/1 164/219/1 93/131/1
f 195/222/1 80/218/1 97/135/1 199/134/1
f 92/223/1 165/130/1 95/133/1 96/211/1
f 78/224/1 77/225/1 165/130/1 92/223/1
f 77/225/1 82/220/1 93/131/1 165/130/1
f 211/123/1 213/126/1 88/129/1 84/124/1
f 70/116/1 76/121/1 166/226/1 83/227/1
f 76/121/1 75/120/1 86/228/1 166/226/1
f 210/229/1 214/122/1 85/125/1 80/218/1
f 66/230/1 71/117/1 167/231/1 79/232/1
f 71/117/1 70/116/1 83/227/1 167/231/1
f 69/115/1 168/118/1 76/121/1 70/116/1
f 68/233/1 72/234/1 168/118/1 69/115/1
f 72/234/1 73/235/1 74/119/1 168/118/1
f 65/236/1 169/114/1 71/117/1 66/230/1
f 148/237/1 67/238/1 169/114/1 65/236/1
f 67/238/1 68/233/1 69/115/1 169/114/1
f 87/128/1 180/216/1 184/215/1 103/143/1
f 103/143/1 184/215/1 181/205/1 104/144/1
f 104/144/1 181/205/1 183/203/1 123/167/1
f 123/167/1 183/203/1 182/204/1 124/168/1
f 81/221/1 195/222/1 199/134/1 164/219/1
f 99/208/1 196/137/1 198/158/1 158/206/1
f 158/206/1 198/158/1 197/161/1 119/207/1
f 164/219/1 199/134/1 196/137/1 99/208/1
f 79/232/1 167/231/1 214/122/1 210/229/1
f 83/227/1 166/226/1 213/126/1 211/123/1
f 166/226/1 86/228/1 212/127/1 213/126/1
f 167/231/1 83/227/1 211/123/1 214/122/1
f 122/165/1 121/164/1 228/197/1 231/202/1
f 118/160/1 122/165/1 231/202/1 227/201/1
f 125/169/1 124/168/1 229/199/1 230/198/1
f 121/164/1 125/169/1 230/198/1 228/197/1
usemtl pavement_05
f 176/1/1 53/2/1 52/3/1 174/4/1
f 173/5/1 47/6/1 53/2/1 176/1/1
f 221/7/1 223/8/1 55/9/1 46/10/1
f 223/8/1 222/11/1 48/12/1 55/9/1
f 177/13/1 56/14/1 47/6/1 173/5/1
f 232/15/1 224/16/1 56/14/1 177/13/1
f 224/16/1 221/7/1 46/10/1 56/14/1
f 218/17/1 225/18/1 57/19/1 42/20/1
f 217/21/1 226/22/1 58/23/1 41/24/1
f 226/22/1 218/17/1 42/20/1 58/23/1
f 170/96/1 26/97/1 60/98/1 178/99/1
f 179/104/1 63/105/1 26/97/1 170/96/1
f 175/106/1 25/107/1 63/105/1 179/104/1
f 21/243/1 185/244/1 194/245/1 64/246/1
f 23/247/1 186/248/1 193/249/1 61/250/1
f 225/18/1 233/253/1 192/254/1 57/19/1
f 44/255/1 189/256/1 191/257/1 54/258/1
f 54/258/1 191/257/1 190/259/1 50/260/1
f 57/19/1 192/254/1 189/256/1 44/255/1
f 64/246/1 194/245/1 186/248/1 23/247/1
f 61/250/1 193/249/1 216/261/1 208/262/1
f 27/263/1 62/264/1 209/265/1 205/266/1
f 28/267/1 61/250/1 208/262/1 200/268/1
f 178/99/1 60/98/1 207/269/1 215/270/1
f 33/271/1 59/272/1 206/273/1 203/274/1
f 59/272/1 35/275/1 204/276/1 206/273/1
f 60/98/1 33/271/1 203/274/1 207/269/1
f 62/264/1 28/267/1 200/268/1 209/265/1
usemtl brick_crosswalk
f 187/25/2 7/26/2 80/27/2 195/28/2
f 202/29/3 8/30/3 87/31/3 212/32/3
f 188/33/4 38/34/4 119/35/4 197/36/4
f 30/37/5 3/38/5 66/39/5 79/40/5
f 45/41/3 18/42/3 138/43/3 137/44/3
f 29/45/2 6/46/2 82/47/2 77/48/2
f 24/49/3 4/50/3 75/51/3 74/52/3
f 51/53/3 20/54/3 146/55/3 145/56/3
f 219/57/5 13/58/5 118/59/5 227/60/5
f 49/61/5 17/62/5 133/63/5 140/64/5
f 12/65/4 37/66/4 115/67/4 114/68/4
f 6/46/2 31/69/2 81/70/2 82/47/2
f 38/34/4 12/65/4 114/68/4 119/35/4
f 22/71/5 1/72/5 148/73/5 65/74/5
f 201/75/5 30/37/5 79/40/5 210/76/5
f 36/77/2 10/78/2 149/79/2 90/80/2
f 5/81/2 29/45/2 77/48/2 78/82/2
f 17/62/5 43/83/5 132/84/5 133/63/5
f 19/85/5 49/61/5 140/64/5 141/86/5
f 16/85/4 40/87/4 131/88/4 130/86/4
f 37/66/4 11/89/4 116/90/4 115/67/4
f 34/91/2 9/92/2 91/93/2 89/94/2
f 3/38/5 22/71/5 65/74/5 66/39/5
f 15/62/4 39/83/4 128/84/4 127/95/4
f 9/92/2 36/77/2 90/80/2 91/93/2
f 40/87/4 15/62/4 127/95/4 131/88/4
f 4/50/3 32/100/3 86/101/3 75/51/3
f 20/54/3 51/53/3 268/102/3 269/103/3
f 171/75/2 34/91/2 89/94/2 180/76/2
f 220/108/3 45/41/3 137/44/3 229/109/3
f 172/110/4 14/58/4 124/59/4 182/111/4
f 2/112/3 24/49/3 74/52/3 73/113/3
f 18/42/3 51/53/3 145/56/3 138/43/3
f 39/83/4 172/110/4 182/111/4 128/84/4
f 8/239/2 171/75/2 180/76/2 87/240/2
f 49/61/5 19/85/5 267/241/5 266/242/5
f 13/251/4 188/33/4 197/36/4 118/252/4
f 31/69/2 187/25/2 195/28/2 81/70/2
f 7/239/5 201/75/5 210/76/5 80/240/5
f 32/100/3 202/29/3 212/32/3 86/101/3
f 14/277/3 220/108/3 229/109/3 124/278/3
f 43/83/5 219/57/5 227/60/5 132/84/5
f 51/53/3 18/42/3 265/279/3 268/102/3
f 18/42/3 45/41/3 264/280/3 265/279/3
f 304/281/1 306/282/1 305/283/1 249/284/1 250/285/1 251/286/1 252/287/1 275/288/1 248/289/1 247/290/1 299/291/1
f 262/292/1 263/293/1 266/242/1 267/241/1 290/294/1 297/295/1 296/296/1 295/297/1 294/298/1 289/299/1 279/300/1
f 285/301/1 258/299/1 257/302/1 277/303/1 260/304/1 259/305/1 278/241/1 307/294/1 313/306/1 311/307/1 312/308/1
f 236/309/1 237/310/1 272/311/1 242/289/1 243/290/1 300/291/1 293/312/1 292/313/1 291/283/1 234/314/1 235/315/1
f 233/316/2 225/317/2 308/318/2 294/319/2
f 1/72/5 22/71/5 236/309/5 235/315/5
f 178/320/5 215/109/5 299/321/5 284/322/5
f 216/111/3 193/323/3 293/312/3 300/291/3
f 24/49/3 2/112/3 271/324/3 238/325/3
f 208/326/4 216/327/4 300/328/4 301/329/4
f 194/88/3 185/86/3 234/314/3 291/283/3
f 193/323/3 186/330/3 292/313/3 293/312/3
f 6/46/2 29/45/2 240/331/2 245/332/2
f 3/38/5 30/37/5 272/311/5 237/310/5
f 218/333/2 226/334/2 310/335/2 309/336/2
f 192/94/3 233/76/3 294/298/3 295/297/3
f 187/25/2 31/69/2 244/337/2 273/338/2
f 226/334/2 217/339/2 261/340/2 310/335/2
f 22/71/5 3/38/5 237/310/5 236/309/5
f 205/90/4 209/341/4 302/295/4 298/342/4
f 191/343/3 189/93/3 296/296/3 297/295/3
f 32/100/3 4/50/3 239/344/3 274/345/3
f 225/317/2 218/333/2 309/336/2 308/318/2
f 4/50/3 24/49/3 238/325/3 239/344/3
f 200/68/4 208/326/4 301/329/4 303/346/4
f 190/31/3 191/343/3 297/295/3 290/294/3
f 175/347/5 179/56/5 282/348/5 281/349/5
f 9/92/2 34/91/2 275/288/2 252/287/2
f 221/93/2 224/94/2 312/308/2 311/307/2
f 29/45/2 5/81/2 241/350/2 240/331/2
f 215/111/4 207/351/4 304/281/4 299/291/4
f 189/93/3 192/94/3 295/297/3 296/296/3
f 179/56/5 170/352/5 283/353/5 282/348/5
f 10/78/2 36/77/2 251/286/2 250/285/2
f 224/94/2 232/76/2 285/301/2 312/308/2
f 201/75/5 7/239/5 243/290/5 242/289/5
f 203/63/4 206/88/4 305/283/4 306/282/4
f 186/330/3 194/88/3 291/283/3 292/313/3
f 170/352/5 178/320/5 284/322/5 283/353/5
f 37/66/4 12/65/4 256/354/4 253/355/4
f 222/31/2 223/80/2 313/306/2 307/294/2
f 31/69/2 6/46/2 245/332/2 244/337/2
f 232/32/5 177/356/5 286/357/5 285/358/5
f 38/34/4 188/33/4 276/359/4 255/360/4
f 223/80/2 221/93/2 311/307/2 313/306/2
f 8/30/3 202/29/3 246/361/3 247/362/3
f 30/37/5 201/75/5 242/289/5 272/311/5
f 177/356/5 173/363/5 287/364/5 286/357/5
f 39/83/4 15/62/4 260/304/4 277/303/4
f 171/75/2 8/239/2 247/290/2 248/289/2
f 206/88/4 204/278/4 249/284/4 305/283/4
f 202/29/3 32/100/3 274/345/3 246/361/3
f 173/363/5 176/52/5 288/365/5 287/364/5
f 40/87/4 16/85/4 278/241/4 259/305/4
f 207/351/4 203/63/4 306/282/4 304/281/4
f 176/52/5 174/240/5 270/366/5 288/365/5
f 34/91/2 171/75/2 248/289/2 275/288/2
f 36/77/2 9/92/2 252/287/2 251/286/2
f 209/341/4 200/68/4 303/346/4 302/295/4
f 172/110/4 39/83/4 277/303/4 257/302/4
f 219/57/5 43/83/5 262/292/5 279/300/5
f 11/89/4 37/66/4 253/355/4 254/367/4
f 7/26/2 187/25/2 273/338/2 243/368/2
f 12/65/4 38/34/4 255/360/4 256/354/4
f 13/58/5 219/57/5 279/300/5 289/299/5
f 188/33/4 13/251/4 289/369/4 276/359/4
f 45/41/3 220/108/3 280/370/3 264/280/3
f 14/58/4 172/110/4 257/302/4 258/299/4
f 220/108/3 14/277/3 258/371/3 280/370/3
f 15/62/4 40/87/4 259/305/4 260/304/4
f 17/62/5 49/61/5 266/242/5 263/293/5
f 43/83/5 17/62/5 263/293/5 262/292/5
f 289/369/1 294/319/1 308/318/1 309/336/1 310/335/1 261/340/1 254/367/1 253/355/1 256/354/1 255/360/1 276/359/1
f 258/371/1 285/358/1 286/357/1 287/364/1 288/365/1 270/366/1 269/103/1 268/102/1 265/279/1 264/280/1 280/370/1
f 299/321/1 247/362/1 246/361/1 274/345/1 239/344/1 238/325/1 271/324/1 281/349/1 282/348/1 283/353/1 284/322/1
f 300/328/1 243/368/1 273/338/1 244/337/1 245/332/1 240/331/1 241/350/1 298/342/1 302/295/1 303/346/1 301/329/1
