# Blender 5.2.1 LTS
# www.blender.org
o EndRoad
v 3.400001 0.000000 -4.000001
v 0.000001 0.000000 -4.000000
v -3.399999 0.000000 -3.999999
v 3.400002 0.000000 -0.000001
v -3.399998 0.000000 0.000001
v 3.400003 0.000000 3.999999
v -3.399997 0.000000 4.000001
v 3.400005 0.000000 8.000001
v -3.399996 0.000000 8.000003
v 3.400006 0.000000 11.999999
v -3.399994 0.000000 12.000001
v 3.400000 0.000000 -5.999999
v 5.999998 0.000000 -4.000002
v 0.000000 0.000000 -5.999998
v 1.700001 0.000000 -4.000000
v -3.400000 0.000000 -5.999997
v -1.699999 0.000000 -4.000000
v -6.000002 0.000000 -3.999998
v 3.400002 0.000000 -2.000001
v 6.000000 0.000000 -0.000002
v -3.399999 0.000000 -1.999999
v -6.000001 0.000000 0.000002
v 3.400003 0.000000 1.999999
v 6.000001 0.000000 3.999999
v -3.399997 0.000000 2.000001
v -6.000000 0.000000 4.000002
v 3.400004 0.000000 6.000001
v 6.000002 0.000000 7.999999
v -3.399996 0.000000 6.000003
v -5.999999 0.000000 8.000003
v 3.400006 0.000000 9.999999
v 6.000003 0.000000 11.999998
v -3.399995 0.000000 10.000001
v -5.999997 0.000000 12.000002
v -5.999998 0.000000 10.000002
v 6.000003 0.000000 9.999998
v -5.999999 0.000000 6.000003
v 6.000001 0.000000 5.999999
v -6.000000 0.000000 2.000002
v 6.000000 0.000000 1.999998
v -6.000001 0.000000 -1.999998
v 5.999999 0.000000 -2.000002
v -6.000003 0.000000 -5.999998
v -1.700000 0.000000 -5.999998
v 1.700000 0.000000 -5.999999
v 5.999998 0.000000 -6.000001
v 1.700001 -0.200000 -4.000000
v 3.400001 -0.200000 -4.000001
v -1.699999 -0.200000 -4.000000
v 0.000001 -0.200000 -4.000000
v 3.400002 -0.200000 -2.000001
v 3.400002 -0.200000 -0.000001
v 0.000002 -0.200000 -2.000000
v 0.000002 -0.200000 -0.000000
v 1.700002 -0.200000 -0.000001
v -3.399999 -0.200000 -1.999999
v -3.399998 -0.200000 0.000001
v -1.699998 -0.200000 0.000001
v 3.400003 -0.200000 1.999999
v 3.400003 -0.200000 3.999999
v 0.000003 -0.200000 2.000000
v 0.000004 -0.200000 4.000000
v 1.700004 -0.200000 4.000000
v -3.399997 -0.200000 2.000001
v -3.399997 -0.200000 4.000001
v -1.699997 -0.200000 4.000000
v 3.400004 -0.200000 6.000001
v 3.400005 -0.200000 8.000001
v 0.000004 -0.200000 6.000002
v 0.000005 -0.200000 8.000002
v 1.700005 -0.200000 8.000001
v -3.399996 -0.200000 6.000003
v -3.399996 -0.200000 8.000003
v -1.699995 -0.200000 8.000003
v 3.400006 -0.200000 9.999999
v 3.400006 -0.200000 11.999999
v 0.000006 -0.200000 10.000000
v 0.000006 -0.200000 12.000000
v 1.700006 -0.200000 11.999999
v -3.399995 -0.200000 10.000001
v -3.399994 -0.200000 12.000001
v -1.699994 -0.200000 12.000001
v -3.399999 -0.200000 -3.999999
v -1.699995 -0.200000 10.000001
v 1.700005 -0.200000 9.999999
v -1.699996 -0.200000 6.000002
v 1.700004 -0.200000 6.000001
v -1.699997 -0.200000 2.000000
v 1.700003 -0.200000 1.999999
v -1.699999 -0.200000 -1.999999
v 1.700002 -0.200000 -2.000000
v -3.660000 0.000000 -3.999999
v -3.659998 0.000000 0.000001
v -3.659997 0.000000 4.000001
v -3.659996 0.000000 8.000003
v -3.659995 0.000000 12.000001
v -3.659995 0.000000 10.000001
v -3.659997 0.000000 6.000003
v -3.659998 0.000000 2.000001
v -3.659999 0.000000 -1.999999
v -3.660000 0.000000 -5.999997
v 3.660001 0.000000 -4.000001
v 3.660002 0.000000 -0.000001
v 3.660003 0.000000 3.999999
v 3.660004 0.000000 8.000001
v 3.660006 0.000000 11.999999
v 3.660005 0.000000 9.999999
v 3.660004 0.000000 6.000000
v 3.660002 0.000000 1.999999
v 3.660001 0.000000 -2.000001
v 3.660000 0.000000 -6.000000
v 3.400001 0.000000 -4.200001
v 0.000001 0.000000 -4.200000
v -3.400000 0.000000 -4.199999
v -6.000002 0.000000 -4.199998
v -1.699999 0.000000 -4.199999
v 1.700001 0.000000 -4.200000
v 5.999998 0.000000 -4.200002
v -3.660000 0.000000 -4.199998
v 3.660000 0.000000 -4.200001
v 1.700001 0.040000 -4.000000
v 3.400001 0.040000 -4.000001
v -1.699999 0.040000 -4.000000
v 0.000001 0.040000 -4.000000
v 3.400002 0.040000 -2.000001
v 3.400002 0.040000 -0.000001
v -3.399999 0.040000 -1.999999
v -3.399998 0.040000 0.000001
v 3.400003 0.040000 1.999999
v 3.400003 0.040000 3.999999
v -3.399997 0.040000 2.000001
v -3.399997 0.040000 4.000001
v 3.400004 0.040000 6.000001
v 3.400005 0.040000 8.000001
v -3.399996 0.040000 6.000003
v -3.399996 0.040000 8.000003
v 3.400006 0.040000 9.999999
v 3.400006 0.040000 11.999999
v -3.399995 0.040000 10.000001
v -3.399994 0.040000 12.000001
v -3.659995 0.040000 12.000001
v -3.399999 0.040000 -3.999999
v -3.660000 0.040000 -4.199998
v -3.660000 0.040000 -3.999999
v -3.659999 0.040000 -1.999999
v -3.659998 0.040000 0.000001
v -3.659998 0.040000 2.000001
v -3.659997 0.040000 4.000001
v -3.659997 0.040000 6.000003
v -3.659996 0.040000 8.000003
v -3.659995 0.040000 10.000001
v 3.660006 0.040000 11.999999
v 3.660001 0.040000 -4.000001
v 3.660001 0.040000 -2.000001
v 3.660002 0.040000 -0.000001
v 3.660002 0.040000 1.999999
v 3.660003 0.040000 3.999999
v 3.660004 0.040000 6.000000
v 3.660004 0.040000 8.000001
v 3.660005 0.040000 9.999999
v 3.660000 0.040000 -4.200001
v -3.400000 0.040000 -4.199999
v 1.700001 0.040000 -4.200000
v 3.400001 0.040000 -4.200001
v -1.699999 0.040000 -4.199999
v 0.000001 0.040000 -4.200000
vn -0.0000 1.0000 -0.0000
vn -0.0000 -0.0000 1.0000
vn 1.0000 -0.0000 -0.0000
vn -1.0000 -0.0000 -0.0000
vn -0.0000 -0.0000 -1.0000
vt 3.347484 -6.843317
vt 3.863554 -6.843317
vt 3.863554 -6.402228
vt 3.347484 -6.402228
vt 3.347484 -7.284404
vt 3.863554 -7.284405
vt 0.914676 0.048841
vt 0.718476 0.048841
vt 0.718476 0.025759
vt 0.914676 0.025759
vt 0.972383 0.045380
vt 0.741558 0.045379
vt 0.741558 0.022297
vt 0.972383 0.022297
vt 1.226290 0.045378
vt 0.995465 0.045379
vt 0.995465 0.022296
vt 1.226290 0.022296
vt 1.203207 0.045380
vt 1.203207 0.022297
vt 0.764640 0.045379
vt 0.764641 0.022296
vt 0.510733 0.045379
vt 0.279909 0.045379
vt 0.279908 0.022296
vt 0.510733 0.022297
vt 3.347484 -7.725492
vt 3.863554 -7.725494
vt 3.347484 -8.166582
vt 3.863554 -8.166582
vt -0.158658 0.045380
vt -0.389483 0.045380
vt -0.389483 0.022298
vt -0.158659 0.022297
vt 1.457114 0.045378
vt 1.457114 0.022296
vt 0.326074 0.048841
vt 0.129873 0.048841
vt 0.129873 0.025759
vt 0.326074 0.025759
vt 0.049084 0.045379
vt -0.181741 0.045378
vt -0.181741 0.022296
vt 0.049084 0.022296
vt 3.347484 -8.607670
vt 3.863554 -8.607670
vt 3.347484 -9.048759
vt 3.863554 -9.048759
vt 0.302991 0.045379
vt 0.072166 0.045380
vt 0.072166 0.022297
vt 0.302991 0.022297
vt 0.522274 0.048841
vt 0.522274 0.025759
vt 3.347484 -9.489848
vt 3.863554 -9.489848
vt 3.347484 -9.930938
vt 3.863554 -9.930938
vt 1.434032 0.045380
vt 1.434032 0.022297
vt 0.533816 0.045379
vt 0.533816 0.022297
vt -0.412565 0.045378
vt -0.412565 0.022296
vt 3.347484 -9.975045
vt 3.863554 -9.975045
vt 2.135691 -9.615777
vt 2.514907 -9.615777
vt 2.514907 -9.169638
vt 2.135691 -9.169638
vt 2.894131 -9.615777
vt 3.273349 -9.615777
vt 3.273349 -9.169638
vt 2.894131 -9.169638
vt 2.135691 -8.723498
vt 2.514907 -8.723498
vt 2.514907 -8.277359
vt 2.135691 -8.277359
vt 2.894131 -8.723498
vt 3.273349 -8.723498
vt 3.273349 -8.277359
vt 2.894131 -8.277359
vt 2.135691 -7.831218
vt 2.514907 -7.831218
vt 2.514907 -7.385077
vt 2.135691 -7.385077
vt 2.894131 -7.831218
vt 3.273349 -7.831218
vt 3.273349 -7.385077
vt 2.894131 -7.385077
vt 2.135691 -6.938940
vt 2.514907 -6.938940
vt 2.514907 -6.492800
vt 2.135691 -6.492800
vt 2.894131 -6.938940
vt 3.273349 -6.938940
vt 3.273349 -6.492800
vt 2.894131 -6.492800
vt 1.756469 -6.938940
vt 1.756469 -6.492800
vt 1.756469 -7.385077
vt 1.756469 -7.831218
vt 1.756469 -8.277359
vt 1.756469 -8.723498
vt 1.756469 -9.169638
vt 2.514907 -10.061917
vt 2.894131 -10.061917
vt 3.273349 -10.061917
vt 1.756469 -9.615777
vt 1.756469 -10.061917
vt 2.135691 -10.061917
vt 1.217025 -9.930938
vt 1.733096 -9.930938
vt 1.733096 -9.489848
vt 1.217025 -9.489848
vt 1.217025 -9.048759
vt 1.733096 -9.048759
vt 1.733096 -8.607670
vt 1.217025 -8.607670
vt 1.217025 -8.166582
vt 1.733096 -8.166582
vt 1.733096 -7.725492
vt 1.217025 -7.725494
vt 1.217025 -7.284405
vt 1.733096 -7.284404
vt 1.733096 -6.843317
vt 1.217025 -6.843317
vt 1.733096 -6.402228
vt 1.217025 -6.402228
vt 1.217025 -9.975045
vt 1.733096 -9.975045
vt 1.217025 -10.372025
vt 1.733096 -10.372025
vt 3.290138 -10.372025
vt 3.347484 -10.372025
vt 3.290138 -9.975045
vt 1.790437 -10.372025
vt 2.165366 -10.372025
vt 2.165366 -9.975045
vt 1.790437 -9.975045
vt 2.540289 -10.372025
vt 2.915215 -10.372025
vt 2.915215 -9.975045
vt 2.540289 -9.975045
vt 3.863554 -10.372025
vt 1.457114 0.049995
vt 1.226290 0.049995
vt 0.944684 0.076540
vt 0.914676 0.076540
vt 0.718476 0.076540
vt 0.522274 0.076540
vt 0.326074 0.076540
vt 0.129873 0.076540
vt 0.099865 0.076540
vt 0.129873 0.053458
vt 0.326074 0.053458
vt 0.522274 0.053458
vt 0.718476 0.053458
vt 0.914676 0.053458
vt -0.181741 0.084619
vt -0.412565 0.084618
vt -0.412565 0.080002
vt -0.181741 0.080002
vt 0.718476 0.081157
vt 0.522274 0.081157
vt 0.510733 0.049996
vt 0.279908 0.049995
vt -0.181741 0.049995
vt -0.412565 0.049995
vt 0.944684 0.081157
vt 0.914676 0.081157
vt 0.995465 0.049995
vt -0.158658 0.084620
vt -0.389483 0.084620
vt -0.389483 0.080004
vt -0.158658 0.080003
vt 0.049084 0.049995
vt 0.302991 0.084619
vt 0.072166 0.084620
vt 0.072166 0.080003
vt 0.302991 0.080003
vt 0.764641 0.084619
vt 0.533816 0.084619
vt 0.533816 0.080003
vt 0.764641 0.080002
vt 1.457114 0.084620
vt 1.434032 0.084620
vt 1.434032 0.080004
vt 1.457114 0.080004
vt -0.158658 0.049996
vt -0.389483 0.049997
vt 1.226290 0.084619
vt 0.995465 0.084619
vt 0.995465 0.080002
vt 1.226290 0.080002
vt 1.203207 0.084620
vt 1.203207 0.080003
vt 1.457114 0.084618
vt 1.457114 0.080002
vt 0.072166 0.049996
vt 0.972383 0.084620
vt 0.972383 0.080003
vt 1.434032 0.049996
vt 1.203207 0.049996
vt 0.972383 0.049996
vt 0.741558 0.084620
vt 0.741558 0.080003
vt 0.129873 0.081157
vt 0.099865 0.081157
vt 0.302991 0.049996
vt 0.533816 0.049996
vt 0.510733 0.084619
vt 0.510733 0.080003
vt 0.741558 0.049996
vt 0.279908 0.084619
vt 0.279908 0.080003
vt 0.326074 0.081157
vt -0.412565 0.084620
vt -0.412565 0.080004
vt 0.764641 0.049995
vt 0.049084 0.084619
vt 0.049084 0.080002
s 0
f 97/1/1 35/2/1 34/3/1 96/4/1
f 95/5/1 30/6/1 35/2/1 97/1/1
f 1/7/2 15/8/2 47/9/2 48/10/2
f 5/11/3 25/12/3 64/13/3 57/14/3
f 31/15/4 8/16/4 68/17/4 75/18/4
f 21/19/3 5/11/3 57/14/3 56/20/3
f 8/16/4 27/21/4 67/22/4 68/17/4
f 7/23/3 29/24/3 72/25/3 65/26/3
f 98/27/1 37/28/1 30/6/1 95/5/1
f 94/29/1 26/30/1 37/28/1 98/27/1
f 19/31/4 1/32/4 48/33/4 51/34/4
f 25/12/3 7/23/3 65/26/3 64/13/3
f 10/35/4 31/15/4 75/18/4 76/36/4
f 17/37/2 3/38/2 83/39/2 49/40/2
f 9/41/3 33/42/3 80/43/3 73/44/3
f 99/45/1 39/46/1 26/30/1 94/29/1
f 93/47/1 22/48/1 39/46/1 99/45/1
f 23/49/4 4/50/4 52/51/4 59/52/4
f 29/24/3 9/41/3 73/44/3 72/25/3
f 4/50/4 19/31/4 51/34/4 52/51/4
f 15/8/2 2/53/2 50/54/2 47/9/2
f 100/55/1 41/56/1 22/48/1 93/47/1
f 92/57/1 18/58/1 41/56/1 100/55/1
f 2/53/2 17/37/2 49/40/2 50/54/2
f 3/59/3 21/19/3 56/20/3 83/60/3
f 27/21/4 6/61/4 60/62/4 67/22/4
f 33/42/3 11/63/3 81/64/3 80/43/3
f 6/61/4 23/49/4 59/52/4 60/62/4
f 119/65/1 115/66/1 18/58/1 92/57/1
f 91/67/1 53/68/1 54/69/1 55/70/1
f 90/71/1 56/72/1 57/73/1 58/74/1
f 89/75/1 61/76/1 62/77/1 63/78/1
f 88/79/1 64/80/1 65/81/1 66/82/1
f 87/83/1 69/84/1 70/85/1 71/86/1
f 86/87/1 72/88/1 73/89/1 74/90/1
f 85/91/1 77/92/1 78/93/1 79/94/1
f 84/95/1 80/96/1 81/97/1 82/98/1
f 77/92/1 84/95/1 82/98/1 78/93/1
f 70/85/1 74/90/1 84/95/1 77/92/1
f 74/90/1 73/89/1 80/96/1 84/95/1
f 75/99/1 85/91/1 79/94/1 76/100/1
f 68/101/1 71/86/1 85/91/1 75/99/1
f 71/86/1 70/85/1 77/92/1 85/91/1
f 69/84/1 86/87/1 74/90/1 70/85/1
f 62/77/1 66/82/1 86/87/1 69/84/1
f 66/82/1 65/81/1 72/88/1 86/87/1
f 67/102/1 87/83/1 71/86/1 68/101/1
f 60/103/1 63/78/1 87/83/1 67/102/1
f 63/78/1 62/77/1 69/84/1 87/83/1
f 61/76/1 88/79/1 66/82/1 62/77/1
f 54/69/1 58/74/1 88/79/1 61/76/1
f 58/74/1 57/73/1 64/80/1 88/79/1
f 59/104/1 89/75/1 63/78/1 60/103/1
f 52/105/1 55/70/1 89/75/1 59/104/1
f 55/70/1 54/69/1 61/76/1 89/75/1
f 53/68/1 90/71/1 58/74/1 54/69/1
f 50/106/1 49/107/1 90/71/1 53/68/1
f 49/107/1 83/108/1 56/72/1 90/71/1
f 51/109/1 91/67/1 55/70/1 52/105/1
f 48/110/1 47/111/1 91/67/1 51/109/1
f 47/111/1 50/106/1 53/68/1 91/67/1
f 13/112/1 102/113/1 110/114/1 42/115/1
f 20/116/1 103/117/1 109/118/1 40/119/1
f 24/120/1 104/121/1 108/122/1 38/123/1
f 28/124/1 105/125/1 107/126/1 36/127/1
f 36/127/1 107/126/1 106/128/1 32/129/1
f 38/123/1 108/122/1 105/125/1 28/124/1
f 40/119/1 109/118/1 104/121/1 24/120/1
f 42/115/1 110/114/1 103/117/1 20/116/1
f 118/130/1 120/131/1 102/113/1 13/112/1
f 46/132/1 111/133/1 120/131/1 118/130/1
f 16/134/1 101/135/1 119/65/1 114/136/1
f 12/137/1 45/138/1 117/139/1 112/140/1
f 14/141/1 44/142/1 116/143/1 113/144/1
f 101/135/1 43/145/1 115/66/1 119/65/1
f 44/142/1 16/134/1 114/136/1 116/143/1
f 45/138/1 14/141/1 113/144/1 117/139/1
f 111/133/1 12/137/1 112/140/1 120/131/1
f 31/15/4 10/35/4 138/146/4 137/147/4
f 161/148/1 164/149/1 163/150/1 166/151/1 165/152/1 162/153/1 143/154/1 142/155/1 123/156/1 124/157/1 121/158/1 122/159/1
f 97/160/4 96/161/4 141/162/4 151/163/4
f 117/164/5 113/165/5 166/151/5 163/150/5
f 29/24/3 7/23/3 132/166/3 135/167/3
f 11/63/3 33/42/3 139/168/3 140/169/3
f 120/170/5 112/171/5 164/149/5 161/148/5
f 8/16/4 31/15/4 137/147/4 134/172/4
f 110/173/3 102/174/3 153/175/3 154/176/3
f 33/42/3 9/41/3 136/177/3 139/168/3
f 2/53/2 15/8/2 121/158/2 124/157/2
f 109/178/3 103/179/3 155/180/3 156/181/3
f 3/38/2 17/37/2 123/156/2 142/155/2
f 108/182/3 104/183/3 157/184/3 158/185/3
f 15/8/2 1/7/2 122/159/2 121/158/2
f 119/186/4 92/187/4 144/188/4 143/189/4
f 1/32/4 19/31/4 125/190/4 122/191/4
f 107/192/3 105/193/3 159/194/3 160/195/3
f 17/37/2 2/53/2 124/157/2 123/156/2
f 92/187/4 100/196/4 145/197/4 144/188/4
f 106/198/3 107/192/3 160/195/3 152/199/3
f 19/31/4 4/50/4 126/200/4 125/190/4
f 100/196/4 93/201/4 146/202/4 145/197/4
f 21/19/3 3/59/3 142/203/3 127/204/3
f 105/193/3 108/182/3 158/185/3 159/194/3
f 5/11/3 21/19/3 127/204/3 128/205/3
f 93/201/4 99/206/4 147/207/4 146/202/4
f 114/208/5 119/209/5 143/154/5 162/153/5
f 4/50/4 23/49/4 129/210/4 126/200/4
f 104/183/3 109/178/3 156/181/3 157/184/3
f 23/49/4 6/61/4 130/211/4 129/210/4
f 99/206/4 94/212/4 148/213/4 147/207/4
f 112/171/5 117/164/5 163/150/5 164/149/5
f 103/179/3 110/173/3 154/176/3 155/180/3
f 7/23/3 25/12/3 131/214/3 132/166/3
f 94/212/4 98/215/4 149/216/4 148/213/4
f 113/165/5 116/217/5 165/152/5 166/151/5
f 25/12/3 5/11/3 128/205/3 131/214/3
f 102/174/3 120/218/3 161/219/3 153/175/3
f 27/21/4 8/16/4 134/172/4 133/220/4
f 98/215/4 95/221/4 150/222/4 149/216/4
f 6/61/4 27/21/4 133/220/4 130/211/4
f 9/41/3 29/24/3 135/167/3 136/177/3
f 95/221/4 97/160/4 151/163/4 150/222/4
f 116/217/5 114/208/5 162/153/5 165/152/5
f 122/191/1 125/190/1 126/200/1 129/210/1 130/211/1 133/220/1 134/172/1 137/147/1 138/146/1 152/199/1 160/195/1 159/194/1 158/185/1 157/184/1 156/181/1 155/180/1 154/176/1 153/175/1 161/219/1
f 142/203/1 143/189/1 144/188/1 145/197/1 146/202/1 147/207/1 148/213/1 149/216/1 150/222/1 151/163/1 141/162/1 140/169/1 139/168/1 136/177/1 135/167/1 132/166/1 131/214/1 128/205/1 127/204/1
