# Blender 5.2.1 LTS
# www.blender.org
mtllib crate.mtl
o Cube.012
v -0.500000 -0.500000 0.500000
v -0.500000 0.500000 0.500000
v -0.500000 -0.500000 -0.500000
v -0.500000 0.500000 -0.500000
v 0.500000 -0.500000 0.500000
v 0.500000 0.500000 0.500000
v 0.500000 -0.500000 -0.500000
v 0.500000 0.500000 -0.500000
v -0.500000 -0.424634 0.424634
v -0.500000 0.424634 0.424634
v -0.500000 0.424634 -0.424634
v -0.500000 -0.424634 -0.424634
v -0.424634 -0.424634 -0.500000
v -0.424634 0.424634 -0.500000
v 0.424634 0.424634 -0.500000
v 0.424634 -0.424634 -0.500000
v 0.500000 -0.424634 -0.424634
v 0.500000 0.424634 -0.424634
v 0.500000 0.424634 0.424634
v 0.500000 -0.424634 0.424634
v 0.424634 -0.424634 0.500000
v 0.424634 0.424634 0.500000
v -0.424634 0.424634 0.500000
v -0.424634 -0.424634 0.500000
v -0.424634 -0.500000 -0.424634
v 0.424634 -0.500000 -0.424634
v 0.424634 -0.500000 0.424634
v -0.424634 -0.500000 0.424634
v 0.424634 0.500000 -0.424634
v -0.424634 0.500000 -0.424634
v -0.424634 0.500000 0.424634
v 0.424634 0.500000 0.424634
v -0.471600 -0.424634 0.424634
v -0.471600 0.424634 0.424634
v -0.471600 -0.424634 -0.424634
v -0.471600 0.424634 -0.424634
v -0.424634 0.424634 -0.471600
v -0.424634 -0.424634 -0.471600
v 0.424634 -0.424634 -0.471600
v 0.424634 0.424634 -0.471600
v 0.471600 0.424634 -0.424634
v 0.471600 -0.424634 -0.424634
v 0.471600 -0.424634 0.424634
v 0.471600 0.424634 0.424634
v 0.424634 0.424634 0.471600
v 0.424634 -0.424634 0.471600
v -0.424634 -0.424634 0.471600
v -0.424634 0.424634 0.471600
v 0.424634 -0.471600 -0.424634
v -0.424634 -0.471600 -0.424634
v -0.424634 -0.471600 0.424634
v 0.424634 -0.471600 0.424634
v -0.424634 0.471600 -0.424634
v 0.424634 0.471600 -0.424634
v 0.424634 0.471600 0.424634
v -0.424634 0.471600 0.424634
v -0.500000 -0.400000 0.500000
v -0.500000 -0.300000 0.500000
v -0.500000 -0.200000 0.500000
v -0.500000 -0.100000 0.500000
v -0.500000 0.000000 0.500000
v -0.500000 0.100000 0.500000
v -0.500000 0.200000 0.500000
v -0.500000 0.300000 0.500000
v -0.500000 0.400000 0.500000
v -0.500000 0.400000 -0.500000
v -0.500000 0.300000 -0.500000
v -0.500000 0.200000 -0.500000
v -0.500000 0.100000 -0.500000
v -0.500000 0.000000 -0.500000
v -0.500000 -0.100000 -0.500000
v -0.500000 -0.200000 -0.500000
v -0.500000 -0.300000 -0.500000
v -0.500000 -0.400000 -0.500000
v 0.500000 0.400000 -0.500000
v 0.500000 0.300000 -0.500000
v 0.500000 0.200000 -0.500000
v 0.500000 0.100000 -0.500000
v 0.500000 0.000000 -0.500000
v 0.500000 -0.100000 -0.500000
v 0.500000 -0.200000 -0.500000
v 0.500000 -0.300000 -0.500000
v 0.500000 -0.400000 -0.500000
v 0.500000 0.400000 0.500000
v 0.500000 0.300000 0.500000
v 0.500000 0.200000 0.500000
v 0.500000 0.100000 0.500000
v 0.500000 0.000000 0.500000
v 0.500000 -0.100000 0.500000
v 0.500000 -0.200000 0.500000
v 0.500000 -0.300000 0.500000
v 0.500000 -0.400000 0.500000
v -0.500000 -0.339707 0.424634
v -0.500000 -0.254780 0.424634
v -0.500000 -0.169854 0.424634
v -0.500000 -0.084927 0.424634
v -0.500000 0.000000 0.424634
v -0.500000 0.084927 0.424634
v -0.500000 0.169854 0.424634
v -0.500000 0.254780 0.424634
v -0.500000 0.339707 0.424634
v -0.500000 0.339707 -0.424634
v -0.500000 0.254780 -0.424634
v -0.500000 0.169854 -0.424634
v -0.500000 0.084927 -0.424634
v -0.500000 -0.000000 -0.424634
v -0.500000 -0.084927 -0.424634
v -0.500000 -0.169854 -0.424634
v -0.500000 -0.254780 -0.424634
v -0.500000 -0.339707 -0.424634
v -0.424634 0.339707 -0.500000
v -0.424634 0.254780 -0.500000
v -0.424634 0.169854 -0.500000
v -0.424634 0.084927 -0.500000
v -0.424634 -0.000000 -0.500000
v -0.424634 -0.084927 -0.500000
v -0.424634 -0.169854 -0.500000
v -0.424634 -0.254780 -0.500000
v -0.424634 -0.339707 -0.500000
v 0.424634 0.339707 -0.500000
v 0.424634 0.254780 -0.500000
v 0.424634 0.169854 -0.500000
v 0.424634 0.084927 -0.500000
v 0.424634 -0.000000 -0.500000
v 0.424634 -0.084927 -0.500000
v 0.424634 -0.169854 -0.500000
v 0.424634 -0.254780 -0.500000
v 0.424634 -0.339707 -0.500000
v 0.500000 0.339707 -0.424634
v 0.500000 0.254780 -0.424634
v 0.500000 0.169854 -0.424634
v 0.500000 0.084927 -0.424634
v 0.500000 -0.000000 -0.424634
v 0.500000 -0.084927 -0.424634
v 0.500000 -0.169854 -0.424634
v 0.500000 -0.254780 -0.424634
v 0.500000 -0.339707 -0.424634
v 0.500000 0.339707 0.424634
v 0.500000 0.254780 0.424634
v 0.500000 0.169854 0.424634
v 0.500000 0.084927 0.424634
v 0.500000 -0.000000 0.424634
v 0.500000 -0.084927 0.424634
v 0.500000 -0.169854 0.424634
v 0.500000 -0.254780 0.424634
v 0.500000 -0.339707 0.424634
v 0.424634 0.339707 0.500000
v 0.424634 0.254780 0.500000
v 0.424634 0.169854 0.500000
v 0.424634 0.084927 0.500000
v 0.424634 -0.000000 0.500000
v 0.424634 -0.084927 0.500000
v 0.424634 -0.169854 0.500000
v 0.424634 -0.254780 0.500000
v 0.424634 -0.339707 0.500000
v -0.424634 -0.339707 0.500000
v -0.424634 -0.254780 0.500000
v -0.424634 -0.169854 0.500000
v -0.424634 -0.084927 0.500000
v -0.424634 0.000000 0.500000
v -0.424634 0.084927 0.500000
v -0.424634 0.169854 0.500000
v -0.424634 0.254780 0.500000
v -0.424634 0.339707 0.500000
v -0.471600 -0.339707 0.424634
v -0.471600 -0.254780 0.424634
v -0.471600 -0.169854 0.424634
v -0.471600 -0.084927 0.424634
v -0.471600 0.000000 0.424634
v -0.471600 0.084927 0.424634
v -0.471600 0.169854 0.424634
v -0.471600 0.254780 0.424634
v -0.471600 0.339707 0.424634
v -0.471600 0.339707 -0.424634
v -0.471600 0.254780 -0.424634
v -0.471600 0.169854 -0.424634
v -0.471600 0.084927 -0.424634
v -0.471600 -0.000000 -0.424634
v -0.471600 -0.084927 -0.424634
v -0.471600 -0.169854 -0.424634
v -0.471600 -0.254780 -0.424634
v -0.471600 -0.339707 -0.424634
v -0.424634 0.339707 -0.471600
v -0.424634 0.254780 -0.471600
v -0.424634 0.169854 -0.471600
v -0.424634 0.084927 -0.471600
v -0.424634 -0.000000 -0.471600
v -0.424634 -0.084927 -0.471600
v -0.424634 -0.169854 -0.471600
v -0.424634 -0.254780 -0.471600
v -0.424634 -0.339707 -0.471600
v 0.424634 0.339707 -0.471600
v 0.424634 0.254780 -0.471600
v 0.424634 0.169854 -0.471600
v 0.424634 0.084927 -0.471600
v 0.424634 -0.000000 -0.471600
v 0.424634 -0.084927 -0.471600
v 0.424634 -0.169854 -0.471600
v 0.424634 -0.254780 -0.471600
v 0.424634 -0.339707 -0.471600
v 0.471600 0.339707 -0.424634
v 0.471600 0.254780 -0.424634
v 0.471600 0.169854 -0.424634
v 0.471600 0.084927 -0.424634
v 0.471600 -0.000000 -0.424634
v 0.471600 -0.084927 -0.424634
v 0.471600 -0.169854 -0.424634
v 0.471600 -0.254780 -0.424634
v 0.471600 -0.339707 -0.424634
v 0.471600 0.339707 0.424634
v 0.471600 0.254780 0.424634
v 0.471600 0.169854 0.424634
v 0.471600 0.084927 0.424634
v 0.471600 -0.000000 0.424634
v 0.471600 -0.084927 0.424634
v 0.471600 -0.169854 0.424634
v 0.471600 -0.254780 0.424634
v 0.471600 -0.339707 0.424634
v 0.424634 0.339707 0.471600
v 0.424634 0.254780 0.471600
v 0.424634 0.169854 0.471600
v 0.424634 0.084927 0.471600
v 0.424634 -0.000000 0.471600
v 0.424634 -0.084927 0.471600
v 0.424634 -0.169854 0.471600
v 0.424634 -0.254780 0.471600
v 0.424634 -0.339707 0.471600
v -0.424634 -0.339707 0.471600
v -0.424634 -0.254780 0.471600
v -0.424634 -0.169854 0.471600
v -0.424634 -0.084927 0.471600
v -0.424634 0.000000 0.471600
v -0.424634 0.084927 0.471600
v -0.424634 0.169854 0.471600
v -0.424634 0.254780 0.471600
v -0.424634 0.339707 0.471600
v -0.480989 -0.254780 0.424634
v -0.480989 -0.169854 0.424634
v -0.480989 0.000000 0.424634
v -0.480989 0.084927 0.424634
v -0.480989 0.254780 0.424634
v -0.480989 0.339707 0.424634
v -0.480989 0.339707 -0.424634
v -0.480989 0.254780 -0.424634
v -0.480989 0.084927 -0.424634
v -0.480989 -0.000000 -0.424634
v -0.480989 -0.169854 -0.424634
v -0.480989 -0.254780 -0.424634
v -0.424634 0.254780 -0.480989
v -0.424634 0.169854 -0.480989
v -0.424634 -0.000000 -0.480989
v -0.424634 -0.084927 -0.480989
v -0.424634 -0.254780 -0.480989
v -0.424634 -0.339707 -0.480989
v 0.424634 0.254780 -0.480989
v 0.424634 0.169854 -0.480989
v 0.424634 -0.000000 -0.480989
v 0.424634 -0.084927 -0.480989
v 0.424634 -0.254780 -0.480989
v 0.424634 -0.339707 -0.480989
v 0.480989 0.339707 -0.424634
v 0.480989 0.254780 -0.424634
v 0.480989 0.084927 -0.424634
v 0.480989 -0.000000 -0.424634
v 0.480989 -0.169854 -0.424634
v 0.480989 -0.254780 -0.424634
v 0.480989 0.339707 0.424634
v 0.480989 0.254780 0.424634
v 0.480989 0.084927 0.424634
v 0.480989 -0.000000 0.424634
v 0.480989 -0.169854 0.424634
v 0.480989 -0.254780 0.424634
v 0.424634 0.339707 0.480989
v 0.424634 0.254780 0.480989
v 0.424634 0.084927 0.480989
v 0.424634 -0.000000 0.480989
v 0.424634 -0.169854 0.480989
v 0.424634 -0.254780 0.480989
v -0.424634 -0.254780 0.480989
v -0.424634 -0.169854 0.480989
v -0.424634 0.000000 0.480989
v -0.424634 0.084927 0.480989
v -0.424634 0.254780 0.480989
v -0.424634 0.339707 0.480989
v -0.500000 -0.500000 -0.400000
v -0.500000 -0.500000 -0.300000
v -0.500000 -0.500000 -0.200000
v -0.500000 -0.500000 -0.100000
v -0.500000 -0.500000 0.000000
v -0.500000 -0.500000 0.100000
v -0.500000 -0.500000 0.200000
v -0.500000 -0.500000 0.300000
v -0.500000 -0.500000 0.400000
v -0.500000 0.500000 0.400000
v -0.500000 0.500000 0.300000
v -0.500000 0.500000 0.200000
v -0.500000 0.500000 0.100000
v -0.500000 0.500000 0.000000
v -0.500000 0.500000 -0.100000
v -0.500000 0.500000 -0.200000
v -0.500000 0.500000 -0.300000
v -0.500000 0.500000 -0.400000
v 0.500000 -0.500000 0.400000
v 0.500000 -0.500000 0.300000
v 0.500000 -0.500000 0.200000
v 0.500000 -0.500000 0.100000
v 0.500000 -0.500000 0.000000
v 0.500000 -0.500000 -0.100000
v 0.500000 -0.500000 -0.200000
v 0.500000 -0.500000 -0.300000
v 0.500000 -0.500000 -0.400000
v 0.500000 0.500000 -0.400000
v 0.500000 0.500000 -0.300000
v 0.500000 0.500000 -0.200000
v 0.500000 0.500000 -0.100000
v 0.500000 0.500000 0.000000
v 0.500000 0.500000 0.100000
v 0.500000 0.500000 0.200000
v 0.500000 0.500000 0.300000
v 0.500000 0.500000 0.400000
v -0.500000 -0.424634 -0.339707
v -0.500000 -0.424634 -0.254780
v -0.500000 -0.424634 -0.169854
v -0.500000 -0.424634 -0.084927
v -0.500000 -0.424634 0.000000
v -0.500000 -0.424634 0.084927
v -0.500000 -0.424634 0.169854
v -0.500000 -0.424634 0.254780
v -0.500000 -0.424634 0.339707
v -0.500000 0.424634 0.339707
v -0.500000 0.424634 0.254780
v -0.500000 0.424634 0.169854
v -0.500000 0.424634 0.084927
v -0.500000 0.424634 -0.000000
v -0.500000 0.424634 -0.084927
v -0.500000 0.424634 -0.169854
v -0.500000 0.424634 -0.254780
v -0.500000 0.424634 -0.339707
v 0.500000 -0.424634 0.339707
v 0.500000 -0.424634 0.254780
v 0.500000 -0.424634 0.169854
v 0.500000 -0.424634 0.084927
v 0.500000 -0.424634 -0.000000
v 0.500000 -0.424634 -0.084927
v 0.500000 -0.424634 -0.169854
v 0.500000 -0.424634 -0.254780
v 0.500000 -0.424634 -0.339707
v 0.500000 0.424634 -0.339707
v 0.500000 0.424634 -0.254780
v 0.500000 0.424634 -0.169854
v 0.500000 0.424634 -0.084927
v 0.500000 0.424634 0.000000
v 0.500000 0.424634 0.084927
v 0.500000 0.424634 0.169854
v 0.500000 0.424634 0.254780
v 0.500000 0.424634 0.339707
v -0.424634 -0.500000 -0.339707
v -0.424634 -0.500000 -0.254780
v -0.424634 -0.500000 -0.169854
v -0.424634 -0.500000 -0.084927
v -0.424634 -0.500000 0.000000
v -0.424634 -0.500000 0.084927
v -0.424634 -0.500000 0.169854
v -0.424634 -0.500000 0.254780
v -0.424634 -0.500000 0.339707
v 0.424634 -0.500000 0.339707
v 0.424634 -0.500000 0.254780
v 0.424634 -0.500000 0.169854
v 0.424634 -0.500000 0.084927
v 0.424634 -0.500000 -0.000000
v 0.424634 -0.500000 -0.084927
v 0.424634 -0.500000 -0.169854
v 0.424634 -0.500000 -0.254780
v 0.424634 -0.500000 -0.339707
v 0.424634 0.500000 -0.339707
v 0.424634 0.500000 -0.254780
v 0.424634 0.500000 -0.169854
v 0.424634 0.500000 -0.084927
v 0.424634 0.500000 0.000000
v 0.424634 0.500000 0.084927
v 0.424634 0.500000 0.169854
v 0.424634 0.500000 0.254780
v 0.424634 0.500000 0.339707
v -0.424634 0.500000 0.339707
v -0.424634 0.500000 0.254780
v -0.424634 0.500000 0.169854
v -0.424634 0.500000 0.084927
v -0.424634 0.500000 -0.000000
v -0.424634 0.500000 -0.084927
v -0.424634 0.500000 -0.169854
v -0.424634 0.500000 -0.254780
v -0.424634 0.500000 -0.339707
v -0.471600 -0.424634 -0.339707
v -0.471600 -0.424634 -0.254780
v -0.471600 -0.424634 -0.169854
v -0.471600 -0.424634 -0.084927
v -0.471600 -0.424634 0.000000
v -0.471600 -0.424634 0.084927
v -0.471600 -0.424634 0.169854
v -0.471600 -0.424634 0.254780
v -0.471600 -0.424634 0.339707
v -0.471600 0.424634 0.339707
v -0.471600 0.424634 0.254780
v -0.471600 0.424634 0.169854
v -0.471600 0.424634 0.084927
v -0.471600 0.424634 -0.000000
v -0.471600 0.424634 -0.084927
v -0.471600 0.424634 -0.169854
v -0.471600 0.424634 -0.254780
v -0.471600 0.424634 -0.339707
v 0.471600 -0.424634 0.339707
v 0.471600 -0.424634 0.254780
v 0.471600 -0.424634 0.169854
v 0.471600 -0.424634 0.084927
v 0.471600 -0.424634 -0.000000
v 0.471600 -0.424634 -0.084927
v 0.471600 -0.424634 -0.169854
v 0.471600 -0.424634 -0.254780
v 0.471600 -0.424634 -0.339707
v 0.471600 0.424634 -0.339707
v 0.471600 0.424634 -0.254780
v 0.471600 0.424634 -0.169854
v 0.471600 0.424634 -0.084927
v 0.471600 0.424634 0.000000
v 0.471600 0.424634 0.084927
v 0.471600 0.424634 0.169854
v 0.471600 0.424634 0.254780
v 0.471600 0.424634 0.339707
v -0.424634 -0.471600 -0.339707
v -0.424634 -0.471600 -0.254780
v -0.424634 -0.471600 -0.169854
v -0.424634 -0.471600 -0.084927
v -0.424634 -0.471600 0.000000
v -0.424634 -0.471600 0.084927
v -0.424634 -0.471600 0.169854
v -0.424634 -0.471600 0.254780
v -0.424634 -0.471600 0.339707
v 0.424634 -0.471600 0.339707
v 0.424634 -0.471600 0.254780
v 0.424634 -0.471600 0.169854
v 0.424634 -0.471600 0.084927
v 0.424634 -0.471600 -0.000000
v 0.424634 -0.471600 -0.084927
v 0.424634 -0.471600 -0.169854
v 0.424634 -0.471600 -0.254780
v 0.424634 -0.471600 -0.339707
v 0.424634 0.471600 -0.339707
v 0.424634 0.471600 -0.254780
v 0.424634 0.471600 -0.169854
v 0.424634 0.471600 -0.084927
v 0.424634 0.471600 0.000000
v 0.424634 0.471600 0.084927
v 0.424634 0.471600 0.169854
v 0.424634 0.471600 0.254780
v 0.424634 0.471600 0.339707
v -0.424634 0.471600 0.339707
v -0.424634 0.471600 0.254780
v -0.424634 0.471600 0.169854
v -0.424634 0.471600 0.084927
v -0.424634 0.471600 -0.000000
v -0.424634 0.471600 -0.084927
v -0.424634 0.471600 -0.169854
v -0.424634 0.471600 -0.254780
v -0.424634 0.471600 -0.339707
v 0.471600 -0.339707 -0.339707
v 0.471600 -0.339707 -0.254780
v 0.471600 -0.339707 -0.169854
v 0.471600 -0.339707 -0.084927
v 0.471600 -0.339707 0.000000
v 0.471600 -0.339707 0.084927
v 0.471600 -0.339707 0.169854
v 0.471600 -0.339707 0.254780
v 0.471600 -0.339707 0.339707
v 0.471600 -0.254780 -0.339707
v 0.471600 -0.254780 -0.254780
v 0.471600 -0.254780 -0.169854
v 0.471600 -0.254780 -0.084927
v 0.471600 -0.254780 0.000000
v 0.471600 -0.254780 0.084927
v 0.471600 -0.254780 0.169854
v 0.471600 -0.254780 0.254780
v 0.471600 -0.254780 0.339707
v 0.471600 -0.169854 -0.339707
v 0.471600 -0.169854 -0.254780
v 0.471600 -0.169854 -0.169854
v 0.471600 -0.169854 -0.084927
v 0.471600 -0.169854 0.000000
v 0.471600 -0.169854 0.084927
v 0.471600 -0.169854 0.169854
v 0.471600 -0.169854 0.254780
v 0.471600 -0.169854 0.339707
v 0.471600 -0.084927 -0.339707
v 0.471600 -0.084927 -0.254780
v 0.471600 -0.084927 -0.169854
v 0.471600 -0.084927 -0.084927
v 0.471600 -0.084927 0.000000
v 0.471600 -0.084927 0.084927
v 0.471600 -0.084927 0.169854
v 0.471600 -0.084927 0.254780
v 0.471600 -0.084927 0.339707
v 0.471600 -0.000000 -0.339707
v 0.471600 -0.000000 -0.254780
v 0.471600 -0.000000 -0.169854
v 0.471600 -0.000000 -0.084927
v 0.471600 -0.000000 0.000000
v 0.471600 -0.000000 0.084927
v 0.471600 -0.000000 0.169854
v 0.471600 -0.000000 0.254780
v 0.471600 -0.000000 0.339707
v 0.471600 0.084927 -0.339707
v 0.471600 0.084927 -0.254780
v 0.471600 0.084927 -0.169854
v 0.471600 0.084927 -0.084927
v 0.471600 0.084927 0.000000
v 0.471600 0.084927 0.084927
v 0.471600 0.084927 0.169854
v 0.471600 0.084927 0.254780
v 0.471600 0.084927 0.339707
v 0.471600 0.169854 -0.339707
v 0.471600 0.169854 -0.254780
v 0.471600 0.169854 -0.169854
v 0.471600 0.169854 -0.084927
v 0.471600 0.169854 0.000000
v 0.471600 0.169854 0.084927
v 0.471600 0.169854 0.169854
v 0.471600 0.169854 0.254780
v 0.471600 0.169854 0.339707
v 0.471600 0.254780 -0.339707
v 0.471600 0.254780 -0.254780
v 0.471600 0.254780 -0.169854
v 0.471600 0.254780 -0.084927
v 0.471600 0.254780 0.000000
v 0.471600 0.254780 0.084927
v 0.471600 0.254780 0.169854
v 0.471600 0.254780 0.254780
v 0.471600 0.254780 0.339707
v 0.471600 0.339707 -0.339707
v 0.471600 0.339707 -0.254780
v 0.471600 0.339707 -0.169854
v 0.471600 0.339707 -0.084927
v 0.471600 0.339707 0.000000
v 0.471600 0.339707 0.084927
v 0.471600 0.339707 0.169854
v 0.471600 0.339707 0.254780
v 0.471600 0.339707 0.339707
v -0.471600 -0.339707 0.339707
v -0.471600 -0.339707 0.254780
v -0.471600 -0.339707 0.169854
v -0.471600 -0.339707 0.084927
v -0.471600 -0.339707 -0.000000
v -0.471600 -0.339707 -0.084927
v -0.471600 -0.339707 -0.169854
v -0.471600 -0.339707 -0.254780
v -0.471600 -0.339707 -0.339707
v -0.471600 -0.254780 0.339707
v -0.471600 -0.254780 0.254780
v -0.471600 -0.254780 0.169854
v -0.471600 -0.254780 0.084927
v -0.471600 -0.254780 -0.000000
v -0.471600 -0.254780 -0.084927
v -0.471600 -0.254780 -0.169854
v -0.471600 -0.254780 -0.254780
v -0.471600 -0.254780 -0.339707
v -0.471600 -0.169854 0.339707
v -0.471600 -0.169854 0.254780
v -0.471600 -0.169854 0.169854
v -0.471600 -0.169854 0.084927
v -0.471600 -0.169854 -0.000000
v -0.471600 -0.169854 -0.084927
v -0.471600 -0.169854 -0.169854
v -0.471600 -0.169854 -0.254780
v -0.471600 -0.169854 -0.339707
v -0.471600 -0.084927 0.339707
v -0.471600 -0.084927 0.254780
v -0.471600 -0.084927 0.169854
v -0.471600 -0.084927 0.084927
v -0.471600 -0.084927 -0.000000
v -0.471600 -0.084927 -0.084927
v -0.471600 -0.084927 -0.169854
v -0.471600 -0.084927 -0.254780
v -0.471600 -0.084927 -0.339707
v -0.471600 0.000000 0.339707
v -0.471600 0.000000 0.254780
v -0.471600 0.000000 0.169854
v -0.471600 0.000000 0.084927
v -0.471600 0.000000 -0.000000
v -0.471600 -0.000000 -0.084927
v -0.471600 -0.000000 -0.169854
v -0.471600 -0.000000 -0.254780
v -0.471600 -0.000000 -0.339707
v -0.471600 0.084927 0.339707
v -0.471600 0.084927 0.254780
v -0.471600 0.084927 0.169854
v -0.471600 0.084927 0.084927
v -0.471600 0.084927 -0.000000
v -0.471600 0.084927 -0.084927
v -0.471600 0.084927 -0.169854
v -0.471600 0.084927 -0.254780
v -0.471600 0.084927 -0.339707
v -0.471600 0.169854 0.339707
v -0.471600 0.169854 0.254780
v -0.471600 0.169854 0.169854
v -0.471600 0.169854 0.084927
v -0.471600 0.169854 -0.000000
v -0.471600 0.169854 -0.084927
v -0.471600 0.169854 -0.169854
v -0.471600 0.169854 -0.254780
v -0.471600 0.169854 -0.339707
v -0.471600 0.254780 0.339707
v -0.471600 0.254780 0.254780
v -0.471600 0.254780 0.169854
v -0.471600 0.254780 0.084927
v -0.471600 0.254780 -0.000000
v -0.471600 0.254780 -0.084927
v -0.471600 0.254780 -0.169854
v -0.471600 0.254780 -0.254780
v -0.471600 0.254780 -0.339707
v -0.471600 0.339707 0.339707
v -0.471600 0.339707 0.254780
v -0.471600 0.339707 0.169854
v -0.471600 0.339707 0.084927
v -0.471600 0.339707 -0.000000
v -0.471600 0.339707 -0.084927
v -0.471600 0.339707 -0.169854
v -0.471600 0.339707 -0.254780
v -0.471600 0.339707 -0.339707
v 0.480989 -0.254780 -0.339707
v 0.480989 -0.254780 -0.254780
v 0.480989 -0.254780 -0.169854
v 0.480989 -0.254780 -0.084927
v 0.480989 -0.254780 0.000000
v 0.480989 -0.254780 0.084927
v 0.480989 -0.254780 0.169854
v 0.480989 -0.254780 0.254780
v 0.480989 -0.254780 0.339707
v 0.480989 -0.169854 -0.339707
v 0.480989 -0.169854 -0.254780
v 0.480989 -0.169854 -0.169854
v 0.480989 -0.169854 -0.084927
v 0.480989 -0.169854 0.000000
v 0.480989 -0.169854 0.084927
v 0.480989 -0.169854 0.169854
v 0.480989 -0.169854 0.254780
v 0.480989 -0.169854 0.339707
v 0.480989 -0.000000 -0.339707
v 0.480989 -0.000000 -0.254780
v 0.480989 -0.000000 -0.169854
v 0.480989 -0.000000 -0.084927
v 0.480989 -0.000000 0.000000
v 0.480989 -0.000000 0.084927
v 0.480989 -0.000000 0.169854
v 0.480989 -0.000000 0.254780
v 0.480989 -0.000000 0.339707
v 0.480989 0.084927 -0.339707
v 0.480989 0.084927 -0.254780
v 0.480989 0.084927 -0.169854
v 0.480989 0.084927 -0.084927
v 0.480989 0.084927 0.000000
v 0.480989 0.084927 0.084927
v 0.480989 0.084927 0.169854
v 0.480989 0.084927 0.254780
v 0.480989 0.084927 0.339707
v 0.480989 0.254780 -0.339707
v 0.480989 0.254780 -0.254780
v 0.480989 0.254780 -0.169854
v 0.480989 0.254780 -0.084927
v 0.480989 0.254780 0.000000
v 0.480989 0.254780 0.084927
v 0.480989 0.254780 0.169854
v 0.480989 0.254780 0.254780
v 0.480989 0.254780 0.339707
v 0.480989 0.339707 -0.339707
v 0.480989 0.339707 -0.254780
v 0.480989 0.339707 -0.169854
v 0.480989 0.339707 -0.084927
v 0.480989 0.339707 0.000000
v 0.480989 0.339707 0.084927
v 0.480989 0.339707 0.169854
v 0.480989 0.339707 0.254780
v 0.480989 0.339707 0.339707
v -0.480989 -0.254780 0.339707
v -0.480989 -0.254780 0.254780
v -0.480989 -0.254780 0.169854
v -0.480989 -0.254780 0.084927
v -0.480989 -0.254780 -0.000000
v -0.480989 -0.254780 -0.084927
v -0.480989 -0.254780 -0.169854
v -0.480989 -0.254780 -0.254780
v -0.480989 -0.254780 -0.339707
v -0.480989 -0.169854 0.339707
v -0.480989 -0.169854 0.254780
v -0.480989 -0.169854 0.169854
v -0.480989 -0.169854 0.084927
v -0.480989 -0.169854 -0.000000
v -0.480989 -0.169854 -0.084927
v -0.480989 -0.169854 -0.169854
v -0.480989 -0.169854 -0.254780
v -0.480989 -0.169854 -0.339707
v -0.480989 0.000000 0.339707
v -0.480989 0.000000 0.254780
v -0.480989 0.000000 0.169854
v -0.480989 0.000000 0.084927
v -0.480989 0.000000 -0.000000
v -0.480989 -0.000000 -0.084927
v -0.480989 -0.000000 -0.169854
v -0.480989 -0.000000 -0.254780
v -0.480989 -0.000000 -0.339707
v -0.480989 0.084927 0.339707
v -0.480989 0.084927 0.254780
v -0.480989 0.084927 0.169854
v -0.480989 0.084927 0.084927
v -0.480989 0.084927 -0.000000
v -0.480989 0.084927 -0.084927
v -0.480989 0.084927 -0.169854
v -0.480989 0.084927 -0.254780
v -0.480989 0.084927 -0.339707
v -0.480989 0.254780 0.339707
v -0.480989 0.254780 0.254780
v -0.480989 0.254780 0.169854
v -0.480989 0.254780 0.084927
v -0.480989 0.254780 -0.000000
v -0.480989 0.254780 -0.084927
v -0.480989 0.254780 -0.169854
v -0.480989 0.254780 -0.254780
v -0.480989 0.254780 -0.339707
v -0.480989 0.339707 0.339707
v -0.480989 0.339707 0.254780
v -0.480989 0.339707 0.169854
v -0.480989 0.339707 0.084927
v -0.480989 0.339707 -0.000000
v -0.480989 0.339707 -0.084927
v -0.480989 0.339707 -0.169854
v -0.480989 0.339707 -0.254780
v -0.480989 0.339707 -0.339707
v -0.424634 -0.483379 -0.254780
v -0.424634 -0.483379 -0.169854
v -0.424634 -0.483379 0.000000
v -0.424634 -0.483379 0.084927
v -0.424634 -0.483379 0.254780
v -0.424634 -0.483379 0.339707
v 0.424634 -0.483379 0.339707
v 0.424634 -0.483379 0.254780
v 0.424634 -0.483379 0.084927
v 0.424634 -0.483379 -0.000000
v 0.424634 -0.483379 -0.169854
v 0.424634 -0.483379 -0.254780
v 0.424634 0.483379 -0.339707
v 0.424634 0.483379 -0.254780
v 0.424634 0.483379 -0.084927
v 0.424634 0.483379 0.000000
v 0.424634 0.483379 0.169854
v 0.424634 0.483379 0.254780
v -0.424634 0.483379 0.254780
v -0.424634 0.483379 0.169854
v -0.424634 0.483379 -0.000000
v -0.424634 0.483379 -0.084927
v -0.424634 0.483379 -0.254780
v -0.424634 0.483379 -0.339707
vn -1.0000 -0.0000 -0.0000
vn -0.0000 1.0000 -0.0000
vn -0.0000 -0.0000 1.0000
vn 1.0000 -0.0000 -0.0000
vn -0.0000 -0.0000 -1.0000
vn -0.0000 -1.0000 -0.0000
vt 0.079366 0.164283
vt 0.079366 0.079723
vt 0.079366 0.164283
vt 0.079366 0.079723
vt 0.924959 0.079723
vt 0.163925 0.925316
vt 0.079366 0.925316
vt 0.924959 0.840757
vt 0.924959 0.925316
vt 0.924959 0.840757
vt 0.079366 0.164283
vt 0.079366 0.079723
vt 0.004326 0.104251
vt 0.004326 0.004683
vt 0.900432 0.004683
vt 0.999999 0.004683
vt 0.924959 0.079723
vt 0.840400 0.079723
vt 0.999999 0.900789
vt 0.999999 1.000356
vt 0.924959 0.925317
vt 0.924959 0.840757
vt 0.103894 1.000356
vt 0.004326 1.000356
vt 0.999999 0.900789
vt 0.999999 1.000356
vt 0.004326 1.000356
vt 0.079366 0.925317
vt 0.004326 0.104251
vt 0.079366 0.164283
vt 0.004326 0.104251
vt 0.004326 0.004684
vt 0.900432 0.004683
vt 0.924959 0.079723
vt 0.840400 0.079723
vt 0.999999 0.900789
vt 0.999999 1.000356
vt 0.924960 0.925317
vt 0.924960 0.840757
vt 0.103894 1.000356
vt 0.004326 1.000356
vt 0.079366 0.925317
vt 0.163926 0.925317
vt 0.999999 0.900789
vt 0.924959 0.840757
vt 0.999999 1.000356
vt 0.004327 1.000356
vt 0.079366 0.925317
vt 0.924960 0.925316
vt 0.004326 0.104251
vt 0.004326 0.004683
vt 0.079366 0.079723
vt 0.079366 0.164283
vt 0.999999 0.004683
vt 0.924959 0.079723
vt 0.999999 0.900789
vt 0.924960 0.840757
vt 0.924959 0.079723
vt 0.079366 0.079723
vt 0.999999 0.900789
vt 0.999999 1.000356
vt 0.924959 0.925316
vt 0.924959 0.840757
vt 0.004326 1.000356
vt 0.079366 0.925317
vt 0.004326 0.104251
vt 0.079366 0.164283
vt 0.840400 0.164283
vt 0.840400 0.079723
vt 0.924959 0.164283
vt 0.079366 0.840757
vt 0.840400 0.164283
vt 0.840400 0.079723
vt 0.924959 0.164283
vt 0.924959 0.164282
vt 0.079366 0.164283
vt 0.079366 0.840757
vt 0.924959 0.840757
vt 0.163926 0.925317
vt 0.924959 0.840757
vt 0.924959 0.840757
vt 0.079366 0.164283
vt 0.924960 0.840757
vt 0.924959 0.164283
vt 0.924959 0.248842
vt 0.924959 0.248842
vt 0.924959 0.333401
vt 0.924959 0.333401
vt 0.924959 0.417961
vt 0.924959 0.502520
vt 0.924959 0.502520
vt 0.924959 0.587079
vt 0.924959 0.671639
vt 0.924959 0.671638
vt 0.924959 0.756198
vt 0.924959 0.248842
vt 0.924959 0.333401
vt 0.924959 0.333401
vt 0.924960 0.417961
vt 0.924960 0.502520
vt 0.924960 0.502520
vt 0.924960 0.587079
vt 0.924960 0.587079
vt 0.924959 0.671639
vt 0.924960 0.671639
vt 0.924960 0.756198
vt 0.924960 0.756198
vt 0.079366 0.840757
vt 0.079366 0.756198
vt 0.079366 0.756198
vt 0.079366 0.671638
vt 0.079366 0.671639
vt 0.079366 0.587079
vt 0.079366 0.502520
vt 0.079366 0.502520
vt 0.079366 0.417961
vt 0.079366 0.417961
vt 0.079366 0.333401
vt 0.079366 0.333401
vt 0.079366 0.248842
vt 0.924959 0.164283
vt 0.924959 0.248842
vt 0.924959 0.333401
vt 0.924959 0.333401
vt 0.924959 0.417961
vt 0.924959 0.417961
vt 0.924959 0.502520
vt 0.924959 0.502520
vt 0.924959 0.587079
vt 0.924959 0.587079
vt 0.924959 0.671638
vt 0.924959 0.756198
vt 0.924959 0.756198
vt 0.079366 0.840757
vt 0.079366 0.756198
vt 0.924959 0.502520
vt 0.079366 0.671639
vt 0.079366 0.587079
vt 0.079366 0.502520
vt 0.079366 0.417961
vt 0.079366 0.333401
vt 0.079366 0.248842
vt 0.840400 0.925317
vt 0.840400 0.840757
vt 0.840400 0.756198
vt 0.840400 0.671639
vt 0.840400 0.587079
vt 0.840400 0.502520
vt 0.924959 0.417960
vt 0.840400 0.417961
vt 0.840400 0.333401
vt 0.840400 0.248842
vt 0.924959 0.164283
vt 0.079366 0.248842
vt 0.924959 0.248842
vt 0.924959 0.333401
vt 0.163925 0.248842
vt 0.924959 0.587079
vt 0.924959 0.671638
vt 0.924959 0.756198
vt 0.840400 0.925316
vt 0.840400 0.840757
vt 0.840400 0.756198
vt 0.840400 0.671638
vt 0.840400 0.587079
vt 0.840400 0.502520
vt 0.840400 0.417961
vt 0.840400 0.333401
vt 0.840400 0.248842
vt 0.999999 0.104251
vt 0.999999 0.203818
vt 0.999999 0.303385
vt 0.999999 0.402953
vt 0.999999 0.502520
vt 0.999999 0.602087
vt 0.999999 0.701654
vt 0.999999 0.801222
vt 0.004326 0.900789
vt 0.079366 0.840757
vt 0.004326 0.801222
vt 0.004326 0.701655
vt 0.079366 0.671639
vt 0.004326 0.602087
vt 0.079366 0.587079
vt 0.004326 0.502520
vt 0.079366 0.502520
vt 0.004326 0.402953
vt 0.079366 0.417961
vt 0.004326 0.303385
vt 0.004326 0.203818
vt 0.079366 0.248842
vt 0.999999 0.104251
vt 0.999999 0.203818
vt 0.999999 0.303385
vt 0.999999 0.402953
vt 0.999999 0.502520
vt 0.999999 0.602087
vt 0.999999 0.701654
vt 0.999999 0.801222
vt 0.004326 0.502520
vt 0.004326 0.900789
vt 0.004326 0.801222
vt 0.004326 0.701654
vt 0.004326 0.602087
vt 0.004326 0.402953
vt 0.004326 0.303385
vt 0.004326 0.203818
vt 0.999999 0.104251
vt 0.924959 0.164283
vt 0.999999 0.203818
vt 0.999999 0.303385
vt 0.999999 0.402952
vt 0.999999 0.502520
vt 0.999999 0.602087
vt 0.999999 0.701654
vt 0.999999 0.801221
vt 0.999999 0.104251
vt 0.999999 0.303385
vt 0.999999 0.402953
vt 0.999999 0.602087
vt 0.999999 0.701654
vt 0.999999 0.801222
vt 0.004326 0.900789
vt 0.079366 0.840757
vt 0.004326 0.801222
vt 0.079366 0.756198
vt 0.004326 0.701654
vt 0.079366 0.671638
vt 0.004326 0.602087
vt 0.079366 0.587079
vt 0.004326 0.502520
vt 0.079366 0.502520
vt 0.004326 0.402952
vt 0.079366 0.417960
vt 0.004326 0.303385
vt 0.079366 0.333401
vt 0.004326 0.203818
vt 0.079366 0.248842
vt 0.079366 0.840757
vt 0.079366 0.756198
vt 0.079366 0.502520
vt 0.079366 0.417960
vt 0.079366 0.417961
vt 0.840400 0.756198
vt 0.840400 0.671638
vt 0.840400 0.502520
vt 0.840400 0.417961
vt 0.840400 0.248842
vt 0.163925 0.756198
vt 0.163925 0.502520
vt 0.163925 0.756198
vt 0.163925 0.248842
vt 0.163925 0.502520
vt 0.163925 0.502520
vt 0.163925 0.417960
vt 0.248485 0.417961
vt 0.333044 0.417961
vt 0.333044 0.417961
vt 0.417603 0.417961
vt 0.502163 0.417961
vt 0.502163 0.417961
vt 0.586722 0.417961
vt 0.586722 0.417961
vt 0.671281 0.417961
vt 0.755841 0.417961
vt 0.755841 0.502520
vt 0.755841 0.502520
vt 0.671281 0.502520
vt 0.671281 0.502520
vt 0.586722 0.502520
vt 0.586722 0.502520
vt 0.502163 0.502520
vt 0.502163 0.502520
vt 0.417603 0.502520
vt 0.417603 0.502520
vt 0.333044 0.502520
vt 0.333044 0.502520
vt 0.248485 0.502520
vt 0.248485 0.502520
vt 0.163925 0.164283
vt 0.248485 0.164283
vt 0.333044 0.164283
vt 0.417603 0.164283
vt 0.502163 0.164283
vt 0.586722 0.164283
vt 0.671281 0.164283
vt 0.755841 0.164283
vt 0.755841 0.248842
vt 0.671281 0.248842
vt 0.586722 0.248842
vt 0.502163 0.248842
vt 0.417603 0.248842
vt 0.333044 0.248842
vt 0.248485 0.248842
vt 0.163925 0.671638
vt 0.248485 0.671638
vt 0.333044 0.671638
vt 0.417603 0.671638
vt 0.417603 0.671638
vt 0.502163 0.671638
vt 0.502163 0.671638
vt 0.586722 0.671638
vt 0.671281 0.671638
vt 0.671281 0.671638
vt 0.755841 0.671639
vt 0.755841 0.756198
vt 0.755841 0.756198
vt 0.671281 0.756198
vt 0.586722 0.756198
vt 0.502163 0.756198
vt 0.417603 0.756198
vt 0.333044 0.756198
vt 0.248485 0.756198
vt 0.163925 0.417961
vt 0.248485 0.417961
vt 0.333044 0.417961
vt 0.417603 0.417961
vt 0.502163 0.417961
vt 0.586722 0.417961
vt 0.671282 0.417961
vt 0.755841 0.417961
vt 0.755841 0.502520
vt 0.671282 0.502520
vt 0.586722 0.502520
vt 0.502163 0.502520
vt 0.417603 0.502520
vt 0.333044 0.502520
vt 0.248485 0.502520
vt 0.163925 0.671639
vt 0.248485 0.671639
vt 0.333044 0.671639
vt 0.417604 0.671639
vt 0.502163 0.671639
vt 0.586722 0.671639
vt 0.671282 0.671639
vt 0.755841 0.671639
vt 0.755841 0.756198
vt 0.671282 0.756198
vt 0.586722 0.756198
vt 0.502163 0.756198
vt 0.417604 0.756198
vt 0.333044 0.756198
vt 0.248485 0.756198
vt 0.163925 0.164283
vt 0.248485 0.164283
vt 0.248485 0.248842
vt 0.333044 0.164283
vt 0.333044 0.248842
vt 0.417603 0.164283
vt 0.417603 0.248842
vt 0.502163 0.164283
vt 0.502163 0.248842
vt 0.586722 0.164283
vt 0.586722 0.248842
vt 0.671281 0.164283
vt 0.671281 0.248842
vt 0.755841 0.164283
vt 0.755841 0.248842
vt 0.163925 0.333401
vt 0.248485 0.333401
vt 0.333044 0.333401
vt 0.417603 0.333401
vt 0.502163 0.333401
vt 0.586722 0.333401
vt 0.671281 0.333401
vt 0.755841 0.333401
vt 0.163925 0.587079
vt 0.248485 0.587079
vt 0.333044 0.587079
vt 0.417603 0.587079
vt 0.502163 0.587079
vt 0.586722 0.587079
vt 0.671281 0.587079
vt 0.755841 0.587079
vt 0.163925 0.840757
vt 0.248485 0.840757
vt 0.333044 0.840757
vt 0.417603 0.840757
vt 0.502163 0.840757
vt 0.586722 0.840757
vt 0.671281 0.840757
vt 0.755841 0.840757
vt 0.248485 0.925316
vt 0.333044 0.925316
vt 0.417603 0.925316
vt 0.502163 0.925316
vt 0.586722 0.925316
vt 0.671281 0.925316
vt 0.755841 0.925316
vt 0.163925 0.333401
vt 0.248485 0.333401
vt 0.333044 0.333401
vt 0.417603 0.333401
vt 0.502163 0.333401
vt 0.586722 0.333401
vt 0.671281 0.333401
vt 0.755841 0.333401
vt 0.163925 0.587079
vt 0.248485 0.587079
vt 0.333044 0.587079
vt 0.417604 0.587079
vt 0.502163 0.587079
vt 0.586722 0.587079
vt 0.671282 0.587079
vt 0.755841 0.587079
vt 0.163926 0.840757
vt 0.248485 0.840757
vt 0.333044 0.840757
vt 0.417604 0.840757
vt 0.502163 0.840757
vt 0.586722 0.840757
vt 0.671282 0.840757
vt 0.755841 0.840757
vt 0.248485 0.925317
vt 0.333044 0.925317
vt 0.417604 0.925317
vt 0.502163 0.925317
vt 0.586722 0.925317
vt 0.671282 0.925317
vt 0.755841 0.925317
vt 0.924959 0.164283
vt 0.924959 0.248842
vt 0.924959 0.333401
vt 0.924959 0.333401
vt 0.924959 0.417960
vt 0.924959 0.502520
vt 0.924959 0.502520
vt 0.924959 0.587079
vt 0.924959 0.671638
vt 0.924959 0.756198
vt 0.924959 0.756198
vt 0.079366 0.840757
vt 0.079366 0.756198
vt 0.079366 0.671639
vt 0.079366 0.587079
vt 0.079366 0.502520
vt 0.079366 0.502520
vt 0.079366 0.417961
vt 0.079366 0.333401
vt 0.079366 0.333401
vt 0.079366 0.248842
vt 0.079366 0.840757
vt 0.079366 0.756198
vt 0.079366 0.756198
vt 0.079366 0.671638
vt 0.079366 0.671638
vt 0.079366 0.587079
vt 0.079366 0.502520
vt 0.079366 0.502520
vt 0.079366 0.417961
vt 0.079366 0.333401
vt 0.079366 0.333401
vt 0.079366 0.248842
vt 0.924959 0.164282
vt 0.924959 0.248842
vt 0.924959 0.333401
vt 0.924959 0.333401
vt 0.924959 0.417960
vt 0.924959 0.502520
vt 0.924959 0.587079
vt 0.924960 0.671638
vt 0.924959 0.671638
vt 0.163925 0.079723
vt 0.163925 0.079723
vt 0.248485 0.079723
vt 0.248485 0.079723
vt 0.333044 0.079723
vt 0.333044 0.079723
vt 0.417603 0.079723
vt 0.502163 0.079723
vt 0.502163 0.079723
vt 0.586722 0.079723
vt 0.586722 0.079723
vt 0.671281 0.079723
vt 0.755841 0.079723
vt 0.840400 0.925317
vt 0.755841 0.925317
vt 0.671282 0.925317
vt 0.586722 0.925317
vt 0.502163 0.925317
vt 0.417603 0.925317
vt 0.333044 0.925317
vt 0.248485 0.925317
vt 0.163925 0.079723
vt 0.163925 0.079723
vt 0.248485 0.079723
vt 0.333044 0.079723
vt 0.333044 0.079723
vt 0.417603 0.079723
vt 0.417603 0.079723
vt 0.502163 0.079723
vt 0.502163 0.079723
vt 0.586722 0.079723
vt 0.586722 0.079723
vt 0.671281 0.079723
vt 0.755841 0.079723
vt 0.004326 0.900789
vt 0.004326 0.801222
vt 0.004326 0.701654
vt 0.004326 0.602087
vt 0.004326 0.502520
vt 0.004326 0.402953
vt 0.004326 0.303385
vt 0.004326 0.203818
vt 0.999999 0.203818
vt 0.999999 0.303385
vt 0.999999 0.402952
vt 0.999999 0.502520
vt 0.999999 0.602087
vt 0.999999 0.701654
vt 0.999999 0.801221
vt 0.999999 0.104251
vt 0.999999 0.502520
vt 0.999999 0.701654
vt 0.999999 0.801222
vt 0.004326 0.900789
vt 0.004326 0.801222
vt 0.004326 0.701655
vt 0.004326 0.602087
vt 0.004326 0.502520
vt 0.004326 0.402953
vt 0.004326 0.303385
vt 0.004326 0.203818
vt 0.900432 1.000356
vt 0.800865 1.000356
vt 0.701298 1.000356
vt 0.601730 1.000356
vt 0.502163 1.000356
vt 0.402596 1.000356
vt 0.303028 1.000356
vt 0.203461 1.000356
vt 0.103893 0.004684
vt 0.203461 0.004684
vt 0.303028 0.004683
vt 0.402595 0.004683
vt 0.502163 0.004683
vt 0.601730 0.004683
vt 0.701297 0.004683
vt 0.800865 0.004683
vt 0.900432 1.000356
vt 0.840400 0.925316
vt 0.800865 1.000356
vt 0.755841 0.925316
vt 0.701297 1.000356
vt 0.671281 0.925316
vt 0.601730 1.000356
vt 0.502163 1.000356
vt 0.502163 0.925317
vt 0.402595 1.000356
vt 0.417603 0.925316
vt 0.303028 1.000356
vt 0.333044 0.925317
vt 0.203461 1.000356
vt 0.248485 0.925316
vt 0.103894 0.004683
vt 0.203461 0.004683
vt 0.303028 0.004683
vt 0.402595 0.004683
vt 0.502163 0.004683
vt 0.601730 0.004683
vt 0.701297 0.004683
vt 0.800865 0.004683
s 0
usemtl container
f 147/1/1 22/2/1 45/2/1 219/3/1
f 16/4/2 13/5/2 38/5/2 39/4/2
f 129/1/3 18/2/3 41/2/3 201/3/3
f 329/6/2 9/7/2 33/7/2 401/6/2
f 111/8/4 14/9/4 37/9/4 183/10/4
f 101/11/5 10/12/5 34/12/5 173/11/5
f 65/13/1 2/14/1 10/12/1 101/11/1
f 302/15/1 4/16/1 11/17/1 338/18/1
f 74/19/1 3/20/1 12/21/1 110/22/1
f 293/23/1 1/24/1 9/7/1 329/6/1
f 66/25/5 4/26/5 14/9/5 111/8/5
f 4/26/5 8/27/5 15/28/5 14/9/5
f 83/29/5 7/14/5 16/4/5 128/30/5
f 7/14/5 3/16/5 13/5/5 16/4/5
f 75/31/4 8/32/4 18/2/4 129/1/4
f 320/33/4 6/16/4 19/34/4 356/35/4
f 92/36/4 5/37/4 20/38/4 146/39/4
f 311/40/4 7/41/4 17/42/4 347/43/4
f 84/31/3 6/32/3 22/2/3 147/1/3
f 6/32/3 2/16/3 23/34/3 22/2/3
f 57/44/3 1/37/3 24/38/3 156/45/3
f 1/37/3 5/41/3 21/42/3 24/38/3
f 3/46/6 7/47/6 26/48/6 25/49/6
f 303/50/6 5/51/6 27/52/6 366/53/6
f 5/51/6 1/54/6 28/55/6 27/52/6
f 285/56/6 3/46/6 25/49/6 357/57/6
f 8/14/2 4/16/2 30/58/2 29/59/2
f 294/60/2 2/61/2 31/62/2 384/63/2
f 2/61/2 6/64/2 32/65/2 31/62/2
f 312/66/2 8/14/2 29/59/2 375/67/2
f 626/68/1 410/69/1 36/17/1 174/70/1
f 183/10/5 37/9/5 40/28/5 192/71/5
f 545/72/4 428/73/4 44/34/4 210/74/4
f 219/3/3 45/2/3 48/34/3 236/74/3
f 437/75/6 438/76/6 52/52/6 51/55/6
f 455/77/2 456/78/2 56/62/2 55/65/2
f 338/18/6 11/17/6 36/17/6 410/69/6
f 347/43/2 17/42/2 42/42/2 419/79/2
f 25/49/3 26/48/3 49/48/3 50/49/3
f 14/9/6 15/28/6 40/28/6 37/9/6
f 24/38/2 21/42/2 46/42/2 47/38/2
f 29/59/3 30/58/3 53/58/3 54/59/3
f 110/22/3 12/21/3 35/21/3 182/80/3
f 356/35/6 19/34/6 44/34/6 428/73/6
f 357/57/4 25/49/4 50/49/4 429/81/4
f 128/30/1 16/4/1 39/4/1 200/82/1
f 22/2/6 23/34/6 48/34/6 45/2/6
f 375/67/1 29/59/1 54/59/1 447/67/1
f 146/39/5 20/38/5 43/38/5 218/83/5
f 366/53/1 27/52/1 52/52/1 438/76/1
f 156/45/4 24/38/4 47/38/4 228/45/4
f 384/63/4 31/62/4 56/62/4 456/78/4
f 27/52/5 28/55/5 51/55/5 52/52/5
f 31/62/5 32/65/5 55/65/5 56/62/5
f 23/34/4 164/84/4 236/74/4 48/34/4
f 164/84/4 163/85/4 235/86/4 236/74/4
f 163/85/4 162/87/4 234/88/4 235/86/4
f 162/87/4 161/89/4 233/89/4 234/88/4
f 161/89/4 160/90/4 232/91/4 233/89/4
f 160/90/4 159/92/4 231/92/4 232/91/4
f 159/92/4 158/93/4 230/94/4 231/92/4
f 158/93/4 157/95/4 229/95/4 230/94/4
f 157/95/4 156/45/4 228/45/4 229/95/4
f 19/34/5 138/84/5 210/74/5 44/34/5
f 138/84/5 139/96/5 211/96/5 210/74/5
f 139/96/5 140/97/5 212/98/5 211/96/5
f 140/97/5 141/99/5 213/99/5 212/98/5
f 141/99/5 142/100/5 214/101/5 213/99/5
f 142/100/5 143/102/5 215/103/5 214/101/5
f 143/102/5 144/104/5 216/105/5 215/103/5
f 144/104/5 145/106/5 217/107/5 216/105/5
f 145/106/5 146/39/5 218/83/5 217/107/5
f 15/28/1 120/108/1 192/71/1 40/28/1
f 120/108/1 121/109/1 193/110/1 192/71/1
f 121/109/1 122/111/1 194/112/1 193/110/1
f 122/111/1 123/113/1 195/113/1 194/112/1
f 123/113/1 124/114/1 196/115/1 195/113/1
f 124/114/1 125/116/1 197/117/1 196/115/1
f 125/116/1 126/118/1 198/119/1 197/117/1
f 126/118/1 127/120/1 199/120/1 198/119/1
f 127/120/1 128/30/1 200/82/1 199/120/1
f 11/17/3 102/121/3 174/70/3 36/17/3
f 102/121/3 103/122/3 175/122/3 174/70/3
f 103/122/3 104/123/3 176/124/3 175/122/3
f 104/123/3 105/125/3 177/126/3 176/124/3
f 105/125/3 106/127/3 178/128/3 177/126/3
f 106/127/3 107/129/3 179/130/3 178/128/3
f 107/129/3 108/131/3 180/94/3 179/130/3
f 108/131/3 109/132/3 181/133/3 180/94/3
f 109/132/3 110/22/3 182/80/3 181/133/3
f 46/42/3 227/134/3 228/45/3 47/38/3
f 227/134/3 226/135/3 229/95/3 228/45/3
f 187/136/2 196/115/2 257/115/2 251/136/2
f 225/137/3 224/138/3 231/92/3 230/94/3
f 224/138/3 223/139/3 232/91/3 231/92/3
f 626/68/2 174/70/2 243/70/2 734/68/2
f 222/140/3 221/141/3 234/88/3 233/89/3
f 221/141/3 220/142/3 235/86/3 234/88/3
f 213/99/3 214/101/3 270/101/3 269/99/3
f 411/143/4 473/144/4 218/83/4 43/38/4
f 473/144/4 482/145/4 217/107/4 218/83/4
f 219/3/2 236/74/2 284/74/2 273/3/2
f 491/146/4 500/147/4 215/103/4 216/105/4
f 500/147/4 509/148/4 214/101/4 215/103/4
f 197/117/6 188/149/6 252/149/6 258/117/6
f 518/150/4 527/151/4 212/98/4 213/99/4
f 527/151/4 536/152/4 211/96/4 212/98/4
f 199/120/4 200/82/4 260/82/4 259/120/4
f 38/5/5 191/153/5 200/82/5 39/4/5
f 172/154/3 173/11/3 242/11/3 241/154/3
f 190/155/5 189/156/5 198/119/5 199/120/5
f 189/156/5 188/149/5 197/117/5 198/119/5
f 609/157/6 172/154/6 241/154/6 717/157/6
f 187/136/5 186/158/5 195/113/5 196/115/5
f 186/158/5 185/159/5 194/112/5 195/113/5
f 235/86/6 220/142/6 274/142/6 283/86/6
f 184/160/5 183/10/5 192/71/5 193/110/5
f 393/161/1 554/162/1 182/80/1 35/21/1
f 554/162/1 563/163/1 181/133/1 182/80/1
f 226/135/4 225/137/4 277/137/4 278/135/4
f 572/164/1 581/165/1 179/130/1 180/94/1
f 581/165/1 590/166/1 178/128/1 179/130/1
f 185/159/1 184/160/1 249/160/1 250/159/1
f 599/167/1 608/168/1 176/124/1 177/126/1
f 608/168/1 617/169/1 175/122/1 176/124/1
f 190/155/2 199/120/2 259/120/2 253/155/2
f 2/16/3 65/170/3 164/84/3 23/34/3
f 65/170/3 64/171/3 163/85/3 164/84/3
f 64/171/3 63/172/3 162/87/3 163/85/3
f 63/172/3 62/173/3 161/89/3 162/87/3
f 62/173/3 61/174/3 160/90/3 161/89/3
f 61/174/3 60/175/3 159/92/3 160/90/3
f 60/175/3 59/176/3 158/93/3 159/92/3
f 59/176/3 58/177/3 157/95/3 158/93/3
f 58/177/3 57/44/3 156/45/3 157/95/3
f 5/41/3 92/178/3 155/179/3 21/42/3
f 92/178/3 91/180/3 154/135/3 155/179/3
f 91/180/3 90/181/3 153/182/3 154/135/3
f 90/181/3 89/183/3 152/184/3 153/182/3
f 89/183/3 88/185/3 151/186/3 152/184/3
f 88/185/3 87/187/3 150/188/3 151/186/3
f 87/187/3 86/189/3 149/141/3 150/188/3
f 86/189/3 85/190/3 148/191/3 149/141/3
f 85/190/3 84/31/3 147/1/3 148/191/3
f 6/16/4 84/192/4 138/84/4 19/34/4
f 84/192/4 85/193/4 139/96/4 138/84/4
f 85/193/4 86/194/4 140/97/4 139/96/4
f 86/194/4 87/195/4 141/99/4 140/97/4
f 87/195/4 88/196/4 142/100/4 141/99/4
f 88/196/4 89/197/4 143/102/4 142/100/4
f 89/197/4 90/198/4 144/104/4 143/102/4
f 90/198/4 91/199/4 145/106/4 144/104/4
f 91/199/4 92/36/4 146/39/4 145/106/4
f 7/41/4 83/178/4 137/179/4 17/42/4
f 83/178/4 82/180/4 136/135/4 137/179/4
f 82/180/4 81/181/4 135/182/4 136/135/4
f 81/181/4 80/183/4 134/184/4 135/182/4
f 80/183/4 79/200/4 133/186/4 134/184/4
f 79/200/4 78/187/4 132/188/4 133/186/4
f 78/187/4 77/189/4 131/141/4 132/188/4
f 77/189/4 76/190/4 130/191/4 131/141/4
f 76/190/4 75/31/4 129/1/4 130/191/4
f 8/27/5 75/201/5 120/108/5 15/28/5
f 75/201/5 76/202/5 121/109/5 120/108/5
f 76/202/5 77/203/5 122/111/5 121/109/5
f 77/203/5 78/204/5 123/113/5 122/111/5
f 78/204/5 79/200/5 124/114/5 123/113/5
f 79/200/5 80/205/5 125/116/5 124/114/5
f 80/205/5 81/206/5 126/118/5 125/116/5
f 81/206/5 82/207/5 127/120/5 126/118/5
f 82/207/5 83/29/5 128/30/5 127/120/5
f 3/16/5 74/208/5 119/209/5 13/5/5
f 74/208/5 73/210/5 118/155/5 119/209/5
f 73/210/5 72/211/5 117/156/5 118/155/5
f 72/211/5 71/212/5 116/149/5 117/156/5
f 71/212/5 70/213/5 115/136/5 116/149/5
f 70/213/5 69/214/5 114/158/5 115/136/5
f 69/214/5 68/215/5 113/159/5 114/158/5
f 68/215/5 67/216/5 112/160/5 113/159/5
f 67/216/5 66/25/5 111/8/5 112/160/5
f 4/16/1 66/217/1 102/121/1 11/17/1
f 66/217/1 67/193/1 103/122/1 102/121/1
f 67/193/1 68/218/1 104/123/1 103/122/1
f 68/218/1 69/219/1 105/125/1 104/123/1
f 69/219/1 70/213/1 106/127/1 105/125/1
f 70/213/1 71/220/1 107/129/1 106/127/1
f 71/220/1 72/221/1 108/131/1 107/129/1
f 72/221/1 73/222/1 109/132/1 108/131/1
f 73/222/1 74/19/1 110/22/1 109/132/1
f 1/24/1 57/223/1 93/224/1 9/7/1
f 57/223/1 58/225/1 94/226/1 93/224/1
f 58/225/1 59/227/1 95/228/1 94/226/1
f 59/227/1 60/229/1 96/230/1 95/228/1
f 60/229/1 61/231/1 97/232/1 96/230/1
f 61/231/1 62/233/1 98/234/1 97/232/1
f 62/233/1 63/235/1 99/236/1 98/234/1
f 63/235/1 64/237/1 100/238/1 99/236/1
f 64/237/1 65/13/1 101/11/1 100/238/1
f 9/7/5 93/224/5 165/239/5 33/7/5
f 93/224/5 94/226/5 166/240/5 165/239/5
f 94/226/5 95/228/5 167/228/5 166/240/5
f 95/228/5 96/230/5 168/230/5 167/228/5
f 96/230/5 97/232/5 169/241/5 168/230/5
f 97/232/5 98/234/5 170/242/5 169/241/5
f 98/234/5 99/236/5 171/236/5 170/242/5
f 99/236/5 100/238/5 172/154/5 171/236/5
f 100/238/5 101/11/5 173/11/5 172/154/5
f 13/5/4 119/209/4 191/153/4 38/5/4
f 119/209/4 118/155/4 190/155/4 191/153/4
f 118/155/4 117/156/4 189/156/4 190/155/4
f 117/156/4 116/149/4 188/149/4 189/156/4
f 116/149/4 115/136/4 187/136/4 188/149/4
f 115/136/4 114/158/4 186/158/4 187/136/4
f 114/158/4 113/159/4 185/159/4 186/158/4
f 113/159/4 112/160/4 184/160/4 185/159/4
f 112/160/4 111/8/4 183/10/4 184/160/4
f 17/42/3 137/179/3 209/134/3 42/42/3
f 137/179/3 136/135/3 208/135/3 209/134/3
f 136/135/3 135/182/3 207/137/3 208/135/3
f 135/182/3 134/184/3 206/184/3 207/137/3
f 134/184/3 133/186/3 205/139/3 206/184/3
f 133/186/3 132/188/3 204/243/3 205/139/3
f 132/188/3 131/141/3 203/141/3 204/243/3
f 131/141/3 130/191/3 202/142/3 203/141/3
f 130/191/3 129/1/3 201/3/3 202/142/3
f 21/42/1 155/179/1 227/134/1 46/42/1
f 155/179/1 154/135/1 226/135/1 227/134/1
f 154/135/1 153/182/1 225/137/1 226/135/1
f 153/182/1 152/184/1 224/138/1 225/137/1
f 152/184/1 151/186/1 223/139/1 224/138/1
f 151/186/1 150/188/1 222/140/1 223/139/1
f 150/188/1 149/141/1 221/141/1 222/140/1
f 149/141/1 148/191/1 220/142/1 221/141/1
f 148/191/1 147/1/1 219/3/1 220/142/1
f 278/135/3 277/137/3 280/94/3 279/95/3
f 276/139/3 275/140/3 282/89/3 281/91/3
f 274/142/3 273/3/3 284/74/3 283/86/3
f 635/145/4 644/146/4 271/105/4 272/107/4
f 653/148/4 662/150/4 269/99/4 270/101/4
f 671/152/4 680/72/4 267/74/4 268/96/4
f 254/153/5 253/155/5 259/120/5 260/82/5
f 252/149/5 251/136/5 257/115/5 258/117/5
f 250/159/5 249/160/5 255/110/5 256/112/5
f 689/244/1 698/245/1 247/94/1 248/133/1
f 707/246/1 716/247/1 245/126/1 246/128/1
f 725/248/1 734/68/1 243/70/1 244/122/1
f 188/149/1 187/136/1 251/136/1 252/149/1
f 174/70/5 175/122/5 244/122/5 243/70/5
f 202/142/5 201/3/5 261/3/5 262/142/5
f 474/249/6 208/135/6 266/135/6 627/249/6
f 194/112/6 185/159/6 250/159/6 256/112/6
f 230/94/1 229/95/1 279/95/1 280/94/1
f 491/146/2 216/105/2 271/105/2 644/146/2
f 216/105/3 217/107/3 272/107/3 271/105/3
f 184/160/2 193/110/2 255/110/2 249/160/2
f 191/153/1 190/155/1 253/155/1 254/153/1
f 177/126/5 178/128/5 246/128/5 245/126/5
f 205/139/5 204/243/5 263/243/5 264/139/5
f 501/250/6 205/139/6 264/139/6 645/250/6
f 233/89/1 232/91/1 281/91/1 282/89/1
f 518/150/2 213/99/2 269/99/2 662/150/2
f 220/142/4 219/3/4 273/3/4 274/142/4
f 229/95/6 226/135/6 278/135/6 279/95/6
f 555/251/6 166/240/6 237/240/6 681/251/6
f 166/240/3 167/228/3 238/228/3 237/240/3
f 193/110/4 194/112/4 256/112/4 255/110/4
f 180/94/5 181/133/5 248/133/5 247/94/5
f 225/137/2 230/94/2 280/94/2 277/137/2
f 208/135/5 207/137/5 265/137/5 266/135/5
f 572/164/2 180/94/2 247/94/2 698/245/2
f 528/252/6 202/142/6 262/142/6 663/252/6
f 236/74/1 235/86/1 283/86/1 284/74/1
f 545/72/2 210/74/2 267/74/2 680/72/2
f 223/139/4 222/140/4 275/140/4 276/139/4
f 232/91/6 223/139/6 276/139/6 281/91/6
f 582/253/6 169/241/6 239/241/6 699/254/6
f 169/241/3 170/242/3 240/242/3 239/241/3
f 196/115/4 197/117/4 258/117/4 257/115/4
f 200/82/6 191/153/6 254/153/6 260/82/6
f 222/140/2 233/89/2 282/89/2 275/140/2
f 210/74/3 211/96/3 268/96/3 267/74/3
f 599/167/2 177/126/2 245/126/2 716/247/2
f 170/242/2 591/255/2 708/255/2 240/242/2
f 591/255/2 592/256/2 709/256/2 708/255/2
f 592/256/2 593/257/2 710/258/2 709/256/2
f 593/257/2 594/259/2 711/259/2 710/258/2
f 594/259/2 595/260/2 712/261/2 711/259/2
f 595/260/2 596/262/2 713/263/2 712/261/2
f 596/262/2 597/264/2 714/264/2 713/263/2
f 597/264/2 598/265/2 715/265/2 714/264/2
f 598/265/2 599/167/2 716/247/2 715/265/2
f 178/128/6 590/166/6 707/246/6 246/128/6
f 590/166/6 589/266/6 706/267/6 707/246/6
f 589/266/6 588/268/6 705/269/6 706/267/6
f 588/268/6 587/270/6 704/271/6 705/269/6
f 587/270/6 586/272/6 703/273/6 704/271/6
f 586/272/6 585/274/6 702/275/6 703/273/6
f 585/274/6 584/276/6 701/277/6 702/275/6
f 584/276/6 583/278/6 700/279/6 701/277/6
f 583/278/6 582/253/6 699/254/6 700/279/6
f 201/3/2 537/280/2 672/280/2 261/3/2
f 537/280/2 538/281/2 673/281/2 672/280/2
f 538/281/2 539/282/2 674/282/2 673/281/2
f 539/282/2 540/283/2 675/283/2 674/282/2
f 540/283/2 541/284/2 676/284/2 675/283/2
f 541/284/2 542/285/2 677/285/2 676/284/2
f 542/285/2 543/286/2 678/286/2 677/285/2
f 543/286/2 544/287/2 679/287/2 678/286/2
f 544/287/2 545/72/2 680/72/2 679/287/2
f 211/96/6 536/152/6 671/152/6 268/96/6
f 536/152/6 535/288/6 670/288/6 671/152/6
f 535/288/6 534/289/6 669/289/6 670/288/6
f 534/289/6 533/290/6 668/290/6 669/289/6
f 533/290/6 532/291/6 667/291/6 668/290/6
f 532/291/6 531/292/6 666/292/6 667/291/6
f 531/292/6 530/293/6 665/293/6 666/292/6
f 530/293/6 529/294/6 664/294/6 665/293/6
f 529/294/6 528/252/6 663/252/6 664/294/6
f 167/228/2 564/295/2 690/295/2 238/228/2
f 564/295/2 565/296/2 691/296/2 690/295/2
f 565/296/2 566/297/2 692/297/2 691/296/2
f 566/297/2 567/298/2 693/299/2 692/297/2
f 567/298/2 568/300/2 694/301/2 693/299/2
f 568/300/2 569/302/2 695/302/2 694/301/2
f 569/302/2 570/303/2 696/304/2 695/302/2
f 570/303/2 571/305/2 697/305/2 696/304/2
f 571/305/2 572/164/2 698/245/2 697/305/2
f 181/133/6 563/163/6 689/244/6 248/133/6
f 563/163/6 562/306/6 688/307/6 689/244/6
f 562/306/6 561/308/6 687/308/6 688/307/6
f 561/308/6 560/309/6 686/309/6 687/308/6
f 560/309/6 559/310/6 685/310/6 686/309/6
f 559/310/6 558/311/6 684/311/6 685/310/6
f 558/311/6 557/312/6 683/312/6 684/311/6
f 557/312/6 556/313/6 682/313/6 683/312/6
f 556/313/6 555/251/6 681/251/6 682/313/6
f 204/243/2 510/314/2 654/314/2 263/243/2
f 510/314/2 511/315/2 655/315/2 654/314/2
f 511/315/2 512/316/2 656/316/2 655/315/2
f 512/316/2 513/317/2 657/317/2 656/316/2
f 513/317/2 514/318/2 658/318/2 657/317/2
f 514/318/2 515/319/2 659/319/2 658/318/2
f 515/319/2 516/320/2 660/320/2 659/319/2
f 516/320/2 517/321/2 661/321/2 660/320/2
f 517/321/2 518/150/2 662/150/2 661/321/2
f 214/101/6 509/148/6 653/148/6 270/101/6
f 509/148/6 508/322/6 652/322/6 653/148/6
f 508/322/6 507/323/6 651/323/6 652/322/6
f 507/323/6 506/324/6 650/324/6 651/323/6
f 506/324/6 505/325/6 649/325/6 650/324/6
f 505/325/6 504/326/6 648/326/6 649/325/6
f 504/326/6 503/327/6 647/327/6 648/326/6
f 503/327/6 502/328/6 646/328/6 647/327/6
f 502/328/6 501/250/6 645/250/6 646/328/6
f 207/137/2 483/329/2 636/329/2 265/137/2
f 483/329/2 484/330/2 637/330/2 636/329/2
f 484/330/2 485/331/2 638/331/2 637/330/2
f 485/331/2 486/332/2 639/332/2 638/331/2
f 486/332/2 487/333/2 640/333/2 639/332/2
f 487/333/2 488/334/2 641/334/2 640/333/2
f 488/334/2 489/335/2 642/335/2 641/334/2
f 489/335/2 490/336/2 643/336/2 642/335/2
f 490/336/2 491/146/2 644/146/2 643/336/2
f 217/107/6 482/145/6 635/145/6 272/107/6
f 482/145/6 481/337/6 634/337/6 635/145/6
f 481/337/6 480/338/6 633/338/6 634/337/6
f 480/338/6 479/339/6 632/339/6 633/338/6
f 479/339/6 478/340/6 631/340/6 632/339/6
f 478/340/6 477/341/6 630/341/6 631/340/6
f 477/341/6 476/342/6 629/342/6 630/341/6
f 476/342/6 475/343/6 628/343/6 629/342/6
f 475/343/6 474/249/6 627/249/6 628/343/6
f 241/154/1 242/11/1 726/344/1 717/157/1
f 717/157/1 726/344/1 727/345/1 718/346/1
f 718/346/1 727/345/1 728/347/1 719/348/1
f 719/348/1 728/347/1 729/349/1 720/350/1
f 720/350/1 729/349/1 730/351/1 721/352/1
f 721/352/1 730/351/1 731/353/1 722/354/1
f 722/354/1 731/353/1 732/355/1 723/356/1
f 723/356/1 732/355/1 733/357/1 724/358/1
f 724/358/1 733/357/1 734/68/1 725/248/1
f 239/241/1 240/242/1 708/255/1 699/254/1
f 699/254/1 708/255/1 709/256/1 700/279/1
f 700/279/1 709/256/1 710/258/1 701/277/1
f 701/277/1 710/258/1 711/259/1 702/275/1
f 702/275/1 711/259/1 712/261/1 703/273/1
f 703/273/1 712/261/1 713/263/1 704/271/1
f 704/271/1 713/263/1 714/264/1 705/269/1
f 705/269/1 714/264/1 715/265/1 706/267/1
f 706/267/1 715/265/1 716/247/1 707/246/1
f 237/240/1 238/228/1 690/295/1 681/251/1
f 681/251/1 690/295/1 691/296/1 682/313/1
f 682/313/1 691/296/1 692/297/1 683/312/1
f 683/312/1 692/297/1 693/299/1 684/311/1
f 684/311/1 693/299/1 694/301/1 685/310/1
f 685/310/1 694/301/1 695/302/1 686/309/1
f 686/309/1 695/302/1 696/304/1 687/308/1
f 687/308/1 696/304/1 697/305/1 688/307/1
f 688/307/1 697/305/1 698/245/1 689/244/1
f 262/142/4 261/3/4 672/280/4 663/252/4
f 663/252/4 672/280/4 673/281/4 664/294/4
f 664/294/4 673/281/4 674/282/4 665/293/4
f 665/293/4 674/282/4 675/283/4 666/292/4
f 666/292/4 675/283/4 676/284/4 667/291/4
f 667/291/4 676/284/4 677/285/4 668/290/4
f 668/290/4 677/285/4 678/286/4 669/289/4
f 669/289/4 678/286/4 679/287/4 670/288/4
f 670/288/4 679/287/4 680/72/4 671/152/4
f 264/139/4 263/243/4 654/314/4 645/250/4
f 645/250/4 654/314/4 655/315/4 646/328/4
f 646/328/4 655/315/4 656/316/4 647/327/4
f 647/327/4 656/316/4 657/317/4 648/326/4
f 648/326/4 657/317/4 658/318/4 649/325/4
f 649/325/4 658/318/4 659/319/4 650/324/4
f 650/324/4 659/319/4 660/320/4 651/323/4
f 651/323/4 660/320/4 661/321/4 652/322/4
f 652/322/4 661/321/4 662/150/4 653/148/4
f 266/135/4 265/137/4 636/329/4 627/249/4
f 627/249/4 636/329/4 637/330/4 628/343/4
f 628/343/4 637/330/4 638/331/4 629/342/4
f 629/342/4 638/331/4 639/332/4 630/341/4
f 630/341/4 639/332/4 640/333/4 631/340/4
f 631/340/4 640/333/4 641/334/4 632/339/4
f 632/339/4 641/334/4 642/335/4 633/338/4
f 633/338/4 642/335/4 643/336/4 634/337/4
f 634/337/4 643/336/4 644/146/4 635/145/4
f 171/236/1 172/154/1 609/157/1 600/359/1
f 600/359/1 609/157/1 610/346/1 601/360/1
f 601/360/1 610/346/1 611/348/1 602/361/1
f 602/361/1 611/348/1 612/350/1 603/362/1
f 603/362/1 612/350/1 613/352/1 604/363/1
f 604/363/1 613/352/1 614/354/1 605/364/1
f 605/364/1 614/354/1 615/356/1 606/365/1
f 606/365/1 615/356/1 616/358/1 607/366/1
f 607/366/1 616/358/1 617/169/1 608/168/1
f 170/242/1 171/236/1 600/359/1 591/255/1
f 591/255/1 600/359/1 601/360/1 592/256/1
f 592/256/1 601/360/1 602/361/1 593/257/1
f 593/257/1 602/361/1 603/362/1 594/259/1
f 594/259/1 603/362/1 604/363/1 595/260/1
f 595/260/1 604/363/1 605/364/1 596/262/1
f 596/262/1 605/364/1 606/365/1 597/264/1
f 597/264/1 606/365/1 607/366/1 598/265/1
f 598/265/1 607/366/1 608/168/1 599/167/1
f 168/230/1 169/241/1 582/253/1 573/367/1
f 573/367/1 582/253/1 583/278/1 574/368/1
f 574/368/1 583/278/1 584/276/1 575/369/1
f 575/369/1 584/276/1 585/274/1 576/370/1
f 576/370/1 585/274/1 586/272/1 577/371/1
f 577/371/1 586/272/1 587/270/1 578/372/1
f 578/372/1 587/270/1 588/268/1 579/373/1
f 579/373/1 588/268/1 589/266/1 580/374/1
f 580/374/1 589/266/1 590/166/1 581/165/1
f 167/228/1 168/230/1 573/367/1 564/295/1
f 564/295/1 573/367/1 574/368/1 565/296/1
f 565/296/1 574/368/1 575/369/1 566/297/1
f 566/297/1 575/369/1 576/370/1 567/298/1
f 567/298/1 576/370/1 577/371/1 568/300/1
f 568/300/1 577/371/1 578/372/1 569/302/1
f 569/302/1 578/372/1 579/373/1 570/303/1
f 570/303/1 579/373/1 580/374/1 571/305/1
f 571/305/1 580/374/1 581/165/1 572/164/1
f 165/239/1 166/240/1 555/251/1 546/375/1
f 546/375/1 555/251/1 556/313/1 547/376/1
f 547/376/1 556/313/1 557/312/1 548/377/1
f 548/377/1 557/312/1 558/311/1 549/378/1
f 549/378/1 558/311/1 559/310/1 550/379/1
f 550/379/1 559/310/1 560/309/1 551/380/1
f 551/380/1 560/309/1 561/308/1 552/381/1
f 552/381/1 561/308/1 562/306/1 553/382/1
f 553/382/1 562/306/1 563/163/1 554/162/1
f 33/7/1 165/239/1 546/375/1 401/6/1
f 401/6/1 546/375/1 547/376/1 400/383/1
f 400/383/1 547/376/1 548/377/1 399/384/1
f 399/384/1 548/377/1 549/378/1 398/385/1
f 398/385/1 549/378/1 550/379/1 397/386/1
f 397/386/1 550/379/1 551/380/1 396/387/1
f 396/387/1 551/380/1 552/381/1 395/388/1
f 395/388/1 552/381/1 553/382/1 394/389/1
f 394/389/1 553/382/1 554/162/1 393/161/1
f 175/122/6 617/169/6 725/248/6 244/122/6
f 617/169/6 616/358/6 724/358/6 725/248/6
f 616/358/6 615/356/6 723/356/6 724/358/6
f 615/356/6 614/354/6 722/354/6 723/356/6
f 614/354/6 613/352/6 721/352/6 722/354/6
f 613/352/6 612/350/6 720/350/6 721/352/6
f 612/350/6 611/348/6 719/348/6 720/350/6
f 611/348/6 610/346/6 718/346/6 719/348/6
f 610/346/6 609/157/6 717/157/6 718/346/6
f 203/141/4 202/142/4 528/252/4 519/390/4
f 519/390/4 528/252/4 529/294/4 520/391/4
f 520/391/4 529/294/4 530/293/4 521/392/4
f 521/392/4 530/293/4 531/292/4 522/393/4
f 522/393/4 531/292/4 532/291/4 523/394/4
f 523/394/4 532/291/4 533/290/4 524/395/4
f 524/395/4 533/290/4 534/289/4 525/396/4
f 525/396/4 534/289/4 535/288/4 526/397/4
f 526/397/4 535/288/4 536/152/4 527/151/4
f 204/243/4 203/141/4 519/390/4 510/314/4
f 510/314/4 519/390/4 520/391/4 511/315/4
f 511/315/4 520/391/4 521/392/4 512/316/4
f 512/316/4 521/392/4 522/393/4 513/317/4
f 513/317/4 522/393/4 523/394/4 514/318/4
f 514/318/4 523/394/4 524/395/4 515/319/4
f 515/319/4 524/395/4 525/396/4 516/320/4
f 516/320/4 525/396/4 526/397/4 517/321/4
f 517/321/4 526/397/4 527/151/4 518/150/4
f 206/184/4 205/139/4 501/250/4 492/398/4
f 492/398/4 501/250/4 502/328/4 493/399/4
f 493/399/4 502/328/4 503/327/4 494/400/4
f 494/400/4 503/327/4 504/326/4 495/401/4
f 495/401/4 504/326/4 505/325/4 496/402/4
f 496/402/4 505/325/4 506/324/4 497/403/4
f 497/403/4 506/324/4 507/323/4 498/404/4
f 498/404/4 507/323/4 508/322/4 499/405/4
f 499/405/4 508/322/4 509/148/4 500/147/4
f 207/137/4 206/184/4 492/398/4 483/329/4
f 483/329/4 492/398/4 493/399/4 484/330/4
f 484/330/4 493/399/4 494/400/4 485/331/4
f 485/331/4 494/400/4 495/401/4 486/332/4
f 486/332/4 495/401/4 496/402/4 487/333/4
f 487/333/4 496/402/4 497/403/4 488/334/4
f 488/334/4 497/403/4 498/404/4 489/335/4
f 489/335/4 498/404/4 499/405/4 490/336/4
f 490/336/4 499/405/4 500/147/4 491/146/4
f 209/134/4 208/135/4 474/249/4 465/406/4
f 465/406/4 474/249/4 475/343/4 466/407/4
f 466/407/4 475/343/4 476/342/4 467/408/4
f 467/408/4 476/342/4 477/341/4 468/409/4
f 468/409/4 477/341/4 478/340/4 469/410/4
f 469/410/4 478/340/4 479/339/4 470/411/4
f 470/411/4 479/339/4 480/338/4 471/412/4
f 471/412/4 480/338/4 481/337/4 472/413/4
f 472/413/4 481/337/4 482/145/4 473/144/4
f 42/42/4 209/134/4 465/406/4 419/79/4
f 419/79/4 465/406/4 466/407/4 418/414/4
f 418/414/4 466/407/4 467/408/4 417/415/4
f 417/415/4 467/408/4 468/409/4 416/416/4
f 416/416/4 468/409/4 469/410/4 415/417/4
f 415/417/4 469/410/4 470/411/4 414/418/4
f 414/418/4 470/411/4 471/412/4 413/419/4
f 413/419/4 471/412/4 472/413/4 412/420/4
f 412/420/4 472/413/4 473/144/4 411/143/4
f 173/11/2 618/344/2 726/344/2 242/11/2
f 618/344/2 619/345/2 727/345/2 726/344/2
f 619/345/2 620/347/2 728/347/2 727/345/2
f 620/347/2 621/349/2 729/349/2 728/347/2
f 621/349/2 622/351/2 730/351/2 729/349/2
f 622/351/2 623/353/2 731/353/2 730/351/2
f 623/353/2 624/355/2 732/355/2 731/353/2
f 624/355/2 625/357/2 733/357/2 732/355/2
f 625/357/2 626/68/2 734/68/2 733/357/2
f 30/58/4 392/421/4 464/209/4 53/58/4
f 392/421/4 391/422/4 463/422/4 464/209/4
f 391/422/4 390/423/4 462/424/4 463/422/4
f 390/423/4 389/425/4 461/425/4 462/424/4
f 389/425/4 388/426/4 460/427/4 461/425/4
f 388/426/4 387/428/4 459/428/4 460/427/4
f 387/428/4 386/429/4 458/429/4 459/428/4
f 386/429/4 385/430/4 457/431/4 458/429/4
f 385/430/4 384/63/4 456/78/4 457/431/4
f 26/48/1 374/432/1 446/432/1 49/48/1
f 374/432/1 373/433/1 445/433/1 446/432/1
f 373/433/1 372/434/1 444/434/1 445/433/1
f 372/434/1 371/435/1 443/435/1 444/434/1
f 371/435/1 370/436/1 442/437/1 443/435/1
f 370/436/1 369/438/1 441/438/1 442/437/1
f 369/438/1 368/439/1 440/440/1 441/438/1
f 368/439/1 367/441/1 439/441/1 440/440/1
f 367/441/1 366/53/1 438/76/1 439/441/1
f 32/65/1 383/442/1 455/77/1 55/65/1
f 383/442/1 382/443/1 454/444/1 455/77/1
f 382/443/1 381/445/1 453/446/1 454/444/1
f 381/445/1 380/447/1 452/447/1 453/446/1
f 380/447/1 379/448/1 451/449/1 452/447/1
f 379/448/1 378/450/1 450/450/1 451/449/1
f 378/450/1 377/451/1 449/452/1 450/450/1
f 377/451/1 376/453/1 448/453/1 449/452/1
f 376/453/1 375/67/1 447/67/1 448/453/1
f 28/55/4 365/454/4 437/75/4 51/55/4
f 365/454/4 364/455/4 436/455/4 437/75/4
f 364/455/4 363/456/4 435/457/4 436/455/4
f 363/456/4 362/458/4 434/458/4 435/457/4
f 362/458/4 361/427/4 433/459/4 434/458/4
f 361/427/4 360/460/4 432/460/4 433/459/4
f 360/460/4 359/461/4 431/462/4 432/460/4
f 359/461/4 358/133/4 430/106/4 431/462/4
f 358/133/4 357/57/4 429/81/4 430/106/4
f 18/2/6 348/463/6 420/464/6 41/2/6
f 348/463/6 349/465/6 421/466/6 420/464/6
f 349/465/6 350/467/6 422/468/6 421/466/6
f 350/467/6 351/469/6 423/469/6 422/468/6
f 351/469/6 352/470/6 424/471/6 423/469/6
f 352/470/6 353/472/6 425/473/6 424/471/6
f 353/472/6 354/474/6 426/474/6 425/473/6
f 354/474/6 355/475/6 427/475/6 426/474/6
f 355/475/6 356/35/6 428/73/6 427/475/6
f 20/38/2 339/476/2 411/143/2 43/38/2
f 339/476/2 340/477/2 412/420/2 411/143/2
f 340/477/2 341/478/2 413/419/2 412/420/2
f 341/478/2 342/479/2 414/418/2 413/419/2
f 342/479/2 343/480/2 415/417/2 414/418/2
f 343/480/2 344/481/2 416/416/2 415/417/2
f 344/481/2 345/482/2 417/415/2 416/416/2
f 345/482/2 346/483/2 418/414/2 417/415/2
f 346/483/2 347/43/2 419/79/2 418/414/2
f 10/12/6 330/484/6 402/485/6 34/12/6
f 330/484/6 331/486/6 403/486/6 402/485/6
f 331/486/6 332/487/6 404/488/6 403/486/6
f 332/487/6 333/489/6 405/490/6 404/488/6
f 333/489/6 334/491/6 406/492/6 405/490/6
f 334/491/6 335/493/6 407/494/6 406/492/6
f 335/493/6 336/495/6 408/495/6 407/494/6
f 336/495/6 337/496/6 409/496/6 408/495/6
f 337/496/6 338/18/6 410/69/6 409/496/6
f 54/59/2 53/58/2 464/209/2 447/67/2
f 433/459/5 442/437/5 744/437/5 737/459/5
f 448/453/2 463/422/2 462/424/2 449/452/2
f 449/452/2 462/424/2 461/425/2 450/450/2
f 437/75/1 436/455/1 739/455/1 740/75/1
f 451/449/2 460/427/2 459/428/2 452/447/2
f 452/447/2 459/428/2 458/429/2 453/446/2
f 451/449/4 450/450/4 749/450/4 750/449/4
f 454/444/2 457/431/2 456/78/2 455/77/2
f 50/49/6 49/48/6 446/432/6 429/81/6
f 429/81/6 446/432/6 445/433/6 430/106/6
f 458/429/1 457/431/1 753/431/1 754/429/1
f 431/462/6 444/434/6 443/435/6 432/460/6
f 432/460/6 443/435/6 442/437/6 433/459/6
f 460/427/3 451/449/3 750/449/3 755/427/3
f 434/458/6 441/438/6 440/440/6 435/457/6
f 435/457/6 440/440/6 439/441/6 436/455/6
f 444/434/3 431/462/3 736/462/3 745/434/3
f 201/3/4 41/2/4 420/464/4 537/280/4
f 537/280/4 420/464/4 421/466/4 538/281/4
f 538/281/4 421/466/4 422/468/4 539/282/4
f 539/282/4 422/468/4 423/469/4 540/283/4
f 540/283/4 423/469/4 424/471/4 541/284/4
f 541/284/4 424/471/4 425/473/4 542/285/4
f 542/285/4 425/473/4 426/474/4 543/286/4
f 543/286/4 426/474/4 427/475/4 544/287/4
f 544/287/4 427/475/4 428/73/4 545/72/4
f 173/11/1 34/12/1 402/485/1 618/344/1
f 618/344/1 402/485/1 403/486/1 619/345/1
f 619/345/1 403/486/1 404/488/1 620/347/1
f 620/347/1 404/488/1 405/490/1 621/349/1
f 621/349/1 405/490/1 406/492/1 622/351/1
f 622/351/1 406/492/1 407/494/1 623/353/1
f 623/353/1 407/494/1 408/495/1 624/355/1
f 624/355/1 408/495/1 409/496/1 625/357/1
f 625/357/1 409/496/1 410/69/1 626/68/1
f 6/64/2 320/497/2 383/442/2 32/65/2
f 320/497/2 319/498/2 382/443/2 383/442/2
f 319/498/2 318/499/2 381/445/2 382/443/2
f 318/499/2 317/500/2 380/447/2 381/445/2
f 317/500/2 316/501/2 379/448/2 380/447/2
f 316/501/2 315/502/2 378/450/2 379/448/2
f 315/502/2 314/503/2 377/451/2 378/450/2
f 314/503/2 313/504/2 376/453/2 377/451/2
f 313/504/2 312/66/2 375/67/2 376/453/2
f 4/16/2 302/208/2 392/421/2 30/58/2
f 302/208/2 301/505/2 391/422/2 392/421/2
f 301/505/2 300/506/2 390/423/2 391/422/2
f 300/506/2 299/507/2 389/425/2 390/423/2
f 299/507/2 298/508/2 388/426/2 389/425/2
f 298/508/2 297/509/2 387/428/2 388/426/2
f 297/509/2 296/510/2 386/429/2 387/428/2
f 296/510/2 295/511/2 385/430/2 386/429/2
f 295/511/2 294/60/2 384/63/2 385/430/2
f 1/54/6 293/512/6 365/454/6 28/55/6
f 293/512/6 292/210/6 364/455/6 365/454/6
f 292/210/6 291/211/6 363/456/6 364/455/6
f 291/211/6 290/212/6 362/458/6 363/456/6
f 290/212/6 289/513/6 361/427/6 362/458/6
f 289/513/6 288/509/6 360/460/6 361/427/6
f 288/509/6 287/514/6 359/461/6 360/460/6
f 287/514/6 286/515/6 358/133/6 359/461/6
f 286/515/6 285/56/6 357/57/6 358/133/6
f 7/47/6 311/516/6 374/432/6 26/48/6
f 311/516/6 310/517/6 373/433/6 374/432/6
f 310/517/6 309/518/6 372/434/6 373/433/6
f 309/518/6 308/519/6 371/435/6 372/434/6
f 308/519/6 307/520/6 370/436/6 371/435/6
f 307/520/6 306/521/6 369/438/6 370/436/6
f 306/521/6 305/522/6 368/439/6 369/438/6
f 305/522/6 304/523/6 367/441/6 368/439/6
f 304/523/6 303/50/6 366/53/6 367/441/6
f 5/37/4 303/524/4 339/476/4 20/38/4
f 303/524/4 304/525/4 340/477/4 339/476/4
f 304/525/4 305/526/4 341/478/4 340/477/4
f 305/526/4 306/527/4 342/479/4 341/478/4
f 306/527/4 307/528/4 343/480/4 342/479/4
f 307/528/4 308/529/4 344/481/4 343/480/4
f 308/529/4 309/530/4 345/482/4 344/481/4
f 309/530/4 310/531/4 346/483/4 345/482/4
f 310/531/4 311/40/4 347/43/4 346/483/4
f 8/32/4 312/532/4 348/463/4 18/2/4
f 312/532/4 313/533/4 349/465/4 348/463/4
f 313/533/4 314/534/4 350/467/4 349/465/4
f 314/534/4 315/535/4 351/469/4 350/467/4
f 315/535/4 316/536/4 352/470/4 351/469/4
f 316/536/4 317/537/4 353/472/4 352/470/4
f 317/537/4 318/538/4 354/474/4 353/472/4
f 318/538/4 319/539/4 355/475/4 354/474/4
f 319/539/4 320/33/4 356/35/4 355/475/4
f 3/20/1 285/540/1 321/541/1 12/21/1
f 285/540/1 286/542/1 322/543/1 321/541/1
f 286/542/1 287/544/1 323/545/1 322/543/1
f 287/544/1 288/546/1 324/387/1 323/545/1
f 288/546/1 289/547/1 325/548/1 324/387/1
f 289/547/1 290/549/1 326/550/1 325/548/1
f 290/549/1 291/551/1 327/552/1 326/550/1
f 291/551/1 292/553/1 328/554/1 327/552/1
f 292/553/1 293/23/1 329/6/1 328/554/1
f 2/14/1 294/555/1 330/484/1 10/12/1
f 294/555/1 295/556/1 331/486/1 330/484/1
f 295/556/1 296/557/1 332/487/1 331/486/1
f 296/557/1 297/558/1 333/489/1 332/487/1
f 297/558/1 298/559/1 334/491/1 333/489/1
f 298/559/1 299/560/1 335/493/1 334/491/1
f 299/560/1 300/561/1 336/495/1 335/493/1
f 300/561/1 301/562/1 337/496/1 336/495/1
f 301/562/1 302/15/1 338/18/1 337/496/1
f 12/21/2 321/541/2 393/161/2 35/21/2
f 321/541/2 322/543/2 394/389/2 393/161/2
f 322/543/2 323/545/2 395/388/2 394/389/2
f 323/545/2 324/387/2 396/387/2 395/388/2
f 324/387/2 325/548/2 397/386/2 396/387/2
f 325/548/2 326/550/2 398/385/2 397/386/2
f 326/550/2 327/552/2 399/384/2 398/385/2
f 327/552/2 328/554/2 400/383/2 399/384/2
f 328/554/2 329/6/2 401/6/2 400/383/2
f 747/67/2 758/209/2 757/422/2 748/453/2
f 749/450/2 756/425/2 755/427/2 750/449/2
f 751/446/2 754/429/2 753/431/2 752/444/2
f 735/106/6 746/433/6 745/434/6 736/462/6
f 737/459/6 744/437/6 743/438/6 738/458/6
f 739/455/6 742/441/6 741/76/6 740/75/6
f 453/446/5 458/429/5 754/429/5 751/446/5
f 445/433/4 444/434/4 745/434/4 746/433/4
f 441/438/3 434/458/3 738/458/3 743/438/3
f 431/462/1 430/106/1 735/106/1 736/462/1
f 457/431/3 454/444/3 752/444/3 753/431/3
f 461/425/1 460/427/1 755/427/1 756/425/1
f 439/441/4 438/76/4 741/76/4 742/441/4
f 447/67/5 464/209/5 758/209/5 747/67/5
f 454/444/4 453/446/4 751/446/4 752/444/4
f 463/422/3 448/453/3 748/453/3 757/422/3
f 436/455/5 439/441/5 742/441/5 739/455/5
f 448/453/4 447/67/4 747/67/4 748/453/4
f 438/76/3 437/75/3 740/75/3 741/76/3
f 434/458/1 433/459/1 737/459/1 738/458/1
f 430/106/5 445/433/5 746/433/5 735/106/5
f 464/209/1 463/422/1 757/422/1 758/209/1
f 450/450/5 461/425/5 756/425/5 749/450/5
f 442/437/4 441/438/4 743/438/4 744/437/4
